solid OpenSCAD_Model
  facet normal -1 0 0
    outer loop
      vertex 0 -1.375 0
      vertex 0 13.625 13.75
      vertex 0 13.625 0
    endloop
  endfacet
  facet normal -1 -0 0
    outer loop
      vertex 0 13.625 13.75
      vertex 0 -1.375 0
      vertex 0 -1.375 13.75
    endloop
  endfacet
  facet normal 0 0 1
    outer loop
      vertex 6.55 0 13.75
      vertex 14.25 13.625 13.75
      vertex 6.55 12.55 13.75
    endloop
  endfacet
  facet normal -0 0 1
    outer loop
      vertex 0 13.625 13.75
      vertex 6.55 12.55 13.75
      vertex 14.25 13.625 13.75
    endloop
  endfacet
  facet normal 0 0 1
    outer loop
      vertex 2 12.55 13.75
      vertex 0 13.625 13.75
      vertex 2 0 13.75
    endloop
  endfacet
  facet normal 0 0 1
    outer loop
      vertex 6.55 12.55 13.75
      vertex 0 13.625 13.75
      vertex 2 12.55 13.75
    endloop
  endfacet
  facet normal 0 0 1
    outer loop
      vertex 14.25 13.625 13.75
      vertex 6.55 0 13.75
      vertex 14.25 -1.375 13.75
    endloop
  endfacet
  facet normal 0 0 1
    outer loop
      vertex 0 -1.375 13.75
      vertex 6.55 0 13.75
      vertex 2 0 13.75
    endloop
  endfacet
  facet normal 0 0 1
    outer loop
      vertex 6.55 0 13.75
      vertex 0 -1.375 13.75
      vertex 14.25 -1.375 13.75
    endloop
  endfacet
  facet normal 0 0 1
    outer loop
      vertex 0 -1.375 13.75
      vertex 2 0 13.75
      vertex 0 13.625 13.75
    endloop
  endfacet
  facet normal 1 -0 0
    outer loop
      vertex 14.25 -1.375 13.75
      vertex 14.25 13.625 0
      vertex 14.25 13.625 13.75
    endloop
  endfacet
  facet normal 1 0 0
    outer loop
      vertex 14.25 13.625 0
      vertex 14.25 -1.375 13.75
      vertex 14.25 -1.375 0
    endloop
  endfacet
  facet normal 0 1 0
    outer loop
      vertex 8.25 13.625 11.75
      vertex 14.25 13.625 13.75
      vertex 12.25 13.625 11.75
    endloop
  endfacet
  facet normal 0 1 -0
    outer loop
      vertex 14.25 13.625 0
      vertex 12.25 13.625 11.75
      vertex 14.25 13.625 13.75
    endloop
  endfacet
  facet normal 0 1 0
    outer loop
      vertex 12.25 13.625 11.75
      vertex 14.25 13.625 0
      vertex 12.25 13.625 0
    endloop
  endfacet
  facet normal 0 1 0
    outer loop
      vertex 14.25 13.625 13.75
      vertex 8.25 13.625 11.75
      vertex 0 13.625 13.75
    endloop
  endfacet
  facet normal 0 1 0
    outer loop
      vertex 0 13.625 0
      vertex 8.25 13.625 11.75
      vertex 8.25 13.625 0
    endloop
  endfacet
  facet normal 0 1 0
    outer loop
      vertex 8.25 13.625 11.75
      vertex 0 13.625 0
      vertex 0 13.625 13.75
    endloop
  endfacet
  facet normal 0 0 -1
    outer loop
      vertex 0 -1.375 0
      vertex 8.25 13.625 0
      vertex 8.25 -1.375 0
    endloop
  endfacet
  facet normal -0 0 -1
    outer loop
      vertex 8.25 13.625 0
      vertex 0 -1.375 0
      vertex 0 13.625 0
    endloop
  endfacet
  facet normal 0 0 -1
    outer loop
      vertex 12.25 -1.375 0
      vertex 14.25 13.625 0
      vertex 14.25 -1.375 0
    endloop
  endfacet
  facet normal -0 0 -1
    outer loop
      vertex 14.25 13.625 0
      vertex 12.25 -1.375 0
      vertex 12.25 13.625 0
    endloop
  endfacet
  facet normal 0 -1 0
    outer loop
      vertex 0 -1.375 13.75
      vertex 8.25 -1.375 11.75
      vertex 14.25 -1.375 13.75
    endloop
  endfacet
  facet normal 0 -1 0
    outer loop
      vertex 0 -1.375 0
      vertex 8.25 -1.375 11.75
      vertex 0 -1.375 13.75
    endloop
  endfacet
  facet normal 0 -1 -0
    outer loop
      vertex 8.25 -1.375 11.75
      vertex 0 -1.375 0
      vertex 8.25 -1.375 0
    endloop
  endfacet
  facet normal 0 -1 0
    outer loop
      vertex 12.25 -1.375 11.75
      vertex 14.25 -1.375 13.75
      vertex 8.25 -1.375 11.75
    endloop
  endfacet
  facet normal 0 -1 0
    outer loop
      vertex 14.25 -1.375 0
      vertex 12.25 -1.375 11.75
      vertex 12.25 -1.375 0
    endloop
  endfacet
  facet normal 0 -1 0
    outer loop
      vertex 12.25 -1.375 11.75
      vertex 14.25 -1.375 0
      vertex 14.25 -1.375 13.75
    endloop
  endfacet
  facet normal 1 -0 0
    outer loop
      vertex 8.25 -1.375 11.75
      vertex 8.25 13.625 0
      vertex 8.25 13.625 11.75
    endloop
  endfacet
  facet normal 1 0 0
    outer loop
      vertex 8.25 13.625 0
      vertex 8.25 -1.375 11.75
      vertex 8.25 -1.375 0
    endloop
  endfacet
  facet normal 0 0 -1
    outer loop
      vertex 8.25 -1.375 11.75
      vertex 12.25 13.625 11.75
      vertex 12.25 -1.375 11.75
    endloop
  endfacet
  facet normal -0 0 -1
    outer loop
      vertex 12.25 13.625 11.75
      vertex 8.25 -1.375 11.75
      vertex 8.25 13.625 11.75
    endloop
  endfacet
  facet normal -1 0 0
    outer loop
      vertex 12.25 -1.375 0
      vertex 12.25 13.625 11.75
      vertex 12.25 13.625 0
    endloop
  endfacet
  facet normal -1 -0 0
    outer loop
      vertex 12.25 13.625 11.75
      vertex 12.25 -1.375 0
      vertex 12.25 -1.375 11.75
    endloop
  endfacet
  facet normal 1 -0 0
    outer loop
      vertex 2 0 13.75
      vertex 2 12.55 2
      vertex 2 12.55 13.75
    endloop
  endfacet
  facet normal 1 0 0
    outer loop
      vertex 2 12.55 2
      vertex 2 0 13.75
      vertex 2 0 2
    endloop
  endfacet
  facet normal -1 0 0
    outer loop
      vertex 6.55 0 2
      vertex 6.55 12.55 13.75
      vertex 6.55 12.55 2
    endloop
  endfacet
  facet normal -1 -0 0
    outer loop
      vertex 6.55 12.55 13.75
      vertex 6.55 0 2
      vertex 6.55 0 13.75
    endloop
  endfacet
  facet normal -0 0 1
    outer loop
      vertex 2 12.55 2
      vertex 6.55 0 2
      vertex 6.55 12.55 2
    endloop
  endfacet
  facet normal 0 0 1
    outer loop
      vertex 6.55 0 2
      vertex 2 12.55 2
      vertex 2 0 2
    endloop
  endfacet
  facet normal 0 1 -0
    outer loop
      vertex 6.55 0 2
      vertex 2 0 13.75
      vertex 6.55 0 13.75
    endloop
  endfacet
  facet normal 0 1 0
    outer loop
      vertex 2 0 13.75
      vertex 6.55 0 2
      vertex 2 0 2
    endloop
  endfacet
  facet normal 0 -1 0
    outer loop
      vertex 2 12.55 2
      vertex 6.55 12.55 13.75
      vertex 2 12.55 13.75
    endloop
  endfacet
  facet normal 0 -1 -0
    outer loop
      vertex 6.55 12.55 13.75
      vertex 2 12.55 2
      vertex 6.55 12.55 2
    endloop
  endfacet
endsolid OpenSCAD_Model
