solid OpenSCAD_Model
  facet normal 0 0 -1
    outer loop
      vertex -5 -25 -10
      vertex 5 -25 -10
      vertex 4.04508 -27.9389 -10
    endloop
  endfacet
  facet normal 0 0 -1
    outer loop
      vertex 5 -25 -10
      vertex -5 -25 -10
      vertex 5 25 -10
    endloop
  endfacet
  facet normal 0 0 -1
    outer loop
      vertex -5 -25 -10
      vertex 4.04508 -27.9389 -10
      vertex 1.54508 -29.7553 -10
    endloop
  endfacet
  facet normal 0 0 -1
    outer loop
      vertex -5 25 -10
      vertex 5 25 -10
      vertex -5 -25 -10
    endloop
  endfacet
  facet normal 0 0 -1
    outer loop
      vertex -5 -25 -10
      vertex 1.54508 -29.7553 -10
      vertex -1.54508 -29.7553 -10
    endloop
  endfacet
  facet normal 0 0 -1
    outer loop
      vertex 5 25 -10
      vertex -5 25 -10
      vertex 4.04508 27.9389 -10
    endloop
  endfacet
  facet normal 0 0 -1
    outer loop
      vertex -5 -25 -10
      vertex -1.54508 -29.7553 -10
      vertex -4.04508 -27.9389 -10
    endloop
  endfacet
  facet normal -0 0 -1
    outer loop
      vertex 4.04508 27.9389 -10
      vertex -5 25 -10
      vertex 1.54508 29.7553 -10
    endloop
  endfacet
  facet normal -0 0 -1
    outer loop
      vertex 1.54508 29.7553 -10
      vertex -5 25 -10
      vertex -1.54508 29.7553 -10
    endloop
  endfacet
  facet normal 0 0 -1
    outer loop
      vertex -1.54508 29.7553 -10
      vertex -5 25 -10
      vertex -4.04508 27.9389 -10
    endloop
  endfacet
  facet normal -1 0 0
    outer loop
      vertex -5 25 -10
      vertex -5 0 10
      vertex -5 25 10
    endloop
  endfacet
  facet normal -1 0 0
    outer loop
      vertex -5 -25 -10
      vertex -5 0 10
      vertex -5 25 -10
    endloop
  endfacet
  facet normal -1 -0 0
    outer loop
      vertex -5 0 10
      vertex -5 -25 -10
      vertex -5 -25 10
    endloop
  endfacet
  facet normal 1 -0 0
    outer loop
      vertex 5 23.1221 10
      vertex 5 25 -10
      vertex 5 25 10
    endloop
  endfacet
  facet normal 1 -0 0
    outer loop
      vertex 5 4.79384 10
      vertex 5 25 -10
      vertex 5 23.1221 10
    endloop
  endfacet
  facet normal 1 -0 0
    outer loop
      vertex 5 -4.79384 10
      vertex 5 25 -10
      vertex 5 4.79384 10
    endloop
  endfacet
  facet normal 1 0 0
    outer loop
      vertex 5 -25 -10
      vertex 5 -4.79384 10
      vertex 5 -23.1221 10
    endloop
  endfacet
  facet normal 1 0 0
    outer loop
      vertex 5 -25 -10
      vertex 5 -23.1221 10
      vertex 5 -25 10
    endloop
  endfacet
  facet normal 1 0 0
    outer loop
      vertex 5 -4.79384 10
      vertex 5 -25 -10
      vertex 5 25 -10
    endloop
  endfacet
  facet normal 0.951057 0.309017 0
    outer loop
      vertex 5 25 10
      vertex 4.04508 27.9389 -10
      vertex 4.04508 27.9389 10
    endloop
  endfacet
  facet normal 0.951057 0.309017 0
    outer loop
      vertex 4.04508 27.9389 -10
      vertex 5 25 10
      vertex 5 25 -10
    endloop
  endfacet
  facet normal 0 -1 0
    outer loop
      vertex -1.54508 -29.7553 -10
      vertex 1.54508 -29.7553 10
      vertex -1.54508 -29.7553 10
    endloop
  endfacet
  facet normal 0 -1 -0
    outer loop
      vertex 1.54508 -29.7553 10
      vertex -1.54508 -29.7553 -10
      vertex 1.54508 -29.7553 -10
    endloop
  endfacet
  facet normal 0.587785 -0.809017 0
    outer loop
      vertex 1.54508 -29.7553 -10
      vertex 4.04508 -27.9389 10
      vertex 1.54508 -29.7553 10
    endloop
  endfacet
  facet normal 0.587785 -0.809017 0
    outer loop
      vertex 4.04508 -27.9389 10
      vertex 1.54508 -29.7553 -10
      vertex 4.04508 -27.9389 -10
    endloop
  endfacet
  facet normal 0 0 -1
    outer loop
      vertex 5 -4.79384 10
      vertex 40 5 10
      vertex 40 -5 10
    endloop
  endfacet
  facet normal 0 0 -1
    outer loop
      vertex 40 5 10
      vertex 5 -4.79384 10
      vertex 5 4.79384 10
    endloop
  endfacet
  facet normal 0 0 -1
    outer loop
      vertex 40.9549 -77.9389 10
      vertex 50 -75 10
      vertex 49.0451 -77.9389 10
    endloop
  endfacet
  facet normal 0 0 -1
    outer loop
      vertex 50 -75 10
      vertex 40 -5 10
      vertex 50 75 10
    endloop
  endfacet
  facet normal 0 0 -1
    outer loop
      vertex 40.9549 -77.9389 10
      vertex 49.0451 -77.9389 10
      vertex 46.5451 -79.7553 10
    endloop
  endfacet
  facet normal 0 0 -1
    outer loop
      vertex 40 5 10
      vertex 50 75 10
      vertex 40 -5 10
    endloop
  endfacet
  facet normal 0 0 -1
    outer loop
      vertex 40.9549 -77.9389 10
      vertex 46.5451 -79.7553 10
      vertex 43.4549 -79.7553 10
    endloop
  endfacet
  facet normal 0 0 -1
    outer loop
      vertex 40 62.011 10
      vertex 50 75 10
      vertex 40 5 10
    endloop
  endfacet
  facet normal -0 0 -1
    outer loop
      vertex 50 -75 10
      vertex 40.9549 -77.9389 10
      vertex 40 -62.011 10
    endloop
  endfacet
  facet normal 0 -0 -1
    outer loop
      vertex 40.9549 77.9389 10
      vertex 50 75 10
      vertex 40 62.011 10
    endloop
  endfacet
  facet normal 0 0 -1
    outer loop
      vertex 50 -75 10
      vertex 40 -62.011 10
      vertex 40 -5 10
    endloop
  endfacet
  facet normal 0 0 -1
    outer loop
      vertex -1.54508 -29.7553 10
      vertex 40 -62.011 10
      vertex 40.9549 -77.9389 10
    endloop
  endfacet
  facet normal 0 0 -1
    outer loop
      vertex 40 -62.011 10
      vertex 4.04508 -27.9389 10
      vertex 5 -25 10
    endloop
  endfacet
  facet normal 0 0 -1
    outer loop
      vertex 40 -62.011 10
      vertex 1.54508 -29.7553 10
      vertex 4.04508 -27.9389 10
    endloop
  endfacet
  facet normal 0 0 -1
    outer loop
      vertex 40 -62.011 10
      vertex -1.54508 -29.7553 10
      vertex 1.54508 -29.7553 10
    endloop
  endfacet
  facet normal -0 -0 -1
    outer loop
      vertex -1.54508 -29.7553 10
      vertex 40.9549 -77.9389 10
      vertex -4.04508 -27.9389 10
    endloop
  endfacet
  facet normal 0 0 -1
    outer loop
      vertex 50 75 10
      vertex 40.9549 77.9389 10
      vertex 49.0451 77.9389 10
    endloop
  endfacet
  facet normal 0 0 -1
    outer loop
      vertex 49.0451 77.9389 10
      vertex 40.9549 77.9389 10
      vertex 46.5451 79.7553 10
    endloop
  endfacet
  facet normal -0 0 -1
    outer loop
      vertex 46.5451 79.7553 10
      vertex 40.9549 77.9389 10
      vertex 43.4549 79.7553 10
    endloop
  endfacet
  facet normal 0 0 -1
    outer loop
      vertex 5 25 10
      vertex 40 62.011 10
      vertex 5 23.1221 10
    endloop
  endfacet
  facet normal 0 0 -1
    outer loop
      vertex 4.04508 27.9389 10
      vertex 40 62.011 10
      vertex 5 25 10
    endloop
  endfacet
  facet normal 0 0 -1
    outer loop
      vertex 1.54508 29.7553 10
      vertex 40 62.011 10
      vertex 4.04508 27.9389 10
    endloop
  endfacet
  facet normal 0 0 -1
    outer loop
      vertex -1.54508 29.7553 10
      vertex 40 62.011 10
      vertex 1.54508 29.7553 10
    endloop
  endfacet
  facet normal -0 0 -1
    outer loop
      vertex 40 62.011 10
      vertex -1.54508 29.7553 10
      vertex 40.9549 77.9389 10
    endloop
  endfacet
  facet normal 0 0 -1
    outer loop
      vertex 40.9549 77.9389 10
      vertex -1.54508 29.7553 10
      vertex -4.04508 27.9389 10
    endloop
  endfacet
  facet normal 0 0 -1
    outer loop
      vertex 40 -62.011 10
      vertex 5 -25 10
      vertex 5 -23.1221 10
    endloop
  endfacet
  facet normal -0 0 1
    outer loop
      vertex 4.04508 22.0611 10
      vertex 5 4.79384 10
      vertex 5 23.1221 10
    endloop
  endfacet
  facet normal -0 0 1
    outer loop
      vertex 1.54508 20.2447 10
      vertex 5 4.79384 10
      vertex 4.04508 22.0611 10
    endloop
  endfacet
  facet normal 0 0 1
    outer loop
      vertex -1.54508 4.75528 10
      vertex 1.54508 20.2447 10
      vertex -1.54508 20.2447 10
    endloop
  endfacet
  facet normal 0 0 1
    outer loop
      vertex 1.54508 20.2447 10
      vertex -1.54508 4.75528 10
      vertex 5 4.79384 10
    endloop
  endfacet
  facet normal 0 0 1
    outer loop
      vertex -4.04508 22.0611 10
      vertex -1.54508 4.75528 10
      vertex -1.54508 20.2447 10
    endloop
  endfacet
  facet normal 0 0 1
    outer loop
      vertex -4.04508 22.0611 10
      vertex -4.04508 2.93893 10
      vertex -1.54508 4.75528 10
    endloop
  endfacet
  facet normal 0 0 1
    outer loop
      vertex -5 25 10
      vertex -4.04508 2.93893 10
      vertex -4.04508 22.0611 10
    endloop
  endfacet
  facet normal 0 0 1
    outer loop
      vertex -4.04508 2.93893 10
      vertex -5 25 10
      vertex -5 0 10
    endloop
  endfacet
  facet normal 0 0 1
    outer loop
      vertex 5 -4.79384 10
      vertex 4.04508 -22.0611 10
      vertex 5 -23.1221 10
    endloop
  endfacet
  facet normal 0 0 1
    outer loop
      vertex 5 -4.79384 10
      vertex 1.54508 -20.2447 10
      vertex 4.04508 -22.0611 10
    endloop
  endfacet
  facet normal 0 0 1
    outer loop
      vertex -1.54508 -4.75528 10
      vertex 1.54508 -20.2447 10
      vertex 5 -4.79384 10
    endloop
  endfacet
  facet normal 0 0 1
    outer loop
      vertex -1.54508 -4.75528 10
      vertex -1.54508 -20.2447 10
      vertex 1.54508 -20.2447 10
    endloop
  endfacet
  facet normal 0 0 1
    outer loop
      vertex -4.04508 -2.93893 10
      vertex -1.54508 -20.2447 10
      vertex -1.54508 -4.75528 10
    endloop
  endfacet
  facet normal 0 0 1
    outer loop
      vertex -4.04508 -2.93893 10
      vertex -4.04508 -22.0611 10
      vertex -1.54508 -20.2447 10
    endloop
  endfacet
  facet normal 0 0 1
    outer loop
      vertex -5 0 10
      vertex -4.04508 -22.0611 10
      vertex -4.04508 -2.93893 10
    endloop
  endfacet
  facet normal 0 0 1
    outer loop
      vertex -4.04508 -22.0611 10
      vertex -5 0 10
      vertex -5 -25 10
    endloop
  endfacet
  facet normal -0.587785 0.809017 0
    outer loop
      vertex -1.54508 29.7553 -10
      vertex -4.04508 27.9389 10
      vertex -1.54508 29.7553 10
    endloop
  endfacet
  facet normal -0.587785 0.809017 0
    outer loop
      vertex -4.04508 27.9389 10
      vertex -1.54508 29.7553 -10
      vertex -4.04508 27.9389 -10
    endloop
  endfacet
  facet normal -0.951057 -0.309017 0
    outer loop
      vertex -4.04508 -27.9389 -10
      vertex -5 -25 10
      vertex -5 -25 -10
    endloop
  endfacet
  facet normal -0.951057 -0.309017 0
    outer loop
      vertex -5 -25 10
      vertex -4.04508 -27.9389 -10
      vertex -4.04508 -27.9389 10
    endloop
  endfacet
  facet normal 0.951057 -0.309017 0
    outer loop
      vertex 4.04508 -27.9389 10
      vertex 5 -25 -10
      vertex 5 -25 10
    endloop
  endfacet
  facet normal 0.951057 -0.309017 0
    outer loop
      vertex 5 -25 -10
      vertex 4.04508 -27.9389 10
      vertex 4.04508 -27.9389 -10
    endloop
  endfacet
  facet normal -0.951057 0.309017 0
    outer loop
      vertex -5 25 -10
      vertex -4.04508 27.9389 10
      vertex -4.04508 27.9389 -10
    endloop
  endfacet
  facet normal -0.951057 0.309017 0
    outer loop
      vertex -4.04508 27.9389 10
      vertex -5 25 -10
      vertex -5 25 10
    endloop
  endfacet
  facet normal -0.587785 -0.809017 0
    outer loop
      vertex -4.04508 -27.9389 -10
      vertex -1.54508 -29.7553 10
      vertex -4.04508 -27.9389 10
    endloop
  endfacet
  facet normal -0.587785 -0.809017 -0
    outer loop
      vertex -1.54508 -29.7553 10
      vertex -4.04508 -27.9389 -10
      vertex -1.54508 -29.7553 -10
    endloop
  endfacet
  facet normal 0 1 -0
    outer loop
      vertex 1.54508 29.7553 -10
      vertex -1.54508 29.7553 10
      vertex 1.54508 29.7553 10
    endloop
  endfacet
  facet normal 0 1 0
    outer loop
      vertex -1.54508 29.7553 10
      vertex 1.54508 29.7553 -10
      vertex -1.54508 29.7553 -10
    endloop
  endfacet
  facet normal 0.587785 0.809017 -0
    outer loop
      vertex 4.04508 27.9389 -10
      vertex 1.54508 29.7553 10
      vertex 4.04508 27.9389 10
    endloop
  endfacet
  facet normal 0.587785 0.809017 0
    outer loop
      vertex 1.54508 29.7553 10
      vertex 4.04508 27.9389 -10
      vertex 1.54508 29.7553 -10
    endloop
  endfacet
  facet normal -1 0 0
    outer loop
      vertex 40 62.011 10
      vertex 40 5 10
      vertex 40 62.011 25.98
    endloop
  endfacet
  facet normal -1 0 0
    outer loop
      vertex 40 70.9757 29.6551
      vertex 40 75 30
      vertex 40 71.0037 29.6575
    endloop
  endfacet
  facet normal -1 0 0
    outer loop
      vertex 40 5 30
      vertex 40 66.6779 28.8218
      vertex 40 66.571 28.8011
    endloop
  endfacet
  facet normal -1 0 0
    outer loop
      vertex 40 5 30
      vertex 40 62.011 25.98
      vertex 40 5 10
    endloop
  endfacet
  facet normal -1 0 0
    outer loop
      vertex 40 62.011 25.98
      vertex 40 5 30
      vertex 40 62.2915 26.6286
    endloop
  endfacet
  facet normal -1 0 0
    outer loop
      vertex 40 62.2915 26.6286
      vertex 40 5 30
      vertex 40 63.0417 27.4195
    endloop
  endfacet
  facet normal -1 0 0
    outer loop
      vertex 40 63.0417 27.4195
      vertex 40 5 30
      vertex 40 63.151 27.5347
    endloop
  endfacet
  facet normal -1 0 0
    outer loop
      vertex 40 63.151 27.5347
      vertex 40 5 30
      vertex 40 63.6078 27.8341
    endloop
  endfacet
  facet normal -1 0 0
    outer loop
      vertex 40 70.9757 29.6551
      vertex 40 5 30
      vertex 40 75 30
    endloop
  endfacet
  facet normal -1 0 0
    outer loop
      vertex 40 66.6779 28.8218
      vertex 40 5 30
      vertex 40 70.9757 29.6551
    endloop
  endfacet
  facet normal -1 0 0
    outer loop
      vertex 40 63.6078 27.8341
      vertex 40 5 30
      vertex 40 66.571 28.8011
    endloop
  endfacet
  facet normal -1 0 0
    outer loop
      vertex 40 -62.011 25.98
      vertex 40 -5 10
      vertex 40 -62.011 10
    endloop
  endfacet
  facet normal -1 0 0
    outer loop
      vertex 40 -5 10
      vertex 40 -62.011 25.98
      vertex 40 -5 30
    endloop
  endfacet
  facet normal -1 0 0
    outer loop
      vertex 40 -62.2915 26.6286
      vertex 40 -5 30
      vertex 40 -62.011 25.98
    endloop
  endfacet
  facet normal -1 0 0
    outer loop
      vertex 40 -62.4268 26.7712
      vertex 40 -5 30
      vertex 40 -62.2915 26.6286
    endloop
  endfacet
  facet normal -1 0 0
    outer loop
      vertex 40 -63.151 27.5347
      vertex 40 -5 30
      vertex 40 -62.4268 26.7712
    endloop
  endfacet
  facet normal -1 0 0
    outer loop
      vertex 40 -63.6078 27.8341
      vertex 40 -5 30
      vertex 40 -63.151 27.5347
    endloop
  endfacet
  facet normal -1 0 0
    outer loop
      vertex 40 -66.571 28.8011
      vertex 40 -5 30
      vertex 40 -63.6078 27.8341
    endloop
  endfacet
  facet normal -1 0 0
    outer loop
      vertex 40 -70.9426 29.6486
      vertex 40 -5 30
      vertex 40 -66.571 28.8011
    endloop
  endfacet
  facet normal -1 0 0
    outer loop
      vertex 40 -70.9757 29.6551
      vertex 40 -5 30
      vertex 40 -70.9426 29.6486
    endloop
  endfacet
  facet normal -1 0 0
    outer loop
      vertex 40 -71.0037 29.6575
      vertex 40 -5 30
      vertex 40 -70.9757 29.6551
    endloop
  endfacet
  facet normal -1 -0 0
    outer loop
      vertex 40 -5 30
      vertex 40 -71.0037 29.6575
      vertex 40 -75 30
    endloop
  endfacet
  facet normal 1 -0 0
    outer loop
      vertex 50 -75 30
      vertex 50 75 10
      vertex 50 75 30
    endloop
  endfacet
  facet normal 1 0 0
    outer loop
      vertex 50 75 10
      vertex 50 -75 30
      vertex 50 -75 10
    endloop
  endfacet
  facet normal 0.951057 0.309017 0
    outer loop
      vertex 50 75 30
      vertex 49.0451 77.9389 10
      vertex 49.0451 77.9389 30
    endloop
  endfacet
  facet normal 0.951057 0.309017 0
    outer loop
      vertex 49.0451 77.9389 10
      vertex 50 75 30
      vertex 50 75 10
    endloop
  endfacet
  facet normal 0 -1 0
    outer loop
      vertex 43.4549 -79.7553 10
      vertex 46.5451 -79.7553 30
      vertex 43.4549 -79.7553 30
    endloop
  endfacet
  facet normal 0 -1 -0
    outer loop
      vertex 46.5451 -79.7553 30
      vertex 43.4549 -79.7553 10
      vertex 46.5451 -79.7553 10
    endloop
  endfacet
  facet normal 0.587785 -0.809018 0
    outer loop
      vertex 46.5451 -79.7553 10
      vertex 49.0451 -77.9389 30
      vertex 46.5451 -79.7553 30
    endloop
  endfacet
  facet normal 0.587785 -0.809018 0
    outer loop
      vertex 49.0451 -77.9389 30
      vertex 46.5451 -79.7553 10
      vertex 49.0451 -77.9389 10
    endloop
  endfacet
  facet normal 0 0 1
    outer loop
      vertex 40 75 30
      vertex 50 75 30
      vertex 49.0451 77.9389 30
    endloop
  endfacet
  facet normal 0 0 1
    outer loop
      vertex 50 75 30
      vertex 40 5 30
      vertex 50 -75 30
    endloop
  endfacet
  facet normal 0 0 1
    outer loop
      vertex 40 75 30
      vertex 49.0451 77.9389 30
      vertex 46.5451 79.7553 30
    endloop
  endfacet
  facet normal -0 0 1
    outer loop
      vertex 40 -5 30
      vertex 50 -75 30
      vertex 40 5 30
    endloop
  endfacet
  facet normal 0 0 1
    outer loop
      vertex 40 75 30
      vertex 46.5451 79.7553 30
      vertex 43.4549 79.7553 30
    endloop
  endfacet
  facet normal 0 0 1
    outer loop
      vertex 40 -75 30
      vertex 50 -75 30
      vertex 40 -5 30
    endloop
  endfacet
  facet normal 0 0 1
    outer loop
      vertex 40 75 30
      vertex 43.4549 79.7553 30
      vertex 40.9549 77.9389 30
    endloop
  endfacet
  facet normal 0 0 1
    outer loop
      vertex 50 -75 30
      vertex 40 -75 30
      vertex 49.0451 -77.9389 30
    endloop
  endfacet
  facet normal 0 0 1
    outer loop
      vertex 50 75 30
      vertex 40 75 30
      vertex 40 5 30
    endloop
  endfacet
  facet normal 0 0 1
    outer loop
      vertex 49.0451 -77.9389 30
      vertex 40 -75 30
      vertex 46.5451 -79.7553 30
    endloop
  endfacet
  facet normal 0 0 1
    outer loop
      vertex 46.5451 -79.7553 30
      vertex 40 -75 30
      vertex 43.4549 -79.7553 30
    endloop
  endfacet
  facet normal 0 0 1
    outer loop
      vertex 43.4549 -79.7553 30
      vertex 40 -75 30
      vertex 40.9549 -77.9389 30
    endloop
  endfacet
  facet normal -0.587785 0.809018 0
    outer loop
      vertex 43.4549 79.7553 10
      vertex 40.9549 77.9389 30
      vertex 43.4549 79.7553 30
    endloop
  endfacet
  facet normal -0.587785 0.809018 0
    outer loop
      vertex 40.9549 77.9389 30
      vertex 43.4549 79.7553 10
      vertex 40.9549 77.9389 10
    endloop
  endfacet
  facet normal 0.951057 -0.309017 0
    outer loop
      vertex 49.0451 -77.9389 30
      vertex 50 -75 10
      vertex 50 -75 30
    endloop
  endfacet
  facet normal 0.951057 -0.309017 0
    outer loop
      vertex 50 -75 10
      vertex 49.0451 -77.9389 30
      vertex 49.0451 -77.9389 10
    endloop
  endfacet
  facet normal -0.587785 -0.809018 0
    outer loop
      vertex 40.9549 -77.9389 10
      vertex 43.4549 -79.7553 30
      vertex 40.9549 -77.9389 30
    endloop
  endfacet
  facet normal -0.587785 -0.809018 -0
    outer loop
      vertex 43.4549 -79.7553 30
      vertex 40.9549 -77.9389 10
      vertex 43.4549 -79.7553 10
    endloop
  endfacet
  facet normal 0 1 -0
    outer loop
      vertex 46.5451 79.7553 10
      vertex 43.4549 79.7553 30
      vertex 46.5451 79.7553 30
    endloop
  endfacet
  facet normal 0 1 0
    outer loop
      vertex 43.4549 79.7553 30
      vertex 46.5451 79.7553 10
      vertex 43.4549 79.7553 10
    endloop
  endfacet
  facet normal 0.587785 0.809018 -0
    outer loop
      vertex 49.0451 77.9389 10
      vertex 46.5451 79.7553 30
      vertex 49.0451 77.9389 30
    endloop
  endfacet
  facet normal 0.587785 0.809018 0
    outer loop
      vertex 46.5451 79.7553 30
      vertex 49.0451 77.9389 10
      vertex 46.5451 79.7553 10
    endloop
  endfacet
  facet normal -0.561583 0.772953 0.295242
    outer loop
      vertex -1.54508 4.75528 10
      vertex -3.27254 2.37764 12.9389
      vertex -1.25 3.8471 12.9389
    endloop
  endfacet
  facet normal -0.344484 0 0.938792
    outer loop
      vertex 40 5 30
      vertex -1.54508 0 14.7553
      vertex 40 -5 30
    endloop
  endfacet
  facet normal -0.57735 0.187593 0.794654
    outer loop
      vertex -3.27254 2.37764 12.9389
      vertex -4.04508 0 12.9389
      vertex -1.54508 0 14.7553
    endloop
  endfacet
  facet normal -0.152722 0.939785 0.305744
    outer loop
      vertex 40 5 30
      vertex -1.54508 4.75528 10
      vertex -1.25 3.8471 12.9389
    endloop
  endfacet
  facet normal -0.00589031 0.999983 0
    outer loop
      vertex 5 4.79384 10
      vertex 40 5 30
      vertex 40 5 10
    endloop
  endfacet
  facet normal -0.00589031 0.999983 5.81941e-010
    outer loop
      vertex 40 5 30
      vertex 5 4.79384 10
      vertex -1.54508 4.75528 10
    endloop
  endfacet
  facet normal -0.57735 0.187593 0.794655
    outer loop
      vertex -1.25 0.908177 14.7553
      vertex -3.27254 2.37764 12.9389
      vertex -1.54508 0 14.7553
    endloop
  endfacet
  facet normal -0.00589031 -0.999983 5.81941e-010
    outer loop
      vertex 5 -4.79384 10
      vertex 40 -5 30
      vertex -1.54508 -4.75528 10
    endloop
  endfacet
  facet normal -0.00589031 -0.999983 -0
    outer loop
      vertex 40 -5 30
      vertex 5 -4.79384 10
      vertex 40 -5 10
    endloop
  endfacet
  facet normal -0.354377 -0.115144 0.927987
    outer loop
      vertex 40 -5 30
      vertex -1.54508 0 14.7553
      vertex -1.25 -0.908177 14.7553
    endloop
  endfacet
  facet normal -0.57735 -0.187593 0.794654
    outer loop
      vertex -1.54508 0 14.7553
      vertex -4.04508 0 12.9389
      vertex -1.25 -0.908177 14.7553
    endloop
  endfacet
  facet normal -0.354377 0.115144 0.927986
    outer loop
      vertex -1.25 0.908177 14.7553
      vertex -1.54508 0 14.7553
      vertex 40 5 30
    endloop
  endfacet
  facet normal -0.57735 -0.187593 0.794654
    outer loop
      vertex -1.25 -0.908177 14.7553
      vertex -4.04508 0 12.9389
      vertex -3.27254 -2.37764 12.9389
    endloop
  endfacet
  facet normal -0.561583 -0.772953 0.295242
    outer loop
      vertex -1.25 -3.8471 12.9389
      vertex -4.04508 -2.93893 10
      vertex -1.54508 -4.75528 10
    endloop
  endfacet
  facet normal -0.152722 -0.939785 0.305744
    outer loop
      vertex -1.25 -3.8471 12.9389
      vertex -1.54508 -4.75528 10
      vertex 40 -5 30
    endloop
  endfacet
  facet normal -0.908661 -0.295242 0.295242
    outer loop
      vertex -4.04508 0 12.9389
      vertex -4.04508 -2.93893 10
      vertex -3.27254 -2.37764 12.9389
    endloop
  endfacet
  facet normal -0.561583 0.772953 0.295242
    outer loop
      vertex -1.54508 4.75528 10
      vertex -4.04508 2.93893 10
      vertex -3.27254 2.37764 12.9389
    endloop
  endfacet
  facet normal -0.561583 -0.772953 0.295242
    outer loop
      vertex -3.27254 -2.37764 12.9389
      vertex -4.04508 -2.93893 10
      vertex -1.25 -3.8471 12.9389
    endloop
  endfacet
  facet normal -0.908661 0.295242 0.295242
    outer loop
      vertex -4.04508 2.93893 10
      vertex -4.04508 0 12.9389
      vertex -3.27254 2.37764 12.9389
    endloop
  endfacet
  facet normal -0.345996 0.476222 0.808393
    outer loop
      vertex -0.477457 1.46946 14.7553
      vertex -1.25 0.908177 14.7553
      vertex 40 5 30
    endloop
  endfacet
  facet normal -0.343458 0.497116 0.796814
    outer loop
      vertex 40 5 30
      vertex -1.25 3.8471 12.9389
      vertex -0.477457 1.46946 14.7553
    endloop
  endfacet
  facet normal -0.356822 0.491123 0.794655
    outer loop
      vertex -0.477457 1.46946 14.7553
      vertex -3.27254 2.37764 12.9389
      vertex -1.25 0.908177 14.7553
    endloop
  endfacet
  facet normal -0.356822 0.491124 0.794654
    outer loop
      vertex -1.25 3.8471 12.9389
      vertex -3.27254 2.37764 12.9389
      vertex -0.477457 1.46946 14.7553
    endloop
  endfacet
  facet normal -0.356822 -0.491123 0.794654
    outer loop
      vertex -1.25 -0.908177 14.7553
      vertex -3.27254 -2.37764 12.9389
      vertex -1.25 -3.8471 12.9389
    endloop
  endfacet
  facet normal -0.345996 -0.476223 0.808393
    outer loop
      vertex 40 -5 30
      vertex -1.25 -0.908177 14.7553
      vertex -0.477457 -1.46946 14.7553
    endloop
  endfacet
  facet normal -0.908661 0.295242 0.295242
    outer loop
      vertex -4.04508 2.93893 10
      vertex -5 0 10
      vertex -4.04508 0 12.9389
    endloop
  endfacet
  facet normal -0.908661 -0.295242 0.295242
    outer loop
      vertex -4.04508 0 12.9389
      vertex -5 0 10
      vertex -4.04508 -2.93893 10
    endloop
  endfacet
  facet normal -0.356822 -0.491124 0.794655
    outer loop
      vertex -1.25 -0.908177 14.7553
      vertex -1.25 -3.8471 12.9389
      vertex -0.477457 -1.46946 14.7553
    endloop
  endfacet
  facet normal -0.343458 -0.497116 0.796814
    outer loop
      vertex -0.477457 -1.46946 14.7553
      vertex -1.25 -3.8471 12.9389
      vertex 40 -5 30
    endloop
  endfacet
  facet normal 0.644701 0.701618 0.303468
    outer loop
      vertex 40 -62.011 25.98
      vertex 3.27254 -22.6224 12.9389
      vertex 40 -62.2915 26.6286
    endloop
  endfacet
  facet normal 0.644701 0.701618 0.303467
    outer loop
      vertex 3.27254 -22.6224 12.9389
      vertex 40 -62.011 25.98
      vertex 4.04508 -22.0611 10
    endloop
  endfacet
  facet normal 0.743295 0.668964 -2.01316e-006
    outer loop
      vertex 40 -62.011 25.98
      vertex 5 -23.1221 10
      vertex 4.04508 -22.0611 10
    endloop
  endfacet
  facet normal 0.743294 0.668965 0
    outer loop
      vertex 5 -23.1221 10
      vertex 40 -62.011 25.98
      vertex 40 -62.011 10
    endloop
  endfacet
  facet normal -0.136978 0.188534 0.972467
    outer loop
      vertex 40 -66.571 28.8011
      vertex -0.477457 -23.5305 14.7553
      vertex 40 -70.9426 29.6486
    endloop
  endfacet
  facet normal -0 0.310238 0.950659
    outer loop
      vertex -0.477457 -23.5305 14.7553
      vertex 40 -63.6078 27.8341
      vertex 0.477457 -23.5305 14.7553
    endloop
  endfacet
  facet normal -3.40487e-007 0.310238 0.950659
    outer loop
      vertex 40 -63.6078 27.8341
      vertex -0.477457 -23.5305 14.7553
      vertex 40 -66.571 28.8011
    endloop
  endfacet
  facet normal 0 0.607062 0.794654
    outer loop
      vertex 1.25 -21.1529 12.9389
      vertex -0.477457 -23.5305 14.7553
      vertex 0.477457 -23.5305 14.7553
    endloop
  endfacet
  facet normal 0 0.607062 0.794654
    outer loop
      vertex -0.477457 -23.5305 14.7553
      vertex 1.25 -21.1529 12.9389
      vertex -1.25 -21.1529 12.9389
    endloop
  endfacet
  facet normal 0.466309 0.64182 0.608788
    outer loop
      vertex 40 -62.4268 26.7712
      vertex 1.25 -21.1529 12.9389
      vertex 40 -63.151 27.5347
    endloop
  endfacet
  facet normal -0.908661 -0.295242 0.295242
    outer loop
      vertex -4.04508 -25 12.9389
      vertex -5 -25 10
      vertex -4.04508 -27.9389 10
    endloop
  endfacet
  facet normal -0.509012 -0.165388 0.844721
    outer loop
      vertex 40.9549 -77.9389 30
      vertex -1.54508 -25 14.7553
      vertex -1.25 -25.9082 14.7553
    endloop
  endfacet
  facet normal -0.743294 -0.668965 -0
    outer loop
      vertex 40.9549 -77.9389 30
      vertex -4.04508 -27.9389 10
      vertex 40.9549 -77.9389 10
    endloop
  endfacet
  facet normal 0.561583 0.772953 0.295242
    outer loop
      vertex 4.04508 -22.0611 10
      vertex 1.25 -21.1529 12.9389
      vertex 3.27254 -22.6224 12.9389
    endloop
  endfacet
  facet normal 0.466311 0.641821 0.608786
    outer loop
      vertex 3.27254 -22.6224 12.9389
      vertex 40 -62.4268 26.7712
      vertex 40 -62.2915 26.6286
    endloop
  endfacet
  facet normal 0.46631 0.64182 0.608788
    outer loop
      vertex 40 -62.4268 26.7712
      vertex 3.27254 -22.6224 12.9389
      vertex 1.25 -21.1529 12.9389
    endloop
  endfacet
  facet normal -0.908661 0.295242 0.295242
    outer loop
      vertex -4.04508 -22.0611 10
      vertex -5 -25 10
      vertex -4.04508 -25 12.9389
    endloop
  endfacet
  facet normal -0.908661 -0.295242 0.295242
    outer loop
      vertex -4.04508 -25 12.9389
      vertex -4.04508 -27.9389 10
      vertex -3.27254 -27.3776 12.9389
    endloop
  endfacet
  facet normal -0.765071 -0.56496 0.309009
    outer loop
      vertex -3.27254 -27.3776 12.9389
      vertex -4.04508 -27.9389 10
      vertex 40.9549 -77.9389 30
    endloop
  endfacet
  facet normal -0.57735 -0.187593 0.794654
    outer loop
      vertex -1.54508 -25 14.7553
      vertex -4.04508 -25 12.9389
      vertex -1.25 -25.9082 14.7553
    endloop
  endfacet
  facet normal 0 0.955422 0.295242
    outer loop
      vertex 1.54508 -20.2447 10
      vertex -1.25 -21.1529 12.9389
      vertex 1.25 -21.1529 12.9389
    endloop
  endfacet
  facet normal 0 0.955422 0.295242
    outer loop
      vertex -1.25 -21.1529 12.9389
      vertex 1.54508 -20.2447 10
      vertex -1.54508 -20.2447 10
    endloop
  endfacet
  facet normal 0.561583 0.772953 0.295242
    outer loop
      vertex 1.54508 -20.2447 10
      vertex 1.25 -21.1529 12.9389
      vertex 4.04508 -22.0611 10
    endloop
  endfacet
  facet normal 0.268863 0.528024 0.805546
    outer loop
      vertex 0.477457 -23.5305 14.7553
      vertex 40 -63.151 27.5347
      vertex 1.25 -21.1529 12.9389
    endloop
  endfacet
  facet normal 0.268865 0.528025 0.805544
    outer loop
      vertex 40 -63.151 27.5347
      vertex 0.477457 -23.5305 14.7553
      vertex 40 -63.6078 27.8341
    endloop
  endfacet
  facet normal -0.57735 0.187593 0.794654
    outer loop
      vertex -3.27254 -22.6224 12.9389
      vertex -4.04508 -25 12.9389
      vertex -1.54508 -25 14.7553
    endloop
  endfacet
  facet normal -0.57735 0.187593 0.794655
    outer loop
      vertex -1.25 -24.0918 14.7553
      vertex -3.27254 -22.6224 12.9389
      vertex -1.54508 -25 14.7553
    endloop
  endfacet
  facet normal -0.57735 -0.187593 0.794654
    outer loop
      vertex -1.25 -25.9082 14.7553
      vertex -4.04508 -25 12.9389
      vertex -3.27254 -27.3776 12.9389
    endloop
  endfacet
  facet normal -0.558984 -0.219113 0.799704
    outer loop
      vertex -1.25 -25.9082 14.7553
      vertex -3.27254 -27.3776 12.9389
      vertex 40.9549 -77.9389 30
    endloop
  endfacet
  facet normal -0.356823 0.491123 0.794655
    outer loop
      vertex -0.477457 -23.5305 14.7553
      vertex -3.27254 -22.6224 12.9389
      vertex -1.25 -24.0918 14.7553
    endloop
  endfacet
  facet normal -0.908661 0.295242 0.295242
    outer loop
      vertex -4.04508 -22.0611 10
      vertex -4.04508 -25 12.9389
      vertex -3.27254 -22.6224 12.9389
    endloop
  endfacet
  facet normal -0.254193 0.0825928 0.96362
    outer loop
      vertex -1.54508 -25 14.7553
      vertex 40 -70.9757 29.6551
      vertex -1.25 -24.0918 14.7553
    endloop
  endfacet
  facet normal -0.254228 0.0825598 0.963614
    outer loop
      vertex 40 -70.9757 29.6551
      vertex -1.54508 -25 14.7553
      vertex 40 -71.0037 29.6575
    endloop
  endfacet
  facet normal -0.136978 0.188534 0.972467
    outer loop
      vertex -1.25 -24.0918 14.7553
      vertex 40 -70.9426 29.6486
      vertex -0.477457 -23.5305 14.7553
    endloop
  endfacet
  facet normal -0.136967 0.188544 0.972467
    outer loop
      vertex 40 -70.9426 29.6486
      vertex -1.25 -24.0918 14.7553
      vertex 40 -70.9757 29.6551
    endloop
  endfacet
  facet normal -0.254194 0.0825925 0.96362
    outer loop
      vertex 40 -71.0037 29.6575
      vertex -1.54508 -25 14.7553
      vertex 40 -75 30
    endloop
  endfacet
  facet normal -0.509011 -0.165388 0.844721
    outer loop
      vertex 40 -75 30
      vertex -1.54508 -25 14.7553
      vertex 40.9549 -77.9389 30
    endloop
  endfacet
  facet normal -0.561583 0.772953 0.295242
    outer loop
      vertex -1.54508 -20.2447 10
      vertex -4.04508 -22.0611 10
      vertex -3.27254 -22.6224 12.9389
    endloop
  endfacet
  facet normal -0.561583 0.772953 0.295243
    outer loop
      vertex -1.54508 -20.2447 10
      vertex -3.27254 -22.6224 12.9389
      vertex -1.25 -21.1529 12.9389
    endloop
  endfacet
  facet normal -0.356822 0.491124 0.794654
    outer loop
      vertex -1.25 -21.1529 12.9389
      vertex -3.27254 -22.6224 12.9389
      vertex -0.477457 -23.5305 14.7553
    endloop
  endfacet
  facet normal -0.561583 -0.772953 0.295242
    outer loop
      vertex -1.25 21.1529 12.9389
      vertex -4.04508 22.0611 10
      vertex -1.54508 20.2447 10
    endloop
  endfacet
  facet normal -3.40487e-007 -0.310238 0.950659
    outer loop
      vertex -0.477457 23.5305 14.7553
      vertex 40 63.6078 27.8341
      vertex 40 66.571 28.8011
    endloop
  endfacet
  facet normal 0 -0.310238 0.950659
    outer loop
      vertex 40 63.6078 27.8341
      vertex -0.477457 23.5305 14.7553
      vertex 0.477457 23.5305 14.7553
    endloop
  endfacet
  facet normal -0.743294 0.668965 0
    outer loop
      vertex 40.9549 77.9389 10
      vertex -4.04508 27.9389 10
      vertex 40.9549 77.9389 30
    endloop
  endfacet
  facet normal 0.644701 -0.701618 0.303468
    outer loop
      vertex 3.27254 22.6224 12.9389
      vertex 40 62.011 25.98
      vertex 40 62.2915 26.6286
    endloop
  endfacet
  facet normal 0.644701 -0.701618 0.303467
    outer loop
      vertex 40 62.011 25.98
      vertex 3.27254 22.6224 12.9389
      vertex 4.04508 22.0611 10
    endloop
  endfacet
  facet normal -0.908661 -0.295242 0.295242
    outer loop
      vertex -4.04508 25 12.9389
      vertex -4.04508 22.0611 10
      vertex -3.27254 22.6224 12.9389
    endloop
  endfacet
  facet normal -0.57735 -0.187593 0.794654
    outer loop
      vertex -1.54508 25 14.7553
      vertex -4.04508 25 12.9389
      vertex -1.25 24.0918 14.7553
    endloop
  endfacet
  facet normal -0.509013 0.165389 0.84472
    outer loop
      vertex -1.25 25.9082 14.7553
      vertex -1.54508 25 14.7553
      vertex 40.9549 77.9389 30
    endloop
  endfacet
  facet normal -0.765071 0.56496 0.309009
    outer loop
      vertex 40.9549 77.9389 30
      vertex -4.04508 27.9389 10
      vertex -3.27254 27.3776 12.9389
    endloop
  endfacet
  facet normal -0.908661 0.295242 0.295242
    outer loop
      vertex -4.04508 27.9389 10
      vertex -5 25 10
      vertex -4.04508 25 12.9389
    endloop
  endfacet
  facet normal -0.254194 -0.0825925 0.96362
    outer loop
      vertex 40 75 30
      vertex -1.54508 25 14.7553
      vertex 40 71.0037 29.6575
    endloop
  endfacet
  facet normal 0.466309 -0.64182 0.608788
    outer loop
      vertex 3.27254 22.6224 12.9389
      vertex 40 63.151 27.5347
      vertex 1.25 21.1529 12.9389
    endloop
  endfacet
  facet normal 0.466302 -0.641816 0.608797
    outer loop
      vertex 40 63.151 27.5347
      vertex 3.27254 22.6224 12.9389
      vertex 40 63.0417 27.4195
    endloop
  endfacet
  facet normal 0.743294 -0.668965 0
    outer loop
      vertex 40 62.011 25.98
      vertex 5 23.1221 10
      vertex 40 62.011 10
    endloop
  endfacet
  facet normal 0.743295 -0.668964 -2.01316e-006
    outer loop
      vertex 5 23.1221 10
      vertex 40 62.011 25.98
      vertex 4.04508 22.0611 10
    endloop
  endfacet
  facet normal 0 -0.955422 0.295242
    outer loop
      vertex -1.54508 20.2447 10
      vertex 1.25 21.1529 12.9389
      vertex -1.25 21.1529 12.9389
    endloop
  endfacet
  facet normal 0 -0.955422 0.295242
    outer loop
      vertex 1.25 21.1529 12.9389
      vertex -1.54508 20.2447 10
      vertex 1.54508 20.2447 10
    endloop
  endfacet
  facet normal -0.908661 -0.295242 0.295242
    outer loop
      vertex -4.04508 25 12.9389
      vertex -5 25 10
      vertex -4.04508 22.0611 10
    endloop
  endfacet
  facet normal -0.908661 0.295242 0.295242
    outer loop
      vertex -4.04508 27.9389 10
      vertex -4.04508 25 12.9389
      vertex -3.27254 27.3776 12.9389
    endloop
  endfacet
  facet normal -0.57735 0.187593 0.794654
    outer loop
      vertex -3.27254 27.3776 12.9389
      vertex -4.04508 25 12.9389
      vertex -1.54508 25 14.7553
    endloop
  endfacet
  facet normal -0.509011 0.165388 0.844721
    outer loop
      vertex 40.9549 77.9389 30
      vertex -1.54508 25 14.7553
      vertex 40 75 30
    endloop
  endfacet
  facet normal 0.268865 -0.528025 0.805544
    outer loop
      vertex 0.477457 23.5305 14.7553
      vertex 40 63.151 27.5347
      vertex 40 63.6078 27.8341
    endloop
  endfacet
  facet normal 0.268863 -0.528024 0.805546
    outer loop
      vertex 40 63.151 27.5347
      vertex 0.477457 23.5305 14.7553
      vertex 1.25 21.1529 12.9389
    endloop
  endfacet
  facet normal 0 -0.607062 0.794654
    outer loop
      vertex -0.477457 23.5305 14.7553
      vertex 1.25 21.1529 12.9389
      vertex 0.477457 23.5305 14.7553
    endloop
  endfacet
  facet normal 0 -0.607062 0.794654
    outer loop
      vertex 1.25 21.1529 12.9389
      vertex -0.477457 23.5305 14.7553
      vertex -1.25 21.1529 12.9389
    endloop
  endfacet
  facet normal -0.57735 -0.187593 0.794654
    outer loop
      vertex -1.25 24.0918 14.7553
      vertex -4.04508 25 12.9389
      vertex -3.27254 22.6224 12.9389
    endloop
  endfacet
  facet normal 0.561583 -0.772953 0.295243
    outer loop
      vertex 3.27254 22.6224 12.9389
      vertex 1.25 21.1529 12.9389
      vertex 1.54508 20.2447 10
    endloop
  endfacet
  facet normal 0.561583 -0.772953 0.295242
    outer loop
      vertex 3.27254 22.6224 12.9389
      vertex 1.54508 20.2447 10
      vertex 4.04508 22.0611 10
    endloop
  endfacet
  facet normal -0.558984 0.219113 0.799704
    outer loop
      vertex 40.9549 77.9389 30
      vertex -3.27254 27.3776 12.9389
      vertex -1.25 25.9082 14.7553
    endloop
  endfacet
  facet normal -0.57735 0.187593 0.794655
    outer loop
      vertex -1.25 25.9082 14.7553
      vertex -3.27254 27.3776 12.9389
      vertex -1.54508 25 14.7553
    endloop
  endfacet
  facet normal 0.466311 -0.64182 0.608787
    outer loop
      vertex 40 63.0417 27.4195
      vertex 3.27254 22.6224 12.9389
      vertex 40 62.2915 26.6286
    endloop
  endfacet
  facet normal -0.561583 -0.772953 0.295242
    outer loop
      vertex -3.27254 22.6224 12.9389
      vertex -4.04508 22.0611 10
      vertex -1.25 21.1529 12.9389
    endloop
  endfacet
  facet normal -0.356822 -0.491123 0.794654
    outer loop
      vertex -1.25 24.0918 14.7553
      vertex -3.27254 22.6224 12.9389
      vertex -1.25 21.1529 12.9389
    endloop
  endfacet
  facet normal -0.136983 -0.18853 0.972467
    outer loop
      vertex -1.25 24.0918 14.7553
      vertex 40 66.571 28.8011
      vertex 40 66.6779 28.8218
    endloop
  endfacet
  facet normal -0.136978 -0.188534 0.972467
    outer loop
      vertex 40 66.571 28.8011
      vertex -1.25 24.0918 14.7553
      vertex -0.477457 23.5305 14.7553
    endloop
  endfacet
  facet normal -0.356823 -0.491123 0.794654
    outer loop
      vertex -1.25 24.0918 14.7553
      vertex -1.25 21.1529 12.9389
      vertex -0.477457 23.5305 14.7553
    endloop
  endfacet
  facet normal -0.136978 -0.188534 0.972467
    outer loop
      vertex 40 70.9757 29.6551
      vertex -1.25 24.0918 14.7553
      vertex 40 66.6779 28.8218
    endloop
  endfacet
  facet normal -0.254228 -0.0825598 0.963614
    outer loop
      vertex -1.54508 25 14.7553
      vertex 40 70.9757 29.6551
      vertex 40 71.0037 29.6575
    endloop
  endfacet
  facet normal -0.254193 -0.0825926 0.96362
    outer loop
      vertex 40 70.9757 29.6551
      vertex -1.54508 25 14.7553
      vertex -1.25 24.0918 14.7553
    endloop
  endfacet
endsolid OpenSCAD_Model
