solid OpenSCAD_Model
  facet normal -1 0 0
    outer loop
      vertex 0 15 0
      vertex 0 46 15
      vertex 0 46 0
    endloop
  endfacet
  facet normal -1 -0 0
    outer loop
      vertex 0 46 15
      vertex 0 15 0
      vertex 0 15 15
    endloop
  endfacet
  facet normal -0 0 1
    outer loop
      vertex 28.8245 41.8622 15
      vertex 33 41.7396 15
      vertex 33 46 15
    endloop
  endfacet
  facet normal 0 0 1
    outer loop
      vertex 33 41.7396 15
      vertex 29.3738 41.3464 15
      vertex 29.7408 40.9028 15
    endloop
  endfacet
  facet normal 0 0 1
    outer loop
      vertex 33 41.7396 15
      vertex 28.8245 41.8622 15
      vertex 29.3738 41.3464 15
    endloop
  endfacet
  facet normal 0 0 1
    outer loop
      vertex 33 46 15
      vertex 28.215 42.3051 15
      vertex 28.8245 41.8622 15
    endloop
  endfacet
  facet normal 0 0 1
    outer loop
      vertex 33 46 15
      vertex 27.5547 42.6681 15
      vertex 28.215 42.3051 15
    endloop
  endfacet
  facet normal 0 0 1
    outer loop
      vertex 33 46 15
      vertex 26.8541 42.9454 15
      vertex 27.5547 42.6681 15
    endloop
  endfacet
  facet normal 0 0 1
    outer loop
      vertex 33 46 15
      vertex 26.1243 43.1328 15
      vertex 26.8541 42.9454 15
    endloop
  endfacet
  facet normal 0 0 1
    outer loop
      vertex 33 46 15
      vertex 25.3767 43.2273 15
      vertex 26.1243 43.1328 15
    endloop
  endfacet
  facet normal 0 0 1
    outer loop
      vertex 33 46 15
      vertex 24.6233 43.2273 15
      vertex 25.3767 43.2273 15
    endloop
  endfacet
  facet normal 0 0 1
    outer loop
      vertex 24.3767 43.2273 15
      vertex 24.6233 43.2273 15
      vertex 33 46 15
    endloop
  endfacet
  facet normal 0 0 1
    outer loop
      vertex 24.6233 43.2273 15
      vertex 24.3767 43.2273 15
      vertex 24.5 43.2117 15
    endloop
  endfacet
  facet normal 0 0 1
    outer loop
      vertex 33 46 15
      vertex 23.6233 43.2273 15
      vertex 24.3767 43.2273 15
    endloop
  endfacet
  facet normal -0 0 1
    outer loop
      vertex 14.6228 46 15
      vertex 23.6233 43.2273 15
      vertex 33 46 15
    endloop
  endfacet
  facet normal 0 0 1
    outer loop
      vertex 23.6233 43.2273 15
      vertex 14.6228 46 15
      vertex 22.8757 43.1328 15
    endloop
  endfacet
  facet normal 0 0 1
    outer loop
      vertex 13.578 41.2782 15
      vertex 18 37.2391 15
      vertex 18.0473 37.9911 15
    endloop
  endfacet
  facet normal 0 0 1
    outer loop
      vertex 15.3988 41.5993 15
      vertex 18.0473 37.9911 15
      vertex 18.1885 38.7312 15
    endloop
  endfacet
  facet normal 0 0 1
    outer loop
      vertex 15.3988 41.5993 15
      vertex 18.1885 38.7312 15
      vertex 18.4213 39.4478 15
    endloop
  endfacet
  facet normal 0 0 1
    outer loop
      vertex 18.0473 37.9911 15
      vertex 15.3988 41.5993 15
      vertex 13.578 41.2782 15
    endloop
  endfacet
  facet normal 0 0 1
    outer loop
      vertex 18.7422 40.1296 15
      vertex 15.3988 41.5993 15
      vertex 18.4213 39.4478 15
    endloop
  endfacet
  facet normal 0 0 1
    outer loop
      vertex 19.1459 40.7658 15
      vertex 15.3988 41.5993 15
      vertex 18.7422 40.1296 15
    endloop
  endfacet
  facet normal 0 0 1
    outer loop
      vertex 19.6262 41.3464 15
      vertex 15.3988 41.5993 15
      vertex 19.1459 40.7658 15
    endloop
  endfacet
  facet normal 0 0 1
    outer loop
      vertex 20.1755 41.8622 15
      vertex 15.3988 41.5993 15
      vertex 19.6262 41.3464 15
    endloop
  endfacet
  facet normal 0 0 1
    outer loop
      vertex 14.6228 46 15
      vertex 20.1755 41.8622 15
      vertex 20.785 42.3051 15
    endloop
  endfacet
  facet normal 0 0 1
    outer loop
      vertex 14.6228 46 15
      vertex 20.785 42.3051 15
      vertex 21.4453 42.6681 15
    endloop
  endfacet
  facet normal 0 0 1
    outer loop
      vertex 14.6228 46 15
      vertex 21.4453 42.6681 15
      vertex 22.1459 42.9454 15
    endloop
  endfacet
  facet normal 0 0 1
    outer loop
      vertex 22.8757 43.1328 15
      vertex 14.6228 46 15
      vertex 22.1459 42.9454 15
    endloop
  endfacet
  facet normal 0 0 1
    outer loop
      vertex 20.1755 41.8622 15
      vertex 14.6228 46 15
      vertex 15.3988 41.5993 15
    endloop
  endfacet
  facet normal 0 0 1
    outer loop
      vertex 18.1885 35.747 15
      vertex 15.5908 33.1321 15
      vertex 18.3797 35.1584 15
    endloop
  endfacet
  facet normal 0 0 1
    outer loop
      vertex 18.0473 36.4871 15
      vertex 15.5908 33.1321 15
      vertex 18.1885 35.747 15
    endloop
  endfacet
  facet normal 0 0 1
    outer loop
      vertex 15.5908 33.1321 15
      vertex 18.0473 36.4871 15
      vertex 18 37.2391 15
    endloop
  endfacet
  facet normal 0 0 1
    outer loop
      vertex 18 37.2391 15
      vertex 13.578 41.2782 15
      vertex 13.4216 41.2507 15
    endloop
  endfacet
  facet normal 0 0 1
    outer loop
      vertex 18 37.2391 15
      vertex 13.4216 41.2507 15
      vertex 15.5908 33.1321 15
    endloop
  endfacet
  facet normal 0 0 1
    outer loop
      vertex 13.4216 41.2507 15
      vertex 11.6543 29.4355 15
      vertex 15.5908 33.1321 15
    endloop
  endfacet
  facet normal 0 0 1
    outer loop
      vertex 0 46 15
      vertex 13.4216 41.2507 15
      vertex 13.3523 41.6438 15
    endloop
  endfacet
  facet normal -0 0 1
    outer loop
      vertex 0 46 15
      vertex 13.3523 41.6438 15
      vertex 12.5842 46 15
    endloop
  endfacet
  facet normal 0 0 1
    outer loop
      vertex 13.4216 41.2507 15
      vertex 0 46 15
      vertex 11.6543 29.4355 15
    endloop
  endfacet
  facet normal 0 0 1
    outer loop
      vertex 11.6543 29.4355 15
      vertex 0 46 15
      vertex 8.21227 25.2748 15
    endloop
  endfacet
  facet normal 0 0 1
    outer loop
      vertex 8.21227 25.2748 15
      vertex 0 46 15
      vertex 5.31881 20.7154 15
    endloop
  endfacet
  facet normal 0 0 1
    outer loop
      vertex 0 15 15
      vertex 5.31881 20.7154 15
      vertex 0 46 15
    endloop
  endfacet
  facet normal 0 0 1
    outer loop
      vertex 5.31881 20.7154 15
      vertex 0 15 15
      vertex 3.01961 15.8294 15
    endloop
  endfacet
  facet normal 0 0 1
    outer loop
      vertex 3.01961 15.8294 15
      vertex 0 15 15
      vertex 2.75014 15 15
    endloop
  endfacet
  facet normal 0 1 -0
    outer loop
      vertex 11.5626 46 3.50005
      vertex 0 46 15
      vertex 12.5842 46 15
    endloop
  endfacet
  facet normal 0 1 0
    outer loop
      vertex 0 46 0
      vertex 11.5626 46 3.50005
      vertex 11.5626 46 0
    endloop
  endfacet
  facet normal 0 1 0
    outer loop
      vertex 11.5626 46 3.50005
      vertex 0 46 0
      vertex 0 46 15
    endloop
  endfacet
  facet normal 0 1 0
    outer loop
      vertex 33 46 15
      vertex 14.5682 46 14.3854
      vertex 14.6228 46 15
    endloop
  endfacet
  facet normal 0 1 -0
    outer loop
      vertex 33 46 0
      vertex 14.5682 46 14.3854
      vertex 33 46 15
    endloop
  endfacet
  facet normal 0 1 0
    outer loop
      vertex 14.5682 46 14.3854
      vertex 33 46 0
      vertex 13.2902 46 0
    endloop
  endfacet
  facet normal 0 0 -1
    outer loop
      vertex 18.0473 37.9911 0
      vertex 13.9235 41.3392 0
      vertex 14.1064 41.3714 0
    endloop
  endfacet
  facet normal 0 0 -1
    outer loop
      vertex 18 37.2391 0
      vertex 12.1292 41.0228 0
      vertex 13.9235 41.3392 0
    endloop
  endfacet
  facet normal 0 0 -1
    outer loop
      vertex 11.6543 29.4355 0
      vertex 12.1292 41.0228 0
      vertex 15.5908 33.1321 0
    endloop
  endfacet
  facet normal 0 0 -1
    outer loop
      vertex 0 46 0
      vertex 12.1292 41.0228 0
      vertex 11.6543 29.4355 0
    endloop
  endfacet
  facet normal 0 0 -1
    outer loop
      vertex 12.1292 41.0228 0
      vertex 0 46 0
      vertex 11.3336 45.5349 0
    endloop
  endfacet
  facet normal 0 0 -1
    outer loop
      vertex 0 46 0
      vertex 11.6543 29.4355 0
      vertex 8.21227 25.2748 0
    endloop
  endfacet
  facet normal -0 0 -1
    outer loop
      vertex 18.0473 36.4871 0
      vertex 15.5908 33.1321 0
      vertex 18 37.2391 0
    endloop
  endfacet
  facet normal -0 0 -1
    outer loop
      vertex 18.1885 35.747 0
      vertex 15.5908 33.1321 0
      vertex 18.0473 36.4871 0
    endloop
  endfacet
  facet normal 0 0 -1
    outer loop
      vertex 15.5908 33.1321 0
      vertex 18.1885 35.747 0
      vertex 18.3797 35.1584 0
    endloop
  endfacet
  facet normal 0 0 -1
    outer loop
      vertex 29.3738 41.3464 0
      vertex 33 41.7396 0
      vertex 29.7408 40.9028 0
    endloop
  endfacet
  facet normal 0 0 -1
    outer loop
      vertex 28.8245 41.8622 0
      vertex 33 41.7396 0
      vertex 29.3738 41.3464 0
    endloop
  endfacet
  facet normal 0 0 -1
    outer loop
      vertex 33 41.7396 0
      vertex 28.8245 41.8622 0
      vertex 33 46 0
    endloop
  endfacet
  facet normal 0 0 -1
    outer loop
      vertex 28.215 42.3051 0
      vertex 33 46 0
      vertex 28.8245 41.8622 0
    endloop
  endfacet
  facet normal 0 0 -1
    outer loop
      vertex 27.5547 42.6681 0
      vertex 33 46 0
      vertex 28.215 42.3051 0
    endloop
  endfacet
  facet normal 0 0 -1
    outer loop
      vertex 26.8541 42.9454 0
      vertex 33 46 0
      vertex 27.5547 42.6681 0
    endloop
  endfacet
  facet normal 0 0 -1
    outer loop
      vertex 26.1243 43.1328 0
      vertex 33 46 0
      vertex 26.8541 42.9454 0
    endloop
  endfacet
  facet normal 0 0 -1
    outer loop
      vertex 25.3767 43.2273 0
      vertex 33 46 0
      vertex 26.1243 43.1328 0
    endloop
  endfacet
  facet normal 0 0 -1
    outer loop
      vertex 24.6233 43.2273 0
      vertex 33 46 0
      vertex 25.3767 43.2273 0
    endloop
  endfacet
  facet normal 0 0 -1
    outer loop
      vertex 24.3767 43.2273 0
      vertex 24.6233 43.2273 0
      vertex 24.5 43.2117 0
    endloop
  endfacet
  facet normal 0 0 -1
    outer loop
      vertex 24.6233 43.2273 0
      vertex 24.3767 43.2273 0
      vertex 33 46 0
    endloop
  endfacet
  facet normal 0 0 -1
    outer loop
      vertex 23.6233 43.2273 0
      vertex 33 46 0
      vertex 24.3767 43.2273 0
    endloop
  endfacet
  facet normal 0 0 -1
    outer loop
      vertex 13.2902 46 0
      vertex 23.6233 43.2273 0
      vertex 22.8757 43.1328 0
    endloop
  endfacet
  facet normal 0 0 -1
    outer loop
      vertex 13.2902 46 0
      vertex 22.8757 43.1328 0
      vertex 22.1459 42.9454 0
    endloop
  endfacet
  facet normal 0 0 -1
    outer loop
      vertex 12.1292 41.0228 0
      vertex 18 37.2391 0
      vertex 15.5908 33.1321 0
    endloop
  endfacet
  facet normal 0 0 -1
    outer loop
      vertex 13.9235 41.3392 0
      vertex 18.0473 37.9911 0
      vertex 18 37.2391 0
    endloop
  endfacet
  facet normal 0 0 -1
    outer loop
      vertex 18.0473 37.9911 0
      vertex 14.1064 41.3714 0
      vertex 18.1885 38.7312 0
    endloop
  endfacet
  facet normal 0 0 -1
    outer loop
      vertex 18.1885 38.7312 0
      vertex 14.1064 41.3714 0
      vertex 18.4213 39.4478 0
    endloop
  endfacet
  facet normal 0 0 -1
    outer loop
      vertex 14.1064 41.3714 0
      vertex 18.7422 40.1296 0
      vertex 18.4213 39.4478 0
    endloop
  endfacet
  facet normal 0 0 -1
    outer loop
      vertex 14.1064 41.3714 0
      vertex 19.1459 40.7658 0
      vertex 18.7422 40.1296 0
    endloop
  endfacet
  facet normal 0 0 -1
    outer loop
      vertex 14.0253 41.8312 0
      vertex 19.1459 40.7658 0
      vertex 14.1064 41.3714 0
    endloop
  endfacet
  facet normal 0 0 -1
    outer loop
      vertex 19.1459 40.7658 0
      vertex 14.0253 41.8312 0
      vertex 19.6262 41.3464 0
    endloop
  endfacet
  facet normal 0 0 -1
    outer loop
      vertex 13.2902 46 0
      vertex 19.6262 41.3464 0
      vertex 14.0253 41.8312 0
    endloop
  endfacet
  facet normal 0 0 -1
    outer loop
      vertex 19.6262 41.3464 0
      vertex 13.2902 46 0
      vertex 20.1755 41.8622 0
    endloop
  endfacet
  facet normal 0 0 -1
    outer loop
      vertex 20.1755 41.8622 0
      vertex 13.2902 46 0
      vertex 20.785 42.3051 0
    endloop
  endfacet
  facet normal 0 0 -1
    outer loop
      vertex 20.785 42.3051 0
      vertex 13.2902 46 0
      vertex 21.4453 42.6681 0
    endloop
  endfacet
  facet normal 0 0 -1
    outer loop
      vertex 21.4453 42.6681 0
      vertex 13.2902 46 0
      vertex 22.1459 42.9454 0
    endloop
  endfacet
  facet normal 0 0 -1
    outer loop
      vertex 23.6233 43.2273 0
      vertex 13.2902 46 0
      vertex 33 46 0
    endloop
  endfacet
  facet normal 0 0 -1
    outer loop
      vertex 0 46 0
      vertex 8.21227 25.2748 0
      vertex 5.31881 20.7154 0
    endloop
  endfacet
  facet normal 0 0 -1
    outer loop
      vertex 0 15 0
      vertex 5.31881 20.7154 0
      vertex 3.01961 15.8294 0
    endloop
  endfacet
  facet normal 0 0 -1
    outer loop
      vertex 0 15 0
      vertex 3.01961 15.8294 0
      vertex 2.75014 15 0
    endloop
  endfacet
  facet normal -0 0 -1
    outer loop
      vertex 5.31881 20.7154 0
      vertex 0 15 0
      vertex 0 46 0
    endloop
  endfacet
  facet normal 0 0 -1
    outer loop
      vertex 11.261 45.9468 0
      vertex 0 46 0
      vertex 11.5626 46 0
    endloop
  endfacet
  facet normal 0 0 -1
    outer loop
      vertex 11.3336 45.5349 0
      vertex 0 46 0
      vertex 11.261 45.9468 0
    endloop
  endfacet
  facet normal 0.904827 -0.425779 0
    outer loop
      vertex 3.01961 15.8294 15
      vertex 5.31881 20.7154 0
      vertex 5.31881 20.7154 15
    endloop
  endfacet
  facet normal 0.904827 -0.425779 0
    outer loop
      vertex 5.31881 20.7154 0
      vertex 3.01961 15.8294 15
      vertex 3.01961 15.8294 0
    endloop
  endfacet
  facet normal 0.770513 -0.637424 0
    outer loop
      vertex 8.21227 25.2748 15
      vertex 11.6543 29.4355 0
      vertex 11.6543 29.4355 15
    endloop
  endfacet
  facet normal 0.770513 -0.637424 0
    outer loop
      vertex 11.6543 29.4355 0
      vertex 8.21227 25.2748 15
      vertex 8.21227 25.2748 0
    endloop
  endfacet
  facet normal 0.24869 -0.968583 0
    outer loop
      vertex 29.7408 40.9028 0
      vertex 33 41.7396 15
      vertex 29.7408 40.9028 15
    endloop
  endfacet
  facet normal 0.24869 -0.968583 0
    outer loop
      vertex 33 41.7396 15
      vertex 29.7408 40.9028 0
      vertex 33 41.7396 0
    endloop
  endfacet
  facet normal 0.951057 -0.309017 0
    outer loop
      vertex 2.75014 15 15
      vertex 3.01961 15.8294 0
      vertex 3.01961 15.8294 15
    endloop
  endfacet
  facet normal 0.951057 -0.309017 0
    outer loop
      vertex 3.01961 15.8294 0
      vertex 2.75014 15 15
      vertex 2.75014 15 0
    endloop
  endfacet
  facet normal 0.844328 -0.535827 0
    outer loop
      vertex 5.31881 20.7154 15
      vertex 8.21227 25.2748 0
      vertex 8.21227 25.2748 15
    endloop
  endfacet
  facet normal 0.844328 -0.535827 0
    outer loop
      vertex 8.21227 25.2748 0
      vertex 5.31881 20.7154 15
      vertex 5.31881 20.7154 0
    endloop
  endfacet
  facet normal 0.587785 -0.809017 0
    outer loop
      vertex 15.5908 33.1321 0
      vertex 18.3797 35.1584 15
      vertex 15.5908 33.1321 15
    endloop
  endfacet
  facet normal 0.587785 -0.809017 0
    outer loop
      vertex 18.3797 35.1584 15
      vertex 15.5908 33.1321 0
      vertex 18.3797 35.1584 0
    endloop
  endfacet
  facet normal 0.684547 -0.728969 0
    outer loop
      vertex 11.6543 29.4355 0
      vertex 15.5908 33.1321 15
      vertex 11.6543 29.4355 15
    endloop
  endfacet
  facet normal 0.684547 -0.728969 0
    outer loop
      vertex 15.5908 33.1321 15
      vertex 11.6543 29.4355 0
      vertex 15.5908 33.1321 0
    endloop
  endfacet
  facet normal 0 -1 0
    outer loop
      vertex 0 15 0
      vertex 2.75014 15 15
      vertex 0 15 15
    endloop
  endfacet
  facet normal 0 -1 -0
    outer loop
      vertex 2.75014 15 15
      vertex 0 15 0
      vertex 2.75014 15 0
    endloop
  endfacet
  facet normal 0.125338 -0.992114 0
    outer loop
      vertex 24.5 43.2117 0
      vertex 24.6233 43.2273 15
      vertex 24.5 43.2117 15
    endloop
  endfacet
  facet normal 0.125338 -0.992114 0
    outer loop
      vertex 24.6233 43.2273 15
      vertex 24.5 43.2117 0
      vertex 24.6233 43.2273 0
    endloop
  endfacet
  facet normal -0.587787 -0.809016 0
    outer loop
      vertex 28.215 42.3051 0
      vertex 28.8245 41.8622 15
      vertex 28.215 42.3051 15
    endloop
  endfacet
  facet normal -0.587787 -0.809016 -0
    outer loop
      vertex 28.8245 41.8622 15
      vertex 28.215 42.3051 0
      vertex 28.8245 41.8622 0
    endloop
  endfacet
  facet normal -0.770514 -0.637424 0
    outer loop
      vertex 29.7408 40.9028 0
      vertex 29.3738 41.3464 15
      vertex 29.3738 41.3464 0
    endloop
  endfacet
  facet normal -0.770514 -0.637424 0
    outer loop
      vertex 29.3738 41.3464 15
      vertex 29.7408 40.9028 0
      vertex 29.7408 40.9028 15
    endloop
  endfacet
  facet normal -0.248691 -0.968583 0
    outer loop
      vertex 26.1243 43.1328 0
      vertex 26.8541 42.9454 15
      vertex 26.1243 43.1328 15
    endloop
  endfacet
  facet normal -0.248691 -0.968583 -0
    outer loop
      vertex 26.8541 42.9454 15
      vertex 26.1243 43.1328 0
      vertex 26.8541 42.9454 0
    endloop
  endfacet
  facet normal -0.125333 -0.992115 0
    outer loop
      vertex 25.3767 43.2273 0
      vertex 26.1243 43.1328 15
      vertex 25.3767 43.2273 15
    endloop
  endfacet
  facet normal -0.125333 -0.992115 -0
    outer loop
      vertex 26.1243 43.1328 15
      vertex 25.3767 43.2273 0
      vertex 26.1243 43.1328 0
    endloop
  endfacet
  facet normal -0.481751 -0.876308 0
    outer loop
      vertex 27.5547 42.6681 0
      vertex 28.215 42.3051 15
      vertex 27.5547 42.6681 15
    endloop
  endfacet
  facet normal -0.481751 -0.876308 -0
    outer loop
      vertex 28.215 42.3051 15
      vertex 27.5547 42.6681 0
      vertex 28.215 42.3051 0
    endloop
  endfacet
  facet normal -0.684546 -0.728969 0
    outer loop
      vertex 28.8245 41.8622 0
      vertex 29.3738 41.3464 15
      vertex 28.8245 41.8622 15
    endloop
  endfacet
  facet normal -0.684546 -0.728969 -0
    outer loop
      vertex 29.3738 41.3464 15
      vertex 28.8245 41.8622 0
      vertex 29.3738 41.3464 0
    endloop
  endfacet
  facet normal 0 -1 0
    outer loop
      vertex 24.6233 43.2273 0
      vertex 25.3767 43.2273 15
      vertex 24.6233 43.2273 15
    endloop
  endfacet
  facet normal 0 -1 -0
    outer loop
      vertex 25.3767 43.2273 15
      vertex 24.6233 43.2273 0
      vertex 25.3767 43.2273 0
    endloop
  endfacet
  facet normal -0.368126 -0.929776 0
    outer loop
      vertex 26.8541 42.9454 0
      vertex 27.5547 42.6681 15
      vertex 26.8541 42.9454 15
    endloop
  endfacet
  facet normal -0.368126 -0.929776 -0
    outer loop
      vertex 27.5547 42.6681 15
      vertex 26.8541 42.9454 0
      vertex 27.5547 42.6681 0
    endloop
  endfacet
  facet normal 0.48175 -0.876309 0
    outer loop
      vertex 20.785 42.3051 0
      vertex 21.4453 42.6681 15
      vertex 20.785 42.3051 15
    endloop
  endfacet
  facet normal 0.48175 -0.876309 0
    outer loop
      vertex 21.4453 42.6681 15
      vertex 20.785 42.3051 0
      vertex 21.4453 42.6681 0
    endloop
  endfacet
  facet normal 0.951056 -0.309019 0
    outer loop
      vertex 18.1885 38.7312 15
      vertex 18.4213 39.4478 0
      vertex 18.4213 39.4478 15
    endloop
  endfacet
  facet normal 0.951056 -0.309019 0
    outer loop
      vertex 18.4213 39.4478 0
      vertex 18.1885 38.7312 15
      vertex 18.1885 38.7312 0
    endloop
  endfacet
  facet normal 0.998027 0.0627905 0
    outer loop
      vertex 18.0473 36.4871 15
      vertex 18 37.2391 0
      vertex 18 37.2391 15
    endloop
  endfacet
  facet normal 0.998027 0.0627905 0
    outer loop
      vertex 18 37.2391 0
      vertex 18.0473 36.4871 15
      vertex 18.0473 36.4871 0
    endloop
  endfacet
  facet normal 0.844329 -0.535825 0
    outer loop
      vertex 18.7422 40.1296 15
      vertex 19.1459 40.7658 0
      vertex 19.1459 40.7658 15
    endloop
  endfacet
  facet normal 0.844329 -0.535825 0
    outer loop
      vertex 19.1459 40.7658 0
      vertex 18.7422 40.1296 15
      vertex 18.7422 40.1296 0
    endloop
  endfacet
  facet normal 0.368126 -0.929776 0
    outer loop
      vertex 21.4453 42.6681 0
      vertex 22.1459 42.9454 15
      vertex 21.4453 42.6681 15
    endloop
  endfacet
  facet normal 0.368126 -0.929776 0
    outer loop
      vertex 22.1459 42.9454 15
      vertex 21.4453 42.6681 0
      vertex 22.1459 42.9454 0
    endloop
  endfacet
  facet normal 0.770513 -0.637424 0
    outer loop
      vertex 19.1459 40.7658 15
      vertex 19.6262 41.3464 0
      vertex 19.6262 41.3464 15
    endloop
  endfacet
  facet normal 0.770513 -0.637424 0
    outer loop
      vertex 19.6262 41.3464 0
      vertex 19.1459 40.7658 15
      vertex 19.1459 40.7658 0
    endloop
  endfacet
  facet normal 0.125333 -0.992115 0
    outer loop
      vertex 22.8757 43.1328 0
      vertex 23.6233 43.2273 15
      vertex 22.8757 43.1328 15
    endloop
  endfacet
  facet normal 0.125333 -0.992115 0
    outer loop
      vertex 23.6233 43.2273 15
      vertex 22.8757 43.1328 0
      vertex 23.6233 43.2273 0
    endloop
  endfacet
  facet normal -0.125338 -0.992114 0
    outer loop
      vertex 24.3767 43.2273 0
      vertex 24.5 43.2117 15
      vertex 24.3767 43.2273 15
    endloop
  endfacet
  facet normal -0.125338 -0.992114 -0
    outer loop
      vertex 24.5 43.2117 15
      vertex 24.3767 43.2273 0
      vertex 24.5 43.2117 0
    endloop
  endfacet
  facet normal 0.982288 -0.18738 0
    outer loop
      vertex 18.0473 37.9911 15
      vertex 18.1885 38.7312 0
      vertex 18.1885 38.7312 15
    endloop
  endfacet
  facet normal 0.982288 -0.18738 0
    outer loop
      vertex 18.1885 38.7312 0
      vertex 18.0473 37.9911 15
      vertex 18.0473 37.9911 0
    endloop
  endfacet
  facet normal 0.998027 -0.0627902 0
    outer loop
      vertex 18 37.2391 15
      vertex 18.0473 37.9911 0
      vertex 18.0473 37.9911 15
    endloop
  endfacet
  facet normal 0.998027 -0.0627902 0
    outer loop
      vertex 18.0473 37.9911 0
      vertex 18 37.2391 15
      vertex 18 37.2391 0
    endloop
  endfacet
  facet normal 0.904827 -0.425779 0
    outer loop
      vertex 18.4213 39.4478 15
      vertex 18.7422 40.1296 0
      vertex 18.7422 40.1296 15
    endloop
  endfacet
  facet normal 0.904827 -0.425779 0
    outer loop
      vertex 18.7422 40.1296 0
      vertex 18.4213 39.4478 15
      vertex 18.4213 39.4478 0
    endloop
  endfacet
  facet normal 0.248691 -0.968583 0
    outer loop
      vertex 22.1459 42.9454 0
      vertex 22.8757 43.1328 15
      vertex 22.1459 42.9454 15
    endloop
  endfacet
  facet normal 0.248691 -0.968583 0
    outer loop
      vertex 22.8757 43.1328 15
      vertex 22.1459 42.9454 0
      vertex 22.8757 43.1328 0
    endloop
  endfacet
  facet normal 0.684545 -0.72897 0
    outer loop
      vertex 19.6262 41.3464 0
      vertex 20.1755 41.8622 15
      vertex 19.6262 41.3464 15
    endloop
  endfacet
  facet normal 0.684545 -0.72897 0
    outer loop
      vertex 20.1755 41.8622 15
      vertex 19.6262 41.3464 0
      vertex 20.1755 41.8622 0
    endloop
  endfacet
  facet normal 0.587788 -0.809015 0
    outer loop
      vertex 20.1755 41.8622 0
      vertex 20.785 42.3051 15
      vertex 20.1755 41.8622 15
    endloop
  endfacet
  facet normal 0.587788 -0.809015 0
    outer loop
      vertex 20.785 42.3051 15
      vertex 20.1755 41.8622 0
      vertex 20.785 42.3051 0
    endloop
  endfacet
  facet normal 0.982288 0.18738 0
    outer loop
      vertex 18.1885 35.747 15
      vertex 18.0473 36.4871 0
      vertex 18.0473 36.4871 15
    endloop
  endfacet
  facet normal 0.982288 0.18738 0
    outer loop
      vertex 18.0473 36.4871 0
      vertex 18.1885 35.747 15
      vertex 18.1885 35.747 0
    endloop
  endfacet
  facet normal 0 -1 0
    outer loop
      vertex 23.6233 43.2273 0
      vertex 24.3767 43.2273 15
      vertex 23.6233 43.2273 15
    endloop
  endfacet
  facet normal 0 -1 -0
    outer loop
      vertex 24.3767 43.2273 15
      vertex 23.6233 43.2273 0
      vertex 24.3767 43.2273 0
    endloop
  endfacet
  facet normal 0.951056 0.30902 0
    outer loop
      vertex 18.3797 35.1584 15
      vertex 18.1885 35.747 0
      vertex 18.1885 35.747 15
    endloop
  endfacet
  facet normal 0.951056 0.30902 0
    outer loop
      vertex 18.1885 35.747 0
      vertex 18.3797 35.1584 15
      vertex 18.3797 35.1584 0
    endloop
  endfacet
  facet normal 0.98106 0.172988 -0.0871557
    outer loop
      vertex 12.1292 41.0228 0
      vertex 13.3523 41.6438 15
      vertex 13.4216 41.2507 15
    endloop
  endfacet
  facet normal 0.98106 0.172987 -0.0871557
    outer loop
      vertex 13.3523 41.6438 15
      vertex 12.1292 41.0228 0
      vertex 11.3336 45.5349 0
    endloop
  endfacet
  facet normal -0.98106 -0.172987 0.0871558
    outer loop
      vertex 14.0253 41.8312 0
      vertex 14.5682 46 14.3854
      vertex 13.2902 46 0
    endloop
  endfacet
  facet normal -0.98106 -0.172987 0.0871557
    outer loop
      vertex 15.3988 41.5993 15
      vertex 14.5682 46 14.3854
      vertex 14.0253 41.8312 0
    endloop
  endfacet
  facet normal -0.98106 -0.172987 0.0871554
    outer loop
      vertex 14.5682 46 14.3854
      vertex 15.3988 41.5993 15
      vertex 14.6228 46 15
    endloop
  endfacet
  facet normal -0.98106 -0.172988 0.0871557
    outer loop
      vertex 15.3988 41.5993 15
      vertex 14.0253 41.8312 0
      vertex 14.1064 41.3714 0
    endloop
  endfacet
  facet normal -0.173648 0.984808 1.10768e-07
    outer loop
      vertex 14.1064 41.3714 0
      vertex 13.578 41.2782 15
      vertex 15.3988 41.5993 15
    endloop
  endfacet
  facet normal -0.173646 0.984808 1.84026e-07
    outer loop
      vertex 13.578 41.2782 15
      vertex 14.1064 41.3714 0
      vertex 13.9235 41.3392 0
    endloop
  endfacet
  facet normal 0.98106 0.172987 -0.0871558
    outer loop
      vertex 13.3523 41.6438 15
      vertex 11.5626 46 3.50005
      vertex 12.5842 46 15
    endloop
  endfacet
  facet normal 0.98106 0.172988 -0.0871558
    outer loop
      vertex 11.5626 46 3.50005
      vertex 11.3336 45.5349 0
      vertex 11.261 45.9468 0
    endloop
  endfacet
  facet normal 0.98106 0.172987 -0.0871557
    outer loop
      vertex 11.5626 46 3.50005
      vertex 13.3523 41.6438 15
      vertex 11.3336 45.5349 0
    endloop
  endfacet
  facet normal -0.173636 0.98481 4.34321e-07
    outer loop
      vertex 13.9235 41.3392 0
      vertex 13.4216 41.2507 15
      vertex 13.578 41.2782 15
    endloop
  endfacet
  facet normal -0.173648 0.984808 3.18712e-08
    outer loop
      vertex 13.4216 41.2507 15
      vertex 13.9235 41.3392 0
      vertex 12.1292 41.0228 0
    endloop
  endfacet
  facet normal 0.173646 -0.984808 0
    outer loop
      vertex 11.5626 46 0
      vertex 11.5626 46 3.50005
      vertex 11.261 45.9468 0
    endloop
  endfacet
  facet normal 1 -0 0
    outer loop
      vertex 33 41.7396 15
      vertex 33 46 0
      vertex 33 46 15
    endloop
  endfacet
  facet normal 1 0 0
    outer loop
      vertex 33 46 0
      vertex 33 41.7396 15
      vertex 33 41.7396 0
    endloop
  endfacet
  facet normal -1 0 0
    outer loop
      vertex 0 15 -20
      vertex 0 46 -5
      vertex 0 46 -20
    endloop
  endfacet
  facet normal -1 -0 0
    outer loop
      vertex 0 46 -5
      vertex 0 15 -20
      vertex 0 15 -5
    endloop
  endfacet
  facet normal -0 0 -1
    outer loop
      vertex 18.0473 36.4871 -20
      vertex 15.5908 33.1321 -20
      vertex 18 37.2391 -20
    endloop
  endfacet
  facet normal -0 0 -1
    outer loop
      vertex 18.1885 35.747 -20
      vertex 15.5908 33.1321 -20
      vertex 18.0473 36.4871 -20
    endloop
  endfacet
  facet normal 0 0 -1
    outer loop
      vertex 15.5908 33.1321 -20
      vertex 18.1885 35.747 -20
      vertex 18.3797 35.1584 -20
    endloop
  endfacet
  facet normal 0 0 -1
    outer loop
      vertex 29.3738 41.3464 -20
      vertex 33 41.7396 -20
      vertex 29.7408 40.9028 -20
    endloop
  endfacet
  facet normal 0 0 -1
    outer loop
      vertex 28.8245 41.8622 -20
      vertex 33 41.7396 -20
      vertex 29.3738 41.3464 -20
    endloop
  endfacet
  facet normal 0 0 -1
    outer loop
      vertex 33 41.7396 -20
      vertex 28.8245 41.8622 -20
      vertex 33 46 -20
    endloop
  endfacet
  facet normal 0 0 -1
    outer loop
      vertex 28.215 42.3051 -20
      vertex 33 46 -20
      vertex 28.8245 41.8622 -20
    endloop
  endfacet
  facet normal 0 0 -1
    outer loop
      vertex 27.5547 42.6681 -20
      vertex 33 46 -20
      vertex 28.215 42.3051 -20
    endloop
  endfacet
  facet normal 0 0 -1
    outer loop
      vertex 26.8541 42.9454 -20
      vertex 33 46 -20
      vertex 27.5547 42.6681 -20
    endloop
  endfacet
  facet normal 0 0 -1
    outer loop
      vertex 26.1243 43.1328 -20
      vertex 33 46 -20
      vertex 26.8541 42.9454 -20
    endloop
  endfacet
  facet normal 0 0 -1
    outer loop
      vertex 25.3767 43.2273 -20
      vertex 33 46 -20
      vertex 26.1243 43.1328 -20
    endloop
  endfacet
  facet normal 0 0 -1
    outer loop
      vertex 24.6233 43.2273 -20
      vertex 33 46 -20
      vertex 25.3767 43.2273 -20
    endloop
  endfacet
  facet normal 0 0 -1
    outer loop
      vertex 24.3767 43.2273 -20
      vertex 24.6233 43.2273 -20
      vertex 24.5 43.2117 -20
    endloop
  endfacet
  facet normal 0 0 -1
    outer loop
      vertex 24.6233 43.2273 -20
      vertex 24.3767 43.2273 -20
      vertex 33 46 -20
    endloop
  endfacet
  facet normal 0 0 -1
    outer loop
      vertex 23.6233 43.2273 -20
      vertex 33 46 -20
      vertex 24.3767 43.2273 -20
    endloop
  endfacet
  facet normal 0 0 -1
    outer loop
      vertex 14.6228 46 -20
      vertex 23.6233 43.2273 -20
      vertex 22.8757 43.1328 -20
    endloop
  endfacet
  facet normal 0 0 -1
    outer loop
      vertex 14.6228 46 -20
      vertex 22.8757 43.1328 -20
      vertex 22.1459 42.9454 -20
    endloop
  endfacet
  facet normal 0 0 -1
    outer loop
      vertex 13.4216 41.2507 -20
      vertex 18 37.2391 -20
      vertex 15.5908 33.1321 -20
    endloop
  endfacet
  facet normal 0 -0 -1
    outer loop
      vertex 13.578 41.2782 -20
      vertex 18 37.2391 -20
      vertex 13.4216 41.2507 -20
    endloop
  endfacet
  facet normal 0 -0 -1
    outer loop
      vertex 15.3988 41.5993 -20
      vertex 18.0473 37.9911 -20
      vertex 13.578 41.2782 -20
    endloop
  endfacet
  facet normal 0 0 -1
    outer loop
      vertex 18.0473 37.9911 -20
      vertex 15.3988 41.5993 -20
      vertex 18.1885 38.7312 -20
    endloop
  endfacet
  facet normal 0 0 -1
    outer loop
      vertex 15.3988 41.5993 -20
      vertex 18.7422 40.1296 -20
      vertex 18.4213 39.4478 -20
    endloop
  endfacet
  facet normal 0 0 -1
    outer loop
      vertex 15.3988 41.5993 -20
      vertex 19.1459 40.7658 -20
      vertex 18.7422 40.1296 -20
    endloop
  endfacet
  facet normal 0 0 -1
    outer loop
      vertex 15.3988 41.5993 -20
      vertex 19.6262 41.3464 -20
      vertex 19.1459 40.7658 -20
    endloop
  endfacet
  facet normal 0 0 -1
    outer loop
      vertex 15.3988 41.5993 -20
      vertex 20.1755 41.8622 -20
      vertex 19.6262 41.3464 -20
    endloop
  endfacet
  facet normal 0 0 -1
    outer loop
      vertex 14.6228 46 -20
      vertex 20.1755 41.8622 -20
      vertex 15.3988 41.5993 -20
    endloop
  endfacet
  facet normal 0 0 -1
    outer loop
      vertex 20.1755 41.8622 -20
      vertex 14.6228 46 -20
      vertex 20.785 42.3051 -20
    endloop
  endfacet
  facet normal 0 0 -1
    outer loop
      vertex 20.785 42.3051 -20
      vertex 14.6228 46 -20
      vertex 21.4453 42.6681 -20
    endloop
  endfacet
  facet normal 0 0 -1
    outer loop
      vertex 21.4453 42.6681 -20
      vertex 14.6228 46 -20
      vertex 22.1459 42.9454 -20
    endloop
  endfacet
  facet normal 0 0 -1
    outer loop
      vertex 23.6233 43.2273 -20
      vertex 14.6228 46 -20
      vertex 33 46 -20
    endloop
  endfacet
  facet normal 0 0 -1
    outer loop
      vertex 18.1885 38.7312 -20
      vertex 15.3988 41.5993 -20
      vertex 18.4213 39.4478 -20
    endloop
  endfacet
  facet normal 0 0 -1
    outer loop
      vertex 18 37.2391 -20
      vertex 13.578 41.2782 -20
      vertex 18.0473 37.9911 -20
    endloop
  endfacet
  facet normal 0 0 -1
    outer loop
      vertex 11.6543 29.4355 -20
      vertex 13.4216 41.2507 -20
      vertex 15.5908 33.1321 -20
    endloop
  endfacet
  facet normal 0 0 -1
    outer loop
      vertex 0 46 -20
      vertex 13.4216 41.2507 -20
      vertex 11.6543 29.4355 -20
    endloop
  endfacet
  facet normal 0 0 -1
    outer loop
      vertex 13.4216 41.2507 -20
      vertex 0 46 -20
      vertex 13.3523 41.6438 -20
    endloop
  endfacet
  facet normal 0 0 -1
    outer loop
      vertex 0 46 -20
      vertex 11.6543 29.4355 -20
      vertex 8.21227 25.2748 -20
    endloop
  endfacet
  facet normal 0 0 -1
    outer loop
      vertex 0 46 -20
      vertex 8.21227 25.2748 -20
      vertex 5.31881 20.7154 -20
    endloop
  endfacet
  facet normal 0 0 -1
    outer loop
      vertex 0 15 -20
      vertex 5.31881 20.7154 -20
      vertex 3.01961 15.8294 -20
    endloop
  endfacet
  facet normal 0 0 -1
    outer loop
      vertex 0 15 -20
      vertex 3.01961 15.8294 -20
      vertex 2.75014 15 -20
    endloop
  endfacet
  facet normal -0 0 -1
    outer loop
      vertex 5.31881 20.7154 -20
      vertex 0 15 -20
      vertex 0 46 -20
    endloop
  endfacet
  facet normal 0 0 -1
    outer loop
      vertex 13.3523 41.6438 -20
      vertex 0 46 -20
      vertex 12.5842 46 -20
    endloop
  endfacet
  facet normal 0 1 -0
    outer loop
      vertex 11.5626 46 -8.50005
      vertex 0 46 -5
      vertex 11.5626 46 -5
    endloop
  endfacet
  facet normal 0 1 0
    outer loop
      vertex 0 46 -20
      vertex 11.5626 46 -8.50005
      vertex 12.5842 46 -20
    endloop
  endfacet
  facet normal 0 1 0
    outer loop
      vertex 11.5626 46 -8.50005
      vertex 0 46 -20
      vertex 0 46 -5
    endloop
  endfacet
  facet normal 0 1 0
    outer loop
      vertex 33 46 -5
      vertex 14.5682 46 -19.3854
      vertex 13.2902 46 -5
    endloop
  endfacet
  facet normal 0 1 -0
    outer loop
      vertex 33 46 -20
      vertex 14.5682 46 -19.3854
      vertex 33 46 -5
    endloop
  endfacet
  facet normal 0 1 0
    outer loop
      vertex 14.5682 46 -19.3854
      vertex 33 46 -20
      vertex 14.6228 46 -20
    endloop
  endfacet
  facet normal 0 0 1
    outer loop
      vertex 11.6543 29.4355 -5
      vertex 0 46 -5
      vertex 8.21227 25.2748 -5
    endloop
  endfacet
  facet normal 0 0 1
    outer loop
      vertex 8.21227 25.2748 -5
      vertex 0 46 -5
      vertex 5.31881 20.7154 -5
    endloop
  endfacet
  facet normal 0 0 1
    outer loop
      vertex 0 15 -5
      vertex 5.31881 20.7154 -5
      vertex 0 46 -5
    endloop
  endfacet
  facet normal -0 0 1
    outer loop
      vertex 0 46 -5
      vertex 11.261 45.9468 -5
      vertex 11.5626 46 -5
    endloop
  endfacet
  facet normal 0 0 1
    outer loop
      vertex 5.31881 20.7154 -5
      vertex 0 15 -5
      vertex 3.01961 15.8294 -5
    endloop
  endfacet
  facet normal 0 0 1
    outer loop
      vertex 3.01961 15.8294 -5
      vertex 0 15 -5
      vertex 2.75014 15 -5
    endloop
  endfacet
  facet normal -0 0 1
    outer loop
      vertex 28.8245 41.8622 -5
      vertex 33 41.7396 -5
      vertex 33 46 -5
    endloop
  endfacet
  facet normal 0 0 1
    outer loop
      vertex 33 41.7396 -5
      vertex 29.3738 41.3464 -5
      vertex 29.7408 40.9028 -5
    endloop
  endfacet
  facet normal 0 0 1
    outer loop
      vertex 33 41.7396 -5
      vertex 28.8245 41.8622 -5
      vertex 29.3738 41.3464 -5
    endloop
  endfacet
  facet normal 0 0 1
    outer loop
      vertex 33 46 -5
      vertex 28.215 42.3051 -5
      vertex 28.8245 41.8622 -5
    endloop
  endfacet
  facet normal 0 0 1
    outer loop
      vertex 33 46 -5
      vertex 27.5547 42.6681 -5
      vertex 28.215 42.3051 -5
    endloop
  endfacet
  facet normal 0 0 1
    outer loop
      vertex 33 46 -5
      vertex 26.8541 42.9454 -5
      vertex 27.5547 42.6681 -5
    endloop
  endfacet
  facet normal 0 0 1
    outer loop
      vertex 33 46 -5
      vertex 26.1243 43.1328 -5
      vertex 26.8541 42.9454 -5
    endloop
  endfacet
  facet normal 0 0 1
    outer loop
      vertex 33 46 -5
      vertex 25.3767 43.2273 -5
      vertex 26.1243 43.1328 -5
    endloop
  endfacet
  facet normal 0 0 1
    outer loop
      vertex 33 46 -5
      vertex 24.6233 43.2273 -5
      vertex 25.3767 43.2273 -5
    endloop
  endfacet
  facet normal 0 0 1
    outer loop
      vertex 24.3767 43.2273 -5
      vertex 24.6233 43.2273 -5
      vertex 33 46 -5
    endloop
  endfacet
  facet normal 0 0 1
    outer loop
      vertex 24.6233 43.2273 -5
      vertex 24.3767 43.2273 -5
      vertex 24.5 43.2117 -5
    endloop
  endfacet
  facet normal 0 0 1
    outer loop
      vertex 33 46 -5
      vertex 23.6233 43.2273 -5
      vertex 24.3767 43.2273 -5
    endloop
  endfacet
  facet normal -0 0 1
    outer loop
      vertex 13.2902 46 -5
      vertex 23.6233 43.2273 -5
      vertex 33 46 -5
    endloop
  endfacet
  facet normal 0 0 1
    outer loop
      vertex 23.6233 43.2273 -5
      vertex 13.2902 46 -5
      vertex 22.8757 43.1328 -5
    endloop
  endfacet
  facet normal 0 0 1
    outer loop
      vertex 13.9235 41.3392 -5
      vertex 18 37.2391 -5
      vertex 18.0473 37.9911 -5
    endloop
  endfacet
  facet normal 0 0 1
    outer loop
      vertex 14.1064 41.3714 -5
      vertex 18.0473 37.9911 -5
      vertex 18.1885 38.7312 -5
    endloop
  endfacet
  facet normal 0 0 1
    outer loop
      vertex 14.1064 41.3714 -5
      vertex 18.1885 38.7312 -5
      vertex 18.4213 39.4478 -5
    endloop
  endfacet
  facet normal 0 0 1
    outer loop
      vertex 18.0473 37.9911 -5
      vertex 14.1064 41.3714 -5
      vertex 13.9235 41.3392 -5
    endloop
  endfacet
  facet normal 0 0 1
    outer loop
      vertex 18.7422 40.1296 -5
      vertex 14.1064 41.3714 -5
      vertex 18.4213 39.4478 -5
    endloop
  endfacet
  facet normal 0 0 1
    outer loop
      vertex 19.1459 40.7658 -5
      vertex 14.1064 41.3714 -5
      vertex 18.7422 40.1296 -5
    endloop
  endfacet
  facet normal 0 0 1
    outer loop
      vertex 14.0253 41.8312 -5
      vertex 19.1459 40.7658 -5
      vertex 19.6262 41.3464 -5
    endloop
  endfacet
  facet normal 0 0 1
    outer loop
      vertex 13.2902 46 -5
      vertex 19.6262 41.3464 -5
      vertex 20.1755 41.8622 -5
    endloop
  endfacet
  facet normal 0 0 1
    outer loop
      vertex 13.2902 46 -5
      vertex 20.1755 41.8622 -5
      vertex 20.785 42.3051 -5
    endloop
  endfacet
  facet normal 0 0 1
    outer loop
      vertex 13.2902 46 -5
      vertex 20.785 42.3051 -5
      vertex 21.4453 42.6681 -5
    endloop
  endfacet
  facet normal 0 0 1
    outer loop
      vertex 13.2902 46 -5
      vertex 21.4453 42.6681 -5
      vertex 22.1459 42.9454 -5
    endloop
  endfacet
  facet normal 0 0 1
    outer loop
      vertex 22.8757 43.1328 -5
      vertex 13.2902 46 -5
      vertex 22.1459 42.9454 -5
    endloop
  endfacet
  facet normal 0 0 1
    outer loop
      vertex 19.1459 40.7658 -5
      vertex 14.0253 41.8312 -5
      vertex 14.1064 41.3714 -5
    endloop
  endfacet
  facet normal 0 0 1
    outer loop
      vertex 19.6262 41.3464 -5
      vertex 13.2902 46 -5
      vertex 14.0253 41.8312 -5
    endloop
  endfacet
  facet normal 0 0 1
    outer loop
      vertex 18.1885 35.747 -5
      vertex 15.5908 33.1321 -5
      vertex 18.3797 35.1584 -5
    endloop
  endfacet
  facet normal 0 0 1
    outer loop
      vertex 18.0473 36.4871 -5
      vertex 15.5908 33.1321 -5
      vertex 18.1885 35.747 -5
    endloop
  endfacet
  facet normal 0 0 1
    outer loop
      vertex 15.5908 33.1321 -5
      vertex 18.0473 36.4871 -5
      vertex 18 37.2391 -5
    endloop
  endfacet
  facet normal -0 0 1
    outer loop
      vertex 12.1292 41.0228 -5
      vertex 18 37.2391 -5
      vertex 13.9235 41.3392 -5
    endloop
  endfacet
  facet normal 0 0 1
    outer loop
      vertex 18 37.2391 -5
      vertex 12.1292 41.0228 -5
      vertex 15.5908 33.1321 -5
    endloop
  endfacet
  facet normal 0 0 1
    outer loop
      vertex 12.1292 41.0228 -5
      vertex 11.6543 29.4355 -5
      vertex 15.5908 33.1321 -5
    endloop
  endfacet
  facet normal 0 0 1
    outer loop
      vertex 0 46 -5
      vertex 12.1292 41.0228 -5
      vertex 11.3336 45.5349 -5
    endloop
  endfacet
  facet normal 0 0 1
    outer loop
      vertex 0 46 -5
      vertex 11.3336 45.5349 -5
      vertex 11.261 45.9468 -5
    endloop
  endfacet
  facet normal 0 0 1
    outer loop
      vertex 0 46 -5
      vertex 11.6543 29.4355 -5
      vertex 12.1292 41.0228 -5
    endloop
  endfacet
  facet normal 0.904827 -0.425779 0
    outer loop
      vertex 3.01961 15.8294 -5
      vertex 5.31881 20.7154 -20
      vertex 5.31881 20.7154 -5
    endloop
  endfacet
  facet normal 0.904827 -0.425779 0
    outer loop
      vertex 5.31881 20.7154 -20
      vertex 3.01961 15.8294 -5
      vertex 3.01961 15.8294 -20
    endloop
  endfacet
  facet normal 0.770513 -0.637424 0
    outer loop
      vertex 8.21227 25.2748 -5
      vertex 11.6543 29.4355 -20
      vertex 11.6543 29.4355 -5
    endloop
  endfacet
  facet normal 0.770513 -0.637424 0
    outer loop
      vertex 11.6543 29.4355 -20
      vertex 8.21227 25.2748 -5
      vertex 8.21227 25.2748 -20
    endloop
  endfacet
  facet normal 0.24869 -0.968583 0
    outer loop
      vertex 29.7408 40.9028 -20
      vertex 33 41.7396 -5
      vertex 29.7408 40.9028 -5
    endloop
  endfacet
  facet normal 0.24869 -0.968583 0
    outer loop
      vertex 33 41.7396 -5
      vertex 29.7408 40.9028 -20
      vertex 33 41.7396 -20
    endloop
  endfacet
  facet normal 0.951057 -0.309017 0
    outer loop
      vertex 2.75014 15 -5
      vertex 3.01961 15.8294 -20
      vertex 3.01961 15.8294 -5
    endloop
  endfacet
  facet normal 0.951057 -0.309017 0
    outer loop
      vertex 3.01961 15.8294 -20
      vertex 2.75014 15 -5
      vertex 2.75014 15 -20
    endloop
  endfacet
  facet normal 0.844328 -0.535827 0
    outer loop
      vertex 5.31881 20.7154 -5
      vertex 8.21227 25.2748 -20
      vertex 8.21227 25.2748 -5
    endloop
  endfacet
  facet normal 0.844328 -0.535827 0
    outer loop
      vertex 8.21227 25.2748 -20
      vertex 5.31881 20.7154 -5
      vertex 5.31881 20.7154 -20
    endloop
  endfacet
  facet normal 0.587785 -0.809017 0
    outer loop
      vertex 15.5908 33.1321 -20
      vertex 18.3797 35.1584 -5
      vertex 15.5908 33.1321 -5
    endloop
  endfacet
  facet normal 0.587785 -0.809017 0
    outer loop
      vertex 18.3797 35.1584 -5
      vertex 15.5908 33.1321 -20
      vertex 18.3797 35.1584 -20
    endloop
  endfacet
  facet normal 0.684547 -0.728969 0
    outer loop
      vertex 11.6543 29.4355 -20
      vertex 15.5908 33.1321 -5
      vertex 11.6543 29.4355 -5
    endloop
  endfacet
  facet normal 0.684547 -0.728969 0
    outer loop
      vertex 15.5908 33.1321 -5
      vertex 11.6543 29.4355 -20
      vertex 15.5908 33.1321 -20
    endloop
  endfacet
  facet normal 0 -1 0
    outer loop
      vertex 0 15 -20
      vertex 2.75014 15 -5
      vertex 0 15 -5
    endloop
  endfacet
  facet normal 0 -1 -0
    outer loop
      vertex 2.75014 15 -5
      vertex 0 15 -20
      vertex 2.75014 15 -20
    endloop
  endfacet
  facet normal 0.125338 -0.992114 0
    outer loop
      vertex 24.5 43.2117 -20
      vertex 24.6233 43.2273 -5
      vertex 24.5 43.2117 -5
    endloop
  endfacet
  facet normal 0.125338 -0.992114 0
    outer loop
      vertex 24.6233 43.2273 -5
      vertex 24.5 43.2117 -20
      vertex 24.6233 43.2273 -20
    endloop
  endfacet
  facet normal -0.587787 -0.809016 0
    outer loop
      vertex 28.215 42.3051 -20
      vertex 28.8245 41.8622 -5
      vertex 28.215 42.3051 -5
    endloop
  endfacet
  facet normal -0.587787 -0.809016 -0
    outer loop
      vertex 28.8245 41.8622 -5
      vertex 28.215 42.3051 -20
      vertex 28.8245 41.8622 -20
    endloop
  endfacet
  facet normal -0.770514 -0.637424 0
    outer loop
      vertex 29.7408 40.9028 -20
      vertex 29.3738 41.3464 -5
      vertex 29.3738 41.3464 -20
    endloop
  endfacet
  facet normal -0.770514 -0.637424 0
    outer loop
      vertex 29.3738 41.3464 -5
      vertex 29.7408 40.9028 -20
      vertex 29.7408 40.9028 -5
    endloop
  endfacet
  facet normal -0.248691 -0.968583 0
    outer loop
      vertex 26.1243 43.1328 -20
      vertex 26.8541 42.9454 -5
      vertex 26.1243 43.1328 -5
    endloop
  endfacet
  facet normal -0.248691 -0.968583 -0
    outer loop
      vertex 26.8541 42.9454 -5
      vertex 26.1243 43.1328 -20
      vertex 26.8541 42.9454 -20
    endloop
  endfacet
  facet normal -0.125333 -0.992115 0
    outer loop
      vertex 25.3767 43.2273 -20
      vertex 26.1243 43.1328 -5
      vertex 25.3767 43.2273 -5
    endloop
  endfacet
  facet normal -0.125333 -0.992115 -0
    outer loop
      vertex 26.1243 43.1328 -5
      vertex 25.3767 43.2273 -20
      vertex 26.1243 43.1328 -20
    endloop
  endfacet
  facet normal -0.481751 -0.876308 0
    outer loop
      vertex 27.5547 42.6681 -20
      vertex 28.215 42.3051 -5
      vertex 27.5547 42.6681 -5
    endloop
  endfacet
  facet normal -0.481751 -0.876308 -0
    outer loop
      vertex 28.215 42.3051 -5
      vertex 27.5547 42.6681 -20
      vertex 28.215 42.3051 -20
    endloop
  endfacet
  facet normal -0.684546 -0.728969 0
    outer loop
      vertex 28.8245 41.8622 -20
      vertex 29.3738 41.3464 -5
      vertex 28.8245 41.8622 -5
    endloop
  endfacet
  facet normal -0.684546 -0.728969 -0
    outer loop
      vertex 29.3738 41.3464 -5
      vertex 28.8245 41.8622 -20
      vertex 29.3738 41.3464 -20
    endloop
  endfacet
  facet normal 0 -1 0
    outer loop
      vertex 24.6233 43.2273 -20
      vertex 25.3767 43.2273 -5
      vertex 24.6233 43.2273 -5
    endloop
  endfacet
  facet normal 0 -1 -0
    outer loop
      vertex 25.3767 43.2273 -5
      vertex 24.6233 43.2273 -20
      vertex 25.3767 43.2273 -20
    endloop
  endfacet
  facet normal -0.368126 -0.929776 0
    outer loop
      vertex 26.8541 42.9454 -20
      vertex 27.5547 42.6681 -5
      vertex 26.8541 42.9454 -5
    endloop
  endfacet
  facet normal -0.368126 -0.929776 -0
    outer loop
      vertex 27.5547 42.6681 -5
      vertex 26.8541 42.9454 -20
      vertex 27.5547 42.6681 -20
    endloop
  endfacet
  facet normal 0.48175 -0.876309 0
    outer loop
      vertex 20.785 42.3051 -20
      vertex 21.4453 42.6681 -5
      vertex 20.785 42.3051 -5
    endloop
  endfacet
  facet normal 0.48175 -0.876309 0
    outer loop
      vertex 21.4453 42.6681 -5
      vertex 20.785 42.3051 -20
      vertex 21.4453 42.6681 -20
    endloop
  endfacet
  facet normal 0.951056 -0.309019 0
    outer loop
      vertex 18.1885 38.7312 -5
      vertex 18.4213 39.4478 -20
      vertex 18.4213 39.4478 -5
    endloop
  endfacet
  facet normal 0.951056 -0.309019 0
    outer loop
      vertex 18.4213 39.4478 -20
      vertex 18.1885 38.7312 -5
      vertex 18.1885 38.7312 -20
    endloop
  endfacet
  facet normal 0.998027 0.0627905 0
    outer loop
      vertex 18.0473 36.4871 -5
      vertex 18 37.2391 -20
      vertex 18 37.2391 -5
    endloop
  endfacet
  facet normal 0.998027 0.0627905 0
    outer loop
      vertex 18 37.2391 -20
      vertex 18.0473 36.4871 -5
      vertex 18.0473 36.4871 -20
    endloop
  endfacet
  facet normal 0.844329 -0.535825 0
    outer loop
      vertex 18.7422 40.1296 -5
      vertex 19.1459 40.7658 -20
      vertex 19.1459 40.7658 -5
    endloop
  endfacet
  facet normal 0.844329 -0.535825 0
    outer loop
      vertex 19.1459 40.7658 -20
      vertex 18.7422 40.1296 -5
      vertex 18.7422 40.1296 -20
    endloop
  endfacet
  facet normal 0.368126 -0.929776 0
    outer loop
      vertex 21.4453 42.6681 -20
      vertex 22.1459 42.9454 -5
      vertex 21.4453 42.6681 -5
    endloop
  endfacet
  facet normal 0.368126 -0.929776 0
    outer loop
      vertex 22.1459 42.9454 -5
      vertex 21.4453 42.6681 -20
      vertex 22.1459 42.9454 -20
    endloop
  endfacet
  facet normal 0.770513 -0.637424 0
    outer loop
      vertex 19.1459 40.7658 -5
      vertex 19.6262 41.3464 -20
      vertex 19.6262 41.3464 -5
    endloop
  endfacet
  facet normal 0.770513 -0.637424 0
    outer loop
      vertex 19.6262 41.3464 -20
      vertex 19.1459 40.7658 -5
      vertex 19.1459 40.7658 -20
    endloop
  endfacet
  facet normal 0.125333 -0.992115 0
    outer loop
      vertex 22.8757 43.1328 -20
      vertex 23.6233 43.2273 -5
      vertex 22.8757 43.1328 -5
    endloop
  endfacet
  facet normal 0.125333 -0.992115 0
    outer loop
      vertex 23.6233 43.2273 -5
      vertex 22.8757 43.1328 -20
      vertex 23.6233 43.2273 -20
    endloop
  endfacet
  facet normal -0.125338 -0.992114 0
    outer loop
      vertex 24.3767 43.2273 -20
      vertex 24.5 43.2117 -5
      vertex 24.3767 43.2273 -5
    endloop
  endfacet
  facet normal -0.125338 -0.992114 -0
    outer loop
      vertex 24.5 43.2117 -5
      vertex 24.3767 43.2273 -20
      vertex 24.5 43.2117 -20
    endloop
  endfacet
  facet normal 0.982288 -0.18738 0
    outer loop
      vertex 18.0473 37.9911 -5
      vertex 18.1885 38.7312 -20
      vertex 18.1885 38.7312 -5
    endloop
  endfacet
  facet normal 0.982288 -0.18738 0
    outer loop
      vertex 18.1885 38.7312 -20
      vertex 18.0473 37.9911 -5
      vertex 18.0473 37.9911 -20
    endloop
  endfacet
  facet normal 0.998027 -0.0627902 0
    outer loop
      vertex 18 37.2391 -5
      vertex 18.0473 37.9911 -20
      vertex 18.0473 37.9911 -5
    endloop
  endfacet
  facet normal 0.998027 -0.0627902 0
    outer loop
      vertex 18.0473 37.9911 -20
      vertex 18 37.2391 -5
      vertex 18 37.2391 -20
    endloop
  endfacet
  facet normal 0.904827 -0.425779 0
    outer loop
      vertex 18.4213 39.4478 -5
      vertex 18.7422 40.1296 -20
      vertex 18.7422 40.1296 -5
    endloop
  endfacet
  facet normal 0.904827 -0.425779 0
    outer loop
      vertex 18.7422 40.1296 -20
      vertex 18.4213 39.4478 -5
      vertex 18.4213 39.4478 -20
    endloop
  endfacet
  facet normal 0.248691 -0.968583 0
    outer loop
      vertex 22.1459 42.9454 -20
      vertex 22.8757 43.1328 -5
      vertex 22.1459 42.9454 -5
    endloop
  endfacet
  facet normal 0.248691 -0.968583 0
    outer loop
      vertex 22.8757 43.1328 -5
      vertex 22.1459 42.9454 -20
      vertex 22.8757 43.1328 -20
    endloop
  endfacet
  facet normal 0.684545 -0.72897 0
    outer loop
      vertex 19.6262 41.3464 -20
      vertex 20.1755 41.8622 -5
      vertex 19.6262 41.3464 -5
    endloop
  endfacet
  facet normal 0.684545 -0.72897 0
    outer loop
      vertex 20.1755 41.8622 -5
      vertex 19.6262 41.3464 -20
      vertex 20.1755 41.8622 -20
    endloop
  endfacet
  facet normal 0.587788 -0.809015 0
    outer loop
      vertex 20.1755 41.8622 -20
      vertex 20.785 42.3051 -5
      vertex 20.1755 41.8622 -5
    endloop
  endfacet
  facet normal 0.587788 -0.809015 0
    outer loop
      vertex 20.785 42.3051 -5
      vertex 20.1755 41.8622 -20
      vertex 20.785 42.3051 -20
    endloop
  endfacet
  facet normal 0.982288 0.18738 0
    outer loop
      vertex 18.1885 35.747 -5
      vertex 18.0473 36.4871 -20
      vertex 18.0473 36.4871 -5
    endloop
  endfacet
  facet normal 0.982288 0.18738 0
    outer loop
      vertex 18.0473 36.4871 -20
      vertex 18.1885 35.747 -5
      vertex 18.1885 35.747 -20
    endloop
  endfacet
  facet normal 0 -1 0
    outer loop
      vertex 23.6233 43.2273 -20
      vertex 24.3767 43.2273 -5
      vertex 23.6233 43.2273 -5
    endloop
  endfacet
  facet normal 0 -1 -0
    outer loop
      vertex 24.3767 43.2273 -5
      vertex 23.6233 43.2273 -20
      vertex 24.3767 43.2273 -20
    endloop
  endfacet
  facet normal 0.951056 0.30902 0
    outer loop
      vertex 18.3797 35.1584 -5
      vertex 18.1885 35.747 -20
      vertex 18.1885 35.747 -5
    endloop
  endfacet
  facet normal 0.951056 0.30902 0
    outer loop
      vertex 18.1885 35.747 -20
      vertex 18.3797 35.1584 -5
      vertex 18.3797 35.1584 -20
    endloop
  endfacet
  facet normal 0.98106 0.172987 0.0871557
    outer loop
      vertex 12.1292 41.0228 -5
      vertex 13.3523 41.6438 -20
      vertex 11.3336 45.5349 -5
    endloop
  endfacet
  facet normal 0.98106 0.172988 0.0871557
    outer loop
      vertex 13.3523 41.6438 -20
      vertex 12.1292 41.0228 -5
      vertex 13.4216 41.2507 -20
    endloop
  endfacet
  facet normal -0.98106 -0.172987 -0.0871558
    outer loop
      vertex 14.0253 41.8312 -5
      vertex 13.2902 46 -5
      vertex 14.5682 46 -19.3854
    endloop
  endfacet
  facet normal -0.98106 -0.172987 -0.0871553
    outer loop
      vertex 15.3988 41.5993 -20
      vertex 14.5682 46 -19.3854
      vertex 14.6228 46 -20
    endloop
  endfacet
  facet normal -0.98106 -0.172987 -0.0871557
    outer loop
      vertex 14.5682 46 -19.3854
      vertex 15.3988 41.5993 -20
      vertex 14.0253 41.8312 -5
    endloop
  endfacet
  facet normal -0.98106 -0.172988 -0.0871557
    outer loop
      vertex 14.0253 41.8312 -5
      vertex 15.3988 41.5993 -20
      vertex 14.1064 41.3714 -5
    endloop
  endfacet
  facet normal -0.173648 0.984808 -1.10768e-07
    outer loop
      vertex 13.578 41.2782 -20
      vertex 14.1064 41.3714 -5
      vertex 15.3988 41.5993 -20
    endloop
  endfacet
  facet normal -0.173646 0.984808 -1.84026e-07
    outer loop
      vertex 14.1064 41.3714 -5
      vertex 13.578 41.2782 -20
      vertex 13.9235 41.3392 -5
    endloop
  endfacet
  facet normal 0.98106 0.172988 0.0871558
    outer loop
      vertex 11.3336 45.5349 -5
      vertex 11.5626 46 -8.50005
      vertex 11.261 45.9468 -5
    endloop
  endfacet
  facet normal 0.98106 0.172987 0.0871557
    outer loop
      vertex 13.3523 41.6438 -20
      vertex 11.5626 46 -8.50005
      vertex 11.3336 45.5349 -5
    endloop
  endfacet
  facet normal 0.98106 0.172987 0.0871558
    outer loop
      vertex 11.5626 46 -8.50005
      vertex 13.3523 41.6438 -20
      vertex 12.5842 46 -20
    endloop
  endfacet
  facet normal -0.173636 0.98481 -4.34321e-07
    outer loop
      vertex 13.4216 41.2507 -20
      vertex 13.9235 41.3392 -5
      vertex 13.578 41.2782 -20
    endloop
  endfacet
  facet normal -0.173648 0.984808 -3.18712e-08
    outer loop
      vertex 13.9235 41.3392 -5
      vertex 13.4216 41.2507 -20
      vertex 12.1292 41.0228 -5
    endloop
  endfacet
  facet normal 0.173646 -0.984808 0
    outer loop
      vertex 11.5626 46 -5
      vertex 11.261 45.9468 -5
      vertex 11.5626 46 -8.50005
    endloop
  endfacet
  facet normal 1 -0 0
    outer loop
      vertex 33 41.7396 -5
      vertex 33 46 -20
      vertex 33 46 -5
    endloop
  endfacet
  facet normal 1 0 0
    outer loop
      vertex 33 46 -20
      vertex 33 41.7396 -5
      vertex 33 41.7396 -20
    endloop
  endfacet
endsolid OpenSCAD_Model
