solid OpenSCAD_Model
  facet normal -1 0 0
    outer loop
      vertex 0 15 0
      vertex 0 45 15
      vertex 0 45 0
    endloop
  endfacet
  facet normal -1 -0 0
    outer loop
      vertex 0 45 15
      vertex 0 15 0
      vertex 0 15 15
    endloop
  endfacet
  facet normal 0 0 1
    outer loop
      vertex 40 45 15
      vertex 37.4884 39.9211 15
      vertex 40 39.9211 15
    endloop
  endfacet
  facet normal 0 0 1
    outer loop
      vertex 40 45 15
      vertex 32.5047 39.2915 15
      vertex 37.4884 39.9211 15
    endloop
  endfacet
  facet normal -0 0 1
    outer loop
      vertex 27.5547 40.07 15
      vertex 32.5047 39.2915 15
      vertex 40 45 15
    endloop
  endfacet
  facet normal 0 0 1
    outer loop
      vertex 32.5047 39.2915 15
      vertex 29.3738 38.7483 15
      vertex 29.5517 38.5333 15
    endloop
  endfacet
  facet normal 0 0 1
    outer loop
      vertex 32.5047 39.2915 15
      vertex 28.8245 39.2641 15
      vertex 29.3738 38.7483 15
    endloop
  endfacet
  facet normal 0 0 1
    outer loop
      vertex 32.5047 39.2915 15
      vertex 28.215 39.707 15
      vertex 28.8245 39.2641 15
    endloop
  endfacet
  facet normal 0 0 1
    outer loop
      vertex 32.5047 39.2915 15
      vertex 27.5547 40.07 15
      vertex 28.215 39.707 15
    endloop
  endfacet
  facet normal 0 0 1
    outer loop
      vertex 40 45 15
      vertex 26.8541 40.3474 15
      vertex 27.5547 40.07 15
    endloop
  endfacet
  facet normal 0 0 1
    outer loop
      vertex 40 45 15
      vertex 26.1243 40.5347 15
      vertex 26.8541 40.3474 15
    endloop
  endfacet
  facet normal 0 0 1
    outer loop
      vertex 40 45 15
      vertex 25.3767 40.6292 15
      vertex 26.1243 40.5347 15
    endloop
  endfacet
  facet normal -0 0 1
    outer loop
      vertex 12.8952 45 15
      vertex 25.3767 40.6292 15
      vertex 40 45 15
    endloop
  endfacet
  facet normal 0 0 1
    outer loop
      vertex 25.3767 40.6292 15
      vertex 12.8952 45 15
      vertex 24.6233 40.6292 15
    endloop
  endfacet
  facet normal 0 0 1
    outer loop
      vertex 24.6233 40.6292 15
      vertex 24.3767 40.6292 15
      vertex 24.5 40.6136 15
    endloop
  endfacet
  facet normal 0 0 1
    outer loop
      vertex 24.6233 40.6292 15
      vertex 12.8952 45 15
      vertex 24.3767 40.6292 15
    endloop
  endfacet
  facet normal 0 0 1
    outer loop
      vertex 24.3767 40.6292 15
      vertex 12.8952 45 15
      vertex 23.6233 40.6292 15
    endloop
  endfacet
  facet normal 0 0 1
    outer loop
      vertex 23.6233 40.6292 15
      vertex 12.8952 45 15
      vertex 22.8757 40.5347 15
    endloop
  endfacet
  facet normal 0 0 1
    outer loop
      vertex 18.0473 35.393 15
      vertex 14.503 30.8205 15
      vertex 18 34.641 15
    endloop
  endfacet
  facet normal 0 0 1
    outer loop
      vertex 13.3073 40.2894 15
      vertex 18.0473 35.393 15
      vertex 18.1885 36.1332 15
    endloop
  endfacet
  facet normal 0 0 1
    outer loop
      vertex 13.3073 40.2894 15
      vertex 18.1885 36.1332 15
      vertex 18.4213 36.8498 15
    endloop
  endfacet
  facet normal 0 0 1
    outer loop
      vertex 13.3073 40.2894 15
      vertex 18.4213 36.8498 15
      vertex 18.7422 37.5315 15
    endloop
  endfacet
  facet normal 0 0 1
    outer loop
      vertex 18.0473 35.393 15
      vertex 13.3073 40.2894 15
      vertex 12.9968 40.2622 15
    endloop
  endfacet
  facet normal 0 0 1
    outer loop
      vertex 19.1459 38.1677 15
      vertex 13.3073 40.2894 15
      vertex 18.7422 37.5315 15
    endloop
  endfacet
  facet normal 0 0 1
    outer loop
      vertex 19.6262 38.7483 15
      vertex 13.3073 40.2894 15
      vertex 19.1459 38.1677 15
    endloop
  endfacet
  facet normal 0 0 1
    outer loop
      vertex 20.1755 39.2641 15
      vertex 13.3073 40.2894 15
      vertex 19.6262 38.7483 15
    endloop
  endfacet
  facet normal 0 0 1
    outer loop
      vertex 12.8952 45 15
      vertex 20.1755 39.2641 15
      vertex 20.785 39.707 15
    endloop
  endfacet
  facet normal 0 0 1
    outer loop
      vertex 12.8952 45 15
      vertex 20.785 39.707 15
      vertex 21.4453 40.07 15
    endloop
  endfacet
  facet normal 0 0 1
    outer loop
      vertex 12.8952 45 15
      vertex 21.4453 40.07 15
      vertex 22.1459 40.3474 15
    endloop
  endfacet
  facet normal 0 0 1
    outer loop
      vertex 22.8757 40.5347 15
      vertex 12.8952 45 15
      vertex 22.1459 40.3474 15
    endloop
  endfacet
  facet normal 0 0 1
    outer loop
      vertex 20.1755 39.2641 15
      vertex 12.8952 45 15
      vertex 13.3073 40.2894 15
    endloop
  endfacet
  facet normal 0 0 1
    outer loop
      vertex 18.0473 33.889 15
      vertex 14.503 30.8205 15
      vertex 18.13 33.4557 15
    endloop
  endfacet
  facet normal 0 0 1
    outer loop
      vertex 14.503 30.8205 15
      vertex 18.0473 33.889 15
      vertex 18 34.641 15
    endloop
  endfacet
  facet normal 0 0 1
    outer loop
      vertex 18.0473 35.393 15
      vertex 12.9968 40.2622 15
      vertex 14.503 30.8205 15
    endloop
  endfacet
  facet normal -0 0 1
    outer loop
      vertex 11.3073 40.1144 15
      vertex 14.503 30.8205 15
      vertex 12.9968 40.2622 15
    endloop
  endfacet
  facet normal 0 0 1
    outer loop
      vertex 11.3073 40.1144 15
      vertex 10.8413 27.3819 15
      vertex 14.503 30.8205 15
    endloop
  endfacet
  facet normal 0 0 1
    outer loop
      vertex 0 45 15
      vertex 11.3073 40.1144 15
      vertex 11.2361 40.9287 15
    endloop
  endfacet
  facet normal -0 0 1
    outer loop
      vertex 0 45 15
      vertex 11.2361 40.9287 15
      vertex 10.8799 45 15
    endloop
  endfacet
  facet normal 0 0 1
    outer loop
      vertex 11.3073 40.1144 15
      vertex 0 45 15
      vertex 10.8413 27.3819 15
    endloop
  endfacet
  facet normal 0 0 1
    outer loop
      vertex 10.8413 27.3819 15
      vertex 0 45 15
      vertex 7.63932 23.5114 15
    endloop
  endfacet
  facet normal 0 0 1
    outer loop
      vertex 7.63932 23.5114 15
      vertex 0 45 15
      vertex 4.94773 19.2701 15
    endloop
  endfacet
  facet normal 0 0 1
    outer loop
      vertex 0 15 15
      vertex 4.94773 19.2701 15
      vertex 0 45 15
    endloop
  endfacet
  facet normal 0 0 1
    outer loop
      vertex 4.94773 19.2701 15
      vertex 0 15 15
      vertex 2.93835 15 15
    endloop
  endfacet
  facet normal 1 -0 0
    outer loop
      vertex 40 39.9211 15
      vertex 40 45 0
      vertex 40 45 15
    endloop
  endfacet
  facet normal 1 0 0
    outer loop
      vertex 40 45 0
      vertex 40 39.9211 15
      vertex 40 39.9211 0
    endloop
  endfacet
  facet normal 0 1 -0
    outer loop
      vertex 40 45 0
      vertex 12.8952 45 15
      vertex 40 45 15
    endloop
  endfacet
  facet normal 0 1 0
    outer loop
      vertex 12.8952 45 15
      vertex 40 45 0
      vertex 11.5779 45 0
    endloop
  endfacet
  facet normal 0 1 -0
    outer loop
      vertex 9.7817 45 2.49527
      vertex 0 45 15
      vertex 10.8799 45 15
    endloop
  endfacet
  facet normal 0 1 0
    outer loop
      vertex 0 45 0
      vertex 9.7817 45 2.49527
      vertex 9.7817 45 1.08855
    endloop
  endfacet
  facet normal 0 1 0
    outer loop
      vertex 0 45 0
      vertex 9.7817 45 1.08855
      vertex 9.7817 45 0
    endloop
  endfacet
  facet normal 0 1 0
    outer loop
      vertex 9.7817 45 2.49527
      vertex 0 45 0
      vertex 0 45 15
    endloop
  endfacet
  facet normal 0 0 -1
    outer loop
      vertex 10 40 0
      vertex 14.503 30.8205 0
      vertex 10.8413 27.3819 0
    endloop
  endfacet
  facet normal 0 0 -1
    outer loop
      vertex 14.503 30.8205 0
      vertex 10 40 0
      vertex 12 40.175 0
    endloop
  endfacet
  facet normal 0 0 -1
    outer loop
      vertex 0 45 0
      vertex 10 40 0
      vertex 10.8413 27.3819 0
    endloop
  endfacet
  facet normal 0 0 -1
    outer loop
      vertex 0 45 0
      vertex 10.8413 27.3819 0
      vertex 7.63932 23.5114 0
    endloop
  endfacet
  facet normal -0 0 -1
    outer loop
      vertex 18.0473 33.889 0
      vertex 14.503 30.8205 0
      vertex 18 34.641 0
    endloop
  endfacet
  facet normal 0 0 -1
    outer loop
      vertex 14.503 30.8205 0
      vertex 18.0473 33.889 0
      vertex 18.13 33.4557 0
    endloop
  endfacet
  facet normal 0 0 -1
    outer loop
      vertex 37.4884 39.9211 0
      vertex 40 45 0
      vertex 40 39.9211 0
    endloop
  endfacet
  facet normal 0 0 -1
    outer loop
      vertex 32.5047 39.2915 0
      vertex 40 45 0
      vertex 37.4884 39.9211 0
    endloop
  endfacet
  facet normal 0 0 -1
    outer loop
      vertex 29.3738 38.7483 0
      vertex 32.5047 39.2915 0
      vertex 29.5517 38.5333 0
    endloop
  endfacet
  facet normal 0 0 -1
    outer loop
      vertex 28.8245 39.2641 0
      vertex 32.5047 39.2915 0
      vertex 29.3738 38.7483 0
    endloop
  endfacet
  facet normal 0 0 -1
    outer loop
      vertex 28.215 39.707 0
      vertex 32.5047 39.2915 0
      vertex 28.8245 39.2641 0
    endloop
  endfacet
  facet normal 0 0 -1
    outer loop
      vertex 27.5547 40.07 0
      vertex 32.5047 39.2915 0
      vertex 28.215 39.707 0
    endloop
  endfacet
  facet normal 0 0 -1
    outer loop
      vertex 32.5047 39.2915 0
      vertex 27.5547 40.07 0
      vertex 40 45 0
    endloop
  endfacet
  facet normal 0 0 -1
    outer loop
      vertex 26.8541 40.3474 0
      vertex 40 45 0
      vertex 27.5547 40.07 0
    endloop
  endfacet
  facet normal 0 0 -1
    outer loop
      vertex 26.1243 40.5347 0
      vertex 40 45 0
      vertex 26.8541 40.3474 0
    endloop
  endfacet
  facet normal 0 0 -1
    outer loop
      vertex 25.3767 40.6292 0
      vertex 40 45 0
      vertex 26.1243 40.5347 0
    endloop
  endfacet
  facet normal 0 0 -1
    outer loop
      vertex 11.5779 45 0
      vertex 25.3767 40.6292 0
      vertex 24.6233 40.6292 0
    endloop
  endfacet
  facet normal 0 0 -1
    outer loop
      vertex 24.3767 40.6292 0
      vertex 24.6233 40.6292 0
      vertex 24.5 40.6136 0
    endloop
  endfacet
  facet normal 0 0 -1
    outer loop
      vertex 11.5779 45 0
      vertex 24.6233 40.6292 0
      vertex 24.3767 40.6292 0
    endloop
  endfacet
  facet normal 0 0 -1
    outer loop
      vertex 11.5779 45 0
      vertex 24.3767 40.6292 0
      vertex 23.6233 40.6292 0
    endloop
  endfacet
  facet normal 0 0 -1
    outer loop
      vertex 11.5779 45 0
      vertex 23.6233 40.6292 0
      vertex 22.8757 40.5347 0
    endloop
  endfacet
  facet normal 0 0 -1
    outer loop
      vertex 11.5779 45 0
      vertex 22.8757 40.5347 0
      vertex 22.1459 40.3474 0
    endloop
  endfacet
  facet normal 0 0 -1
    outer loop
      vertex 14.503 30.8205 0
      vertex 18.0473 35.393 0
      vertex 18 34.641 0
    endloop
  endfacet
  facet normal 0 0 -1
    outer loop
      vertex 12 40.175 0
      vertex 18.0473 35.393 0
      vertex 14.503 30.8205 0
    endloop
  endfacet
  facet normal 0 0 -1
    outer loop
      vertex 18.0473 35.393 0
      vertex 12 40.175 0
      vertex 18.1885 36.1332 0
    endloop
  endfacet
  facet normal 0 0 -1
    outer loop
      vertex 18.1885 36.1332 0
      vertex 12 40.175 0
      vertex 18.4213 36.8498 0
    endloop
  endfacet
  facet normal 0 0 -1
    outer loop
      vertex 18.4213 36.8498 0
      vertex 12 40.175 0
      vertex 18.7422 37.5315 0
    endloop
  endfacet
  facet normal 0 0 -1
    outer loop
      vertex 12 40.175 0
      vertex 19.1459 38.1677 0
      vertex 18.7422 37.5315 0
    endloop
  endfacet
  facet normal 0 0 -1
    outer loop
      vertex 12 40.175 0
      vertex 19.6262 38.7483 0
      vertex 19.1459 38.1677 0
    endloop
  endfacet
  facet normal 0 0 -1
    outer loop
      vertex 12 40.175 0
      vertex 20.1755 39.2641 0
      vertex 19.6262 38.7483 0
    endloop
  endfacet
  facet normal 0 0 -1
    outer loop
      vertex 11.5779 45 0
      vertex 20.1755 39.2641 0
      vertex 12 40.175 0
    endloop
  endfacet
  facet normal 0 0 -1
    outer loop
      vertex 20.1755 39.2641 0
      vertex 11.5779 45 0
      vertex 20.785 39.707 0
    endloop
  endfacet
  facet normal 0 0 -1
    outer loop
      vertex 20.785 39.707 0
      vertex 11.5779 45 0
      vertex 21.4453 40.07 0
    endloop
  endfacet
  facet normal 0 0 -1
    outer loop
      vertex 21.4453 40.07 0
      vertex 11.5779 45 0
      vertex 22.1459 40.3474 0
    endloop
  endfacet
  facet normal 0 0 -1
    outer loop
      vertex 25.3767 40.6292 0
      vertex 11.5779 45 0
      vertex 40 45 0
    endloop
  endfacet
  facet normal 0 0 -1
    outer loop
      vertex 0 45 0
      vertex 7.63932 23.5114 0
      vertex 4.94773 19.2701 0
    endloop
  endfacet
  facet normal 0 0 -1
    outer loop
      vertex 0 15 0
      vertex 4.94773 19.2701 0
      vertex 2.93835 15 0
    endloop
  endfacet
  facet normal -0 0 -1
    outer loop
      vertex 4.94773 19.2701 0
      vertex 0 15 0
      vertex 0 45 0
    endloop
  endfacet
  facet normal 0 0 -1
    outer loop
      vertex 9.56422 44.981 0
      vertex 0 45 0
      vertex 9.7817 45 0
    endloop
  endfacet
  facet normal 0 0 -1
    outer loop
      vertex 10 40 0
      vertex 0 45 0
      vertex 9.56422 44.981 0
    endloop
  endfacet
  facet normal 0.844328 -0.535827 0
    outer loop
      vertex 4.94773 19.2701 15
      vertex 7.63932 23.5114 0
      vertex 7.63932 23.5114 15
    endloop
  endfacet
  facet normal 0.844328 -0.535827 0
    outer loop
      vertex 7.63932 23.5114 0
      vertex 4.94773 19.2701 15
      vertex 4.94773 19.2701 0
    endloop
  endfacet
  facet normal 0.770513 -0.637424 0
    outer loop
      vertex 7.63932 23.5114 15
      vertex 10.8413 27.3819 0
      vertex 10.8413 27.3819 15
    endloop
  endfacet
  facet normal 0.770513 -0.637424 0
    outer loop
      vertex 10.8413 27.3819 0
      vertex 7.63932 23.5114 15
      vertex 7.63932 23.5114 0
    endloop
  endfacet
  facet normal 0.125333 -0.992115 0
    outer loop
      vertex 32.5047 39.2915 0
      vertex 37.4884 39.9211 15
      vertex 32.5047 39.2915 15
    endloop
  endfacet
  facet normal 0.125333 -0.992115 0
    outer loop
      vertex 37.4884 39.9211 15
      vertex 32.5047 39.2915 0
      vertex 37.4884 39.9211 0
    endloop
  endfacet
  facet normal 0.904827 -0.425779 0
    outer loop
      vertex 2.93835 15 15
      vertex 4.94773 19.2701 0
      vertex 4.94773 19.2701 15
    endloop
  endfacet
  facet normal 0.904827 -0.425779 0
    outer loop
      vertex 4.94773 19.2701 0
      vertex 2.93835 15 15
      vertex 2.93835 15 0
    endloop
  endfacet
  facet normal 0.248689 -0.968583 0
    outer loop
      vertex 29.5517 38.5333 0
      vertex 32.5047 39.2915 15
      vertex 29.5517 38.5333 15
    endloop
  endfacet
  facet normal 0.248689 -0.968583 0
    outer loop
      vertex 32.5047 39.2915 15
      vertex 29.5517 38.5333 0
      vertex 32.5047 39.2915 0
    endloop
  endfacet
  facet normal 0.684547 -0.728969 0
    outer loop
      vertex 10.8413 27.3819 0
      vertex 14.503 30.8205 15
      vertex 10.8413 27.3819 15
    endloop
  endfacet
  facet normal 0.684547 -0.728969 0
    outer loop
      vertex 14.503 30.8205 15
      vertex 10.8413 27.3819 0
      vertex 14.503 30.8205 0
    endloop
  endfacet
  facet normal 0.587785 -0.809017 0
    outer loop
      vertex 14.503 30.8205 0
      vertex 18.13 33.4557 15
      vertex 14.503 30.8205 15
    endloop
  endfacet
  facet normal 0.587785 -0.809017 0
    outer loop
      vertex 18.13 33.4557 15
      vertex 14.503 30.8205 0
      vertex 18.13 33.4557 0
    endloop
  endfacet
  facet normal 0 -1 0
    outer loop
      vertex 37.4884 39.9211 0
      vertex 40 39.9211 15
      vertex 37.4884 39.9211 15
    endloop
  endfacet
  facet normal 0 -1 -0
    outer loop
      vertex 40 39.9211 15
      vertex 37.4884 39.9211 0
      vertex 40 39.9211 0
    endloop
  endfacet
  facet normal 0 -1 0
    outer loop
      vertex 0 15 0
      vertex 2.93835 15 15
      vertex 0 15 15
    endloop
  endfacet
  facet normal 0 -1 -0
    outer loop
      vertex 2.93835 15 15
      vertex 0 15 0
      vertex 2.93835 15 0
    endloop
  endfacet
  facet normal -0.368126 -0.929776 0
    outer loop
      vertex 26.8541 40.3474 0
      vertex 27.5547 40.07 15
      vertex 26.8541 40.3474 15
    endloop
  endfacet
  facet normal -0.368126 -0.929776 -0
    outer loop
      vertex 27.5547 40.07 15
      vertex 26.8541 40.3474 0
      vertex 27.5547 40.07 0
    endloop
  endfacet
  facet normal -0.684546 -0.728969 0
    outer loop
      vertex 28.8245 39.2641 0
      vertex 29.3738 38.7483 15
      vertex 28.8245 39.2641 15
    endloop
  endfacet
  facet normal -0.684546 -0.728969 -0
    outer loop
      vertex 29.3738 38.7483 15
      vertex 28.8245 39.2641 0
      vertex 29.3738 38.7483 0
    endloop
  endfacet
  facet normal -0.248691 -0.968583 0
    outer loop
      vertex 26.1243 40.5347 0
      vertex 26.8541 40.3474 15
      vertex 26.1243 40.5347 15
    endloop
  endfacet
  facet normal -0.248691 -0.968583 -0
    outer loop
      vertex 26.8541 40.3474 15
      vertex 26.1243 40.5347 0
      vertex 26.8541 40.3474 0
    endloop
  endfacet
  facet normal -0.125333 -0.992115 0
    outer loop
      vertex 25.3767 40.6292 0
      vertex 26.1243 40.5347 15
      vertex 25.3767 40.6292 15
    endloop
  endfacet
  facet normal -0.125333 -0.992115 -0
    outer loop
      vertex 26.1243 40.5347 15
      vertex 25.3767 40.6292 0
      vertex 26.1243 40.5347 0
    endloop
  endfacet
  facet normal -0.770512 -0.637425 0
    outer loop
      vertex 29.5517 38.5333 0
      vertex 29.3738 38.7483 15
      vertex 29.3738 38.7483 0
    endloop
  endfacet
  facet normal -0.770512 -0.637425 0
    outer loop
      vertex 29.3738 38.7483 15
      vertex 29.5517 38.5333 0
      vertex 29.5517 38.5333 15
    endloop
  endfacet
  facet normal -0.587787 -0.809016 0
    outer loop
      vertex 28.215 39.707 0
      vertex 28.8245 39.2641 15
      vertex 28.215 39.707 15
    endloop
  endfacet
  facet normal -0.587787 -0.809016 -0
    outer loop
      vertex 28.8245 39.2641 15
      vertex 28.215 39.707 0
      vertex 28.8245 39.2641 0
    endloop
  endfacet
  facet normal 0.125338 -0.992114 0
    outer loop
      vertex 24.5 40.6136 0
      vertex 24.6233 40.6292 15
      vertex 24.5 40.6136 15
    endloop
  endfacet
  facet normal 0.125338 -0.992114 0
    outer loop
      vertex 24.6233 40.6292 15
      vertex 24.5 40.6136 0
      vertex 24.6233 40.6292 0
    endloop
  endfacet
  facet normal 0 -1 0
    outer loop
      vertex 24.6233 40.6292 0
      vertex 25.3767 40.6292 15
      vertex 24.6233 40.6292 15
    endloop
  endfacet
  facet normal 0 -1 -0
    outer loop
      vertex 25.3767 40.6292 15
      vertex 24.6233 40.6292 0
      vertex 25.3767 40.6292 0
    endloop
  endfacet
  facet normal -0.481751 -0.876308 0
    outer loop
      vertex 27.5547 40.07 0
      vertex 28.215 39.707 15
      vertex 27.5547 40.07 15
    endloop
  endfacet
  facet normal -0.481751 -0.876308 -0
    outer loop
      vertex 28.215 39.707 15
      vertex 27.5547 40.07 0
      vertex 28.215 39.707 0
    endloop
  endfacet
  facet normal 0.125333 -0.992115 0
    outer loop
      vertex 22.8757 40.5347 0
      vertex 23.6233 40.6292 15
      vertex 22.8757 40.5347 15
    endloop
  endfacet
  facet normal 0.125333 -0.992115 0
    outer loop
      vertex 23.6233 40.6292 15
      vertex 22.8757 40.5347 0
      vertex 23.6233 40.6292 0
    endloop
  endfacet
  facet normal 0.770513 -0.637424 0
    outer loop
      vertex 19.1459 38.1677 15
      vertex 19.6262 38.7483 0
      vertex 19.6262 38.7483 15
    endloop
  endfacet
  facet normal 0.770513 -0.637424 0
    outer loop
      vertex 19.6262 38.7483 0
      vertex 19.1459 38.1677 15
      vertex 19.1459 38.1677 0
    endloop
  endfacet
  facet normal 0.48175 -0.876309 0
    outer loop
      vertex 20.785 39.707 0
      vertex 21.4453 40.07 15
      vertex 20.785 39.707 15
    endloop
  endfacet
  facet normal 0.48175 -0.876309 0
    outer loop
      vertex 21.4453 40.07 15
      vertex 20.785 39.707 0
      vertex 21.4453 40.07 0
    endloop
  endfacet
  facet normal -0.125338 -0.992114 0
    outer loop
      vertex 24.3767 40.6292 0
      vertex 24.5 40.6136 15
      vertex 24.3767 40.6292 15
    endloop
  endfacet
  facet normal -0.125338 -0.992114 -0
    outer loop
      vertex 24.5 40.6136 15
      vertex 24.3767 40.6292 0
      vertex 24.5 40.6136 0
    endloop
  endfacet
  facet normal 0.951056 -0.309019 0
    outer loop
      vertex 18.1885 36.1332 15
      vertex 18.4213 36.8498 0
      vertex 18.4213 36.8498 15
    endloop
  endfacet
  facet normal 0.951056 -0.309019 0
    outer loop
      vertex 18.4213 36.8498 0
      vertex 18.1885 36.1332 15
      vertex 18.1885 36.1332 0
    endloop
  endfacet
  facet normal 0.844329 -0.535825 0
    outer loop
      vertex 18.7422 37.5315 15
      vertex 19.1459 38.1677 0
      vertex 19.1459 38.1677 15
    endloop
  endfacet
  facet normal 0.844329 -0.535825 0
    outer loop
      vertex 19.1459 38.1677 0
      vertex 18.7422 37.5315 15
      vertex 18.7422 37.5315 0
    endloop
  endfacet
  facet normal 0.248691 -0.968583 0
    outer loop
      vertex 22.1459 40.3474 0
      vertex 22.8757 40.5347 15
      vertex 22.1459 40.3474 15
    endloop
  endfacet
  facet normal 0.248691 -0.968583 0
    outer loop
      vertex 22.8757 40.5347 15
      vertex 22.1459 40.3474 0
      vertex 22.8757 40.5347 0
    endloop
  endfacet
  facet normal 0.982287 0.187382 0
    outer loop
      vertex 18.13 33.4557 15
      vertex 18.0473 33.889 0
      vertex 18.0473 33.889 15
    endloop
  endfacet
  facet normal 0.982287 0.187382 0
    outer loop
      vertex 18.0473 33.889 0
      vertex 18.13 33.4557 15
      vertex 18.13 33.4557 0
    endloop
  endfacet
  facet normal 0 -1 0
    outer loop
      vertex 23.6233 40.6292 0
      vertex 24.3767 40.6292 15
      vertex 23.6233 40.6292 15
    endloop
  endfacet
  facet normal 0 -1 -0
    outer loop
      vertex 24.3767 40.6292 15
      vertex 23.6233 40.6292 0
      vertex 24.3767 40.6292 0
    endloop
  endfacet
  facet normal 0.904827 -0.425779 0
    outer loop
      vertex 18.4213 36.8498 15
      vertex 18.7422 37.5315 0
      vertex 18.7422 37.5315 15
    endloop
  endfacet
  facet normal 0.904827 -0.425779 0
    outer loop
      vertex 18.7422 37.5315 0
      vertex 18.4213 36.8498 15
      vertex 18.4213 36.8498 0
    endloop
  endfacet
  facet normal 0.982288 -0.187379 0
    outer loop
      vertex 18.0473 35.393 15
      vertex 18.1885 36.1332 0
      vertex 18.1885 36.1332 15
    endloop
  endfacet
  facet normal 0.982288 -0.187379 0
    outer loop
      vertex 18.1885 36.1332 0
      vertex 18.0473 35.393 15
      vertex 18.0473 35.393 0
    endloop
  endfacet
  facet normal 0.998027 -0.0627905 0
    outer loop
      vertex 18 34.641 15
      vertex 18.0473 35.393 0
      vertex 18.0473 35.393 15
    endloop
  endfacet
  facet normal 0.998027 -0.0627905 0
    outer loop
      vertex 18.0473 35.393 0
      vertex 18 34.641 15
      vertex 18 34.641 0
    endloop
  endfacet
  facet normal 0.998027 0.0627905 0
    outer loop
      vertex 18.0473 33.889 15
      vertex 18 34.641 0
      vertex 18 34.641 15
    endloop
  endfacet
  facet normal 0.998027 0.0627905 0
    outer loop
      vertex 18 34.641 0
      vertex 18.0473 33.889 15
      vertex 18.0473 33.889 0
    endloop
  endfacet
  facet normal 0.587788 -0.809015 0
    outer loop
      vertex 20.1755 39.2641 0
      vertex 20.785 39.707 15
      vertex 20.1755 39.2641 15
    endloop
  endfacet
  facet normal 0.587788 -0.809015 0
    outer loop
      vertex 20.785 39.707 15
      vertex 20.1755 39.2641 0
      vertex 20.785 39.707 0
    endloop
  endfacet
  facet normal 0.684545 -0.72897 0
    outer loop
      vertex 19.6262 38.7483 0
      vertex 20.1755 39.2641 15
      vertex 19.6262 38.7483 15
    endloop
  endfacet
  facet normal 0.684545 -0.72897 0
    outer loop
      vertex 20.1755 39.2641 15
      vertex 19.6262 38.7483 0
      vertex 20.1755 39.2641 0
    endloop
  endfacet
  facet normal 0.368126 -0.929776 0
    outer loop
      vertex 21.4453 40.07 0
      vertex 22.1459 40.3474 15
      vertex 21.4453 40.07 15
    endloop
  endfacet
  facet normal 0.368126 -0.929776 0
    outer loop
      vertex 22.1459 40.3474 15
      vertex 21.4453 40.07 0
      vertex 22.1459 40.3474 0
    endloop
  endfacet
  facet normal 0.992404 0.0868248 -0.0871557
    outer loop
      vertex 10 40 0
      vertex 11.2361 40.9287 15
      vertex 11.3073 40.1144 15
    endloop
  endfacet
  facet normal 0.992404 0.0868243 -0.0871557
    outer loop
      vertex 11.2361 40.9287 15
      vertex 10 40 0
      vertex 9.56422 44.981 0
    endloop
  endfacet
  facet normal -0.0871532 0.996195 -1.53723e-07
    outer loop
      vertex 12 40.175 0
      vertex 12.9968 40.2622 15
      vertex 13.3073 40.2894 15
    endloop
  endfacet
  facet normal -0.0871553 0.996195 -1.13452e-08
    outer loop
      vertex 12.9968 40.2622 15
      vertex 12 40.175 0
      vertex 10 40 0
    endloop
  endfacet
  facet normal -0.0871556 0.996195 5.75069e-08
    outer loop
      vertex 11.3073 40.1144 15
      vertex 12.9968 40.2622 15
      vertex 10 40 0
    endloop
  endfacet
  facet normal 0.0871601 -0.996194 0
    outer loop
      vertex 9.7817 45 1.08855
      vertex 9.7817 45 2.49527
      vertex 9.56422 44.981 0
    endloop
  endfacet
  facet normal 0.992404 0.086824 -0.0871558
    outer loop
      vertex 11.2361 40.9287 15
      vertex 9.7817 45 2.49527
      vertex 10.8799 45 15
    endloop
  endfacet
  facet normal 0.992404 0.086824 -0.0871558
    outer loop
      vertex 9.7817 45 2.49527
      vertex 11.2361 40.9287 15
      vertex 9.56422 44.981 0
    endloop
  endfacet
  facet normal 0.0871601 -0.996194 0
    outer loop
      vertex 9.7817 45 0
      vertex 9.7817 45 1.08855
      vertex 9.56422 44.981 0
    endloop
  endfacet
  facet normal -0.992404 -0.0868241 0.0871557
    outer loop
      vertex 11.5779 45 0
      vertex 13.3073 40.2894 15
      vertex 12.8952 45 15
    endloop
  endfacet
  facet normal -0.992404 -0.086824 0.0871558
    outer loop
      vertex 13.3073 40.2894 15
      vertex 11.5779 45 0
      vertex 12 40.175 0
    endloop
  endfacet
  facet normal -1 0 0
    outer loop
      vertex 0 15 -20
      vertex 0 45 -5
      vertex 0 45 -20
    endloop
  endfacet
  facet normal -1 -0 0
    outer loop
      vertex 0 45 -5
      vertex 0 15 -20
      vertex 0 15 -5
    endloop
  endfacet
  facet normal -0 0 -1
    outer loop
      vertex 18.0473 33.889 -20
      vertex 14.503 30.8205 -20
      vertex 18 34.641 -20
    endloop
  endfacet
  facet normal 0 0 -1
    outer loop
      vertex 14.503 30.8205 -20
      vertex 18.0473 33.889 -20
      vertex 18.13 33.4557 -20
    endloop
  endfacet
  facet normal 0 0 -1
    outer loop
      vertex 37.4884 39.9211 -20
      vertex 40 45 -20
      vertex 40 39.9211 -20
    endloop
  endfacet
  facet normal 0 0 -1
    outer loop
      vertex 32.5047 39.2915 -20
      vertex 40 45 -20
      vertex 37.4884 39.9211 -20
    endloop
  endfacet
  facet normal 0 0 -1
    outer loop
      vertex 29.3738 38.7483 -20
      vertex 32.5047 39.2915 -20
      vertex 29.5517 38.5333 -20
    endloop
  endfacet
  facet normal 0 0 -1
    outer loop
      vertex 28.8245 39.2641 -20
      vertex 32.5047 39.2915 -20
      vertex 29.3738 38.7483 -20
    endloop
  endfacet
  facet normal 0 0 -1
    outer loop
      vertex 28.215 39.707 -20
      vertex 32.5047 39.2915 -20
      vertex 28.8245 39.2641 -20
    endloop
  endfacet
  facet normal 0 0 -1
    outer loop
      vertex 27.5547 40.07 -20
      vertex 32.5047 39.2915 -20
      vertex 28.215 39.707 -20
    endloop
  endfacet
  facet normal 0 0 -1
    outer loop
      vertex 32.5047 39.2915 -20
      vertex 27.5547 40.07 -20
      vertex 40 45 -20
    endloop
  endfacet
  facet normal 0 0 -1
    outer loop
      vertex 26.8541 40.3474 -20
      vertex 40 45 -20
      vertex 27.5547 40.07 -20
    endloop
  endfacet
  facet normal 0 0 -1
    outer loop
      vertex 26.1243 40.5347 -20
      vertex 40 45 -20
      vertex 26.8541 40.3474 -20
    endloop
  endfacet
  facet normal 0 0 -1
    outer loop
      vertex 25.3767 40.6292 -20
      vertex 40 45 -20
      vertex 26.1243 40.5347 -20
    endloop
  endfacet
  facet normal 0 0 -1
    outer loop
      vertex 12.8952 45 -20
      vertex 25.3767 40.6292 -20
      vertex 24.6233 40.6292 -20
    endloop
  endfacet
  facet normal 0 0 -1
    outer loop
      vertex 24.3767 40.6292 -20
      vertex 24.6233 40.6292 -20
      vertex 24.5 40.6136 -20
    endloop
  endfacet
  facet normal 0 0 -1
    outer loop
      vertex 12.8952 45 -20
      vertex 24.6233 40.6292 -20
      vertex 24.3767 40.6292 -20
    endloop
  endfacet
  facet normal 0 0 -1
    outer loop
      vertex 12.8952 45 -20
      vertex 24.3767 40.6292 -20
      vertex 23.6233 40.6292 -20
    endloop
  endfacet
  facet normal 0 0 -1
    outer loop
      vertex 12.8952 45 -20
      vertex 23.6233 40.6292 -20
      vertex 22.8757 40.5347 -20
    endloop
  endfacet
  facet normal 0 0 -1
    outer loop
      vertex 12.8952 45 -20
      vertex 22.8757 40.5347 -20
      vertex 22.1459 40.3474 -20
    endloop
  endfacet
  facet normal 0 0 -1
    outer loop
      vertex 14.503 30.8205 -20
      vertex 18.0473 35.393 -20
      vertex 18 34.641 -20
    endloop
  endfacet
  facet normal 0 0 -1
    outer loop
      vertex 12.9968 40.2622 -20
      vertex 18.0473 35.393 -20
      vertex 14.503 30.8205 -20
    endloop
  endfacet
  facet normal 0 -0 -1
    outer loop
      vertex 13.3073 40.2894 -20
      vertex 18.0473 35.393 -20
      vertex 12.9968 40.2622 -20
    endloop
  endfacet
  facet normal 0 0 -1
    outer loop
      vertex 18.1885 36.1332 -20
      vertex 13.3073 40.2894 -20
      vertex 18.4213 36.8498 -20
    endloop
  endfacet
  facet normal 0 0 -1
    outer loop
      vertex 18.4213 36.8498 -20
      vertex 13.3073 40.2894 -20
      vertex 18.7422 37.5315 -20
    endloop
  endfacet
  facet normal 0 0 -1
    outer loop
      vertex 13.3073 40.2894 -20
      vertex 19.1459 38.1677 -20
      vertex 18.7422 37.5315 -20
    endloop
  endfacet
  facet normal 0 0 -1
    outer loop
      vertex 13.3073 40.2894 -20
      vertex 19.6262 38.7483 -20
      vertex 19.1459 38.1677 -20
    endloop
  endfacet
  facet normal 0 0 -1
    outer loop
      vertex 13.3073 40.2894 -20
      vertex 20.1755 39.2641 -20
      vertex 19.6262 38.7483 -20
    endloop
  endfacet
  facet normal 0 0 -1
    outer loop
      vertex 12.8952 45 -20
      vertex 20.1755 39.2641 -20
      vertex 13.3073 40.2894 -20
    endloop
  endfacet
  facet normal 0 0 -1
    outer loop
      vertex 20.1755 39.2641 -20
      vertex 12.8952 45 -20
      vertex 20.785 39.707 -20
    endloop
  endfacet
  facet normal 0 0 -1
    outer loop
      vertex 20.785 39.707 -20
      vertex 12.8952 45 -20
      vertex 21.4453 40.07 -20
    endloop
  endfacet
  facet normal 0 0 -1
    outer loop
      vertex 21.4453 40.07 -20
      vertex 12.8952 45 -20
      vertex 22.1459 40.3474 -20
    endloop
  endfacet
  facet normal 0 0 -1
    outer loop
      vertex 25.3767 40.6292 -20
      vertex 12.8952 45 -20
      vertex 40 45 -20
    endloop
  endfacet
  facet normal 0 0 -1
    outer loop
      vertex 18.0473 35.393 -20
      vertex 13.3073 40.2894 -20
      vertex 18.1885 36.1332 -20
    endloop
  endfacet
  facet normal 0 0 -1
    outer loop
      vertex 14.503 30.8205 -20
      vertex 11.3073 40.1144 -20
      vertex 12.9968 40.2622 -20
    endloop
  endfacet
  facet normal 0 0 -1
    outer loop
      vertex 10.8413 27.3819 -20
      vertex 11.3073 40.1144 -20
      vertex 14.503 30.8205 -20
    endloop
  endfacet
  facet normal 0 0 -1
    outer loop
      vertex 0 45 -20
      vertex 11.3073 40.1144 -20
      vertex 10.8413 27.3819 -20
    endloop
  endfacet
  facet normal 0 0 -1
    outer loop
      vertex 11.3073 40.1144 -20
      vertex 0 45 -20
      vertex 11.2361 40.9287 -20
    endloop
  endfacet
  facet normal 0 0 -1
    outer loop
      vertex 0 45 -20
      vertex 10.8413 27.3819 -20
      vertex 7.63932 23.5114 -20
    endloop
  endfacet
  facet normal 0 0 -1
    outer loop
      vertex 0 45 -20
      vertex 7.63932 23.5114 -20
      vertex 4.94773 19.2701 -20
    endloop
  endfacet
  facet normal 0 0 -1
    outer loop
      vertex 0 15 -20
      vertex 4.94773 19.2701 -20
      vertex 2.93835 15 -20
    endloop
  endfacet
  facet normal -0 0 -1
    outer loop
      vertex 4.94773 19.2701 -20
      vertex 0 15 -20
      vertex 0 45 -20
    endloop
  endfacet
  facet normal 0 0 -1
    outer loop
      vertex 11.2361 40.9287 -20
      vertex 0 45 -20
      vertex 10.8799 45 -20
    endloop
  endfacet
  facet normal 1 -0 0
    outer loop
      vertex 40 39.9211 -5
      vertex 40 45 -20
      vertex 40 45 -5
    endloop
  endfacet
  facet normal 1 0 0
    outer loop
      vertex 40 45 -20
      vertex 40 39.9211 -5
      vertex 40 39.9211 -20
    endloop
  endfacet
  facet normal 0 1 0
    outer loop
      vertex 12.8952 45 -20
      vertex 40 45 -5
      vertex 40 45 -20
    endloop
  endfacet
  facet normal 0 1 0
    outer loop
      vertex 40 45 -5
      vertex 12.8952 45 -20
      vertex 11.5779 45 -5
    endloop
  endfacet
  facet normal 0 1 -0
    outer loop
      vertex 9.7817 45 -6.08855
      vertex 0 45 -5
      vertex 9.7817 45 -5
    endloop
  endfacet
  facet normal 0 1 -0
    outer loop
      vertex 9.7817 45 -7.49527
      vertex 0 45 -5
      vertex 9.7817 45 -6.08855
    endloop
  endfacet
  facet normal 0 1 0
    outer loop
      vertex 0 45 -20
      vertex 9.7817 45 -7.49527
      vertex 10.8799 45 -20
    endloop
  endfacet
  facet normal 0 1 0
    outer loop
      vertex 9.7817 45 -7.49527
      vertex 0 45 -20
      vertex 0 45 -5
    endloop
  endfacet
  facet normal 0 0 1
    outer loop
      vertex 10 40 -5
      vertex 4.94773 19.2701 -5
      vertex 7.63932 23.5114 -5
    endloop
  endfacet
  facet normal 0 0 1
    outer loop
      vertex 10 40 -5
      vertex 0 45 -5
      vertex 4.94773 19.2701 -5
    endloop
  endfacet
  facet normal -0 0 1
    outer loop
      vertex 0 45 -5
      vertex 9.56422 44.981 -5
      vertex 9.7817 45 -5
    endloop
  endfacet
  facet normal 0 0 1
    outer loop
      vertex 0 15 -5
      vertex 4.94773 19.2701 -5
      vertex 0 45 -5
    endloop
  endfacet
  facet normal 0 0 1
    outer loop
      vertex 4.94773 19.2701 -5
      vertex 0 15 -5
      vertex 2.93835 15 -5
    endloop
  endfacet
  facet normal 0 0 1
    outer loop
      vertex 40 45 -5
      vertex 37.4884 39.9211 -5
      vertex 40 39.9211 -5
    endloop
  endfacet
  facet normal 0 0 1
    outer loop
      vertex 40 45 -5
      vertex 32.5047 39.2915 -5
      vertex 37.4884 39.9211 -5
    endloop
  endfacet
  facet normal -0 0 1
    outer loop
      vertex 27.5547 40.07 -5
      vertex 32.5047 39.2915 -5
      vertex 40 45 -5
    endloop
  endfacet
  facet normal 0 0 1
    outer loop
      vertex 32.5047 39.2915 -5
      vertex 29.3738 38.7483 -5
      vertex 29.5517 38.5333 -5
    endloop
  endfacet
  facet normal 0 0 1
    outer loop
      vertex 32.5047 39.2915 -5
      vertex 28.8245 39.2641 -5
      vertex 29.3738 38.7483 -5
    endloop
  endfacet
  facet normal 0 0 1
    outer loop
      vertex 32.5047 39.2915 -5
      vertex 28.215 39.707 -5
      vertex 28.8245 39.2641 -5
    endloop
  endfacet
  facet normal 0 0 1
    outer loop
      vertex 32.5047 39.2915 -5
      vertex 27.5547 40.07 -5
      vertex 28.215 39.707 -5
    endloop
  endfacet
  facet normal 0 0 1
    outer loop
      vertex 40 45 -5
      vertex 26.8541 40.3474 -5
      vertex 27.5547 40.07 -5
    endloop
  endfacet
  facet normal 0 0 1
    outer loop
      vertex 40 45 -5
      vertex 26.1243 40.5347 -5
      vertex 26.8541 40.3474 -5
    endloop
  endfacet
  facet normal 0 0 1
    outer loop
      vertex 40 45 -5
      vertex 25.3767 40.6292 -5
      vertex 26.1243 40.5347 -5
    endloop
  endfacet
  facet normal -0 0 1
    outer loop
      vertex 11.5779 45 -5
      vertex 25.3767 40.6292 -5
      vertex 40 45 -5
    endloop
  endfacet
  facet normal 0 0 1
    outer loop
      vertex 25.3767 40.6292 -5
      vertex 11.5779 45 -5
      vertex 24.6233 40.6292 -5
    endloop
  endfacet
  facet normal 0 0 1
    outer loop
      vertex 24.6233 40.6292 -5
      vertex 24.3767 40.6292 -5
      vertex 24.5 40.6136 -5
    endloop
  endfacet
  facet normal 0 0 1
    outer loop
      vertex 24.6233 40.6292 -5
      vertex 11.5779 45 -5
      vertex 24.3767 40.6292 -5
    endloop
  endfacet
  facet normal 0 0 1
    outer loop
      vertex 24.3767 40.6292 -5
      vertex 11.5779 45 -5
      vertex 23.6233 40.6292 -5
    endloop
  endfacet
  facet normal 0 0 1
    outer loop
      vertex 23.6233 40.6292 -5
      vertex 11.5779 45 -5
      vertex 22.8757 40.5347 -5
    endloop
  endfacet
  facet normal 0 0 1
    outer loop
      vertex 18.0473 35.393 -5
      vertex 14.503 30.8205 -5
      vertex 18 34.641 -5
    endloop
  endfacet
  facet normal 0 0 1
    outer loop
      vertex 12 40.175 -5
      vertex 18.0473 35.393 -5
      vertex 18.1885 36.1332 -5
    endloop
  endfacet
  facet normal 0 0 1
    outer loop
      vertex 12 40.175 -5
      vertex 18.1885 36.1332 -5
      vertex 18.4213 36.8498 -5
    endloop
  endfacet
  facet normal 0 0 1
    outer loop
      vertex 12 40.175 -5
      vertex 18.4213 36.8498 -5
      vertex 18.7422 37.5315 -5
    endloop
  endfacet
  facet normal 0 0 1
    outer loop
      vertex 18.0473 35.393 -5
      vertex 12 40.175 -5
      vertex 14.503 30.8205 -5
    endloop
  endfacet
  facet normal 0 0 1
    outer loop
      vertex 19.1459 38.1677 -5
      vertex 12 40.175 -5
      vertex 18.7422 37.5315 -5
    endloop
  endfacet
  facet normal 0 0 1
    outer loop
      vertex 19.6262 38.7483 -5
      vertex 12 40.175 -5
      vertex 19.1459 38.1677 -5
    endloop
  endfacet
  facet normal 0 0 1
    outer loop
      vertex 20.1755 39.2641 -5
      vertex 12 40.175 -5
      vertex 19.6262 38.7483 -5
    endloop
  endfacet
  facet normal 0 0 1
    outer loop
      vertex 11.5779 45 -5
      vertex 20.1755 39.2641 -5
      vertex 20.785 39.707 -5
    endloop
  endfacet
  facet normal 0 0 1
    outer loop
      vertex 11.5779 45 -5
      vertex 20.785 39.707 -5
      vertex 21.4453 40.07 -5
    endloop
  endfacet
  facet normal 0 0 1
    outer loop
      vertex 11.5779 45 -5
      vertex 21.4453 40.07 -5
      vertex 22.1459 40.3474 -5
    endloop
  endfacet
  facet normal 0 0 1
    outer loop
      vertex 22.8757 40.5347 -5
      vertex 11.5779 45 -5
      vertex 22.1459 40.3474 -5
    endloop
  endfacet
  facet normal 0 0 1
    outer loop
      vertex 20.1755 39.2641 -5
      vertex 11.5779 45 -5
      vertex 12 40.175 -5
    endloop
  endfacet
  facet normal 0 0 1
    outer loop
      vertex 18.0473 33.889 -5
      vertex 14.503 30.8205 -5
      vertex 18.13 33.4557 -5
    endloop
  endfacet
  facet normal 0 0 1
    outer loop
      vertex 14.503 30.8205 -5
      vertex 18.0473 33.889 -5
      vertex 18 34.641 -5
    endloop
  endfacet
  facet normal -0 0 1
    outer loop
      vertex 10 40 -5
      vertex 14.503 30.8205 -5
      vertex 12 40.175 -5
    endloop
  endfacet
  facet normal 0 0 1
    outer loop
      vertex 14.503 30.8205 -5
      vertex 10 40 -5
      vertex 10.8413 27.3819 -5
    endloop
  endfacet
  facet normal 0 0 1
    outer loop
      vertex 0 45 -5
      vertex 10 40 -5
      vertex 9.56422 44.981 -5
    endloop
  endfacet
  facet normal 0 0 1
    outer loop
      vertex 10 40 -5
      vertex 7.63932 23.5114 -5
      vertex 10.8413 27.3819 -5
    endloop
  endfacet
  facet normal 0.844328 -0.535827 0
    outer loop
      vertex 4.94773 19.2701 -5
      vertex 7.63932 23.5114 -20
      vertex 7.63932 23.5114 -5
    endloop
  endfacet
  facet normal 0.844328 -0.535827 0
    outer loop
      vertex 7.63932 23.5114 -20
      vertex 4.94773 19.2701 -5
      vertex 4.94773 19.2701 -20
    endloop
  endfacet
  facet normal 0.770513 -0.637424 0
    outer loop
      vertex 7.63932 23.5114 -5
      vertex 10.8413 27.3819 -20
      vertex 10.8413 27.3819 -5
    endloop
  endfacet
  facet normal 0.770513 -0.637424 0
    outer loop
      vertex 10.8413 27.3819 -20
      vertex 7.63932 23.5114 -5
      vertex 7.63932 23.5114 -20
    endloop
  endfacet
  facet normal 0.125333 -0.992115 0
    outer loop
      vertex 32.5047 39.2915 -20
      vertex 37.4884 39.9211 -5
      vertex 32.5047 39.2915 -5
    endloop
  endfacet
  facet normal 0.125333 -0.992115 0
    outer loop
      vertex 37.4884 39.9211 -5
      vertex 32.5047 39.2915 -20
      vertex 37.4884 39.9211 -20
    endloop
  endfacet
  facet normal 0.904827 -0.425779 0
    outer loop
      vertex 2.93835 15 -5
      vertex 4.94773 19.2701 -20
      vertex 4.94773 19.2701 -5
    endloop
  endfacet
  facet normal 0.904827 -0.425779 0
    outer loop
      vertex 4.94773 19.2701 -20
      vertex 2.93835 15 -5
      vertex 2.93835 15 -20
    endloop
  endfacet
  facet normal 0.248689 -0.968583 0
    outer loop
      vertex 29.5517 38.5333 -20
      vertex 32.5047 39.2915 -5
      vertex 29.5517 38.5333 -5
    endloop
  endfacet
  facet normal 0.248689 -0.968583 0
    outer loop
      vertex 32.5047 39.2915 -5
      vertex 29.5517 38.5333 -20
      vertex 32.5047 39.2915 -20
    endloop
  endfacet
  facet normal 0.684547 -0.728969 0
    outer loop
      vertex 10.8413 27.3819 -20
      vertex 14.503 30.8205 -5
      vertex 10.8413 27.3819 -5
    endloop
  endfacet
  facet normal 0.684547 -0.728969 0
    outer loop
      vertex 14.503 30.8205 -5
      vertex 10.8413 27.3819 -20
      vertex 14.503 30.8205 -20
    endloop
  endfacet
  facet normal 0.587785 -0.809017 0
    outer loop
      vertex 14.503 30.8205 -20
      vertex 18.13 33.4557 -5
      vertex 14.503 30.8205 -5
    endloop
  endfacet
  facet normal 0.587785 -0.809017 0
    outer loop
      vertex 18.13 33.4557 -5
      vertex 14.503 30.8205 -20
      vertex 18.13 33.4557 -20
    endloop
  endfacet
  facet normal 0 -1 0
    outer loop
      vertex 37.4884 39.9211 -20
      vertex 40 39.9211 -5
      vertex 37.4884 39.9211 -5
    endloop
  endfacet
  facet normal 0 -1 -0
    outer loop
      vertex 40 39.9211 -5
      vertex 37.4884 39.9211 -20
      vertex 40 39.9211 -20
    endloop
  endfacet
  facet normal 0 -1 0
    outer loop
      vertex 0 15 -20
      vertex 2.93835 15 -5
      vertex 0 15 -5
    endloop
  endfacet
  facet normal 0 -1 -0
    outer loop
      vertex 2.93835 15 -5
      vertex 0 15 -20
      vertex 2.93835 15 -20
    endloop
  endfacet
  facet normal -0.368126 -0.929776 0
    outer loop
      vertex 26.8541 40.3474 -20
      vertex 27.5547 40.07 -5
      vertex 26.8541 40.3474 -5
    endloop
  endfacet
  facet normal -0.368126 -0.929776 -0
    outer loop
      vertex 27.5547 40.07 -5
      vertex 26.8541 40.3474 -20
      vertex 27.5547 40.07 -20
    endloop
  endfacet
  facet normal -0.684546 -0.728969 0
    outer loop
      vertex 28.8245 39.2641 -20
      vertex 29.3738 38.7483 -5
      vertex 28.8245 39.2641 -5
    endloop
  endfacet
  facet normal -0.684546 -0.728969 -0
    outer loop
      vertex 29.3738 38.7483 -5
      vertex 28.8245 39.2641 -20
      vertex 29.3738 38.7483 -20
    endloop
  endfacet
  facet normal -0.248691 -0.968583 0
    outer loop
      vertex 26.1243 40.5347 -20
      vertex 26.8541 40.3474 -5
      vertex 26.1243 40.5347 -5
    endloop
  endfacet
  facet normal -0.248691 -0.968583 -0
    outer loop
      vertex 26.8541 40.3474 -5
      vertex 26.1243 40.5347 -20
      vertex 26.8541 40.3474 -20
    endloop
  endfacet
  facet normal -0.125333 -0.992115 0
    outer loop
      vertex 25.3767 40.6292 -20
      vertex 26.1243 40.5347 -5
      vertex 25.3767 40.6292 -5
    endloop
  endfacet
  facet normal -0.125333 -0.992115 -0
    outer loop
      vertex 26.1243 40.5347 -5
      vertex 25.3767 40.6292 -20
      vertex 26.1243 40.5347 -20
    endloop
  endfacet
  facet normal -0.770512 -0.637425 0
    outer loop
      vertex 29.5517 38.5333 -20
      vertex 29.3738 38.7483 -5
      vertex 29.3738 38.7483 -20
    endloop
  endfacet
  facet normal -0.770512 -0.637425 0
    outer loop
      vertex 29.3738 38.7483 -5
      vertex 29.5517 38.5333 -20
      vertex 29.5517 38.5333 -5
    endloop
  endfacet
  facet normal -0.587787 -0.809016 0
    outer loop
      vertex 28.215 39.707 -20
      vertex 28.8245 39.2641 -5
      vertex 28.215 39.707 -5
    endloop
  endfacet
  facet normal -0.587787 -0.809016 -0
    outer loop
      vertex 28.8245 39.2641 -5
      vertex 28.215 39.707 -20
      vertex 28.8245 39.2641 -20
    endloop
  endfacet
  facet normal 0.125338 -0.992114 0
    outer loop
      vertex 24.5 40.6136 -20
      vertex 24.6233 40.6292 -5
      vertex 24.5 40.6136 -5
    endloop
  endfacet
  facet normal 0.125338 -0.992114 0
    outer loop
      vertex 24.6233 40.6292 -5
      vertex 24.5 40.6136 -20
      vertex 24.6233 40.6292 -20
    endloop
  endfacet
  facet normal 0 -1 0
    outer loop
      vertex 24.6233 40.6292 -20
      vertex 25.3767 40.6292 -5
      vertex 24.6233 40.6292 -5
    endloop
  endfacet
  facet normal 0 -1 -0
    outer loop
      vertex 25.3767 40.6292 -5
      vertex 24.6233 40.6292 -20
      vertex 25.3767 40.6292 -20
    endloop
  endfacet
  facet normal -0.481751 -0.876308 0
    outer loop
      vertex 27.5547 40.07 -20
      vertex 28.215 39.707 -5
      vertex 27.5547 40.07 -5
    endloop
  endfacet
  facet normal -0.481751 -0.876308 -0
    outer loop
      vertex 28.215 39.707 -5
      vertex 27.5547 40.07 -20
      vertex 28.215 39.707 -20
    endloop
  endfacet
  facet normal 0.125333 -0.992115 0
    outer loop
      vertex 22.8757 40.5347 -20
      vertex 23.6233 40.6292 -5
      vertex 22.8757 40.5347 -5
    endloop
  endfacet
  facet normal 0.125333 -0.992115 0
    outer loop
      vertex 23.6233 40.6292 -5
      vertex 22.8757 40.5347 -20
      vertex 23.6233 40.6292 -20
    endloop
  endfacet
  facet normal 0.770513 -0.637424 0
    outer loop
      vertex 19.1459 38.1677 -5
      vertex 19.6262 38.7483 -20
      vertex 19.6262 38.7483 -5
    endloop
  endfacet
  facet normal 0.770513 -0.637424 0
    outer loop
      vertex 19.6262 38.7483 -20
      vertex 19.1459 38.1677 -5
      vertex 19.1459 38.1677 -20
    endloop
  endfacet
  facet normal 0.48175 -0.876309 0
    outer loop
      vertex 20.785 39.707 -20
      vertex 21.4453 40.07 -5
      vertex 20.785 39.707 -5
    endloop
  endfacet
  facet normal 0.48175 -0.876309 0
    outer loop
      vertex 21.4453 40.07 -5
      vertex 20.785 39.707 -20
      vertex 21.4453 40.07 -20
    endloop
  endfacet
  facet normal -0.125338 -0.992114 0
    outer loop
      vertex 24.3767 40.6292 -20
      vertex 24.5 40.6136 -5
      vertex 24.3767 40.6292 -5
    endloop
  endfacet
  facet normal -0.125338 -0.992114 -0
    outer loop
      vertex 24.5 40.6136 -5
      vertex 24.3767 40.6292 -20
      vertex 24.5 40.6136 -20
    endloop
  endfacet
  facet normal 0.951056 -0.309019 0
    outer loop
      vertex 18.1885 36.1332 -5
      vertex 18.4213 36.8498 -20
      vertex 18.4213 36.8498 -5
    endloop
  endfacet
  facet normal 0.951056 -0.309019 0
    outer loop
      vertex 18.4213 36.8498 -20
      vertex 18.1885 36.1332 -5
      vertex 18.1885 36.1332 -20
    endloop
  endfacet
  facet normal 0.844329 -0.535825 0
    outer loop
      vertex 18.7422 37.5315 -5
      vertex 19.1459 38.1677 -20
      vertex 19.1459 38.1677 -5
    endloop
  endfacet
  facet normal 0.844329 -0.535825 0
    outer loop
      vertex 19.1459 38.1677 -20
      vertex 18.7422 37.5315 -5
      vertex 18.7422 37.5315 -20
    endloop
  endfacet
  facet normal 0.248691 -0.968583 0
    outer loop
      vertex 22.1459 40.3474 -20
      vertex 22.8757 40.5347 -5
      vertex 22.1459 40.3474 -5
    endloop
  endfacet
  facet normal 0.248691 -0.968583 0
    outer loop
      vertex 22.8757 40.5347 -5
      vertex 22.1459 40.3474 -20
      vertex 22.8757 40.5347 -20
    endloop
  endfacet
  facet normal 0.982287 0.187382 0
    outer loop
      vertex 18.13 33.4557 -5
      vertex 18.0473 33.889 -20
      vertex 18.0473 33.889 -5
    endloop
  endfacet
  facet normal 0.982287 0.187382 0
    outer loop
      vertex 18.0473 33.889 -20
      vertex 18.13 33.4557 -5
      vertex 18.13 33.4557 -20
    endloop
  endfacet
  facet normal 0 -1 0
    outer loop
      vertex 23.6233 40.6292 -20
      vertex 24.3767 40.6292 -5
      vertex 23.6233 40.6292 -5
    endloop
  endfacet
  facet normal 0 -1 -0
    outer loop
      vertex 24.3767 40.6292 -5
      vertex 23.6233 40.6292 -20
      vertex 24.3767 40.6292 -20
    endloop
  endfacet
  facet normal 0.904827 -0.425779 0
    outer loop
      vertex 18.4213 36.8498 -5
      vertex 18.7422 37.5315 -20
      vertex 18.7422 37.5315 -5
    endloop
  endfacet
  facet normal 0.904827 -0.425779 0
    outer loop
      vertex 18.7422 37.5315 -20
      vertex 18.4213 36.8498 -5
      vertex 18.4213 36.8498 -20
    endloop
  endfacet
  facet normal 0.982288 -0.187379 0
    outer loop
      vertex 18.0473 35.393 -5
      vertex 18.1885 36.1332 -20
      vertex 18.1885 36.1332 -5
    endloop
  endfacet
  facet normal 0.982288 -0.187379 0
    outer loop
      vertex 18.1885 36.1332 -20
      vertex 18.0473 35.393 -5
      vertex 18.0473 35.393 -20
    endloop
  endfacet
  facet normal 0.998027 -0.0627905 0
    outer loop
      vertex 18 34.641 -5
      vertex 18.0473 35.393 -20
      vertex 18.0473 35.393 -5
    endloop
  endfacet
  facet normal 0.998027 -0.0627905 0
    outer loop
      vertex 18.0473 35.393 -20
      vertex 18 34.641 -5
      vertex 18 34.641 -20
    endloop
  endfacet
  facet normal 0.998027 0.0627905 0
    outer loop
      vertex 18.0473 33.889 -5
      vertex 18 34.641 -20
      vertex 18 34.641 -5
    endloop
  endfacet
  facet normal 0.998027 0.0627905 0
    outer loop
      vertex 18 34.641 -20
      vertex 18.0473 33.889 -5
      vertex 18.0473 33.889 -20
    endloop
  endfacet
  facet normal 0.587788 -0.809015 0
    outer loop
      vertex 20.1755 39.2641 -20
      vertex 20.785 39.707 -5
      vertex 20.1755 39.2641 -5
    endloop
  endfacet
  facet normal 0.587788 -0.809015 0
    outer loop
      vertex 20.785 39.707 -5
      vertex 20.1755 39.2641 -20
      vertex 20.785 39.707 -20
    endloop
  endfacet
  facet normal 0.684545 -0.72897 0
    outer loop
      vertex 19.6262 38.7483 -20
      vertex 20.1755 39.2641 -5
      vertex 19.6262 38.7483 -5
    endloop
  endfacet
  facet normal 0.684545 -0.72897 0
    outer loop
      vertex 20.1755 39.2641 -5
      vertex 19.6262 38.7483 -20
      vertex 20.1755 39.2641 -20
    endloop
  endfacet
  facet normal 0.368126 -0.929776 0
    outer loop
      vertex 21.4453 40.07 -20
      vertex 22.1459 40.3474 -5
      vertex 21.4453 40.07 -5
    endloop
  endfacet
  facet normal 0.368126 -0.929776 0
    outer loop
      vertex 22.1459 40.3474 -5
      vertex 21.4453 40.07 -20
      vertex 22.1459 40.3474 -20
    endloop
  endfacet
  facet normal 0.992404 0.0868243 0.0871557
    outer loop
      vertex 10 40 -5
      vertex 11.2361 40.9287 -20
      vertex 9.56422 44.981 -5
    endloop
  endfacet
  facet normal 0.992404 0.0868248 0.0871557
    outer loop
      vertex 11.2361 40.9287 -20
      vertex 10 40 -5
      vertex 11.3073 40.1144 -20
    endloop
  endfacet
  facet normal -0.0871532 0.996195 1.53723e-07
    outer loop
      vertex 12.9968 40.2622 -20
      vertex 12 40.175 -5
      vertex 13.3073 40.2894 -20
    endloop
  endfacet
  facet normal -0.0871553 0.996195 1.13452e-08
    outer loop
      vertex 12 40.175 -5
      vertex 12.9968 40.2622 -20
      vertex 10 40 -5
    endloop
  endfacet
  facet normal -0.0871556 0.996195 -5.75069e-08
    outer loop
      vertex 11.3073 40.1144 -20
      vertex 10 40 -5
      vertex 12.9968 40.2622 -20
    endloop
  endfacet
  facet normal 0.0871601 -0.996194 0
    outer loop
      vertex 9.7817 45 -6.08855
      vertex 9.56422 44.981 -5
      vertex 9.7817 45 -7.49527
    endloop
  endfacet
  facet normal 0.992404 0.086824 0.0871558
    outer loop
      vertex 11.2361 40.9287 -20
      vertex 9.7817 45 -7.49527
      vertex 9.56422 44.981 -5
    endloop
  endfacet
  facet normal 0.992404 0.086824 0.0871558
    outer loop
      vertex 9.7817 45 -7.49527
      vertex 11.2361 40.9287 -20
      vertex 10.8799 45 -20
    endloop
  endfacet
  facet normal 0.0871601 -0.996194 0
    outer loop
      vertex 9.7817 45 -5
      vertex 9.56422 44.981 -5
      vertex 9.7817 45 -6.08855
    endloop
  endfacet
  facet normal -0.992404 -0.0868241 -0.0871557
    outer loop
      vertex 13.3073 40.2894 -20
      vertex 11.5779 45 -5
      vertex 12.8952 45 -20
    endloop
  endfacet
  facet normal -0.992404 -0.086824 -0.0871558
    outer loop
      vertex 11.5779 45 -5
      vertex 13.3073 40.2894 -20
      vertex 12 40.175 -5
    endloop
  endfacet
endsolid OpenSCAD_Model
