solid OpenSCAD_Model
  facet normal 0.992115 0.125334 0
    outer loop
      vertex -30.25 0 14.5
      vertex -30.3207 0.559552 0.5
      vertex -30.3207 0.559552 14.5
    endloop
  endfacet
  facet normal 0.992115 0.125334 0
    outer loop
      vertex -30.3207 0.559552 0.5
      vertex -30.25 0 14.5
      vertex -30.25 0 0.5
    endloop
  endfacet
  facet normal -1 0 0
    outer loop
      vertex -34.7323 -0.282 -0.5
      vertex -34.7323 0.282 14.5
      vertex -34.7323 0.282 -0.5
    endloop
  endfacet
  facet normal -1 -0 0
    outer loop
      vertex -34.7323 0.282 14.5
      vertex -34.7323 -0.282 -0.5
      vertex -34.7323 -0.282 14.5
    endloop
  endfacet
  facet normal -0.062791 0.998027 0
    outer loop
      vertex -32.5 2.23667 0.5
      vertex -32.3587 2.24556 14.5
      vertex -32.3587 2.24556 0.5
    endloop
  endfacet
  facet normal -0.0627905 0.998027 -4.80976e-009
    outer loop
      vertex -32.3587 2.24556 14.5
      vertex -32.5 2.23667 0.5
      vertex -32.9216 2.21015 14.5
    endloop
  endfacet
  facet normal -0.0627904 0.998027 0
    outer loop
      vertex -32.9216 2.21015 -0.5
      vertex -32.5 2.23667 0.5
      vertex -32.5 2.23667 -0.5
    endloop
  endfacet
  facet normal -0.0627904 0.998027 0
    outer loop
      vertex -32.5 2.23667 0.5
      vertex -32.9216 2.21015 -0.5
      vertex -32.9216 2.21015 14.5
    endloop
  endfacet
  facet normal 0.637424 0.770513 -0
    outer loop
      vertex -30.8598 1.54023 0.5
      vertex -31.2944 1.89974 14.5
      vertex -30.8598 1.54023 14.5
    endloop
  endfacet
  facet normal 0.637424 0.770513 0
    outer loop
      vertex -31.2944 1.89974 14.5
      vertex -30.8598 1.54023 0.5
      vertex -31.2944 1.89974 0.5
    endloop
  endfacet
  facet normal -0.728967 0.684549 0
    outer loop
      vertex -34.3203 1.32252 -0.5
      vertex -33.9342 1.73365 14.5
      vertex -33.9342 1.73365 -0.5
    endloop
  endfacet
  facet normal -0.728967 0.684549 0
    outer loop
      vertex -33.9342 1.73365 14.5
      vertex -34.3203 1.32252 -0.5
      vertex -34.3203 1.32252 14.5
    endloop
  endfacet
  facet normal 0 0 1
    outer loop
      vertex -31.25 0 14.5
      vertex -30.25 0 14.5
      vertex -30.3207 0.559552 14.5
    endloop
  endfacet
  facet normal 0 0 1
    outer loop
      vertex -31.2893 0.310862 14.5
      vertex -30.3207 0.559552 14.5
      vertex -30.5283 1.08395 14.5
    endloop
  endfacet
  facet normal 0 0 1
    outer loop
      vertex -30.25 0 14.5
      vertex -31.25 0 14.5
      vertex -30.3207 -0.559552 14.5
    endloop
  endfacet
  facet normal 0 0 1
    outer loop
      vertex -31.4046 0.602192 14.5
      vertex -30.5283 1.08395 14.5
      vertex -30.8598 1.54023 14.5
    endloop
  endfacet
  facet normal -0 0 1
    outer loop
      vertex -31.2893 -0.310862 14.5
      vertex -30.3207 -0.559552 14.5
      vertex -31.25 0 14.5
    endloop
  endfacet
  facet normal 0 0 1
    outer loop
      vertex -30.3207 -0.559552 14.5
      vertex -31.2893 -0.310862 14.5
      vertex -30.5283 -1.08395 14.5
    endloop
  endfacet
  facet normal 0 0 1
    outer loop
      vertex -30.3207 0.559552 14.5
      vertex -31.2893 0.310862 14.5
      vertex -31.25 0 14.5
    endloop
  endfacet
  facet normal 0 0 1
    outer loop
      vertex -31.5888 0.855683 14.5
      vertex -30.8598 1.54023 14.5
      vertex -31.2944 1.89974 14.5
    endloop
  endfacet
  facet normal 0 0 1
    outer loop
      vertex -30.5283 1.08395 14.5
      vertex -31.4046 0.602192 14.5
      vertex -31.2893 0.310862 14.5
    endloop
  endfacet
  facet normal 0 0 1
    outer loop
      vertex -30.8598 1.54023 14.5
      vertex -31.5888 0.855683 14.5
      vertex -31.4046 0.602192 14.5
    endloop
  endfacet
  facet normal 0 0 1
    outer loop
      vertex -31.8302 1.05541 14.5
      vertex -31.2944 1.89974 14.5
      vertex -31.8047 2.13988 14.5
    endloop
  endfacet
  facet normal 0 0 1
    outer loop
      vertex -31.2944 1.89974 14.5
      vertex -31.8302 1.05541 14.5
      vertex -31.5888 0.855683 14.5
    endloop
  endfacet
  facet normal 0 0 1
    outer loop
      vertex -31.8047 2.13988 14.5
      vertex -32.1137 1.18882 14.5
      vertex -31.8302 1.05541 14.5
    endloop
  endfacet
  facet normal 0 0 1
    outer loop
      vertex -32.3587 2.24556 14.5
      vertex -32.1137 1.18882 14.5
      vertex -31.8047 2.13988 14.5
    endloop
  endfacet
  facet normal 0 0 1
    outer loop
      vertex -32.3587 2.24556 14.5
      vertex -32.4215 1.24753 14.5
      vertex -32.1137 1.18882 14.5
    endloop
  endfacet
  facet normal 0 0 1
    outer loop
      vertex -32.3587 2.24556 14.5
      vertex -32.7342 1.22786 14.5
      vertex -32.4215 1.24753 14.5
    endloop
  endfacet
  facet normal -0 0 1
    outer loop
      vertex -32.9216 2.21015 14.5
      vertex -32.7342 1.22786 14.5
      vertex -32.3587 2.24556 14.5
    endloop
  endfacet
  facet normal 0 0 1
    outer loop
      vertex -32.9216 2.21015 14.5
      vertex -33.0322 1.13103 14.5
      vertex -32.7342 1.22786 14.5
    endloop
  endfacet
  facet normal -0 0 1
    outer loop
      vertex -33.458 2.03586 14.5
      vertex -33.0322 1.13103 14.5
      vertex -32.9216 2.21015 14.5
    endloop
  endfacet
  facet normal 0 0 1
    outer loop
      vertex -33.0322 1.13103 14.5
      vertex -33.458 2.03586 14.5
      vertex -33.2968 0.963141 14.5
    endloop
  endfacet
  facet normal -0 0 1
    outer loop
      vertex -33.9342 1.73365 14.5
      vertex -33.2968 0.963141 14.5
      vertex -33.458 2.03586 14.5
    endloop
  endfacet
  facet normal 0 0 1
    outer loop
      vertex -33.2968 0.963141 14.5
      vertex -33.9342 1.73365 14.5
      vertex -33.5113 0.734731 14.5
    endloop
  endfacet
  facet normal -0 0 1
    outer loop
      vertex -34.3203 1.32252 14.5
      vertex -33.5113 0.734731 14.5
      vertex -33.9342 1.73365 14.5
    endloop
  endfacet
  facet normal -0 0 1
    outer loop
      vertex -34.592 0.828279 14.5
      vertex -33.6622 0.460155 14.5
      vertex -34.3203 1.32252 14.5
    endloop
  endfacet
  facet normal 0 0 1
    outer loop
      vertex -33.5113 0.734731 14.5
      vertex -34.3203 1.32252 14.5
      vertex -33.6622 0.460155 14.5
    endloop
  endfacet
  facet normal -0 0 1
    outer loop
      vertex -31.4046 -0.602192 14.5
      vertex -30.5283 -1.08395 14.5
      vertex -31.2893 -0.310862 14.5
    endloop
  endfacet
  facet normal 0 0 1
    outer loop
      vertex -30.5283 -1.08395 14.5
      vertex -31.4046 -0.602192 14.5
      vertex -30.8598 -1.54023 14.5
    endloop
  endfacet
  facet normal -0 0 1
    outer loop
      vertex -31.5888 -0.855683 14.5
      vertex -30.8598 -1.54023 14.5
      vertex -31.4046 -0.602192 14.5
    endloop
  endfacet
  facet normal 0 0 1
    outer loop
      vertex -30.8598 -1.54023 14.5
      vertex -31.5888 -0.855683 14.5
      vertex -31.2944 -1.89974 14.5
    endloop
  endfacet
  facet normal -0 0 1
    outer loop
      vertex -31.8302 -1.05541 14.5
      vertex -31.2944 -1.89974 14.5
      vertex -31.5888 -0.855683 14.5
    endloop
  endfacet
  facet normal 0 0 1
    outer loop
      vertex -31.2944 -1.89974 14.5
      vertex -31.8302 -1.05541 14.5
      vertex -31.8047 -2.13988 14.5
    endloop
  endfacet
  facet normal -0 0 1
    outer loop
      vertex -32.1137 -1.18882 14.5
      vertex -31.8047 -2.13988 14.5
      vertex -31.8302 -1.05541 14.5
    endloop
  endfacet
  facet normal 0 0 1
    outer loop
      vertex -32.1137 -1.18882 14.5
      vertex -32.3587 -2.24556 14.5
      vertex -31.8047 -2.13988 14.5
    endloop
  endfacet
  facet normal -0 0 1
    outer loop
      vertex -32.4215 -1.24753 14.5
      vertex -32.3587 -2.24556 14.5
      vertex -32.1137 -1.18882 14.5
    endloop
  endfacet
  facet normal 0 0 1
    outer loop
      vertex -32.7342 -1.22786 14.5
      vertex -32.3587 -2.24556 14.5
      vertex -32.4215 -1.24753 14.5
    endloop
  endfacet
  facet normal 0 0 1
    outer loop
      vertex -32.7342 -1.22786 14.5
      vertex -32.9216 -2.21015 14.5
      vertex -32.3587 -2.24556 14.5
    endloop
  endfacet
  facet normal 0 0 1
    outer loop
      vertex -33.0322 -1.13103 14.5
      vertex -32.9216 -2.21015 14.5
      vertex -32.7342 -1.22786 14.5
    endloop
  endfacet
  facet normal 0 0 1
    outer loop
      vertex -33.458 -2.03586 14.5
      vertex -33.0322 -1.13103 14.5
      vertex -33.2968 -0.963141 14.5
    endloop
  endfacet
  facet normal 0 0 1
    outer loop
      vertex -33.0322 -1.13103 14.5
      vertex -33.458 -2.03586 14.5
      vertex -32.9216 -2.21015 14.5
    endloop
  endfacet
  facet normal 0 0 1
    outer loop
      vertex -33.9342 -1.73365 14.5
      vertex -33.2968 -0.963141 14.5
      vertex -33.5113 -0.734731 14.5
    endloop
  endfacet
  facet normal 0 0 1
    outer loop
      vertex -34.3203 -1.32252 14.5
      vertex -33.5113 -0.734731 14.5
      vertex -33.6622 -0.460155 14.5
    endloop
  endfacet
  facet normal 0 0 1
    outer loop
      vertex -34.592 -0.828279 14.5
      vertex -33.6622 -0.460155 14.5
      vertex -33.7401 -0.156666 14.5
    endloop
  endfacet
  facet normal 0 0 1
    outer loop
      vertex -33.2968 -0.963141 14.5
      vertex -33.9342 -1.73365 14.5
      vertex -33.458 -2.03586 14.5
    endloop
  endfacet
  facet normal 0 0 1
    outer loop
      vertex -33.6622 0.460155 14.5
      vertex -34.592 0.828279 14.5
      vertex -33.7401 0.156666 14.5
    endloop
  endfacet
  facet normal -0 0 1
    outer loop
      vertex -34.7323 0.282 14.5
      vertex -33.7401 0.156666 14.5
      vertex -34.592 0.828279 14.5
    endloop
  endfacet
  facet normal 0 0 1
    outer loop
      vertex -33.5113 -0.734731 14.5
      vertex -34.3203 -1.32252 14.5
      vertex -33.9342 -1.73365 14.5
    endloop
  endfacet
  facet normal 0 0 1
    outer loop
      vertex -33.7401 0.156666 14.5
      vertex -34.7323 0.282 14.5
      vertex -33.7401 -0.156666 14.5
    endloop
  endfacet
  facet normal 0 0 1
    outer loop
      vertex -33.6622 -0.460155 14.5
      vertex -34.592 -0.828279 14.5
      vertex -34.3203 -1.32252 14.5
    endloop
  endfacet
  facet normal 0 0 1
    outer loop
      vertex -34.7323 -0.282 14.5
      vertex -33.7401 -0.156666 14.5
      vertex -34.7323 0.282 14.5
    endloop
  endfacet
  facet normal 0 0 1
    outer loop
      vertex -33.7401 -0.156666 14.5
      vertex -34.7323 -0.282 14.5
      vertex -34.592 -0.828279 14.5
    endloop
  endfacet
  facet normal -0.309017 0.951056 0
    outer loop
      vertex -32.9216 2.21015 -0.5
      vertex -33.458 2.03586 14.5
      vertex -32.9216 2.21015 14.5
    endloop
  endfacet
  facet normal -0.309017 0.951056 0
    outer loop
      vertex -33.458 2.03586 14.5
      vertex -32.9216 2.21015 -0.5
      vertex -33.458 2.03586 -0.5
    endloop
  endfacet
  facet normal 0 0 -1
    outer loop
      vertex -32.7342 1.22786 -0.5
      vertex -32.5 2.23667 -0.5
      vertex -32.5 1.24259 -0.5
    endloop
  endfacet
  facet normal 0 0 -1
    outer loop
      vertex -32.7342 1.22786 -0.5
      vertex -32.9216 2.21015 -0.5
      vertex -32.5 2.23667 -0.5
    endloop
  endfacet
  facet normal 0 0 -1
    outer loop
      vertex -33.0322 1.13103 -0.5
      vertex -32.9216 2.21015 -0.5
      vertex -32.7342 1.22786 -0.5
    endloop
  endfacet
  facet normal 0 0 -1
    outer loop
      vertex -33.458 2.03586 -0.5
      vertex -33.0322 1.13103 -0.5
      vertex -33.2968 0.963141 -0.5
    endloop
  endfacet
  facet normal 0 0 -1
    outer loop
      vertex -33.0322 1.13103 -0.5
      vertex -33.458 2.03586 -0.5
      vertex -32.9216 2.21015 -0.5
    endloop
  endfacet
  facet normal 0 0 -1
    outer loop
      vertex -33.9342 1.73365 -0.5
      vertex -33.2968 0.963141 -0.5
      vertex -33.5113 0.734731 -0.5
    endloop
  endfacet
  facet normal 0 0 -1
    outer loop
      vertex -34.3203 1.32252 -0.5
      vertex -33.5113 0.734731 -0.5
      vertex -33.6622 0.460155 -0.5
    endloop
  endfacet
  facet normal 0 0 -1
    outer loop
      vertex -34.592 0.828279 -0.5
      vertex -33.6622 0.460155 -0.5
      vertex -33.7401 0.156666 -0.5
    endloop
  endfacet
  facet normal 0 0 -1
    outer loop
      vertex -33.2968 0.963141 -0.5
      vertex -33.9342 1.73365 -0.5
      vertex -33.458 2.03586 -0.5
    endloop
  endfacet
  facet normal -0 0 -1
    outer loop
      vertex -33.6622 -0.460155 -0.5
      vertex -34.592 -0.828279 -0.5
      vertex -33.7401 -0.156666 -0.5
    endloop
  endfacet
  facet normal 0 0 -1
    outer loop
      vertex -34.7323 -0.282 -0.5
      vertex -33.7401 -0.156666 -0.5
      vertex -34.592 -0.828279 -0.5
    endloop
  endfacet
  facet normal 0 0 -1
    outer loop
      vertex -33.5113 0.734731 -0.5
      vertex -34.3203 1.32252 -0.5
      vertex -33.9342 1.73365 -0.5
    endloop
  endfacet
  facet normal -0 0 -1
    outer loop
      vertex -33.7401 -0.156666 -0.5
      vertex -34.7323 -0.282 -0.5
      vertex -33.7401 0.156666 -0.5
    endloop
  endfacet
  facet normal 0 0 -1
    outer loop
      vertex -33.6622 0.460155 -0.5
      vertex -34.592 0.828279 -0.5
      vertex -34.3203 1.32252 -0.5
    endloop
  endfacet
  facet normal 0 0 -1
    outer loop
      vertex -34.7323 0.282 -0.5
      vertex -33.7401 0.156666 -0.5
      vertex -34.7323 -0.282 -0.5
    endloop
  endfacet
  facet normal 0 0 -1
    outer loop
      vertex -33.7401 0.156666 -0.5
      vertex -34.7323 0.282 -0.5
      vertex -34.592 0.828279 -0.5
    endloop
  endfacet
  facet normal 0 0 -1
    outer loop
      vertex -32.5 -2.23667 -0.5
      vertex -32.7342 -1.22786 -0.5
      vertex -32.5 -1.24259 -0.5
    endloop
  endfacet
  facet normal 0 0 -1
    outer loop
      vertex -32.9216 -2.21015 -0.5
      vertex -32.7342 -1.22786 -0.5
      vertex -32.5 -2.23667 -0.5
    endloop
  endfacet
  facet normal 0 0 -1
    outer loop
      vertex -32.9216 -2.21015 -0.5
      vertex -33.0322 -1.13103 -0.5
      vertex -32.7342 -1.22786 -0.5
    endloop
  endfacet
  facet normal 0 0 -1
    outer loop
      vertex -33.458 -2.03586 -0.5
      vertex -33.0322 -1.13103 -0.5
      vertex -32.9216 -2.21015 -0.5
    endloop
  endfacet
  facet normal -0 0 -1
    outer loop
      vertex -33.0322 -1.13103 -0.5
      vertex -33.458 -2.03586 -0.5
      vertex -33.2968 -0.963141 -0.5
    endloop
  endfacet
  facet normal 0 0 -1
    outer loop
      vertex -33.9342 -1.73365 -0.5
      vertex -33.2968 -0.963141 -0.5
      vertex -33.458 -2.03586 -0.5
    endloop
  endfacet
  facet normal -0 0 -1
    outer loop
      vertex -33.2968 -0.963141 -0.5
      vertex -33.9342 -1.73365 -0.5
      vertex -33.5113 -0.734731 -0.5
    endloop
  endfacet
  facet normal 0 0 -1
    outer loop
      vertex -34.3203 -1.32252 -0.5
      vertex -33.5113 -0.734731 -0.5
      vertex -33.9342 -1.73365 -0.5
    endloop
  endfacet
  facet normal 0 0 -1
    outer loop
      vertex -34.592 -0.828279 -0.5
      vertex -33.6622 -0.460155 -0.5
      vertex -34.3203 -1.32252 -0.5
    endloop
  endfacet
  facet normal -0 0 -1
    outer loop
      vertex -33.5113 -0.734731 -0.5
      vertex -34.3203 -1.32252 -0.5
      vertex -33.6622 -0.460155 -0.5
    endloop
  endfacet
  facet normal 0 0 -1
    outer loop
      vertex -32.5 -2.23667 -0.5
      vertex 32.5 -2.23667 -0.5
      vertex 32.5 -2.25 -0.5
    endloop
  endfacet
  facet normal 0 0 -1
    outer loop
      vertex 32.5 -2.23667 -0.5
      vertex -32.5 -1.24259 -0.5
      vertex 32.5 -1.24259 -0.5
    endloop
  endfacet
  facet normal 0 0 -1
    outer loop
      vertex 32.5 -1.24259 -0.5
      vertex -32.5 -1.24259 -0.5
      vertex 32.5 1.24259 -0.5
    endloop
  endfacet
  facet normal 0 0 -1
    outer loop
      vertex -32.5 1.24259 -0.5
      vertex 32.5 1.24259 -0.5
      vertex -32.5 -1.24259 -0.5
    endloop
  endfacet
  facet normal 0 0 -1
    outer loop
      vertex -32.5 -2.23667 -0.5
      vertex 32.5 -2.25 -0.5
      vertex -32.5 -2.25 -0.5
    endloop
  endfacet
  facet normal 0 0 -1
    outer loop
      vertex 32.5 -2.23667 -0.5
      vertex -32.5 -2.23667 -0.5
      vertex -32.5 -1.24259 -0.5
    endloop
  endfacet
  facet normal 0 0 -1
    outer loop
      vertex 32.5 1.24259 -0.5
      vertex -32.5 1.24259 -0.5
      vertex 32.5 2.23667 -0.5
    endloop
  endfacet
  facet normal 0 0 -1
    outer loop
      vertex -32.5 2.23667 -0.5
      vertex 32.5 2.23667 -0.5
      vertex -32.5 1.24259 -0.5
    endloop
  endfacet
  facet normal 0 0 -1
    outer loop
      vertex 32.5 2.23667 -0.5
      vertex -32.5 2.23667 -0.5
      vertex 32.5 2.25 -0.5
    endloop
  endfacet
  facet normal -0 0 -1
    outer loop
      vertex 32.5 2.25 -0.5
      vertex -32.5 2.23667 -0.5
      vertex -32.5 2.25 -0.5
    endloop
  endfacet
  facet normal 0 0 -1
    outer loop
      vertex 33.75 0 -0.5
      vertex 34.75 0 -0.5
      vertex 34.6793 -0.559552 -0.5
    endloop
  endfacet
  facet normal 0 0 -1
    outer loop
      vertex 33.7107 -0.310862 -0.5
      vertex 34.6793 -0.559552 -0.5
      vertex 34.4717 -1.08395 -0.5
    endloop
  endfacet
  facet normal 0 0 -1
    outer loop
      vertex 34.75 0 -0.5
      vertex 33.75 0 -0.5
      vertex 34.6793 0.559552 -0.5
    endloop
  endfacet
  facet normal 0 0 -1
    outer loop
      vertex 33.5954 -0.602192 -0.5
      vertex 34.4717 -1.08395 -0.5
      vertex 34.1402 -1.54023 -0.5
    endloop
  endfacet
  facet normal 0 0 -1
    outer loop
      vertex 33.7107 0.310862 -0.5
      vertex 34.6793 0.559552 -0.5
      vertex 33.75 0 -0.5
    endloop
  endfacet
  facet normal -0 0 -1
    outer loop
      vertex 34.6793 0.559552 -0.5
      vertex 33.7107 0.310862 -0.5
      vertex 34.4717 1.08395 -0.5
    endloop
  endfacet
  facet normal 0 0 -1
    outer loop
      vertex 34.6793 -0.559552 -0.5
      vertex 33.7107 -0.310862 -0.5
      vertex 33.75 0 -0.5
    endloop
  endfacet
  facet normal 0 0 -1
    outer loop
      vertex 33.4112 -0.855683 -0.5
      vertex 34.1402 -1.54023 -0.5
      vertex 33.7056 -1.89974 -0.5
    endloop
  endfacet
  facet normal 0 0 -1
    outer loop
      vertex 34.4717 -1.08395 -0.5
      vertex 33.5954 -0.602192 -0.5
      vertex 33.7107 -0.310862 -0.5
    endloop
  endfacet
  facet normal 0 0 -1
    outer loop
      vertex 34.1402 -1.54023 -0.5
      vertex 33.4112 -0.855683 -0.5
      vertex 33.5954 -0.602192 -0.5
    endloop
  endfacet
  facet normal 0 0 -1
    outer loop
      vertex 33.1698 -1.05541 -0.5
      vertex 33.7056 -1.89974 -0.5
      vertex 33.1953 -2.13988 -0.5
    endloop
  endfacet
  facet normal 0 0 -1
    outer loop
      vertex 33.7056 -1.89974 -0.5
      vertex 33.1698 -1.05541 -0.5
      vertex 33.4112 -0.855683 -0.5
    endloop
  endfacet
  facet normal 0 0 -1
    outer loop
      vertex 33.1953 -2.13988 -0.5
      vertex 32.8863 -1.18882 -0.5
      vertex 33.1698 -1.05541 -0.5
    endloop
  endfacet
  facet normal 0 0 -1
    outer loop
      vertex 32.6413 -2.24556 -0.5
      vertex 32.8863 -1.18882 -0.5
      vertex 33.1953 -2.13988 -0.5
    endloop
  endfacet
  facet normal 0 0 -1
    outer loop
      vertex 32.6413 -2.24556 -0.5
      vertex 32.5785 -1.24753 -0.5
      vertex 32.8863 -1.18882 -0.5
    endloop
  endfacet
  facet normal 0 0 -1
    outer loop
      vertex 32.5 -2.23667 -0.5
      vertex 32.5785 -1.24753 -0.5
      vertex 32.6413 -2.24556 -0.5
    endloop
  endfacet
  facet normal -0 0 -1
    outer loop
      vertex 32.5785 -1.24753 -0.5
      vertex 32.5 -2.23667 -0.5
      vertex 32.5 -1.24259 -0.5
    endloop
  endfacet
  facet normal 0 0 -1
    outer loop
      vertex 33.5954 0.602192 -0.5
      vertex 34.4717 1.08395 -0.5
      vertex 33.7107 0.310862 -0.5
    endloop
  endfacet
  facet normal -0 0 -1
    outer loop
      vertex 34.4717 1.08395 -0.5
      vertex 33.5954 0.602192 -0.5
      vertex 34.1402 1.54023 -0.5
    endloop
  endfacet
  facet normal 0 0 -1
    outer loop
      vertex 33.4112 0.855683 -0.5
      vertex 34.1402 1.54023 -0.5
      vertex 33.5954 0.602192 -0.5
    endloop
  endfacet
  facet normal -0 0 -1
    outer loop
      vertex 34.1402 1.54023 -0.5
      vertex 33.4112 0.855683 -0.5
      vertex 33.7056 1.89974 -0.5
    endloop
  endfacet
  facet normal 0 0 -1
    outer loop
      vertex 33.1698 1.05541 -0.5
      vertex 33.7056 1.89974 -0.5
      vertex 33.4112 0.855683 -0.5
    endloop
  endfacet
  facet normal -0 0 -1
    outer loop
      vertex 33.7056 1.89974 -0.5
      vertex 33.1698 1.05541 -0.5
      vertex 33.1953 2.13988 -0.5
    endloop
  endfacet
  facet normal 0 0 -1
    outer loop
      vertex 32.8863 1.18882 -0.5
      vertex 33.1953 2.13988 -0.5
      vertex 33.1698 1.05541 -0.5
    endloop
  endfacet
  facet normal 0 0 -1
    outer loop
      vertex 32.8863 1.18882 -0.5
      vertex 32.6413 2.24556 -0.5
      vertex 33.1953 2.13988 -0.5
    endloop
  endfacet
  facet normal 0 0 -1
    outer loop
      vertex 32.5785 1.24753 -0.5
      vertex 32.6413 2.24556 -0.5
      vertex 32.8863 1.18882 -0.5
    endloop
  endfacet
  facet normal 0 0 -1
    outer loop
      vertex 32.5 2.23667 -0.5
      vertex 32.5785 1.24753 -0.5
      vertex 32.5 1.24259 -0.5
    endloop
  endfacet
  facet normal 0 0 -1
    outer loop
      vertex 32.5785 1.24753 -0.5
      vertex 32.5 2.23667 -0.5
      vertex 32.6413 2.24556 -0.5
    endloop
  endfacet
  facet normal 0.809017 0.587785 0
    outer loop
      vertex -30.5283 1.08395 14.5
      vertex -30.8598 1.54023 0.5
      vertex -30.8598 1.54023 14.5
    endloop
  endfacet
  facet normal 0.809017 0.587785 0
    outer loop
      vertex -30.8598 1.54023 0.5
      vertex -30.5283 1.08395 14.5
      vertex -30.5283 1.08395 0.5
    endloop
  endfacet
  facet normal 0.929776 0.368126 0
    outer loop
      vertex -30.3207 0.559552 14.5
      vertex -30.5283 1.08395 0.5
      vertex -30.5283 1.08395 14.5
    endloop
  endfacet
  facet normal 0.929776 0.368126 0
    outer loop
      vertex -30.5283 1.08395 0.5
      vertex -30.3207 0.559552 14.5
      vertex -30.3207 0.559552 0.5
    endloop
  endfacet
  facet normal 0.187382 0.982287 -0
    outer loop
      vertex -31.8047 2.13988 0.5
      vertex -32.3587 2.24556 14.5
      vertex -31.8047 2.13988 14.5
    endloop
  endfacet
  facet normal 0.187382 0.982287 0
    outer loop
      vertex -32.3587 2.24556 14.5
      vertex -31.8047 2.13988 0.5
      vertex -32.3587 2.24556 0.5
    endloop
  endfacet
  facet normal 0.425778 0.904827 -0
    outer loop
      vertex -31.2944 1.89974 0.5
      vertex -31.8047 2.13988 14.5
      vertex -31.2944 1.89974 14.5
    endloop
  endfacet
  facet normal 0.425778 0.904827 0
    outer loop
      vertex -31.8047 2.13988 14.5
      vertex -31.2944 1.89974 0.5
      vertex -31.8047 2.13988 0.5
    endloop
  endfacet
  facet normal -0.876309 0.481749 0
    outer loop
      vertex -34.592 0.828279 -0.5
      vertex -34.3203 1.32252 14.5
      vertex -34.3203 1.32252 -0.5
    endloop
  endfacet
  facet normal -0.876309 0.481749 0
    outer loop
      vertex -34.3203 1.32252 14.5
      vertex -34.592 0.828279 -0.5
      vertex -34.592 0.828279 14.5
    endloop
  endfacet
  facet normal -0.968582 0.248693 0
    outer loop
      vertex -34.7323 0.282 -0.5
      vertex -34.592 0.828279 14.5
      vertex -34.592 0.828279 -0.5
    endloop
  endfacet
  facet normal -0.968582 0.248693 0
    outer loop
      vertex -34.592 0.828279 14.5
      vertex -34.7323 0.282 -0.5
      vertex -34.7323 0.282 14.5
    endloop
  endfacet
  facet normal -0.535827 0.844328 0
    outer loop
      vertex -33.458 2.03586 -0.5
      vertex -33.9342 1.73365 14.5
      vertex -33.458 2.03586 14.5
    endloop
  endfacet
  facet normal -0.535827 0.844328 0
    outer loop
      vertex -33.9342 1.73365 14.5
      vertex -33.458 2.03586 -0.5
      vertex -33.9342 1.73365 -0.5
    endloop
  endfacet
  facet normal 0.992115 -0.125334 0
    outer loop
      vertex -30.3207 -0.559552 14.5
      vertex -30.25 0 0.5
      vertex -30.25 0 14.5
    endloop
  endfacet
  facet normal 0.992115 -0.125334 0
    outer loop
      vertex -30.25 0 0.5
      vertex -30.3207 -0.559552 14.5
      vertex -30.3207 -0.559552 0.5
    endloop
  endfacet
  facet normal 0.187382 -0.982287 0
    outer loop
      vertex -32.3587 -2.24556 0.5
      vertex -31.8047 -2.13988 14.5
      vertex -32.3587 -2.24556 14.5
    endloop
  endfacet
  facet normal 0.187382 -0.982287 0
    outer loop
      vertex -31.8047 -2.13988 14.5
      vertex -32.3587 -2.24556 0.5
      vertex -31.8047 -2.13988 0.5
    endloop
  endfacet
  facet normal 0.637424 -0.770513 0
    outer loop
      vertex -31.2944 -1.89974 0.5
      vertex -30.8598 -1.54023 14.5
      vertex -31.2944 -1.89974 14.5
    endloop
  endfacet
  facet normal 0.637424 -0.770513 0
    outer loop
      vertex -30.8598 -1.54023 14.5
      vertex -31.2944 -1.89974 0.5
      vertex -30.8598 -1.54023 0.5
    endloop
  endfacet
  facet normal -0.535827 -0.844328 0
    outer loop
      vertex -33.9342 -1.73365 -0.5
      vertex -33.458 -2.03586 14.5
      vertex -33.9342 -1.73365 14.5
    endloop
  endfacet
  facet normal -0.535827 -0.844328 -0
    outer loop
      vertex -33.458 -2.03586 14.5
      vertex -33.9342 -1.73365 -0.5
      vertex -33.458 -2.03586 -0.5
    endloop
  endfacet
  facet normal -0.0627905 -0.998027 -4.80976e-009
    outer loop
      vertex -32.9216 -2.21015 14.5
      vertex -32.5 -2.23667 0.5
      vertex -32.3587 -2.24556 14.5
    endloop
  endfacet
  facet normal -0.0627904 -0.998027 0
    outer loop
      vertex -32.9216 -2.21015 -0.5
      vertex -32.5 -2.23667 0.5
      vertex -32.9216 -2.21015 14.5
    endloop
  endfacet
  facet normal -0.0627904 -0.998027 -0
    outer loop
      vertex -32.5 -2.23667 0.5
      vertex -32.9216 -2.21015 -0.5
      vertex -32.5 -2.23667 -0.5
    endloop
  endfacet
  facet normal -0.062791 -0.998027 -0
    outer loop
      vertex -32.3587 -2.24556 14.5
      vertex -32.5 -2.23667 0.5
      vertex -32.3587 -2.24556 0.5
    endloop
  endfacet
  facet normal -0.728967 -0.684549 0
    outer loop
      vertex -33.9342 -1.73365 -0.5
      vertex -34.3203 -1.32252 14.5
      vertex -34.3203 -1.32252 -0.5
    endloop
  endfacet
  facet normal -0.728967 -0.684549 0
    outer loop
      vertex -34.3203 -1.32252 14.5
      vertex -33.9342 -1.73365 -0.5
      vertex -33.9342 -1.73365 14.5
    endloop
  endfacet
  facet normal -0.968582 -0.248693 0
    outer loop
      vertex -34.592 -0.828279 -0.5
      vertex -34.7323 -0.282 14.5
      vertex -34.7323 -0.282 -0.5
    endloop
  endfacet
  facet normal -0.968582 -0.248693 0
    outer loop
      vertex -34.7323 -0.282 14.5
      vertex -34.592 -0.828279 -0.5
      vertex -34.592 -0.828279 14.5
    endloop
  endfacet
  facet normal 0.425778 -0.904827 0
    outer loop
      vertex -31.8047 -2.13988 0.5
      vertex -31.2944 -1.89974 14.5
      vertex -31.8047 -2.13988 14.5
    endloop
  endfacet
  facet normal 0.425778 -0.904827 0
    outer loop
      vertex -31.2944 -1.89974 14.5
      vertex -31.8047 -2.13988 0.5
      vertex -31.2944 -1.89974 0.5
    endloop
  endfacet
  facet normal 0.929776 -0.368126 0
    outer loop
      vertex -30.5283 -1.08395 14.5
      vertex -30.3207 -0.559552 0.5
      vertex -30.3207 -0.559552 14.5
    endloop
  endfacet
  facet normal 0.929776 -0.368126 0
    outer loop
      vertex -30.3207 -0.559552 0.5
      vertex -30.5283 -1.08395 14.5
      vertex -30.5283 -1.08395 0.5
    endloop
  endfacet
  facet normal 0.809017 -0.587785 0
    outer loop
      vertex -30.8598 -1.54023 14.5
      vertex -30.5283 -1.08395 0.5
      vertex -30.5283 -1.08395 14.5
    endloop
  endfacet
  facet normal 0.809017 -0.587785 0
    outer loop
      vertex -30.5283 -1.08395 0.5
      vertex -30.8598 -1.54023 14.5
      vertex -30.8598 -1.54023 0.5
    endloop
  endfacet
  facet normal -0.309017 -0.951056 0
    outer loop
      vertex -33.458 -2.03586 -0.5
      vertex -32.9216 -2.21015 14.5
      vertex -33.458 -2.03586 14.5
    endloop
  endfacet
  facet normal -0.309017 -0.951056 -0
    outer loop
      vertex -32.9216 -2.21015 14.5
      vertex -33.458 -2.03586 -0.5
      vertex -32.9216 -2.21015 -0.5
    endloop
  endfacet
  facet normal -0.876309 -0.481749 0
    outer loop
      vertex -34.3203 -1.32252 -0.5
      vertex -34.592 -0.828279 14.5
      vertex -34.592 -0.828279 -0.5
    endloop
  endfacet
  facet normal -0.876309 -0.481749 0
    outer loop
      vertex -34.592 -0.828279 14.5
      vertex -34.3203 -1.32252 -0.5
      vertex -34.3203 -1.32252 14.5
    endloop
  endfacet
  facet normal -0.992114 -0.125337 0
    outer loop
      vertex -31.25 0 0.5
      vertex -31.2893 0.310862 14.5
      vertex -31.2893 0.310862 0.5
    endloop
  endfacet
  facet normal -0.992114 -0.125337 0
    outer loop
      vertex -31.2893 0.310862 14.5
      vertex -31.25 0 0.5
      vertex -31.25 0 14.5
    endloop
  endfacet
  facet normal 1 -0 0
    outer loop
      vertex -33.7401 -0.156666 14.5
      vertex -33.7401 0.156666 -0.5
      vertex -33.7401 0.156666 14.5
    endloop
  endfacet
  facet normal 1 0 0
    outer loop
      vertex -33.7401 0.156666 -0.5
      vertex -33.7401 -0.156666 14.5
      vertex -33.7401 -0.156666 -0.5
    endloop
  endfacet
  facet normal 0.0627906 -0.998027 -6.37755e-010
    outer loop
      vertex -32.7342 1.22786 14.5
      vertex -32.5 1.24259 0.5
      vertex -32.4215 1.24753 14.5
    endloop
  endfacet
  facet normal 0.0627906 -0.998027 0
    outer loop
      vertex -32.7342 1.22786 -0.5
      vertex -32.5 1.24259 0.5
      vertex -32.7342 1.22786 14.5
    endloop
  endfacet
  facet normal 0.0627906 -0.998027 0
    outer loop
      vertex -32.5 1.24259 0.5
      vertex -32.7342 1.22786 -0.5
      vertex -32.5 1.24259 -0.5
    endloop
  endfacet
  facet normal 0.0627905 -0.998027 0
    outer loop
      vertex -32.4215 1.24753 14.5
      vertex -32.5 1.24259 0.5
      vertex -32.4215 1.24753 0.5
    endloop
  endfacet
  facet normal 0.728973 0.684542 0
    outer loop
      vertex -33.2968 -0.963141 14.5
      vertex -33.5113 -0.734731 -0.5
      vertex -33.5113 -0.734731 14.5
    endloop
  endfacet
  facet normal 0.728973 0.684542 0
    outer loop
      vertex -33.5113 -0.734731 -0.5
      vertex -33.2968 -0.963141 14.5
      vertex -33.2968 -0.963141 -0.5
    endloop
  endfacet
  facet normal -0.637425 -0.770512 0
    outer loop
      vertex -31.8302 1.05541 0.5
      vertex -31.5888 0.855683 14.5
      vertex -31.8302 1.05541 14.5
    endloop
  endfacet
  facet normal -0.637425 -0.770512 -0
    outer loop
      vertex -31.5888 0.855683 14.5
      vertex -31.8302 1.05541 0.5
      vertex -31.5888 0.855683 0.5
    endloop
  endfacet
  facet normal -0.929777 -0.368122 0
    outer loop
      vertex -31.2893 0.310862 0.5
      vertex -31.4046 0.602192 14.5
      vertex -31.4046 0.602192 0.5
    endloop
  endfacet
  facet normal -0.929777 -0.368122 0
    outer loop
      vertex -31.4046 0.602192 14.5
      vertex -31.2893 0.310862 0.5
      vertex -31.2893 0.310862 14.5
    endloop
  endfacet
  facet normal 0.728973 -0.684542 0
    outer loop
      vertex -33.5113 0.734731 14.5
      vertex -33.2968 0.963141 -0.5
      vertex -33.2968 0.963141 14.5
    endloop
  endfacet
  facet normal 0.728973 -0.684542 0
    outer loop
      vertex -33.2968 0.963141 -0.5
      vertex -33.5113 0.734731 14.5
      vertex -33.5113 0.734731 -0.5
    endloop
  endfacet
  facet normal 0.876303 -0.481759 0
    outer loop
      vertex -33.6622 0.460155 14.5
      vertex -33.5113 0.734731 -0.5
      vertex -33.5113 0.734731 14.5
    endloop
  endfacet
  facet normal 0.876303 -0.481759 0
    outer loop
      vertex -33.5113 0.734731 -0.5
      vertex -33.6622 0.460155 14.5
      vertex -33.6622 0.460155 -0.5
    endloop
  endfacet
  facet normal 0.535824 -0.84433 0
    outer loop
      vertex -33.2968 0.963141 -0.5
      vertex -33.0322 1.13103 14.5
      vertex -33.2968 0.963141 14.5
    endloop
  endfacet
  facet normal 0.535824 -0.84433 0
    outer loop
      vertex -33.0322 1.13103 14.5
      vertex -33.2968 0.963141 -0.5
      vertex -33.0322 1.13103 -0.5
    endloop
  endfacet
  facet normal -0.929777 0.368122 0
    outer loop
      vertex -31.4046 -0.602192 0.5
      vertex -31.2893 -0.310862 14.5
      vertex -31.2893 -0.310862 0.5
    endloop
  endfacet
  facet normal -0.929777 0.368122 0
    outer loop
      vertex -31.2893 -0.310862 14.5
      vertex -31.4046 -0.602192 0.5
      vertex -31.4046 -0.602192 14.5
    endloop
  endfacet
  facet normal 0.968583 0.24869 0
    outer loop
      vertex -33.6622 -0.460155 14.5
      vertex -33.7401 -0.156666 -0.5
      vertex -33.7401 -0.156666 14.5
    endloop
  endfacet
  facet normal 0.968583 0.24869 0
    outer loop
      vertex -33.7401 -0.156666 -0.5
      vertex -33.6622 -0.460155 14.5
      vertex -33.6622 -0.460155 -0.5
    endloop
  endfacet
  facet normal -0.809015 -0.587788 0
    outer loop
      vertex -31.4046 0.602192 0.5
      vertex -31.5888 0.855683 14.5
      vertex -31.5888 0.855683 0.5
    endloop
  endfacet
  facet normal -0.809015 -0.587788 0
    outer loop
      vertex -31.5888 0.855683 14.5
      vertex -31.4046 0.602192 0.5
      vertex -31.4046 0.602192 14.5
    endloop
  endfacet
  facet normal -0.187383 -0.982287 0
    outer loop
      vertex -32.4215 1.24753 0.5
      vertex -32.1137 1.18882 14.5
      vertex -32.4215 1.24753 14.5
    endloop
  endfacet
  facet normal -0.187383 -0.982287 -0
    outer loop
      vertex -32.1137 1.18882 14.5
      vertex -32.4215 1.24753 0.5
      vertex -32.1137 1.18882 0.5
    endloop
  endfacet
  facet normal -0.425776 -0.904828 0
    outer loop
      vertex -32.1137 1.18882 0.5
      vertex -31.8302 1.05541 14.5
      vertex -32.1137 1.18882 14.5
    endloop
  endfacet
  facet normal -0.425776 -0.904828 -0
    outer loop
      vertex -31.8302 1.05541 14.5
      vertex -32.1137 1.18882 0.5
      vertex -31.8302 1.05541 0.5
    endloop
  endfacet
  facet normal 0.968583 -0.24869 0
    outer loop
      vertex -33.7401 0.156666 14.5
      vertex -33.6622 0.460155 -0.5
      vertex -33.6622 0.460155 14.5
    endloop
  endfacet
  facet normal 0.968583 -0.24869 0
    outer loop
      vertex -33.6622 0.460155 -0.5
      vertex -33.7401 0.156666 14.5
      vertex -33.7401 0.156666 -0.5
    endloop
  endfacet
  facet normal 0.309019 -0.951056 0
    outer loop
      vertex -33.0322 1.13103 -0.5
      vertex -32.7342 1.22786 14.5
      vertex -33.0322 1.13103 14.5
    endloop
  endfacet
  facet normal 0.309019 -0.951056 0
    outer loop
      vertex -32.7342 1.22786 14.5
      vertex -33.0322 1.13103 -0.5
      vertex -32.7342 1.22786 -0.5
    endloop
  endfacet
  facet normal -0.187383 0.982287 0
    outer loop
      vertex -32.1137 -1.18882 0.5
      vertex -32.4215 -1.24753 14.5
      vertex -32.1137 -1.18882 14.5
    endloop
  endfacet
  facet normal -0.187383 0.982287 0
    outer loop
      vertex -32.4215 -1.24753 14.5
      vertex -32.1137 -1.18882 0.5
      vertex -32.4215 -1.24753 0.5
    endloop
  endfacet
  facet normal -0.637425 0.770512 0
    outer loop
      vertex -31.5888 -0.855683 0.5
      vertex -31.8302 -1.05541 14.5
      vertex -31.5888 -0.855683 14.5
    endloop
  endfacet
  facet normal -0.637425 0.770512 0
    outer loop
      vertex -31.8302 -1.05541 14.5
      vertex -31.5888 -0.855683 0.5
      vertex -31.8302 -1.05541 0.5
    endloop
  endfacet
  facet normal 0.535824 0.84433 -0
    outer loop
      vertex -33.0322 -1.13103 -0.5
      vertex -33.2968 -0.963141 14.5
      vertex -33.0322 -1.13103 14.5
    endloop
  endfacet
  facet normal 0.535824 0.84433 0
    outer loop
      vertex -33.2968 -0.963141 14.5
      vertex -33.0322 -1.13103 -0.5
      vertex -33.2968 -0.963141 -0.5
    endloop
  endfacet
  facet normal 0.0627905 0.998027 0
    outer loop
      vertex -32.5 -1.24259 0.5
      vertex -32.4215 -1.24753 14.5
      vertex -32.4215 -1.24753 0.5
    endloop
  endfacet
  facet normal 0.0627906 0.998027 -6.37755e-010
    outer loop
      vertex -32.4215 -1.24753 14.5
      vertex -32.5 -1.24259 0.5
      vertex -32.7342 -1.22786 14.5
    endloop
  endfacet
  facet normal 0.0627906 0.998027 0
    outer loop
      vertex -32.7342 -1.22786 -0.5
      vertex -32.5 -1.24259 0.5
      vertex -32.5 -1.24259 -0.5
    endloop
  endfacet
  facet normal 0.0627906 0.998027 0
    outer loop
      vertex -32.5 -1.24259 0.5
      vertex -32.7342 -1.22786 -0.5
      vertex -32.7342 -1.22786 14.5
    endloop
  endfacet
  facet normal 0.876303 0.481759 0
    outer loop
      vertex -33.5113 -0.734731 14.5
      vertex -33.6622 -0.460155 -0.5
      vertex -33.6622 -0.460155 14.5
    endloop
  endfacet
  facet normal 0.876303 0.481759 0
    outer loop
      vertex -33.6622 -0.460155 -0.5
      vertex -33.5113 -0.734731 14.5
      vertex -33.5113 -0.734731 -0.5
    endloop
  endfacet
  facet normal -0.992114 0.125337 0
    outer loop
      vertex -31.2893 -0.310862 0.5
      vertex -31.25 0 14.5
      vertex -31.25 0 0.5
    endloop
  endfacet
  facet normal -0.992114 0.125337 0
    outer loop
      vertex -31.25 0 14.5
      vertex -31.2893 -0.310862 0.5
      vertex -31.2893 -0.310862 14.5
    endloop
  endfacet
  facet normal -0.425776 0.904828 0
    outer loop
      vertex -31.8302 -1.05541 0.5
      vertex -32.1137 -1.18882 14.5
      vertex -31.8302 -1.05541 14.5
    endloop
  endfacet
  facet normal -0.425776 0.904828 0
    outer loop
      vertex -32.1137 -1.18882 14.5
      vertex -31.8302 -1.05541 0.5
      vertex -32.1137 -1.18882 0.5
    endloop
  endfacet
  facet normal -0.809015 0.587788 0
    outer loop
      vertex -31.5888 -0.855683 0.5
      vertex -31.4046 -0.602192 14.5
      vertex -31.4046 -0.602192 0.5
    endloop
  endfacet
  facet normal -0.809015 0.587788 0
    outer loop
      vertex -31.4046 -0.602192 14.5
      vertex -31.5888 -0.855683 0.5
      vertex -31.5888 -0.855683 14.5
    endloop
  endfacet
  facet normal 0.309019 0.951056 -0
    outer loop
      vertex -32.7342 -1.22786 -0.5
      vertex -33.0322 -1.13103 14.5
      vertex -32.7342 -1.22786 14.5
    endloop
  endfacet
  facet normal 0.309019 0.951056 0
    outer loop
      vertex -33.0322 -1.13103 14.5
      vertex -32.7342 -1.22786 -0.5
      vertex -33.0322 -1.13103 -0.5
    endloop
  endfacet
  facet normal 0.992115 0.125331 0
    outer loop
      vertex 34.75 0 14.5
      vertex 34.6793 0.559552 -0.5
      vertex 34.6793 0.559552 14.5
    endloop
  endfacet
  facet normal 0.992115 0.125331 0
    outer loop
      vertex 34.6793 0.559552 -0.5
      vertex 34.75 0 14.5
      vertex 34.75 0 -0.5
    endloop
  endfacet
  facet normal -1 0 0
    outer loop
      vertex 30.2677 -0.282 0.5
      vertex 30.2677 0.282 14.5
      vertex 30.2677 0.282 0.5
    endloop
  endfacet
  facet normal -1 -0 0
    outer loop
      vertex 30.2677 0.282 14.5
      vertex 30.2677 -0.282 0.5
      vertex 30.2677 -0.282 14.5
    endloop
  endfacet
  facet normal -0.0627905 0.998027 -4.80976e-009
    outer loop
      vertex 32.6413 2.24556 14.5
      vertex 32.5 2.23667 0.5
      vertex 32.0784 2.21015 14.5
    endloop
  endfacet
  facet normal -0.062791 0.998027 0
    outer loop
      vertex 32.6413 2.24556 -0.5
      vertex 32.5 2.23667 0.5
      vertex 32.6413 2.24556 14.5
    endloop
  endfacet
  facet normal -0.062791 0.998027 0
    outer loop
      vertex 32.5 2.23667 0.5
      vertex 32.6413 2.24556 -0.5
      vertex 32.5 2.23667 -0.5
    endloop
  endfacet
  facet normal -0.0627904 0.998027 0
    outer loop
      vertex 32.0784 2.21015 14.5
      vertex 32.5 2.23667 0.5
      vertex 32.0784 2.21015 0.5
    endloop
  endfacet
  facet normal 0.637426 0.770512 -0
    outer loop
      vertex 34.1402 1.54023 -0.5
      vertex 33.7056 1.89974 14.5
      vertex 34.1402 1.54023 14.5
    endloop
  endfacet
  facet normal 0.637426 0.770512 0
    outer loop
      vertex 33.7056 1.89974 14.5
      vertex 34.1402 1.54023 -0.5
      vertex 33.7056 1.89974 -0.5
    endloop
  endfacet
  facet normal -0.728969 0.684547 0
    outer loop
      vertex 30.6797 1.32252 0.5
      vertex 31.0658 1.73365 14.5
      vertex 31.0658 1.73365 0.5
    endloop
  endfacet
  facet normal -0.728969 0.684547 0
    outer loop
      vertex 31.0658 1.73365 14.5
      vertex 30.6797 1.32252 0.5
      vertex 30.6797 1.32252 14.5
    endloop
  endfacet
  facet normal 0 0 1
    outer loop
      vertex 33.75 0 14.5
      vertex 34.75 0 14.5
      vertex 34.6793 0.559552 14.5
    endloop
  endfacet
  facet normal 0 0 1
    outer loop
      vertex 33.7107 0.310862 14.5
      vertex 34.6793 0.559552 14.5
      vertex 34.4717 1.08395 14.5
    endloop
  endfacet
  facet normal 0 0 1
    outer loop
      vertex 34.75 0 14.5
      vertex 33.75 0 14.5
      vertex 34.6793 -0.559552 14.5
    endloop
  endfacet
  facet normal 0 0 1
    outer loop
      vertex 33.5954 0.602192 14.5
      vertex 34.4717 1.08395 14.5
      vertex 34.1402 1.54023 14.5
    endloop
  endfacet
  facet normal -0 0 1
    outer loop
      vertex 33.7107 -0.310862 14.5
      vertex 34.6793 -0.559552 14.5
      vertex 33.75 0 14.5
    endloop
  endfacet
  facet normal 0 0 1
    outer loop
      vertex 34.6793 -0.559552 14.5
      vertex 33.7107 -0.310862 14.5
      vertex 34.4717 -1.08395 14.5
    endloop
  endfacet
  facet normal 0 0 1
    outer loop
      vertex 34.6793 0.559552 14.5
      vertex 33.7107 0.310862 14.5
      vertex 33.75 0 14.5
    endloop
  endfacet
  facet normal 0 0 1
    outer loop
      vertex 33.4112 0.855683 14.5
      vertex 34.1402 1.54023 14.5
      vertex 33.7056 1.89974 14.5
    endloop
  endfacet
  facet normal 0 0 1
    outer loop
      vertex 34.4717 1.08395 14.5
      vertex 33.5954 0.602192 14.5
      vertex 33.7107 0.310862 14.5
    endloop
  endfacet
  facet normal 0 0 1
    outer loop
      vertex 34.1402 1.54023 14.5
      vertex 33.4112 0.855683 14.5
      vertex 33.5954 0.602192 14.5
    endloop
  endfacet
  facet normal 0 0 1
    outer loop
      vertex 33.1698 1.05541 14.5
      vertex 33.7056 1.89974 14.5
      vertex 33.1953 2.13988 14.5
    endloop
  endfacet
  facet normal 0 0 1
    outer loop
      vertex 33.7056 1.89974 14.5
      vertex 33.1698 1.05541 14.5
      vertex 33.4112 0.855683 14.5
    endloop
  endfacet
  facet normal 0 0 1
    outer loop
      vertex 33.1953 2.13988 14.5
      vertex 32.8863 1.18882 14.5
      vertex 33.1698 1.05541 14.5
    endloop
  endfacet
  facet normal 0 0 1
    outer loop
      vertex 32.6413 2.24556 14.5
      vertex 32.8863 1.18882 14.5
      vertex 33.1953 2.13988 14.5
    endloop
  endfacet
  facet normal 0 0 1
    outer loop
      vertex 32.6413 2.24556 14.5
      vertex 32.5785 1.24753 14.5
      vertex 32.8863 1.18882 14.5
    endloop
  endfacet
  facet normal 0 0 1
    outer loop
      vertex 32.6413 2.24556 14.5
      vertex 32.2658 1.22786 14.5
      vertex 32.5785 1.24753 14.5
    endloop
  endfacet
  facet normal -0 0 1
    outer loop
      vertex 32.0784 2.21015 14.5
      vertex 32.2658 1.22786 14.5
      vertex 32.6413 2.24556 14.5
    endloop
  endfacet
  facet normal 0 0 1
    outer loop
      vertex 32.0784 2.21015 14.5
      vertex 31.9678 1.13103 14.5
      vertex 32.2658 1.22786 14.5
    endloop
  endfacet
  facet normal -0 0 1
    outer loop
      vertex 31.542 2.03586 14.5
      vertex 31.9678 1.13103 14.5
      vertex 32.0784 2.21015 14.5
    endloop
  endfacet
  facet normal 0 0 1
    outer loop
      vertex 31.9678 1.13103 14.5
      vertex 31.542 2.03586 14.5
      vertex 31.7032 0.963141 14.5
    endloop
  endfacet
  facet normal -0 0 1
    outer loop
      vertex 31.0658 1.73365 14.5
      vertex 31.7032 0.963141 14.5
      vertex 31.542 2.03586 14.5
    endloop
  endfacet
  facet normal 0 0 1
    outer loop
      vertex 31.7032 0.963141 14.5
      vertex 31.0658 1.73365 14.5
      vertex 31.4887 0.734731 14.5
    endloop
  endfacet
  facet normal -0 0 1
    outer loop
      vertex 30.6797 1.32252 14.5
      vertex 31.4887 0.734731 14.5
      vertex 31.0658 1.73365 14.5
    endloop
  endfacet
  facet normal -0 0 1
    outer loop
      vertex 30.408 0.828279 14.5
      vertex 31.3378 0.460155 14.5
      vertex 30.6797 1.32252 14.5
    endloop
  endfacet
  facet normal 0 0 1
    outer loop
      vertex 31.4887 0.734731 14.5
      vertex 30.6797 1.32252 14.5
      vertex 31.3378 0.460155 14.5
    endloop
  endfacet
  facet normal -0 0 1
    outer loop
      vertex 33.5954 -0.602192 14.5
      vertex 34.4717 -1.08395 14.5
      vertex 33.7107 -0.310862 14.5
    endloop
  endfacet
  facet normal 0 0 1
    outer loop
      vertex 34.4717 -1.08395 14.5
      vertex 33.5954 -0.602192 14.5
      vertex 34.1402 -1.54023 14.5
    endloop
  endfacet
  facet normal -0 0 1
    outer loop
      vertex 33.4112 -0.855683 14.5
      vertex 34.1402 -1.54023 14.5
      vertex 33.5954 -0.602192 14.5
    endloop
  endfacet
  facet normal 0 0 1
    outer loop
      vertex 34.1402 -1.54023 14.5
      vertex 33.4112 -0.855683 14.5
      vertex 33.7056 -1.89974 14.5
    endloop
  endfacet
  facet normal -0 0 1
    outer loop
      vertex 33.1698 -1.05541 14.5
      vertex 33.7056 -1.89974 14.5
      vertex 33.4112 -0.855683 14.5
    endloop
  endfacet
  facet normal 0 0 1
    outer loop
      vertex 33.7056 -1.89974 14.5
      vertex 33.1698 -1.05541 14.5
      vertex 33.1953 -2.13988 14.5
    endloop
  endfacet
  facet normal -0 0 1
    outer loop
      vertex 32.8863 -1.18882 14.5
      vertex 33.1953 -2.13988 14.5
      vertex 33.1698 -1.05541 14.5
    endloop
  endfacet
  facet normal 0 0 1
    outer loop
      vertex 32.8863 -1.18882 14.5
      vertex 32.6413 -2.24556 14.5
      vertex 33.1953 -2.13988 14.5
    endloop
  endfacet
  facet normal -0 0 1
    outer loop
      vertex 32.5785 -1.24753 14.5
      vertex 32.6413 -2.24556 14.5
      vertex 32.8863 -1.18882 14.5
    endloop
  endfacet
  facet normal 0 0 1
    outer loop
      vertex 32.2658 -1.22786 14.5
      vertex 32.6413 -2.24556 14.5
      vertex 32.5785 -1.24753 14.5
    endloop
  endfacet
  facet normal 0 0 1
    outer loop
      vertex 32.2658 -1.22786 14.5
      vertex 32.0784 -2.21015 14.5
      vertex 32.6413 -2.24556 14.5
    endloop
  endfacet
  facet normal 0 0 1
    outer loop
      vertex 31.9678 -1.13103 14.5
      vertex 32.0784 -2.21015 14.5
      vertex 32.2658 -1.22786 14.5
    endloop
  endfacet
  facet normal 0 0 1
    outer loop
      vertex 31.542 -2.03586 14.5
      vertex 31.9678 -1.13103 14.5
      vertex 31.7032 -0.963141 14.5
    endloop
  endfacet
  facet normal 0 0 1
    outer loop
      vertex 31.9678 -1.13103 14.5
      vertex 31.542 -2.03586 14.5
      vertex 32.0784 -2.21015 14.5
    endloop
  endfacet
  facet normal 0 0 1
    outer loop
      vertex 31.0658 -1.73365 14.5
      vertex 31.7032 -0.963141 14.5
      vertex 31.4887 -0.734731 14.5
    endloop
  endfacet
  facet normal 0 0 1
    outer loop
      vertex 30.6797 -1.32252 14.5
      vertex 31.4887 -0.734731 14.5
      vertex 31.3378 -0.460155 14.5
    endloop
  endfacet
  facet normal 0 0 1
    outer loop
      vertex 30.408 -0.828279 14.5
      vertex 31.3378 -0.460155 14.5
      vertex 31.2599 -0.156666 14.5
    endloop
  endfacet
  facet normal 0 0 1
    outer loop
      vertex 31.7032 -0.963141 14.5
      vertex 31.0658 -1.73365 14.5
      vertex 31.542 -2.03586 14.5
    endloop
  endfacet
  facet normal 0 0 1
    outer loop
      vertex 31.3378 0.460155 14.5
      vertex 30.408 0.828279 14.5
      vertex 31.2599 0.156666 14.5
    endloop
  endfacet
  facet normal -0 0 1
    outer loop
      vertex 30.2677 0.282 14.5
      vertex 31.2599 0.156666 14.5
      vertex 30.408 0.828279 14.5
    endloop
  endfacet
  facet normal 0 0 1
    outer loop
      vertex 31.4887 -0.734731 14.5
      vertex 30.6797 -1.32252 14.5
      vertex 31.0658 -1.73365 14.5
    endloop
  endfacet
  facet normal 0 0 1
    outer loop
      vertex 31.2599 0.156666 14.5
      vertex 30.2677 0.282 14.5
      vertex 31.2599 -0.156666 14.5
    endloop
  endfacet
  facet normal 0 0 1
    outer loop
      vertex 31.3378 -0.460155 14.5
      vertex 30.408 -0.828279 14.5
      vertex 30.6797 -1.32252 14.5
    endloop
  endfacet
  facet normal 0 0 1
    outer loop
      vertex 30.2677 -0.282 14.5
      vertex 31.2599 -0.156666 14.5
      vertex 30.2677 0.282 14.5
    endloop
  endfacet
  facet normal 0 0 1
    outer loop
      vertex 31.2599 -0.156666 14.5
      vertex 30.2677 -0.282 14.5
      vertex 30.408 -0.828279 14.5
    endloop
  endfacet
  facet normal -0.309017 0.951056 0
    outer loop
      vertex 32.0784 2.21015 0.5
      vertex 31.542 2.03586 14.5
      vertex 32.0784 2.21015 14.5
    endloop
  endfacet
  facet normal -0.309017 0.951056 0
    outer loop
      vertex 31.542 2.03586 14.5
      vertex 32.0784 2.21015 0.5
      vertex 31.542 2.03586 0.5
    endloop
  endfacet
  facet normal 0.809019 0.587783 0
    outer loop
      vertex 34.4717 1.08395 14.5
      vertex 34.1402 1.54023 -0.5
      vertex 34.1402 1.54023 14.5
    endloop
  endfacet
  facet normal 0.809019 0.587783 0
    outer loop
      vertex 34.1402 1.54023 -0.5
      vertex 34.4717 1.08395 14.5
      vertex 34.4717 1.08395 -0.5
    endloop
  endfacet
  facet normal 0.929774 0.368131 0
    outer loop
      vertex 34.6793 0.559552 14.5
      vertex 34.4717 1.08395 -0.5
      vertex 34.4717 1.08395 14.5
    endloop
  endfacet
  facet normal 0.929774 0.368131 0
    outer loop
      vertex 34.4717 1.08395 -0.5
      vertex 34.6793 0.559552 14.5
      vertex 34.6793 0.559552 -0.5
    endloop
  endfacet
  facet normal 0.187381 0.982287 -0
    outer loop
      vertex 33.1953 2.13988 -0.5
      vertex 32.6413 2.24556 14.5
      vertex 33.1953 2.13988 14.5
    endloop
  endfacet
  facet normal 0.187381 0.982287 0
    outer loop
      vertex 32.6413 2.24556 14.5
      vertex 33.1953 2.13988 -0.5
      vertex 32.6413 2.24556 -0.5
    endloop
  endfacet
  facet normal 0.425778 0.904827 -0
    outer loop
      vertex 33.7056 1.89974 -0.5
      vertex 33.1953 2.13988 14.5
      vertex 33.7056 1.89974 14.5
    endloop
  endfacet
  facet normal 0.425778 0.904827 0
    outer loop
      vertex 33.1953 2.13988 14.5
      vertex 33.7056 1.89974 -0.5
      vertex 33.1953 2.13988 -0.5
    endloop
  endfacet
  facet normal -0.876308 0.481752 0
    outer loop
      vertex 30.408 0.828279 0.5
      vertex 30.6797 1.32252 14.5
      vertex 30.6797 1.32252 0.5
    endloop
  endfacet
  facet normal -0.876308 0.481752 0
    outer loop
      vertex 30.6797 1.32252 14.5
      vertex 30.408 0.828279 0.5
      vertex 30.408 0.828279 14.5
    endloop
  endfacet
  facet normal -0.968582 0.248693 0
    outer loop
      vertex 30.2677 0.282 0.5
      vertex 30.408 0.828279 14.5
      vertex 30.408 0.828279 0.5
    endloop
  endfacet
  facet normal -0.968582 0.248693 0
    outer loop
      vertex 30.408 0.828279 14.5
      vertex 30.2677 0.282 0.5
      vertex 30.2677 0.282 14.5
    endloop
  endfacet
  facet normal -0.535827 0.844328 0
    outer loop
      vertex 31.542 2.03586 0.5
      vertex 31.0658 1.73365 14.5
      vertex 31.542 2.03586 14.5
    endloop
  endfacet
  facet normal -0.535827 0.844328 0
    outer loop
      vertex 31.0658 1.73365 14.5
      vertex 31.542 2.03586 0.5
      vertex 31.0658 1.73365 0.5
    endloop
  endfacet
  facet normal 0.992115 -0.125331 0
    outer loop
      vertex 34.6793 -0.559552 14.5
      vertex 34.75 0 -0.5
      vertex 34.75 0 14.5
    endloop
  endfacet
  facet normal 0.992115 -0.125331 0
    outer loop
      vertex 34.75 0 -0.5
      vertex 34.6793 -0.559552 14.5
      vertex 34.6793 -0.559552 -0.5
    endloop
  endfacet
  facet normal 0.187381 -0.982287 0
    outer loop
      vertex 32.6413 -2.24556 -0.5
      vertex 33.1953 -2.13988 14.5
      vertex 32.6413 -2.24556 14.5
    endloop
  endfacet
  facet normal 0.187381 -0.982287 0
    outer loop
      vertex 33.1953 -2.13988 14.5
      vertex 32.6413 -2.24556 -0.5
      vertex 33.1953 -2.13988 -0.5
    endloop
  endfacet
  facet normal 0.637426 -0.770512 0
    outer loop
      vertex 33.7056 -1.89974 -0.5
      vertex 34.1402 -1.54023 14.5
      vertex 33.7056 -1.89974 14.5
    endloop
  endfacet
  facet normal 0.637426 -0.770512 0
    outer loop
      vertex 34.1402 -1.54023 14.5
      vertex 33.7056 -1.89974 -0.5
      vertex 34.1402 -1.54023 -0.5
    endloop
  endfacet
  facet normal -0.535827 -0.844328 0
    outer loop
      vertex 31.0658 -1.73365 0.5
      vertex 31.542 -2.03586 14.5
      vertex 31.0658 -1.73365 14.5
    endloop
  endfacet
  facet normal -0.535827 -0.844328 -0
    outer loop
      vertex 31.542 -2.03586 14.5
      vertex 31.0658 -1.73365 0.5
      vertex 31.542 -2.03586 0.5
    endloop
  endfacet
  facet normal -0.0627904 -0.998027 0
    outer loop
      vertex 32.5 -2.23667 0.5
      vertex 32.0784 -2.21015 14.5
      vertex 32.0784 -2.21015 0.5
    endloop
  endfacet
  facet normal -0.0627905 -0.998027 -4.80976e-009
    outer loop
      vertex 32.0784 -2.21015 14.5
      vertex 32.5 -2.23667 0.5
      vertex 32.6413 -2.24556 14.5
    endloop
  endfacet
  facet normal -0.062791 -0.998027 0
    outer loop
      vertex 32.6413 -2.24556 -0.5
      vertex 32.5 -2.23667 0.5
      vertex 32.5 -2.23667 -0.5
    endloop
  endfacet
  facet normal -0.062791 -0.998027 0
    outer loop
      vertex 32.5 -2.23667 0.5
      vertex 32.6413 -2.24556 -0.5
      vertex 32.6413 -2.24556 14.5
    endloop
  endfacet
  facet normal -0.728969 -0.684547 0
    outer loop
      vertex 31.0658 -1.73365 0.5
      vertex 30.6797 -1.32252 14.5
      vertex 30.6797 -1.32252 0.5
    endloop
  endfacet
  facet normal -0.728969 -0.684547 0
    outer loop
      vertex 30.6797 -1.32252 14.5
      vertex 31.0658 -1.73365 0.5
      vertex 31.0658 -1.73365 14.5
    endloop
  endfacet
  facet normal -0.968582 -0.248693 0
    outer loop
      vertex 30.408 -0.828279 0.5
      vertex 30.2677 -0.282 14.5
      vertex 30.2677 -0.282 0.5
    endloop
  endfacet
  facet normal -0.968582 -0.248693 0
    outer loop
      vertex 30.2677 -0.282 14.5
      vertex 30.408 -0.828279 0.5
      vertex 30.408 -0.828279 14.5
    endloop
  endfacet
  facet normal 0.425778 -0.904827 0
    outer loop
      vertex 33.1953 -2.13988 -0.5
      vertex 33.7056 -1.89974 14.5
      vertex 33.1953 -2.13988 14.5
    endloop
  endfacet
  facet normal 0.425778 -0.904827 0
    outer loop
      vertex 33.7056 -1.89974 14.5
      vertex 33.1953 -2.13988 -0.5
      vertex 33.7056 -1.89974 -0.5
    endloop
  endfacet
  facet normal 0.929774 -0.368131 0
    outer loop
      vertex 34.4717 -1.08395 14.5
      vertex 34.6793 -0.559552 -0.5
      vertex 34.6793 -0.559552 14.5
    endloop
  endfacet
  facet normal 0.929774 -0.368131 0
    outer loop
      vertex 34.6793 -0.559552 -0.5
      vertex 34.4717 -1.08395 14.5
      vertex 34.4717 -1.08395 -0.5
    endloop
  endfacet
  facet normal 0.809019 -0.587783 0
    outer loop
      vertex 34.1402 -1.54023 14.5
      vertex 34.4717 -1.08395 -0.5
      vertex 34.4717 -1.08395 14.5
    endloop
  endfacet
  facet normal 0.809019 -0.587783 0
    outer loop
      vertex 34.4717 -1.08395 -0.5
      vertex 34.1402 -1.54023 14.5
      vertex 34.1402 -1.54023 -0.5
    endloop
  endfacet
  facet normal -0.309017 -0.951056 0
    outer loop
      vertex 31.542 -2.03586 0.5
      vertex 32.0784 -2.21015 14.5
      vertex 31.542 -2.03586 14.5
    endloop
  endfacet
  facet normal -0.309017 -0.951056 -0
    outer loop
      vertex 32.0784 -2.21015 14.5
      vertex 31.542 -2.03586 0.5
      vertex 32.0784 -2.21015 0.5
    endloop
  endfacet
  facet normal -0.876308 -0.481752 0
    outer loop
      vertex 30.6797 -1.32252 0.5
      vertex 30.408 -0.828279 14.5
      vertex 30.408 -0.828279 0.5
    endloop
  endfacet
  facet normal -0.876308 -0.481752 0
    outer loop
      vertex 30.408 -0.828279 14.5
      vertex 30.6797 -1.32252 0.5
      vertex 30.6797 -1.32252 14.5
    endloop
  endfacet
  facet normal -0.992114 -0.125337 0
    outer loop
      vertex 33.75 0 -0.5
      vertex 33.7107 0.310862 14.5
      vertex 33.7107 0.310862 -0.5
    endloop
  endfacet
  facet normal -0.992114 -0.125337 0
    outer loop
      vertex 33.7107 0.310862 14.5
      vertex 33.75 0 -0.5
      vertex 33.75 0 14.5
    endloop
  endfacet
  facet normal 1 -0 0
    outer loop
      vertex 31.2599 -0.156666 14.5
      vertex 31.2599 0.156666 0.5
      vertex 31.2599 0.156666 14.5
    endloop
  endfacet
  facet normal 1 0 0
    outer loop
      vertex 31.2599 0.156666 0.5
      vertex 31.2599 -0.156666 14.5
      vertex 31.2599 -0.156666 0.5
    endloop
  endfacet
  facet normal 0.0627906 -0.998027 0
    outer loop
      vertex 32.2658 1.22786 0.5
      vertex 32.5785 1.24753 14.5
      vertex 32.2658 1.22786 14.5
    endloop
  endfacet
  facet normal 0.0627906 -0.998027 -8.51462e-010
    outer loop
      vertex 32.5 1.24259 0.5
      vertex 32.5785 1.24753 14.5
      vertex 32.2658 1.22786 0.5
    endloop
  endfacet
  facet normal 0.0627905 -0.998027 0
    outer loop
      vertex 32.5785 1.24753 -0.5
      vertex 32.5 1.24259 0.5
      vertex 32.5 1.24259 -0.5
    endloop
  endfacet
  facet normal 0.0627905 -0.998027 0
    outer loop
      vertex 32.5 1.24259 0.5
      vertex 32.5785 1.24753 -0.5
      vertex 32.5785 1.24753 14.5
    endloop
  endfacet
  facet normal 0.72897 0.684545 0
    outer loop
      vertex 31.7032 -0.963141 14.5
      vertex 31.4887 -0.734731 0.5
      vertex 31.4887 -0.734731 14.5
    endloop
  endfacet
  facet normal 0.72897 0.684545 0
    outer loop
      vertex 31.4887 -0.734731 0.5
      vertex 31.7032 -0.963141 14.5
      vertex 31.7032 -0.963141 0.5
    endloop
  endfacet
  facet normal -0.637428 -0.77051 0
    outer loop
      vertex 33.1698 1.05541 -0.5
      vertex 33.4112 0.855683 14.5
      vertex 33.1698 1.05541 14.5
    endloop
  endfacet
  facet normal -0.637428 -0.77051 -0
    outer loop
      vertex 33.4112 0.855683 14.5
      vertex 33.1698 1.05541 -0.5
      vertex 33.4112 0.855683 -0.5
    endloop
  endfacet
  facet normal -0.929777 -0.368122 0
    outer loop
      vertex 33.7107 0.310862 -0.5
      vertex 33.5954 0.602192 14.5
      vertex 33.5954 0.602192 -0.5
    endloop
  endfacet
  facet normal -0.929777 -0.368122 0
    outer loop
      vertex 33.5954 0.602192 14.5
      vertex 33.7107 0.310862 -0.5
      vertex 33.7107 0.310862 14.5
    endloop
  endfacet
  facet normal 0.72897 -0.684545 0
    outer loop
      vertex 31.4887 0.734731 14.5
      vertex 31.7032 0.963141 0.5
      vertex 31.7032 0.963141 14.5
    endloop
  endfacet
  facet normal 0.72897 -0.684545 0
    outer loop
      vertex 31.7032 0.963141 0.5
      vertex 31.4887 0.734731 14.5
      vertex 31.4887 0.734731 0.5
    endloop
  endfacet
  facet normal 0.876306 -0.481755 0
    outer loop
      vertex 31.3378 0.460155 14.5
      vertex 31.4887 0.734731 0.5
      vertex 31.4887 0.734731 14.5
    endloop
  endfacet
  facet normal 0.876306 -0.481755 0
    outer loop
      vertex 31.4887 0.734731 0.5
      vertex 31.3378 0.460155 14.5
      vertex 31.3378 0.460155 0.5
    endloop
  endfacet
  facet normal 0.535824 -0.84433 0
    outer loop
      vertex 31.7032 0.963141 0.5
      vertex 31.9678 1.13103 14.5
      vertex 31.7032 0.963141 14.5
    endloop
  endfacet
  facet normal 0.535824 -0.84433 0
    outer loop
      vertex 31.9678 1.13103 14.5
      vertex 31.7032 0.963141 0.5
      vertex 31.9678 1.13103 0.5
    endloop
  endfacet
  facet normal -0.929777 0.368122 0
    outer loop
      vertex 33.5954 -0.602192 -0.5
      vertex 33.7107 -0.310862 14.5
      vertex 33.7107 -0.310862 -0.5
    endloop
  endfacet
  facet normal -0.929777 0.368122 0
    outer loop
      vertex 33.7107 -0.310862 14.5
      vertex 33.5954 -0.602192 -0.5
      vertex 33.5954 -0.602192 14.5
    endloop
  endfacet
  facet normal 0.968583 0.24869 0
    outer loop
      vertex 31.3378 -0.460155 14.5
      vertex 31.2599 -0.156666 0.5
      vertex 31.2599 -0.156666 14.5
    endloop
  endfacet
  facet normal 0.968583 0.24869 0
    outer loop
      vertex 31.2599 -0.156666 0.5
      vertex 31.3378 -0.460155 14.5
      vertex 31.3378 -0.460155 0.5
    endloop
  endfacet
  facet normal -0.809015 -0.587788 0
    outer loop
      vertex 33.5954 0.602192 -0.5
      vertex 33.4112 0.855683 14.5
      vertex 33.4112 0.855683 -0.5
    endloop
  endfacet
  facet normal -0.809015 -0.587788 0
    outer loop
      vertex 33.4112 0.855683 14.5
      vertex 33.5954 0.602192 -0.5
      vertex 33.5954 0.602192 14.5
    endloop
  endfacet
  facet normal -0.187383 -0.982287 0
    outer loop
      vertex 32.5785 1.24753 -0.5
      vertex 32.8863 1.18882 14.5
      vertex 32.5785 1.24753 14.5
    endloop
  endfacet
  facet normal -0.187383 -0.982287 -0
    outer loop
      vertex 32.8863 1.18882 14.5
      vertex 32.5785 1.24753 -0.5
      vertex 32.8863 1.18882 -0.5
    endloop
  endfacet
  facet normal -0.425774 -0.90483 0
    outer loop
      vertex 32.8863 1.18882 -0.5
      vertex 33.1698 1.05541 14.5
      vertex 32.8863 1.18882 14.5
    endloop
  endfacet
  facet normal -0.425774 -0.90483 -0
    outer loop
      vertex 33.1698 1.05541 14.5
      vertex 32.8863 1.18882 -0.5
      vertex 33.1698 1.05541 -0.5
    endloop
  endfacet
  facet normal 0.968583 -0.24869 0
    outer loop
      vertex 31.2599 0.156666 14.5
      vertex 31.3378 0.460155 0.5
      vertex 31.3378 0.460155 14.5
    endloop
  endfacet
  facet normal 0.968583 -0.24869 0
    outer loop
      vertex 31.3378 0.460155 0.5
      vertex 31.2599 0.156666 14.5
      vertex 31.2599 0.156666 0.5
    endloop
  endfacet
  facet normal 0.309019 -0.951056 0
    outer loop
      vertex 31.9678 1.13103 0.5
      vertex 32.2658 1.22786 14.5
      vertex 31.9678 1.13103 14.5
    endloop
  endfacet
  facet normal 0.309019 -0.951056 0
    outer loop
      vertex 32.2658 1.22786 14.5
      vertex 31.9678 1.13103 0.5
      vertex 32.2658 1.22786 0.5
    endloop
  endfacet
  facet normal -0.187383 0.982287 0
    outer loop
      vertex 32.8863 -1.18882 -0.5
      vertex 32.5785 -1.24753 14.5
      vertex 32.8863 -1.18882 14.5
    endloop
  endfacet
  facet normal -0.187383 0.982287 0
    outer loop
      vertex 32.5785 -1.24753 14.5
      vertex 32.8863 -1.18882 -0.5
      vertex 32.5785 -1.24753 -0.5
    endloop
  endfacet
  facet normal -0.637428 0.77051 0
    outer loop
      vertex 33.4112 -0.855683 -0.5
      vertex 33.1698 -1.05541 14.5
      vertex 33.4112 -0.855683 14.5
    endloop
  endfacet
  facet normal -0.637428 0.77051 0
    outer loop
      vertex 33.1698 -1.05541 14.5
      vertex 33.4112 -0.855683 -0.5
      vertex 33.1698 -1.05541 -0.5
    endloop
  endfacet
  facet normal 0.535824 0.84433 -0
    outer loop
      vertex 31.9678 -1.13103 0.5
      vertex 31.7032 -0.963141 14.5
      vertex 31.9678 -1.13103 14.5
    endloop
  endfacet
  facet normal 0.535824 0.84433 0
    outer loop
      vertex 31.7032 -0.963141 14.5
      vertex 31.9678 -1.13103 0.5
      vertex 31.7032 -0.963141 0.5
    endloop
  endfacet
  facet normal 0.0627906 0.998027 -6.37755e-010
    outer loop
      vertex 32.5785 -1.24753 14.5
      vertex 32.5 -1.24259 0.5
      vertex 32.2658 -1.22786 14.5
    endloop
  endfacet
  facet normal 0.0627905 0.998027 -0
    outer loop
      vertex 32.5785 -1.24753 -0.5
      vertex 32.5 -1.24259 0.5
      vertex 32.5785 -1.24753 14.5
    endloop
  endfacet
  facet normal 0.0627905 0.998027 0
    outer loop
      vertex 32.5 -1.24259 0.5
      vertex 32.5785 -1.24753 -0.5
      vertex 32.5 -1.24259 -0.5
    endloop
  endfacet
  facet normal 0.0627906 0.998027 0
    outer loop
      vertex 32.2658 -1.22786 14.5
      vertex 32.5 -1.24259 0.5
      vertex 32.2658 -1.22786 0.5
    endloop
  endfacet
  facet normal 0.876306 0.481755 0
    outer loop
      vertex 31.4887 -0.734731 14.5
      vertex 31.3378 -0.460155 0.5
      vertex 31.3378 -0.460155 14.5
    endloop
  endfacet
  facet normal 0.876306 0.481755 0
    outer loop
      vertex 31.3378 -0.460155 0.5
      vertex 31.4887 -0.734731 14.5
      vertex 31.4887 -0.734731 0.5
    endloop
  endfacet
  facet normal -0.992114 0.125337 0
    outer loop
      vertex 33.7107 -0.310862 -0.5
      vertex 33.75 0 14.5
      vertex 33.75 0 -0.5
    endloop
  endfacet
  facet normal -0.992114 0.125337 0
    outer loop
      vertex 33.75 0 14.5
      vertex 33.7107 -0.310862 -0.5
      vertex 33.7107 -0.310862 14.5
    endloop
  endfacet
  facet normal -0.425774 0.90483 0
    outer loop
      vertex 33.1698 -1.05541 -0.5
      vertex 32.8863 -1.18882 14.5
      vertex 33.1698 -1.05541 14.5
    endloop
  endfacet
  facet normal -0.425774 0.90483 0
    outer loop
      vertex 32.8863 -1.18882 14.5
      vertex 33.1698 -1.05541 -0.5
      vertex 32.8863 -1.18882 -0.5
    endloop
  endfacet
  facet normal -0.809015 0.587788 0
    outer loop
      vertex 33.4112 -0.855683 -0.5
      vertex 33.5954 -0.602192 14.5
      vertex 33.5954 -0.602192 -0.5
    endloop
  endfacet
  facet normal -0.809015 0.587788 0
    outer loop
      vertex 33.5954 -0.602192 14.5
      vertex 33.4112 -0.855683 -0.5
      vertex 33.4112 -0.855683 14.5
    endloop
  endfacet
  facet normal 0.309019 0.951056 -0
    outer loop
      vertex 32.2658 -1.22786 0.5
      vertex 31.9678 -1.13103 14.5
      vertex 32.2658 -1.22786 14.5
    endloop
  endfacet
  facet normal 0.309019 0.951056 0
    outer loop
      vertex 31.9678 -1.13103 14.5
      vertex 32.2658 -1.22786 0.5
      vertex 31.9678 -1.13103 0.5
    endloop
  endfacet
  facet normal -1 0 0
    outer loop
      vertex -32.5 -2.25 -0.5
      vertex -32.5 -2.23667 0.5
      vertex -32.5 -2.23667 -0.5
    endloop
  endfacet
  facet normal -1 -0 0
    outer loop
      vertex -32.5 -2.23667 0.5
      vertex -32.5 -2.25 -0.5
      vertex -32.5 -2.25 0.5
    endloop
  endfacet
  facet normal -1 0 0
    outer loop
      vertex -32.5 2.23667 -0.5
      vertex -32.5 2.25 0.5
      vertex -32.5 2.25 -0.5
    endloop
  endfacet
  facet normal -1 -0 0
    outer loop
      vertex -32.5 2.25 0.5
      vertex -32.5 2.23667 -0.5
      vertex -32.5 2.23667 0.5
    endloop
  endfacet
  facet normal -1 0 0
    outer loop
      vertex -32.5 -1.24259 -0.5
      vertex -32.5 1.24259 0.5
      vertex -32.5 1.24259 -0.5
    endloop
  endfacet
  facet normal -1 -0 0
    outer loop
      vertex -32.5 1.24259 0.5
      vertex -32.5 -1.24259 -0.5
      vertex -32.5 -1.24259 0.5
    endloop
  endfacet
  facet normal 0 0 1
    outer loop
      vertex 32.5 2.25 0.5
      vertex 32.0784 2.21015 0.5
      vertex 32.5 2.23667 0.5
    endloop
  endfacet
  facet normal 0 0 1
    outer loop
      vertex 30.2677 0.282 0.5
      vertex -30.25 0 0.5
      vertex 30.2677 -0.282 0.5
    endloop
  endfacet
  facet normal -0 0 1
    outer loop
      vertex -30.3207 0.559552 0.5
      vertex 30.2677 0.282 0.5
      vertex 30.408 0.828279 0.5
    endloop
  endfacet
  facet normal -0 0 1
    outer loop
      vertex -30.5283 1.08395 0.5
      vertex 30.408 0.828279 0.5
      vertex 30.6797 1.32252 0.5
    endloop
  endfacet
  facet normal -0 0 1
    outer loop
      vertex -30.8598 1.54023 0.5
      vertex 30.6797 1.32252 0.5
      vertex 31.0658 1.73365 0.5
    endloop
  endfacet
  facet normal -0 0 1
    outer loop
      vertex -31.2944 1.89974 0.5
      vertex 31.0658 1.73365 0.5
      vertex 31.542 2.03586 0.5
    endloop
  endfacet
  facet normal -0 0 1
    outer loop
      vertex -31.8047 2.13988 0.5
      vertex 31.542 2.03586 0.5
      vertex 32.0784 2.21015 0.5
    endloop
  endfacet
  facet normal -0 0 1
    outer loop
      vertex -32.3587 2.24556 0.5
      vertex 32.0784 2.21015 0.5
      vertex 32.5 2.25 0.5
    endloop
  endfacet
  facet normal 0 0 1
    outer loop
      vertex 30.2677 0.282 0.5
      vertex -30.3207 0.559552 0.5
      vertex -30.25 0 0.5
    endloop
  endfacet
  facet normal 0 0 1
    outer loop
      vertex 30.408 0.828279 0.5
      vertex -30.5283 1.08395 0.5
      vertex -30.3207 0.559552 0.5
    endloop
  endfacet
  facet normal 0 0 1
    outer loop
      vertex 30.6797 1.32252 0.5
      vertex -30.8598 1.54023 0.5
      vertex -30.5283 1.08395 0.5
    endloop
  endfacet
  facet normal 0 0 1
    outer loop
      vertex 31.0658 1.73365 0.5
      vertex -31.2944 1.89974 0.5
      vertex -30.8598 1.54023 0.5
    endloop
  endfacet
  facet normal 0 0 1
    outer loop
      vertex 31.542 2.03586 0.5
      vertex -31.8047 2.13988 0.5
      vertex -31.2944 1.89974 0.5
    endloop
  endfacet
  facet normal 0 0 1
    outer loop
      vertex 32.0784 2.21015 0.5
      vertex -32.3587 2.24556 0.5
      vertex -31.8047 2.13988 0.5
    endloop
  endfacet
  facet normal -0 0 1
    outer loop
      vertex -32.5 2.25 0.5
      vertex -32.3587 2.24556 0.5
      vertex 32.5 2.25 0.5
    endloop
  endfacet
  facet normal 0 0 1
    outer loop
      vertex -32.3587 2.24556 0.5
      vertex -32.5 2.25 0.5
      vertex -32.5 2.23667 0.5
    endloop
  endfacet
  facet normal 0 0 1
    outer loop
      vertex 32.0784 -2.21015 0.5
      vertex 32.5 -2.25 0.5
      vertex 32.5 -2.23667 0.5
    endloop
  endfacet
  facet normal 0 0 1
    outer loop
      vertex -30.3207 -0.559552 0.5
      vertex 30.2677 -0.282 0.5
      vertex -30.25 0 0.5
    endloop
  endfacet
  facet normal 0 0 1
    outer loop
      vertex 30.2677 -0.282 0.5
      vertex -30.3207 -0.559552 0.5
      vertex 30.408 -0.828279 0.5
    endloop
  endfacet
  facet normal 0 0 1
    outer loop
      vertex -30.5283 -1.08395 0.5
      vertex 30.408 -0.828279 0.5
      vertex -30.3207 -0.559552 0.5
    endloop
  endfacet
  facet normal 0 0 1
    outer loop
      vertex 30.408 -0.828279 0.5
      vertex -30.5283 -1.08395 0.5
      vertex 30.6797 -1.32252 0.5
    endloop
  endfacet
  facet normal 0 0 1
    outer loop
      vertex -30.8598 -1.54023 0.5
      vertex 30.6797 -1.32252 0.5
      vertex -30.5283 -1.08395 0.5
    endloop
  endfacet
  facet normal 0 0 1
    outer loop
      vertex 30.6797 -1.32252 0.5
      vertex -30.8598 -1.54023 0.5
      vertex 31.0658 -1.73365 0.5
    endloop
  endfacet
  facet normal 0 0 1
    outer loop
      vertex -31.2944 -1.89974 0.5
      vertex 31.0658 -1.73365 0.5
      vertex -30.8598 -1.54023 0.5
    endloop
  endfacet
  facet normal 0 0 1
    outer loop
      vertex 31.0658 -1.73365 0.5
      vertex -31.2944 -1.89974 0.5
      vertex 31.542 -2.03586 0.5
    endloop
  endfacet
  facet normal 0 0 1
    outer loop
      vertex -31.8047 -2.13988 0.5
      vertex 31.542 -2.03586 0.5
      vertex -31.2944 -1.89974 0.5
    endloop
  endfacet
  facet normal 0 0 1
    outer loop
      vertex 31.542 -2.03586 0.5
      vertex -31.8047 -2.13988 0.5
      vertex 32.0784 -2.21015 0.5
    endloop
  endfacet
  facet normal 0 0 1
    outer loop
      vertex -32.3587 -2.24556 0.5
      vertex 32.0784 -2.21015 0.5
      vertex -31.8047 -2.13988 0.5
    endloop
  endfacet
  facet normal 0 0 1
    outer loop
      vertex 32.0784 -2.21015 0.5
      vertex -32.3587 -2.24556 0.5
      vertex 32.5 -2.25 0.5
    endloop
  endfacet
  facet normal 0 0 1
    outer loop
      vertex -32.3587 -2.24556 0.5
      vertex -32.5 -2.25 0.5
      vertex 32.5 -2.25 0.5
    endloop
  endfacet
  facet normal 0 0 1
    outer loop
      vertex -32.5 -2.25 0.5
      vertex -32.3587 -2.24556 0.5
      vertex -32.5 -2.23667 0.5
    endloop
  endfacet
  facet normal 0 0 1
    outer loop
      vertex -31.2893 0.310862 0.5
      vertex -31.2893 -0.310862 0.5
      vertex -31.25 0 0.5
    endloop
  endfacet
  facet normal 0 0 1
    outer loop
      vertex -31.4046 0.602192 0.5
      vertex -31.2893 -0.310862 0.5
      vertex -31.2893 0.310862 0.5
    endloop
  endfacet
  facet normal 0 0 1
    outer loop
      vertex -31.4046 0.602192 0.5
      vertex -31.4046 -0.602192 0.5
      vertex -31.2893 -0.310862 0.5
    endloop
  endfacet
  facet normal 0 0 1
    outer loop
      vertex -31.5888 0.855683 0.5
      vertex -31.4046 -0.602192 0.5
      vertex -31.4046 0.602192 0.5
    endloop
  endfacet
  facet normal 0 0 1
    outer loop
      vertex -31.5888 0.855683 0.5
      vertex -31.5888 -0.855683 0.5
      vertex -31.4046 -0.602192 0.5
    endloop
  endfacet
  facet normal 0 0 1
    outer loop
      vertex -31.8302 1.05541 0.5
      vertex -31.5888 -0.855683 0.5
      vertex -31.5888 0.855683 0.5
    endloop
  endfacet
  facet normal 0 0 1
    outer loop
      vertex -31.8302 1.05541 0.5
      vertex -31.8302 -1.05541 0.5
      vertex -31.5888 -0.855683 0.5
    endloop
  endfacet
  facet normal 0 0 1
    outer loop
      vertex -32.5 1.24259 0.5
      vertex -31.8302 1.05541 0.5
      vertex -32.1137 1.18882 0.5
    endloop
  endfacet
  facet normal 0 0 1
    outer loop
      vertex -31.8302 1.05541 0.5
      vertex -32.5 1.24259 0.5
      vertex -31.8302 -1.05541 0.5
    endloop
  endfacet
  facet normal -0 0 1
    outer loop
      vertex -32.5 1.24259 0.5
      vertex -32.1137 1.18882 0.5
      vertex -32.4215 1.24753 0.5
    endloop
  endfacet
  facet normal 0 0 1
    outer loop
      vertex -32.5 -1.24259 0.5
      vertex -31.8302 -1.05541 0.5
      vertex -32.5 1.24259 0.5
    endloop
  endfacet
  facet normal 0 0 1
    outer loop
      vertex -31.8302 -1.05541 0.5
      vertex -32.5 -1.24259 0.5
      vertex -32.1137 -1.18882 0.5
    endloop
  endfacet
  facet normal 0 0 1
    outer loop
      vertex -32.1137 -1.18882 0.5
      vertex -32.5 -1.24259 0.5
      vertex -32.4215 -1.24753 0.5
    endloop
  endfacet
  facet normal 0 0 1
    outer loop
      vertex 31.9678 1.13103 0.5
      vertex 32.5 1.24259 0.5
      vertex 32.2658 1.22786 0.5
    endloop
  endfacet
  facet normal 0 0 1
    outer loop
      vertex 31.7032 0.963141 0.5
      vertex 32.5 1.24259 0.5
      vertex 31.9678 1.13103 0.5
    endloop
  endfacet
  facet normal 0 0 1
    outer loop
      vertex 32.5 1.24259 0.5
      vertex 31.7032 0.963141 0.5
      vertex 32.5 -1.24259 0.5
    endloop
  endfacet
  facet normal 0 0 1
    outer loop
      vertex 32.5 -1.24259 0.5
      vertex 31.9678 -1.13103 0.5
      vertex 32.2658 -1.22786 0.5
    endloop
  endfacet
  facet normal -0 0 1
    outer loop
      vertex 31.7032 -0.963141 0.5
      vertex 32.5 -1.24259 0.5
      vertex 31.7032 0.963141 0.5
    endloop
  endfacet
  facet normal 0 0 1
    outer loop
      vertex 32.5 -1.24259 0.5
      vertex 31.7032 -0.963141 0.5
      vertex 31.9678 -1.13103 0.5
    endloop
  endfacet
  facet normal -0 0 1
    outer loop
      vertex 31.4887 0.734731 0.5
      vertex 31.7032 -0.963141 0.5
      vertex 31.7032 0.963141 0.5
    endloop
  endfacet
  facet normal 0 0 1
    outer loop
      vertex 31.4887 0.734731 0.5
      vertex 31.4887 -0.734731 0.5
      vertex 31.7032 -0.963141 0.5
    endloop
  endfacet
  facet normal -0 0 1
    outer loop
      vertex 31.3378 0.460155 0.5
      vertex 31.4887 -0.734731 0.5
      vertex 31.4887 0.734731 0.5
    endloop
  endfacet
  facet normal 0 0 1
    outer loop
      vertex 31.3378 0.460155 0.5
      vertex 31.3378 -0.460155 0.5
      vertex 31.4887 -0.734731 0.5
    endloop
  endfacet
  facet normal -0 0 1
    outer loop
      vertex 31.2599 0.156666 0.5
      vertex 31.3378 -0.460155 0.5
      vertex 31.3378 0.460155 0.5
    endloop
  endfacet
  facet normal 0 0 1
    outer loop
      vertex 31.3378 -0.460155 0.5
      vertex 31.2599 0.156666 0.5
      vertex 31.2599 -0.156666 0.5
    endloop
  endfacet
  facet normal 1 -0 0
    outer loop
      vertex 32.5 -2.25 0.5
      vertex 32.5 -2.23667 -0.5
      vertex 32.5 -2.23667 0.5
    endloop
  endfacet
  facet normal 1 0 0
    outer loop
      vertex 32.5 -2.23667 -0.5
      vertex 32.5 -2.25 0.5
      vertex 32.5 -2.25 -0.5
    endloop
  endfacet
  facet normal 1 -0 0
    outer loop
      vertex 32.5 2.23667 0.5
      vertex 32.5 2.25 -0.5
      vertex 32.5 2.25 0.5
    endloop
  endfacet
  facet normal 1 0 0
    outer loop
      vertex 32.5 2.25 -0.5
      vertex 32.5 2.23667 0.5
      vertex 32.5 2.23667 -0.5
    endloop
  endfacet
  facet normal 1 -0 0
    outer loop
      vertex 32.5 -1.24259 0.5
      vertex 32.5 1.24259 -0.5
      vertex 32.5 1.24259 0.5
    endloop
  endfacet
  facet normal 1 0 0
    outer loop
      vertex 32.5 1.24259 -0.5
      vertex 32.5 -1.24259 0.5
      vertex 32.5 -1.24259 -0.5
    endloop
  endfacet
  facet normal 0 1 -0
    outer loop
      vertex 32.5 2.25 -0.5
      vertex -32.5 2.25 0.5
      vertex 32.5 2.25 0.5
    endloop
  endfacet
  facet normal 0 1 0
    outer loop
      vertex -32.5 2.25 0.5
      vertex 32.5 2.25 -0.5
      vertex -32.5 2.25 -0.5
    endloop
  endfacet
  facet normal 0 -1 0
    outer loop
      vertex -32.5 -2.25 -0.5
      vertex 32.5 -2.25 0.5
      vertex -32.5 -2.25 0.5
    endloop
  endfacet
  facet normal 0 -1 -0
    outer loop
      vertex 32.5 -2.25 0.5
      vertex -32.5 -2.25 -0.5
      vertex 32.5 -2.25 -0.5
    endloop
  endfacet
endsolid OpenSCAD_Model
