solid OpenSCAD_Model
  facet normal 1 0 0
    outer loop
      vertex 0 18 10
      vertex 0 16 6.6
      vertex 0 18 6.6
    endloop
  endfacet
  facet normal 1 0 0
    outer loop
      vertex 0 16 6.6
      vertex 0 2.3 6.6
      vertex 0 16 4.3
    endloop
  endfacet
  facet normal 1 0 0
    outer loop
      vertex 0 18 10
      vertex 0 2.3 6.6
      vertex 0 16 6.6
    endloop
  endfacet
  facet normal 1 -0 0
    outer loop
      vertex 0 0 10
      vertex 0 2.3 6.6
      vertex 0 18 10
    endloop
  endfacet
  facet normal 1 0 0
    outer loop
      vertex 0 2.3 6.6
      vertex 0 0 10
      vertex 0 0 6.6
    endloop
  endfacet
  facet normal 1 -0 0
    outer loop
      vertex 0 16 4.3
      vertex 0 18 2
      vertex 0 18 4.3
    endloop
  endfacet
  facet normal 1 0 0
    outer loop
      vertex 0 2.3 4.3
      vertex 0 16 4.3
      vertex 0 2.3 6.6
    endloop
  endfacet
  facet normal 1 0 0
    outer loop
      vertex 0 16 4.3
      vertex 0 2.3 4.3
      vertex 0 18 2
    endloop
  endfacet
  facet normal 1 0 0
    outer loop
      vertex 0 0 2
      vertex 0 2.3 4.3
      vertex 0 0 4.3
    endloop
  endfacet
  facet normal 1 0 0
    outer loop
      vertex 0 2.3 4.3
      vertex 0 0 2
      vertex 0 18 2
    endloop
  endfacet
  facet normal -0 0 1
    outer loop
      vertex 0 18 2
      vertex 5.5 13 2
      vertex 5.5 18 2
    endloop
  endfacet
  facet normal 0 0 1
    outer loop
      vertex 5.5 13 2
      vertex 0 18 2
      vertex 5.5 5 2
    endloop
  endfacet
  facet normal 0 0 1
    outer loop
      vertex 0 0 2
      vertex 5.5 5 2
      vertex 0 18 2
    endloop
  endfacet
  facet normal 0 0 1
    outer loop
      vertex 5.5 5 2
      vertex 0 0 2
      vertex 5.5 0 2
    endloop
  endfacet
  facet normal -0 0 1
    outer loop
      vertex 5.5 13 2
      vertex 30.5 5 2
      vertex 30.5 13 2
    endloop
  endfacet
  facet normal 0 0 1
    outer loop
      vertex 30.5 5 2
      vertex 5.5 13 2
      vertex 5.5 5 2
    endloop
  endfacet
  facet normal 0 0 1
    outer loop
      vertex 42 18 2
      vertex 37.5 12 2
      vertex 42 0 2
    endloop
  endfacet
  facet normal 0 0 1
    outer loop
      vertex 42 18 2
      vertex 35 12 2
      vertex 37.5 12 2
    endloop
  endfacet
  facet normal -0 0 1
    outer loop
      vertex 30.5 13 2
      vertex 35 12 2
      vertex 30.5 18 2
    endloop
  endfacet
  facet normal -0 0 1
    outer loop
      vertex 30.5 18 2
      vertex 35 12 2
      vertex 42 18 2
    endloop
  endfacet
  facet normal -0 0 1
    outer loop
      vertex 37.5 6 2
      vertex 42 0 2
      vertex 37.5 12 2
    endloop
  endfacet
  facet normal -0 0 1
    outer loop
      vertex 35 6 2
      vertex 42 0 2
      vertex 37.5 6 2
    endloop
  endfacet
  facet normal 0 0 1
    outer loop
      vertex 35 12 2
      vertex 30.5 13 2
      vertex 35 6 2
    endloop
  endfacet
  facet normal 0 0 1
    outer loop
      vertex 30.5 5 2
      vertex 35 6 2
      vertex 30.5 13 2
    endloop
  endfacet
  facet normal 0 0 1
    outer loop
      vertex 30.5 0 2
      vertex 35 6 2
      vertex 30.5 5 2
    endloop
  endfacet
  facet normal 0 0 1
    outer loop
      vertex 35 6 2
      vertex 30.5 0 2
      vertex 42 0 2
    endloop
  endfacet
  facet normal 1 -0 0
    outer loop
      vertex 42 -2 10
      vertex 42 0 6.6
      vertex 42 0 10
    endloop
  endfacet
  facet normal 1 0 0
    outer loop
      vertex 42 0 6.6
      vertex 42 -2 10
      vertex 42 0 4.3
    endloop
  endfacet
  facet normal 1 0 0
    outer loop
      vertex 42 -2 0.5
      vertex 42 0 4.3
      vertex 42 -2 10
    endloop
  endfacet
  facet normal 1 -0 0
    outer loop
      vertex 42 0 6.6
      vertex 42 2.3 4.3
      vertex 42 2.3 6.6
    endloop
  endfacet
  facet normal 1 0 0
    outer loop
      vertex 42 2.3 4.3
      vertex 42 0 6.6
      vertex 42 0 4.3
    endloop
  endfacet
  facet normal 1 -0 0
    outer loop
      vertex 42 16 6.6
      vertex 42 18 4.3
      vertex 42 18 6.6
    endloop
  endfacet
  facet normal 1 0 0
    outer loop
      vertex 42 18 4.3
      vertex 42 16 6.6
      vertex 42 16 4.3
    endloop
  endfacet
  facet normal 1 0 0
    outer loop
      vertex 42 18 6.6
      vertex 42 20 10
      vertex 42 18 10
    endloop
  endfacet
  facet normal 1 0 0
    outer loop
      vertex 42 18 4.3
      vertex 42 20 10
      vertex 42 18 6.6
    endloop
  endfacet
  facet normal 1 0 0
    outer loop
      vertex 42 20 10
      vertex 42 18 4.3
      vertex 42 20 0.5
    endloop
  endfacet
  facet normal 1 -0 0
    outer loop
      vertex 42 18 2
      vertex 42 20 0.5
      vertex 42 18 4.3
    endloop
  endfacet
  facet normal 1 -0 0
    outer loop
      vertex 42 0 2
      vertex 42 20 0.5
      vertex 42 18 2
    endloop
  endfacet
  facet normal 1 0 0
    outer loop
      vertex 42 0 2
      vertex 42 -2 0.5
      vertex 42 20 0.5
    endloop
  endfacet
  facet normal 1 0 0
    outer loop
      vertex 42 0 4.3
      vertex 42 -2 0.5
      vertex 42 0 2
    endloop
  endfacet
  facet normal 0 1 -0
    outer loop
      vertex 5.5 0 6.6
      vertex 0 0 10
      vertex 5.5 0 10
    endloop
  endfacet
  facet normal 0 1 0
    outer loop
      vertex 0 0 10
      vertex 5.5 0 6.6
      vertex 0 0 6.6
    endloop
  endfacet
  facet normal 0 1 -0
    outer loop
      vertex 42 0 6.6
      vertex 30.5 0 10
      vertex 42 0 10
    endloop
  endfacet
  facet normal 0 1 0
    outer loop
      vertex 30.5 0 10
      vertex 42 0 6.6
      vertex 30.5 0 6.6
    endloop
  endfacet
  facet normal 0 1 -0
    outer loop
      vertex 5.5 0 2
      vertex 0 0 4.3
      vertex 5.5 0 4.3
    endloop
  endfacet
  facet normal 0 1 0
    outer loop
      vertex 0 0 4.3
      vertex 5.5 0 2
      vertex 0 0 2
    endloop
  endfacet
  facet normal 0 1 -0
    outer loop
      vertex 42 0 2
      vertex 30.5 0 4.3
      vertex 42 0 4.3
    endloop
  endfacet
  facet normal 0 1 0
    outer loop
      vertex 30.5 0 4.3
      vertex 42 0 2
      vertex 30.5 0 2
    endloop
  endfacet
  facet normal 0 -1 0
    outer loop
      vertex 30.5 18 6.6
      vertex 42 18 10
      vertex 30.5 18 10
    endloop
  endfacet
  facet normal 0 -1 -0
    outer loop
      vertex 42 18 10
      vertex 30.5 18 6.6
      vertex 42 18 6.6
    endloop
  endfacet
  facet normal 0 -1 0
    outer loop
      vertex 0 18 6.6
      vertex 5.5 18 10
      vertex 0 18 10
    endloop
  endfacet
  facet normal 0 -1 -0
    outer loop
      vertex 5.5 18 10
      vertex 0 18 6.6
      vertex 5.5 18 6.6
    endloop
  endfacet
  facet normal 0 -1 0
    outer loop
      vertex 0 18 2
      vertex 5.5 18 4.3
      vertex 0 18 4.3
    endloop
  endfacet
  facet normal 0 -1 -0
    outer loop
      vertex 5.5 18 4.3
      vertex 0 18 2
      vertex 5.5 18 2
    endloop
  endfacet
  facet normal 0 -1 0
    outer loop
      vertex 30.5 18 2
      vertex 42 18 4.3
      vertex 30.5 18 4.3
    endloop
  endfacet
  facet normal 0 -1 -0
    outer loop
      vertex 42 18 4.3
      vertex 30.5 18 2
      vertex 42 18 2
    endloop
  endfacet
  facet normal 1 -0 0
    outer loop
      vertex 35 6 2
      vertex 35 12 1
      vertex 35 12 2
    endloop
  endfacet
  facet normal 1 0 0
    outer loop
      vertex 35 12 1
      vertex 35 6 2
      vertex 35 6 1
    endloop
  endfacet
  facet normal -1 0 0
    outer loop
      vertex 37.5 6 1
      vertex 37.5 12 2
      vertex 37.5 12 1
    endloop
  endfacet
  facet normal -1 -0 0
    outer loop
      vertex 37.5 12 2
      vertex 37.5 6 1
      vertex 37.5 6 2
    endloop
  endfacet
  facet normal -0 0 1
    outer loop
      vertex 35 12 1
      vertex 37.5 6 1
      vertex 37.5 12 1
    endloop
  endfacet
  facet normal 0 0 1
    outer loop
      vertex 37.5 6 1
      vertex 35 12 1
      vertex 35 6 1
    endloop
  endfacet
  facet normal 0 1 -0
    outer loop
      vertex 37.5 6 1
      vertex 35 6 2
      vertex 37.5 6 2
    endloop
  endfacet
  facet normal 0 1 0
    outer loop
      vertex 35 6 2
      vertex 37.5 6 1
      vertex 35 6 1
    endloop
  endfacet
  facet normal 0 -1 0
    outer loop
      vertex 35 12 1
      vertex 37.5 12 2
      vertex 35 12 2
    endloop
  endfacet
  facet normal 0 -1 -0
    outer loop
      vertex 37.5 12 2
      vertex 35 12 1
      vertex 37.5 12 1
    endloop
  endfacet
  facet normal -1 0 0
    outer loop
      vertex -2 -2 0.5
      vertex -2 20 10
      vertex -2 20 0.5
    endloop
  endfacet
  facet normal -1 -0 0
    outer loop
      vertex -2 20 10
      vertex -2 -2 0.5
      vertex -2 -2 10
    endloop
  endfacet
  facet normal 0 1 -0
    outer loop
      vertex 5.5 20 0.5
      vertex -2 20 10
      vertex 5.5 20 10
    endloop
  endfacet
  facet normal 0 1 0
    outer loop
      vertex -2 20 10
      vertex 5.5 20 0.5
      vertex -2 20 0.5
    endloop
  endfacet
  facet normal 0 1 -0
    outer loop
      vertex 42 20 0.5
      vertex 30.5 20 10
      vertex 42 20 10
    endloop
  endfacet
  facet normal 0 1 0
    outer loop
      vertex 30.5 20 10
      vertex 42 20 0.5
      vertex 30.5 20 0.5
    endloop
  endfacet
  facet normal 0 0 -1
    outer loop
      vertex 0 -2 0.5
      vertex 5.5 5 0.5
      vertex 5.5 -2 0.5
    endloop
  endfacet
  facet normal 0 0 -1
    outer loop
      vertex -2 -2 0.5
      vertex 5.5 5 0.5
      vertex 0 -2 0.5
    endloop
  endfacet
  facet normal -0 0 -1
    outer loop
      vertex 5.5 5 0.5
      vertex -2 -2 0.5
      vertex 5.5 13 0.5
    endloop
  endfacet
  facet normal -0 0 -1
    outer loop
      vertex 5.5 13 0.5
      vertex -2 -2 0.5
      vertex -2 20 0.5
    endloop
  endfacet
  facet normal 0 0 -1
    outer loop
      vertex 5.5 13 0.5
      vertex -2 20 0.5
      vertex 5.5 20 0.5
    endloop
  endfacet
  facet normal 0 0 -1
    outer loop
      vertex 5.5 5 0.5
      vertex 30.5 13 0.5
      vertex 30.5 5 0.5
    endloop
  endfacet
  facet normal -0 0 -1
    outer loop
      vertex 30.5 13 0.5
      vertex 5.5 5 0.5
      vertex 5.5 13 0.5
    endloop
  endfacet
  facet normal 0 0 -1
    outer loop
      vertex 30.5 5 0.5
      vertex 42 -2 0.5
      vertex 30.5 -2 0.5
    endloop
  endfacet
  facet normal 0 0 -1
    outer loop
      vertex 42 -2 0.5
      vertex 30.5 5 0.5
      vertex 42 20 0.5
    endloop
  endfacet
  facet normal 0 0 -1
    outer loop
      vertex 30.5 13 0.5
      vertex 42 20 0.5
      vertex 30.5 5 0.5
    endloop
  endfacet
  facet normal -0 0 -1
    outer loop
      vertex 42 20 0.5
      vertex 30.5 13 0.5
      vertex 30.5 20 0.5
    endloop
  endfacet
  facet normal 0 -1 0
    outer loop
      vertex -2 -2 0.5
      vertex 0 -2 10
      vertex -2 -2 10
    endloop
  endfacet
  facet normal 0 -1 -0
    outer loop
      vertex 0 -2 10
      vertex -2 -2 0.5
      vertex 0 -2 0.5
    endloop
  endfacet
  facet normal 0 -1 1.00387e-07
    outer loop
      vertex 30.5 -2 0.5
      vertex 42 -2 10
      vertex 30.5 -2 10
    endloop
  endfacet
  facet normal 0 -1 1.00387e-07
    outer loop
      vertex 42 -2 10
      vertex 30.5 -2 0.5
      vertex 42 -2 0.5
    endloop
  endfacet
  facet normal 0 -1 1.00387e-07
    outer loop
      vertex 0 -2 0.5
      vertex 5.5 -2 10
      vertex 0 -2 10
    endloop
  endfacet
  facet normal 0 -1 1.00387e-07
    outer loop
      vertex 5.5 -2 10
      vertex 0 -2 0.5
      vertex 5.5 -2 0.5
    endloop
  endfacet
  facet normal 0 0 1
    outer loop
      vertex 5.5 20 10
      vertex 0 18 10
      vertex 5.5 18 10
    endloop
  endfacet
  facet normal 0 0 1
    outer loop
      vertex -2 -2 10
      vertex 0 0 10
      vertex 0 18 10
    endloop
  endfacet
  facet normal 0 0 1
    outer loop
      vertex 0 0 10
      vertex -2 -2 10
      vertex 0 -2 10
    endloop
  endfacet
  facet normal -0 0 1
    outer loop
      vertex -2 20 10
      vertex 0 18 10
      vertex 5.5 20 10
    endloop
  endfacet
  facet normal 0 0 1
    outer loop
      vertex -2 -2 10
      vertex 0 18 10
      vertex -2 20 10
    endloop
  endfacet
  facet normal -0 0 1
    outer loop
      vertex 0 0 10
      vertex 5.5 -2 10
      vertex 5.5 0 10
    endloop
  endfacet
  facet normal 0 0 1
    outer loop
      vertex 5.5 -2 10
      vertex 0 0 10
      vertex 0 -2 10
    endloop
  endfacet
  facet normal -0 0 1
    outer loop
      vertex 30.5 20 10
      vertex 42 18 10
      vertex 42 20 10
    endloop
  endfacet
  facet normal 0 0 1
    outer loop
      vertex 42 18 10
      vertex 30.5 20 10
      vertex 30.5 18 10
    endloop
  endfacet
  facet normal -0 0 1
    outer loop
      vertex 30.5 0 10
      vertex 42 -2 10
      vertex 42 0 10
    endloop
  endfacet
  facet normal 0 0 1
    outer loop
      vertex 42 -2 10
      vertex 30.5 0 10
      vertex 30.5 -2 10
    endloop
  endfacet
  facet normal -0 0 1
    outer loop
      vertex 0 2.3 6.6
      vertex 5.5 0 6.6
      vertex 5.5 2.3 6.6
    endloop
  endfacet
  facet normal 0 0 1
    outer loop
      vertex 5.5 0 6.6
      vertex 0 2.3 6.6
      vertex 0 0 6.6
    endloop
  endfacet
  facet normal -0 0 1
    outer loop
      vertex 30.5 2.3 6.6
      vertex 42 0 6.6
      vertex 42 2.3 6.6
    endloop
  endfacet
  facet normal 0 0 1
    outer loop
      vertex 42 0 6.6
      vertex 30.5 2.3 6.6
      vertex 30.5 0 6.6
    endloop
  endfacet
  facet normal 0 1 -0
    outer loop
      vertex 42 2.3 4.3
      vertex 30.5 2.3 6.6
      vertex 42 2.3 6.6
    endloop
  endfacet
  facet normal 0 1 0
    outer loop
      vertex 30.5 2.3 6.6
      vertex 42 2.3 4.3
      vertex 30.5 2.3 4.3
    endloop
  endfacet
  facet normal 0 1 -0
    outer loop
      vertex 5.5 2.3 4.3
      vertex 0 2.3 6.6
      vertex 5.5 2.3 6.6
    endloop
  endfacet
  facet normal 0 1 0
    outer loop
      vertex 0 2.3 6.6
      vertex 5.5 2.3 4.3
      vertex 0 2.3 4.3
    endloop
  endfacet
  facet normal 0 0 -1
    outer loop
      vertex 0 0 4.3
      vertex 5.5 2.3 4.3
      vertex 5.5 0 4.3
    endloop
  endfacet
  facet normal -0 0 -1
    outer loop
      vertex 5.5 2.3 4.3
      vertex 0 0 4.3
      vertex 0 2.3 4.3
    endloop
  endfacet
  facet normal 0 0 -1
    outer loop
      vertex 30.5 0 4.3
      vertex 42 2.3 4.3
      vertex 42 0 4.3
    endloop
  endfacet
  facet normal -0 0 -1
    outer loop
      vertex 42 2.3 4.3
      vertex 30.5 0 4.3
      vertex 30.5 2.3 4.3
    endloop
  endfacet
  facet normal -0 0 1
    outer loop
      vertex 0 18 6.6
      vertex 5.5 16 6.6
      vertex 5.5 18 6.6
    endloop
  endfacet
  facet normal 0 0 1
    outer loop
      vertex 5.5 16 6.6
      vertex 0 18 6.6
      vertex 0 16 6.6
    endloop
  endfacet
  facet normal -0 0 1
    outer loop
      vertex 30.5 18 6.6
      vertex 42 16 6.6
      vertex 42 18 6.6
    endloop
  endfacet
  facet normal 0 0 1
    outer loop
      vertex 42 16 6.6
      vertex 30.5 18 6.6
      vertex 30.5 16 6.6
    endloop
  endfacet
  facet normal 0 0 -1
    outer loop
      vertex 0 16 4.3
      vertex 5.5 18 4.3
      vertex 5.5 16 4.3
    endloop
  endfacet
  facet normal -0 0 -1
    outer loop
      vertex 5.5 18 4.3
      vertex 0 16 4.3
      vertex 0 18 4.3
    endloop
  endfacet
  facet normal 0 0 -1
    outer loop
      vertex 30.5 16 4.3
      vertex 42 18 4.3
      vertex 42 16 4.3
    endloop
  endfacet
  facet normal -0 0 -1
    outer loop
      vertex 42 18 4.3
      vertex 30.5 16 4.3
      vertex 30.5 18 4.3
    endloop
  endfacet
  facet normal 0 -1 0
    outer loop
      vertex 0 16 4.3
      vertex 5.5 16 6.6
      vertex 0 16 6.6
    endloop
  endfacet
  facet normal 0 -1 -0
    outer loop
      vertex 5.5 16 6.6
      vertex 0 16 4.3
      vertex 5.5 16 4.3
    endloop
  endfacet
  facet normal 0 -1 0
    outer loop
      vertex 30.5 16 4.3
      vertex 42 16 6.6
      vertex 30.5 16 6.6
    endloop
  endfacet
  facet normal 0 -1 -0
    outer loop
      vertex 42 16 6.6
      vertex 30.5 16 4.3
      vertex 42 16 4.3
    endloop
  endfacet
  facet normal 1 -0 0
    outer loop
      vertex 5.5 -2 10
      vertex 5.5 0 6.6
      vertex 5.5 0 10
    endloop
  endfacet
  facet normal 1 0 0
    outer loop
      vertex 5.5 0 6.6
      vertex 5.5 -2 10
      vertex 5.5 0 4.3
    endloop
  endfacet
  facet normal 1 0 0
    outer loop
      vertex 5.5 -2 0.5
      vertex 5.5 0 4.3
      vertex 5.5 -2 10
    endloop
  endfacet
  facet normal 1 -0 0
    outer loop
      vertex 5.5 0 6.6
      vertex 5.5 2.3 4.3
      vertex 5.5 2.3 6.6
    endloop
  endfacet
  facet normal 1 0 0
    outer loop
      vertex 5.5 2.3 4.3
      vertex 5.5 0 6.6
      vertex 5.5 0 4.3
    endloop
  endfacet
  facet normal 1 -0 0
    outer loop
      vertex 5.5 0 2
      vertex 5.5 5 0.5
      vertex 5.5 5 2
    endloop
  endfacet
  facet normal 1 0 0
    outer loop
      vertex 5.5 0 2
      vertex 5.5 -2 0.5
      vertex 5.5 5 0.5
    endloop
  endfacet
  facet normal 1 0 0
    outer loop
      vertex 5.5 0 4.3
      vertex 5.5 -2 0.5
      vertex 5.5 0 2
    endloop
  endfacet
  facet normal -1 0 0
    outer loop
      vertex 30.5 5 0.5
      vertex 30.5 0 2
      vertex 30.5 5 2
    endloop
  endfacet
  facet normal -1 0 0
    outer loop
      vertex 30.5 -2 0.5
      vertex 30.5 0 4.3
      vertex 30.5 0 2
    endloop
  endfacet
  facet normal -1 0 -0
    outer loop
      vertex 30.5 -2 10
      vertex 30.5 0 4.3
      vertex 30.5 -2 0.5
    endloop
  endfacet
  facet normal -1 0 0
    outer loop
      vertex 30.5 0 6.6
      vertex 30.5 -2 10
      vertex 30.5 0 10
    endloop
  endfacet
  facet normal -1 0 0
    outer loop
      vertex 30.5 0 4.3
      vertex 30.5 -2 10
      vertex 30.5 0 6.6
    endloop
  endfacet
  facet normal -1 0 0
    outer loop
      vertex 30.5 -2 0.5
      vertex 30.5 0 2
      vertex 30.5 5 0.5
    endloop
  endfacet
  facet normal -1 0 0
    outer loop
      vertex 30.5 0 4.3
      vertex 30.5 2.3 6.6
      vertex 30.5 2.3 4.3
    endloop
  endfacet
  facet normal -1 -0 0
    outer loop
      vertex 30.5 2.3 6.6
      vertex 30.5 0 4.3
      vertex 30.5 0 6.6
    endloop
  endfacet
  facet normal 0 -1 0
    outer loop
      vertex 5.5 5 0.5
      vertex 30.5 5 2
      vertex 5.5 5 2
    endloop
  endfacet
  facet normal 0 -1 -0
    outer loop
      vertex 30.5 5 2
      vertex 5.5 5 0.5
      vertex 30.5 5 0.5
    endloop
  endfacet
  facet normal 1 -0 0
    outer loop
      vertex 5.5 16 6.6
      vertex 5.5 18 4.3
      vertex 5.5 18 6.6
    endloop
  endfacet
  facet normal 1 0 0
    outer loop
      vertex 5.5 18 4.3
      vertex 5.5 16 6.6
      vertex 5.5 16 4.3
    endloop
  endfacet
  facet normal 1 0 0
    outer loop
      vertex 5.5 18 6.6
      vertex 5.5 20 10
      vertex 5.5 18 10
    endloop
  endfacet
  facet normal 1 0 0
    outer loop
      vertex 5.5 18 4.3
      vertex 5.5 20 10
      vertex 5.5 18 6.6
    endloop
  endfacet
  facet normal 1 0 0
    outer loop
      vertex 5.5 20 10
      vertex 5.5 18 4.3
      vertex 5.5 20 0.5
    endloop
  endfacet
  facet normal 1 -0 0
    outer loop
      vertex 5.5 18 2
      vertex 5.5 20 0.5
      vertex 5.5 18 4.3
    endloop
  endfacet
  facet normal 1 0 0
    outer loop
      vertex 5.5 13 0.5
      vertex 5.5 18 2
      vertex 5.5 13 2
    endloop
  endfacet
  facet normal 1 0 0
    outer loop
      vertex 5.5 18 2
      vertex 5.5 13 0.5
      vertex 5.5 20 0.5
    endloop
  endfacet
  facet normal -1 0 0
    outer loop
      vertex 30.5 16 4.3
      vertex 30.5 18 6.6
      vertex 30.5 18 4.3
    endloop
  endfacet
  facet normal -1 -0 0
    outer loop
      vertex 30.5 18 6.6
      vertex 30.5 16 4.3
      vertex 30.5 16 6.6
    endloop
  endfacet
  facet normal -1 0 0
    outer loop
      vertex 30.5 18 4.3
      vertex 30.5 20 0.5
      vertex 30.5 18 2
    endloop
  endfacet
  facet normal -1 0 0
    outer loop
      vertex 30.5 13 0.5
      vertex 30.5 18 2
      vertex 30.5 20 0.5
    endloop
  endfacet
  facet normal -1 -0 0
    outer loop
      vertex 30.5 18 2
      vertex 30.5 13 0.5
      vertex 30.5 13 2
    endloop
  endfacet
  facet normal -1 0 0
    outer loop
      vertex 30.5 20 0.5
      vertex 30.5 18 4.3
      vertex 30.5 20 10
    endloop
  endfacet
  facet normal -1 0 0
    outer loop
      vertex 30.5 18 6.6
      vertex 30.5 20 10
      vertex 30.5 18 4.3
    endloop
  endfacet
  facet normal -1 -0 0
    outer loop
      vertex 30.5 20 10
      vertex 30.5 18 6.6
      vertex 30.5 18 10
    endloop
  endfacet
  facet normal 0 1 -0
    outer loop
      vertex 30.5 13 0.5
      vertex 5.5 13 2
      vertex 30.5 13 2
    endloop
  endfacet
  facet normal 0 1 0
    outer loop
      vertex 5.5 13 2
      vertex 30.5 13 0.5
      vertex 5.5 13 0.5
    endloop
  endfacet
endsolid OpenSCAD_Model
