solid 100Clip12
facet normal -0.36210156474077 -0.932138646775406 0.0
outer loop
vertex 22.9185047149658 7.65883731842041 10.0
vertex 22.2487716674805 7.91900396347046 1.73641754187132e-15
vertex 22.9185047149658 7.65883731842041 1.73641754187132e-15
endloop
endfacet
facet normal -0.36210156474077 -0.932138646775406 0.0
outer loop
vertex 22.2487716674805 7.91900396347046 1.73641754187132e-15
vertex 22.9185047149658 7.65883731842041 10.0
vertex 22.2487716674805 7.91900396347046 10.0
endloop
endfacet
facet normal -0.228574744674898 -0.973526366410692 0.0
outer loop
vertex 23.5372848510742 7.51355361938476 10.0
vertex 22.9185047149658 7.65883731842041 1.73641754187132e-15
vertex 23.5372848510742 7.51355361938476 1.73641754187132e-15
endloop
endfacet
facet normal -0.228574744674898 -0.973526366410692 0.0
outer loop
vertex 22.9185047149658 7.65883731842041 1.73641754187132e-15
vertex 23.5372848510742 7.51355361938476 10.0
vertex 22.9185047149658 7.65883731842041 10.0
endloop
endfacet
facet normal 0.383760715197936 0.923432571155452 0.0
outer loop
vertex 13.5552606582642 15.5201730728149 10.0
vertex 14.4385290145874 15.1531038284302 1.69406589450876e-18
vertex 13.5552606582642 15.5201730728149 1.69406589450876e-18
endloop
endfacet
facet normal 0.383760715197936 0.923432571155452 0.0
outer loop
vertex 14.4385290145874 15.1531038284302 1.69406589450876e-18
vertex 13.5552606582642 15.5201730728149 10.0
vertex 14.4385290145874 15.1531038284302 10.0
endloop
endfacet
facet normal 0.0509341785563114 -0.998702012341416 9.92736136375692e-33
outer loop
vertex 25.4913749694824 7.45155191421509 10.0
vertex 25.1265411376953 7.43294525146484 3.47114101784812e-15
vertex 25.4913749694824 7.45155191421509 3.47114101784812e-15
endloop
endfacet
facet normal 0.0509341785563114 -0.998702012341416 9.92736136375692e-33
outer loop
vertex 25.1265411376953 7.43294525146484 3.47114101784812e-15
vertex 25.4913749694824 7.45155191421509 10.0
vertex 25.1265411376953 7.43294525146484 10.0
endloop
endfacet
facet normal 0.114574810371253 -0.99341462281788 -4.28036230813891e-19
outer loop
vertex 26.4133853912354 7.55789136886597 10.0
vertex 25.4913749694824 7.45155191421509 3.47114101784812e-15
vertex 26.4133853912354 7.55789136886597 1.73641754187132e-15
endloop
endfacet
facet normal 0.114574810371253 -0.99341462281788 -4.28036230813891e-19
outer loop
vertex 25.4913749694824 7.45155191421509 3.47114101784812e-15
vertex 26.4133853912354 7.55789136886597 10.0
vertex 25.4913749694824 7.45155191421509 10.0
endloop
endfacet
facet normal -0.470960753730366 -0.882154163650394 -1.06688005035327e-18
outer loop
vertex 15.4452991485596 12.8608846664429 1.73641754187132e-15
vertex 14.5976819992065 13.3134069442749 10.0
vertex 14.5976819992065 13.3134069442749 1.69406589450876e-18
endloop
endfacet
facet normal -0.470960753730366 -0.882154163650394 -1.06688005035327e-18
outer loop
vertex 14.5976819992065 13.3134069442749 10.0
vertex 15.4452991485596 12.8608846664429 1.73641754187132e-15
vertex 15.4452991485596 12.8608846664429 10.0
endloop
endfacet
facet normal -0.550120948312462 -0.835084991020553 0.0
outer loop
vertex 16.3163986206055 12.2870388031006 10.0
vertex 15.4452991485596 12.8608846664429 1.73641754187132e-15
vertex 16.3163986206055 12.2870388031006 1.73641754187132e-15
endloop
endfacet
facet normal -0.550120948312462 -0.835084991020553 0.0
outer loop
vertex 15.4452991485596 12.8608846664429 1.73641754187132e-15
vertex 16.3163986206055 12.2870388031006 10.0
vertex 15.4452991485596 12.8608846664429 10.0
endloop
endfacet
facet normal -0.0709123386713099 0.9974825513382 0.0
outer loop
vertex 10.0919885635376 15.8813724517822 10.0
vertex 10.9744262695312 15.9441061019897 1.69406589450876e-18
vertex 10.0919885635376 15.8813724517822 1.69406589450876e-18
endloop
endfacet
facet normal -0.0709123386713099 0.9974825513382 0.0
outer loop
vertex 10.9744262695312 15.9441061019897 1.69406589450876e-18
vertex 10.0919885635376 15.8813724517822 10.0
vertex 10.9744262695312 15.9441061019897 10.0
endloop
endfacet
facet normal -0.178449038496685 0.983949155525634 0.0
outer loop
vertex 9.17895698547363 15.7157850265503 10.0
vertex 10.0919885635376 15.8813724517822 1.69406589450876e-18
vertex 9.17895698547363 15.7157850265503 1.69406589450876e-18
endloop
endfacet
facet normal -0.178449038496685 0.983949155525634 0.0
outer loop
vertex 10.0919885635376 15.8813724517822 1.69406589450876e-18
vertex 9.17895698547363 15.7157850265503 10.0
vertex 10.0919885635376 15.8813724517822 10.0
endloop
endfacet
facet normal -0.600731981476209 -0.799450490294219 -3.37442329313574e-18
outer loop
vertex 20.7760601043701 8.79048824310303 10.0
vertex 19.6365489959717 9.64675235748291 3.47114101784812e-15
vertex 20.7760601043701 8.79048824310303 1.73641754187132e-15
endloop
endfacet
facet normal -0.600731981476209 -0.799450490294219 -3.37442329313574e-18
outer loop
vertex 19.6365489959717 9.64675235748291 3.47114101784812e-15
vertex 20.7760601043701 8.79048824310303 10.0
vertex 19.6365489959717 9.64675235748291 10.0
endloop
endfacet
facet normal -0.5429793667646 -0.839746037363627 0.0
outer loop
vertex 21.562837600708 8.28175830841064 10.0
vertex 20.7760601043701 8.79048824310303 1.73641754187132e-15
vertex 21.562837600708 8.28175830841064 1.73641754187132e-15
endloop
endfacet
facet normal -0.5429793667646 -0.839746037363627 0.0
outer loop
vertex 20.7760601043701 8.79048824310303 1.73641754187132e-15
vertex 21.562837600708 8.28175830841064 10.0
vertex 20.7760601043701 8.79048824310303 10.0
endloop
endfacet
facet normal -0.467497893851823 -0.883994185073697 0.0
outer loop
vertex 22.2487716674805 7.91900396347046 10.0
vertex 21.562837600708 8.28175830841064 1.73641754187132e-15
vertex 22.2487716674805 7.91900396347046 1.73641754187132e-15
endloop
endfacet
facet normal -0.467497893851823 -0.883994185073697 0.0
outer loop
vertex 21.562837600708 8.28175830841064 1.73641754187132e-15
vertex 22.2487716674805 7.91900396347046 10.0
vertex 21.562837600708 8.28175830841064 10.0
endloop
endfacet
facet normal -0.276043490675175 0.961145145779692 0.0
outer loop
vertex 8.2218017578125 15.4408874511719 10.0
vertex 9.17895698547363 15.7157850265503 1.69406589450876e-18
vertex 8.2218017578125 15.4408874511719 1.69406589450876e-18
endloop
endfacet
facet normal -0.276043490675175 0.961145145779692 0.0
outer loop
vertex 9.17895698547363 15.7157850265503 1.69406589450876e-18
vertex 8.2218017578125 15.4408874511719 10.0
vertex 9.17895698547363 15.7157850265503 10.0
endloop
endfacet
facet normal -0.362184260883628 0.932106518144885 1.44549888447969e-18
outer loop
vertex 7.20596694946289 15.0461692810059 10.0
vertex 8.2218017578125 15.4408874511719 1.69406589450876e-18
vertex 7.20596694946289 15.0461692810059 -1.7330294100823e-15
endloop
endfacet
facet normal -0.362184260883628 0.932106518144885 1.44549888447969e-18
outer loop
vertex 8.2218017578125 15.4408874511719 1.69406589450876e-18
vertex 7.20596694946289 15.0461692810059 10.0
vertex 8.2218017578125 15.4408874511719 10.0
endloop
endfacet
facet normal -0.436548416406773 0.899680765678993 0.0
outer loop
vertex 6.11530637741089 14.5169525146484 10.0
vertex 7.20596694946289 15.0461692810059 -1.7330294100823e-15
vertex 6.11530637741089 14.5169525146484 -1.7330294100823e-15
endloop
endfacet
facet normal -0.436548416406773 0.899680765678993 0.0
outer loop
vertex 7.20596694946289 15.0461692810059 -1.7330294100823e-15
vertex 6.11530637741089 14.5169525146484 10.0
vertex 7.20596694946289 15.0461692810059 10.0
endloop
endfacet
facet normal -0.49963984301804 0.866233240685734 -3.16817547424613e-18
outer loop
vertex 4.93127870559692 13.8340101242065 1.69406589450876e-18
vertex 6.11530637741089 14.5169525146484 10.0
vertex 6.11530637741089 14.5169525146484 -1.7330294100823e-15
endloop
endfacet
facet normal -0.49963984301804 0.866233240685734 -3.16817547424613e-18
outer loop
vertex 6.11530637741089 14.5169525146484 10.0
vertex 4.93127870559692 13.8340101242065 1.69406589450876e-18
vertex 4.93127870559692 13.8340101242065 10.0
endloop
endfacet
facet normal -0.552450767398446 0.833545529410882 0.0
outer loop
vertex 3.63184142112732 12.9727792739868 10.0
vertex 4.93127870559692 13.8340101242065 1.69406589450876e-18
vertex 3.63184142112732 12.9727792739868 1.69406589450876e-18
endloop
endfacet
facet normal -0.552450767398446 0.833545529410882 0.0
outer loop
vertex 4.93127870559692 13.8340101242065 1.69406589450876e-18
vertex 3.63184142112732 12.9727792739868 10.0
vertex 4.93127870559692 13.8340101242065 10.0
endloop
endfacet
facet normal -0.596165448624678 0.802861605674438 1.15664502873245e-18
outer loop
vertex 2.18978524208069 11.9019794464111 1.73641754187132e-15
vertex 3.63184142112732 12.9727792739868 10.0
vertex 3.63184142112732 12.9727792739868 1.69406589450876e-18
endloop
endfacet
facet normal -0.596165448624678 0.802861605674438 1.15664502873245e-18
outer loop
vertex 3.63184142112732 12.9727792739868 10.0
vertex 2.18978524208069 11.9019794464111 1.73641754187132e-15
vertex 2.18978524208069 11.9019794464111 10.0
endloop
endfacet
facet normal -0.631989136239297 0.774977245908231 -1.60028602928119e-18
outer loop
vertex 0.570274889469147 10.5812788009644 10.0
vertex 2.18978524208069 11.9019794464111 1.73641754187132e-15
vertex 0.570274889469147 10.5812788009644 1.69406589450876e-18
endloop
endfacet
facet normal -0.631989136239297 0.774977245908231 -1.60028602928119e-18
outer loop
vertex 2.18978524208069 11.9019794464111 1.73641754187132e-15
vertex 0.570274889469147 10.5812788009644 10.0
vertex 2.18978524208069 11.9019794464111 10.0
endloop
endfacet
facet normal -0.127085327304172 -0.991891788243048 -1.73407859312891e-20
outer loop
vertex 12.9600763320923 13.8482904434204 10.0
vertex 12.155270576477 13.9514055252075 1.73641754187132e-15
vertex 12.9600763320923 13.8482904434204 1.69406589450876e-18
endloop
endfacet
facet normal -0.127085327304172 -0.991891788243048 -1.73407859312891e-20
outer loop
vertex 12.155270576477 13.9514055252075 1.73641754187132e-15
vertex 12.9600763320923 13.8482904434204 10.0
vertex 12.155270576477 13.9514055252075 10.0
endloop
endfacet
facet normal -0.249506663216746 -0.968373081518918 4.14843899052901e-20
outer loop
vertex 13.7677488327026 13.6401891708374 1.73641754187132e-15
vertex 12.9600763320923 13.8482904434204 10.0
vertex 12.9600763320923 13.8482904434204 1.69406589450876e-18
endloop
endfacet
facet normal -0.249506663216746 -0.968373081518918 4.14843899052901e-20
outer loop
vertex 12.9600763320923 13.8482904434204 10.0
vertex 13.7677488327026 13.6401891708374 1.73641754187132e-15
vertex 13.7677488327026 13.6401891708374 10.0
endloop
endfacet
facet normal -0.366368120892555 -0.930469988765709 5.53246269118343e-19
outer loop
vertex 14.5976819992065 13.3134069442749 10.0
vertex 13.7677488327026 13.6401891708374 1.73641754187132e-15
vertex 14.5976819992065 13.3134069442749 1.69406589450876e-18
endloop
endfacet
facet normal -0.366368120892555 -0.930469988765709 5.53246269118343e-19
outer loop
vertex 13.7677488327026 13.6401891708374 1.73641754187132e-15
vertex 14.5976819992065 13.3134069442749 10.0
vertex 13.7677488327026 13.6401891708374 10.0
endloop
endfacet
facet normal 0.477326042544014 0.878726265175493 2.12435546474913e-19
outer loop
vertex 14.4385290145874 15.1531038284302 1.69406589450876e-18
vertex 15.268536567688 14.702241897583 10.0
vertex 15.268536567688 14.702241897583 -1.7330294100823e-15
endloop
endfacet
facet normal 0.477326042544014 0.878726265175493 2.12435546474913e-19
outer loop
vertex 15.268536567688 14.702241897583 10.0
vertex 14.4385290145874 15.1531038284302 1.69406589450876e-18
vertex 14.4385290145874 15.1531038284302 10.0
endloop
endfacet
facet normal -0.797876084309198 0.0 0.602821494380735
outer loop
vertex 25.3610133559885 2.94568276405334 4.03548560899082
vertex 25.0678795130453 0.0 3.73794179789509
vertex 25.3610133559885 0.0 4.03548560899082
endloop
endfacet
facet normal -0.614667432469749 0.0 0.788786376315569
outer loop
vertex 25.0678795130453 0.0 3.73794179789509
vertex 25.3610133559885 2.94568276405334 4.03548560899082
vertex 25.0678795130453 2.94568276405334 3.73794179789509
endloop
endfacet
facet normal -0.926710799555544 0.0 0.375775323813479
outer loop
vertex 25.5671489003826 2.94568276405334 4.39875948189843
vertex 25.3610133559885 0.0 4.03548560899082
vertex 25.5671489003826 0.0 4.39875948189843
endloop
endfacet
facet normal -0.797876084309198 0.0 0.602821494380735
outer loop
vertex 25.3610133559885 0.0 4.03548560899082
vertex 25.5671489003826 2.94568276405334 4.39875948189843
vertex 25.3610133559885 2.94568276405334 4.03548560899082
endloop
endfacet
facet normal -0.992391705274186 0.0 0.123120685926426
outer loop
vertex 25.6722383495324 2.94568276405334 4.80300690251773
vertex 25.5671489003826 0.0 4.39875948189843
vertex 25.6722383495324 0.0 4.80300690251773
endloop
endfacet
facet normal -0.926710799555544 0.0 0.375775323813479
outer loop
vertex 25.5671489003826 0.0 4.39875948189843
vertex 25.6722383495324 2.94568276405334 4.80300690251773
vertex 25.5671489003826 2.94568276405334 4.39875948189843
endloop
endfacet
facet normal -0.600390760785241 -0.799706780241183 0.0
outer loop
vertex 17.2318267822266 11.5997686386108 10.0
vertex 16.3163986206055 12.2870388031006 1.73641754187132e-15
vertex 17.2318267822266 11.5997686386108 1.73641754187132e-15
endloop
endfacet
facet normal -0.600390760785241 -0.799706780241183 0.0
outer loop
vertex 16.3163986206055 12.2870388031006 1.73641754187132e-15
vertex 17.2318267822266 11.5997686386108 10.0
vertex 16.3163986206055 12.2870388031006 10.0
endloop
endfacet
facet normal 0.0436337848480446 0.999047592870247 -1.78875993016679e-20
outer loop
vertex 24.4944610595703 8.8172082901001 1.69406589450876e-18
vertex 25.1381282806396 8.78909587860107 10.0
vertex 25.1381282806396 8.78909587860107 -1.7330294100823e-15
endloop
endfacet
facet normal 0.0436337848480446 0.999047592870247 -1.78875993016679e-20
outer loop
vertex 25.1381282806396 8.78909587860107 10.0
vertex 24.4944610595703 8.8172082901001 1.69406589450876e-18
vertex 24.4944610595703 8.8172082901001 10.0
endloop
endfacet
facet normal 0.180903994731183 0.98350075988293 0.0
outer loop
vertex 23.8321266174316 8.93903732299805 10.0
vertex 24.4944610595703 8.8172082901001 1.69406589450876e-18
vertex 23.8321266174316 8.93903732299805 1.69406589450876e-18
endloop
endfacet
facet normal 0.180903994731183 0.98350075988293 0.0
outer loop
vertex 24.4944610595703 8.8172082901001 1.69406589450876e-18
vertex 23.8321266174316 8.93903732299805 10.0
vertex 24.4944610595703 8.8172082901001 10.0
endloop
endfacet
facet normal 0.861989234142641 -0.506926582674634 0.0
outer loop
vertex 29.6730251312256 9.4152774810791 1.73641754187132e-15
vertex 29.4968528747559 9.11571025848389 10.0
vertex 29.4968528747559 9.11571025848389 1.73641754187132e-15
endloop
endfacet
facet normal 0.861989234142641 -0.506926582674634 0.0
outer loop
vertex 29.4968528747559 9.11571025848389 10.0
vertex 29.6730251312256 9.4152774810791 1.73641754187132e-15
vertex 29.6730251312256 9.4152774810791 10.0
endloop
endfacet
facet normal 0.110794921349532 -0.993843290163571 7.51832682688368e-20
outer loop
vertex 11.3375797271729 13.9555234909058 1.73641754187132e-15
vertex 10.4905405044556 13.8610944747925 10.0
vertex 10.4905405044556 13.8610944747925 1.69406589450876e-18
endloop
endfacet
facet normal 0.110794921349532 -0.993843290163571 7.51832682688368e-20
outer loop
vertex 10.4905405044556 13.8610944747925 10.0
vertex 11.3375797271729 13.9555234909058 1.73641754187132e-15
vertex 11.3375797271729 13.9555234909058 10.0
endloop
endfacet
facet normal 0.932482034885698 -0.361216354302277 0.0
outer loop
vertex 29.7987728118896 9.73989582061768 1.73641754187132e-15
vertex 29.6730251312256 9.4152774810791 10.0
vertex 29.6730251312256 9.4152774810791 1.73641754187132e-15
endloop
endfacet
facet normal 0.932482034885698 -0.361216354302277 0.0
outer loop
vertex 29.6730251312256 9.4152774810791 10.0
vertex 29.7987728118896 9.73989582061768 1.73641754187132e-15
vertex 29.7987728118896 9.73989582061768 10.0
endloop
endfacet
facet normal 0.979429031191122 -0.201788931460621 0.0
outer loop
vertex 29.871150970459 10.0911998748779 1.73641754187132e-15
vertex 29.7987728118896 9.73989582061768 10.0
vertex 29.7987728118896 9.73989582061768 1.73641754187132e-15
endloop
endfacet
facet normal 0.979429031191122 -0.201788931460621 0.0
outer loop
vertex 29.7987728118896 9.73989582061768 10.0
vertex 29.871150970459 10.0911998748779 1.73641754187132e-15
vertex 29.871150970459 10.0911998748779 10.0
endloop
endfacet
facet normal 1.0 0.0 0.0
outer loop
vertex 29.871150970459 11.8277034759521 1.69406589450876e-18
vertex 29.871150970459 10.0911998748779 10.0
vertex 29.871150970459 10.0911998748779 1.73641754187132e-15
endloop
endfacet
facet normal 1.0 0.0 0.0
outer loop
vertex 29.871150970459 10.0911998748779 10.0
vertex 29.871150970459 11.8277034759521 1.69406589450876e-18
vertex 29.871150970459 11.8277034759521 10.0
endloop
endfacet
facet normal 0.275313394374231 0.961354531314093 0.0
outer loop
vertex 12.6903057098389 15.767879486084 10.0
vertex 13.5552606582642 15.5201730728149 1.69406589450876e-18
vertex 12.6903057098389 15.767879486084 1.69406589450876e-18
endloop
endfacet
facet normal 0.275313394374231 0.961354531314093 0.0
outer loop
vertex 13.5552606582642 15.5201730728149 1.69406589450876e-18
vertex 12.6903057098389 15.767879486084 10.0
vertex 13.5552606582642 15.5201730728149 10.0
endloop
endfacet
facet normal -0.390744654310458 0.920499111964699 -7.77880925691099e-19
outer loop
vertex 26.4159412384033 9.02149963378906 10.0
vertex 27.063627243042 9.29643726348877 1.69406589450876e-18
vertex 26.4159412384033 9.02149963378906 -3.46775288605911e-15
endloop
endfacet
facet normal -0.390744654310458 0.920499111964699 -7.77880925691099e-19
outer loop
vertex 27.063627243042 9.29643726348877 1.69406589450876e-18
vertex 26.4159412384033 9.02149963378906 10.0
vertex 27.063627243042 9.29643726348877 10.0
endloop
endfacet
facet normal -0.251065266091486 0.967970160781008 5.75539910328804e-19
outer loop
vertex 25.7737102508545 8.8549222946167 1.69406589450876e-18
vertex 26.4159412384033 9.02149963378906 10.0
vertex 26.4159412384033 9.02149963378906 -3.46775288605911e-15
endloop
endfacet
facet normal -0.251065266091486 0.967970160781008 5.75539910328804e-19
outer loop
vertex 26.4159412384033 9.02149963378906 10.0
vertex 25.7737102508545 8.8549222946167 1.69406589450876e-18
vertex 25.7737102508545 8.8549222946167 10.0
endloop
endfacet
facet normal -0.614667432469749 0.0 0.788786376315569
outer loop
vertex 25.0678795130453 0.0 3.73794179789509
vertex 24.7077239585233 2.94568276405334 3.52640516762301
vertex 24.7077239585233 0.0 3.52640516762301
endloop
endfacet
facet normal -0.389570210893447 0.0 0.920996770235616
outer loop
vertex 24.7077239585233 2.94568276405334 3.52640516762301
vertex 25.0678795130453 0.0 3.73794179789509
vertex 25.0678795130453 2.94568276405334 3.73794179789509
endloop
endfacet
facet normal 0.123120685926419 0.0 0.992391705274187
outer loop
vertex 23.8874185236115 0.0 3.4121732715613
vertex 23.4831711029922 2.94568276405334 3.51726272071113
vertex 23.4831711029922 0.0 3.51726272071113
endloop
endfacet
facet normal 0.375775323813482 0.0 0.926710799555543
outer loop
vertex 23.4831711029922 2.94568276405334 3.51726272071113
vertex 23.8874185236115 0.0 3.4121732715613
vertex 23.8874185236115 2.94568276405334 3.4121732715613
endloop
endfacet
facet normal -0.137924423239973 0.0 0.99044275628323
outer loop
vertex 24.3050906982777 0.0 3.41529158994683
vertex 23.8874185236115 2.94568276405334 3.4121732715613
vertex 23.8874185236115 0.0 3.4121732715613
endloop
endfacet
facet normal 0.123120685926419 0.0 0.992391705274187
outer loop
vertex 23.8874185236115 2.94568276405334 3.4121732715613
vertex 24.3050906982777 0.0 3.41529158994683
vertex 24.3050906982777 2.94568276405334 3.41529158994683
endloop
endfacet
facet normal -0.389570210893447 0.0 0.920996770235616
outer loop
vertex 24.7077239585233 0.0 3.52640516762301
vertex 24.3050906982777 2.94568276405334 3.41529158994683
vertex 24.3050906982777 0.0 3.41529158994683
endloop
endfacet
facet normal -0.137924423239973 0.0 0.99044275628323
outer loop
vertex 24.3050906982777 2.94568276405334 3.41529158994683
vertex 24.7077239585233 0.0 3.52640516762301
vertex 24.7077239585233 2.94568276405334 3.52640516762301
endloop
endfacet
facet normal -0.00503602734746823 -0.999987319133876 0.0
outer loop
vertex 12.155270576477 13.9514055252075 10.0
vertex 11.3375797271729 13.9555234909058 1.73641754187132e-15
vertex 12.155270576477 13.9514055252075 1.73641754187132e-15
endloop
endfacet
facet normal -0.00503602734746823 -0.999987319133876 0.0
outer loop
vertex 11.3375797271729 13.9555234909058 1.73641754187132e-15
vertex 12.155270576477 13.9514055252075 10.0
vertex 11.3375797271729 13.9555234909058 10.0
endloop
endfacet
facet normal 0.926710799555543 0.0 -0.375775323813481
outer loop
vertex 22.6016743418049 2.94568276405334 5.60124051810157
vertex 22.807809886199 0.0 5.96451439100918
vertex 22.6016743418049 0.0 5.60124051810157
endloop
endfacet
facet normal 0.797876084309194 0.0 -0.602821494380739
outer loop
vertex 22.807809886199 0.0 5.96451439100918
vertex 22.6016743418049 2.94568276405334 5.60124051810157
vertex 22.807809886199 2.94568276405334 5.96451439100918
endloop
endfacet
facet normal 0.992391705274187 0.0 -0.123120685926419
outer loop
vertex 22.496584892655 2.94568276405334 5.19699309748227
vertex 22.6016743418049 0.0 5.60124051810157
vertex 22.496584892655 0.0 5.19699309748227
endloop
endfacet
facet normal 0.926710799555543 0.0 -0.375775323813481
outer loop
vertex 22.6016743418049 0.0 5.60124051810157
vertex 22.496584892655 2.94568276405334 5.19699309748227
vertex 22.6016743418049 2.94568276405334 5.60124051810157
endloop
endfacet
facet normal 0.99044275628323 0.0 0.137924423239973
outer loop
vertex 22.4997032110406 2.94568276405334 4.77932092281604
vertex 22.496584892655 0.0 5.19699309748227
vertex 22.4997032110406 0.0 4.77932092281604
endloop
endfacet
facet normal 0.992391705274187 0.0 -0.123120685926419
outer loop
vertex 22.496584892655 0.0 5.19699309748227
vertex 22.4997032110406 2.94568276405334 4.77932092281604
vertex 22.496584892655 2.94568276405334 5.19699309748227
endloop
endfacet
facet normal 0.402297579980849 0.915508960710682 0.0
outer loop
vertex 22.4605388641357 9.45734119415283 10.0
vertex 23.1393604278564 9.15904998779297 1.69406589450876e-18
vertex 22.4605388641357 9.45734119415283 1.69406589450876e-18
endloop
endfacet
facet normal 0.402297579980849 0.915508960710682 0.0
outer loop
vertex 23.1393604278564 9.15904998779297 1.69406589450876e-18
vertex 22.4605388641357 9.45734119415283 10.0
vertex 23.1393604278564 9.15904998779297 10.0
endloop
endfacet
facet normal 0.920996770235616 0.0 0.389570210893447
outer loop
vertex 22.6108167887168 2.94568276405334 4.37668766257048
vertex 22.4997032110406 0.0 4.77932092281604
vertex 22.6108167887168 0.0 4.37668766257048
endloop
endfacet
facet normal 0.99044275628323 0.0 0.137924423239973
outer loop
vertex 22.4997032110406 0.0 4.77932092281604
vertex 22.6108167887168 2.94568276405334 4.37668766257048
vertex 22.4997032110406 2.94568276405334 4.77932092281604
endloop
endfacet
facet normal 0.78878637631557 0.0 0.614667432469748
outer loop
vertex 22.8223534189888 2.94568276405334 4.0165321080484
vertex 22.6108167887168 0.0 4.37668766257048
vertex 22.8223534189888 0.0 4.0165321080484
endloop
endfacet
facet normal 0.920996770235616 0.0 0.389570210893447
outer loop
vertex 22.6108167887168 0.0 4.37668766257048
vertex 22.8223534189888 2.94568276405334 4.0165321080484
vertex 22.6108167887168 2.94568276405334 4.37668766257048
endloop
endfacet
facet normal 0.602821494380738 0.0 0.797876084309195
outer loop
vertex 23.1198972300846 0.0 3.72339826510529
vertex 22.8223534189888 2.94568276405334 4.0165321080484
vertex 22.8223534189888 0.0 4.0165321080484
endloop
endfacet
facet normal 0.78878637631557 0.0 0.614667432469748
outer loop
vertex 22.8223534189888 2.94568276405334 4.0165321080484
vertex 23.1198972300846 0.0 3.72339826510529
vertex 23.1198972300846 2.94568276405334 3.72339826510529
endloop
endfacet
facet normal 0.375775323813482 0.0 0.926710799555543
outer loop
vertex 23.4831711029922 0.0 3.51726272071113
vertex 23.1198972300846 2.94568276405334 3.72339826510529
vertex 23.1198972300846 0.0 3.72339826510529
endloop
endfacet
facet normal 0.602821494380738 0.0 0.797876084309195
outer loop
vertex 23.1198972300846 2.94568276405334 3.72339826510529
vertex 23.4831711029922 0.0 3.51726272071113
vertex 23.4831711029922 2.94568276405334 3.51726272071113
endloop
endfacet
facet normal 0.389570210893448 0.0 -0.920996770235615
outer loop
vertex 23.4610992836642 2.94568276405334 6.47359483237698
vertex 23.1009437291422 0.0 6.26205820210491
vertex 23.1009437291422 2.94568276405334 6.26205820210491
endloop
endfacet
facet normal 0.614667432469748 0.0 -0.78878637631557
outer loop
vertex 23.1009437291422 0.0 6.26205820210491
vertex 23.4610992836642 2.94568276405334 6.47359483237698
vertex 23.4610992836642 0.0 6.47359483237698
endloop
endfacet
facet normal 0.797876084309194 0.0 -0.602821494380739
outer loop
vertex 22.807809886199 2.94568276405334 5.96451439100918
vertex 23.1009437291422 0.0 6.26205820210491
vertex 22.807809886199 0.0 5.96451439100918
endloop
endfacet
facet normal 0.614667432469748 0.0 -0.78878637631557
outer loop
vertex 23.1009437291422 0.0 6.26205820210491
vertex 22.807809886199 2.94568276405334 5.96451439100918
vertex 23.1009437291422 2.94568276405334 6.26205820210491
endloop
endfacet
facet normal -0.651765934674868 0.758420177999897 0.0
outer loop
vertex 0.0 10.0911998748779 10.0
vertex 0.570274889469147 10.5812788009644 1.69406589450876e-18
vertex 0.0 10.0911998748779 1.69406589450876e-18
endloop
endfacet
facet normal -0.651765934674868 0.758420177999897 0.0
outer loop
vertex 0.570274889469147 10.5812788009644 1.69406589450876e-18
vertex 0.0 10.0911998748779 10.0
vertex 0.570274889469147 10.5812788009644 10.0
endloop
endfacet
facet normal -0.788786376315568 0.0 -0.614667432469751
outer loop
vertex 25.3464698231987 2.94568276405334 5.9834678919516
vertex 25.5580064534707 0.0 5.62331233742952
vertex 25.3464698231987 0.0 5.9834678919516
endloop
endfacet
facet normal -0.920996770235614 0.0 -0.38957021089345
outer loop
vertex 25.5580064534707 0.0 5.62331233742952
vertex 25.3464698231987 2.94568276405334 5.9834678919516
vertex 25.5580064534707 2.94568276405334 5.62331233742952
endloop
endfacet
facet normal -0.788786376315568 0.0 -0.614667432469751
outer loop
vertex 25.3464698231987 2.94568276405334 5.9834678919516
vertex 25.0489260121029 0.0 6.27660173489471
vertex 25.0489260121029 2.94568276405334 6.27660173489471
endloop
endfacet
facet normal -0.602821494380738 0.0 -0.797876084309195
outer loop
vertex 25.0489260121029 0.0 6.27660173489471
vertex 25.3464698231987 2.94568276405334 5.9834678919516
vertex 25.3464698231987 0.0 5.9834678919516
endloop
endfacet
facet normal -0.602821494380738 0.0 -0.797876084309195
outer loop
vertex 25.0489260121029 2.94568276405334 6.27660173489471
vertex 24.6856521391953 0.0 6.48273727928887
vertex 24.6856521391953 2.94568276405334 6.48273727928887
endloop
endfacet
facet normal -0.375775323813482 0.0 -0.926710799555542
outer loop
vertex 24.6856521391953 0.0 6.48273727928887
vertex 25.0489260121029 2.94568276405334 6.27660173489471
vertex 25.0489260121029 0.0 6.27660173489471
endloop
endfacet
facet normal -0.375775323813482 0.0 -0.926710799555542
outer loop
vertex 24.6856521391953 2.94568276405334 6.48273727928887
vertex 24.281404718576 0.0 6.5878267284387
vertex 24.281404718576 2.94568276405334 6.5878267284387
endloop
endfacet
facet normal -0.123120685926419 0.0 -0.992391705274187
outer loop
vertex 24.281404718576 0.0 6.5878267284387
vertex 24.6856521391953 2.94568276405334 6.48273727928887
vertex 24.6856521391953 0.0 6.48273727928887
endloop
endfacet
facet normal 0.516890173875041 -0.856051720488564 -1.40063102462667e-18
outer loop
vertex 5.92341279983521 12.0524806976318 10.0
vertex 4.49487209320068 11.1899175643921 3.47114101784812e-15
vertex 5.92341279983521 12.0524806976318 1.73641754187132e-15
endloop
endfacet
facet normal 0.516890173875041 -0.856051720488564 -1.40063102462667e-18
outer loop
vertex 4.49487209320068 11.1899175643921 3.47114101784812e-15
vertex 5.92341279983521 12.0524806976318 10.0
vertex 4.49487209320068 11.1899175643921 10.0
endloop
endfacet
facet normal -0.99044275628323 0.0 -0.137924423239967
outer loop
vertex 25.6691200311469 2.94568276405334 5.22067907718396
vertex 25.6722383495324 0.0 4.80300690251773
vertex 25.6691200311469 0.0 5.22067907718396
endloop
endfacet
facet normal -0.992391705274186 0.0 0.123120685926426
outer loop
vertex 25.6722383495324 0.0 4.80300690251773
vertex 25.6691200311469 2.94568276405334 5.22067907718396
vertex 25.6722383495324 2.94568276405334 4.80300690251773
endloop
endfacet
facet normal -0.920996770235614 0.0 -0.38957021089345
outer loop
vertex 25.5580064534707 2.94568276405334 5.62331233742952
vertex 25.6691200311469 0.0 5.22067907718396
vertex 25.5580064534707 0.0 5.62331233742952
endloop
endfacet
facet normal -0.99044275628323 0.0 -0.137924423239967
outer loop
vertex 25.6691200311469 0.0 5.22067907718396
vertex 25.5580064534707 2.94568276405334 5.62331233742952
vertex 25.6691200311469 2.94568276405334 5.22067907718396
endloop
endfacet
facet normal -0.123120685926419 0.0 -0.992391705274187
outer loop
vertex 24.281404718576 2.94568276405334 6.5878267284387
vertex 23.8637325439098 0.0 6.58470841005317
vertex 23.8637325439098 2.94568276405334 6.58470841005317
endloop
endfacet
facet normal 0.137924423239973 0.0 -0.99044275628323
outer loop
vertex 23.8637325439098 0.0 6.58470841005317
vertex 24.281404718576 2.94568276405334 6.5878267284387
vertex 24.281404718576 0.0 6.5878267284387
endloop
endfacet
facet normal 0.137924423239973 0.0 -0.99044275628323
outer loop
vertex 23.8637325439098 2.94568276405334 6.58470841005317
vertex 23.4610992836642 0.0 6.47359483237698
vertex 23.4610992836642 2.94568276405334 6.47359483237698
endloop
endfacet
facet normal 0.389570210893448 0.0 -0.920996770235615
outer loop
vertex 23.4610992836642 0.0 6.47359483237698
vertex 23.8637325439098 2.94568276405334 6.58470841005317
vertex 23.8637325439098 0.0 6.58470841005317
endloop
endfacet
facet normal 0.559393103261453 -0.828902500915229 -8.23950944347775e-33
outer loop
vertex 28.9491081237793 8.54528331756592 10.0
vertex 28.5303115844727 8.26265430450439 3.47114101784812e-15
vertex 28.9491081237793 8.54528331756592 3.47114101784812e-15
endloop
endfacet
facet normal 0.559393103261453 -0.828902500915229 -8.23950944347775e-33
outer loop
vertex 28.5303115844727 8.26265430450439 3.47114101784812e-15
vertex 28.9491081237793 8.54528331756592 10.0
vertex 28.5303115844727 8.26265430450439 10.0
endloop
endfacet
facet normal 1.0 0.0 0.0
outer loop
vertex 33.4544105529785 2.94568276405334 1.69406589450876e-18
vertex 33.4544105529785 0.0 10.0
vertex 33.4544105529785 0.0 1.69406589450876e-18
endloop
endfacet
facet normal 1.0 0.0 0.0
outer loop
vertex 33.4544105529785 0.0 10.0
vertex 33.4544105529785 2.94568276405334 1.69406589450876e-18
vertex 33.4544105529785 2.94568276405334 10.0
endloop
endfacet
facet normal -0.702566462980401 0.711618131511001 0.0
outer loop
vertex 28.4185218811035 10.2380094528198 10.0
vertex 29.1370105743408 10.947359085083 1.69406589450876e-18
vertex 28.4185218811035 10.2380094528198 1.69406589450876e-18
endloop
endfacet
facet normal -0.702566462980401 0.711618131511001 0.0
outer loop
vertex 29.1370105743408 10.947359085083 1.69406589450876e-18
vertex 28.4185218811035 10.2380094528198 10.0
vertex 29.1370105743408 10.947359085083 10.0
endloop
endfacet
facet normal -0.767998101326455 0.640452118709088 0.0
outer loop
vertex 29.871150970459 11.8277034759521 10.0
vertex 29.1370105743408 10.947359085083 1.69406589450876e-18
vertex 29.1370105743408 10.947359085083 10.0
endloop
endfacet
facet normal -0.767998101326455 0.640452118709088 0.0
outer loop
vertex 29.1370105743408 10.947359085083 1.69406589450876e-18
vertex 29.871150970459 11.8277034759521 10.0
vertex 29.871150970459 11.8277034759521 1.69406589450876e-18
endloop
endfacet
facet normal 0.484355908522404 0.874871049857884 0.0
outer loop
vertex 21.6644706726074 9.89806938171387 10.0
vertex 22.4605388641357 9.45734119415283 1.69406589450876e-18
vertex 21.6644706726074 9.89806938171387 1.69406589450876e-18
endloop
endfacet
facet normal 0.484355908522404 0.874871049857884 0.0
outer loop
vertex 22.4605388641357 9.45734119415283 1.69406589450876e-18
vertex 21.6644706726074 9.89806938171387 10.0
vertex 22.4605388641357 9.45734119415283 10.0
endloop
endfacet
facet normal 0.552276348895209 -0.833661102877529 -4.60634161567081e-18
outer loop
vertex 4.49487209320068 11.1899175643921 3.47114101784812e-15
vertex 2.83635783195496 10.0911998748779 10.0
vertex 2.83635783195496 10.0911998748779 1.73641754187132e-15
endloop
endfacet
facet normal 0.552276348895209 -0.833661102877529 -4.60634161567081e-18
outer loop
vertex 2.83635783195496 10.0911998748779 10.0
vertex 4.49487209320068 11.1899175643921 3.47114101784812e-15
vertex 4.49487209320068 11.1899175643921 10.0
endloop
endfacet
facet normal 0.215959170807892 -0.976402394786068 -1.57475799905552e-19
outer loop
vertex 10.4905405044556 13.8610944747925 10.0
vertex 9.59614658355713 13.6632738113403 1.73641754187132e-15
vertex 10.4905405044556 13.8610944747925 1.69406589450876e-18
endloop
endfacet
facet normal 0.215959170807892 -0.976402394786068 -1.57475799905552e-19
outer loop
vertex 9.59614658355713 13.6632738113403 1.73641754187132e-15
vertex 10.4905405044556 13.8610944747925 10.0
vertex 9.59614658355713 13.6632738113403 10.0
endloop
endfacet
facet normal 0.0 -1.0 0.0
outer loop
vertex 33.4544105529785 0.0 1.69406589450876e-18
vertex 24.3050906982777 0.0 3.41529158994683
vertex 0.0 0.0 1.69406589450876e-18
endloop
endfacet
facet normal 0.0 -1.0 0.0
outer loop
vertex 24.3050906982777 0.0 3.41529158994683
vertex 33.4544105529785 0.0 1.69406589450876e-18
vertex 24.7077239585233 0.0 3.52640516762301
endloop
endfacet
facet normal 0.0 -1.0 0.0
outer loop
vertex 24.7077239585233 0.0 3.52640516762301
vertex 33.4544105529785 0.0 1.69406589450876e-18
vertex 25.0678795130453 0.0 3.73794179789509
endloop
endfacet
facet normal 0.0 -1.0 0.0
outer loop
vertex 25.0678795130453 0.0 3.73794179789509
vertex 33.4544105529785 0.0 1.69406589450876e-18
vertex 33.4544105529785 0.0 10.0
endloop
endfacet
facet normal 0.0 -1.0 0.0
outer loop
vertex 0.0 0.0 1.69406589450876e-18
vertex 24.3050906982777 0.0 3.41529158994683
vertex 23.8874185236115 0.0 3.4121732715613
endloop
endfacet
facet normal 0.0 -1.0 0.0
outer loop
vertex 25.0678795130453 0.0 3.73794179789509
vertex 33.4544105529785 0.0 10.0
vertex 25.3610133559885 0.0 4.03548560899082
endloop
endfacet
facet normal 0.0 -1.0 0.0
outer loop
vertex 25.3610133559885 0.0 4.03548560899082
vertex 33.4544105529785 0.0 10.0
vertex 25.5671489003826 0.0 4.39875948189843
endloop
endfacet
facet normal 0.0 -1.0 0.0
outer loop
vertex 25.5671489003826 0.0 4.39875948189843
vertex 33.4544105529785 0.0 10.0
vertex 25.6722383495324 0.0 4.80300690251773
endloop
endfacet
facet normal 0.0 -1.0 0.0
outer loop
vertex 25.6722383495324 0.0 4.80300690251773
vertex 33.4544105529785 0.0 10.0
vertex 25.6691200311469 0.0 5.22067907718396
endloop
endfacet
facet normal 0.0 -1.0 0.0
outer loop
vertex 25.6691200311469 0.0 5.22067907718396
vertex 33.4544105529785 0.0 10.0
vertex 25.5580064534707 0.0 5.62331233742952
endloop
endfacet
facet normal 0.0 -1.0 0.0
outer loop
vertex 25.5580064534707 0.0 5.62331233742952
vertex 33.4544105529785 0.0 10.0
vertex 25.3464698231987 0.0 5.9834678919516
endloop
endfacet
facet normal 0.0 -1.0 0.0
outer loop
vertex 25.3464698231987 0.0 5.9834678919516
vertex 33.4544105529785 0.0 10.0
vertex 25.0489260121029 0.0 6.27660173489471
endloop
endfacet
facet normal 0.0 -1.0 0.0
outer loop
vertex 25.0489260121029 0.0 6.27660173489471
vertex 33.4544105529785 0.0 10.0
vertex 24.6856521391953 0.0 6.48273727928887
endloop
endfacet
facet normal 0.0 -1.0 0.0
outer loop
vertex 24.6856521391953 0.0 6.48273727928887
vertex 33.4544105529785 0.0 10.0
vertex 24.281404718576 0.0 6.5878267284387
endloop
endfacet
facet normal 0.0 -1.0 0.0
outer loop
vertex 0.0 0.0 1.69406589450876e-18
vertex 23.4831711029922 0.0 3.51726272071113
vertex 0.0 0.0 10.0
endloop
endfacet
facet normal 0.0 -1.0 0.0
outer loop
vertex 23.4831711029922 0.0 3.51726272071113
vertex 0.0 0.0 1.69406589450876e-18
vertex 23.8874185236115 0.0 3.4121732715613
endloop
endfacet
facet normal 0.0 -1.0 0.0
outer loop
vertex 0.0 0.0 10.0
vertex 23.4831711029922 0.0 3.51726272071113
vertex 23.1198972300846 0.0 3.72339826510529
endloop
endfacet
facet normal 0.0 -1.0 0.0
outer loop
vertex 0.0 0.0 10.0
vertex 23.1198972300846 0.0 3.72339826510529
vertex 22.8223534189888 0.0 4.0165321080484
endloop
endfacet
facet normal 0.0 -1.0 0.0
outer loop
vertex 0.0 0.0 10.0
vertex 22.8223534189888 0.0 4.0165321080484
vertex 22.6108167887168 0.0 4.37668766257048
endloop
endfacet
facet normal 0.0 -1.0 0.0
outer loop
vertex 0.0 0.0 10.0
vertex 22.6108167887168 0.0 4.37668766257048
vertex 22.4997032110406 0.0 4.77932092281604
endloop
endfacet
facet normal 0.0 -1.0 0.0
outer loop
vertex 0.0 0.0 10.0
vertex 22.4997032110406 0.0 4.77932092281604
vertex 22.496584892655 0.0 5.19699309748227
endloop
endfacet
facet normal 0.0 -1.0 0.0
outer loop
vertex 0.0 0.0 10.0
vertex 22.496584892655 0.0 5.19699309748227
vertex 22.6016743418049 0.0 5.60124051810157
endloop
endfacet
facet normal 0.0 -1.0 0.0
outer loop
vertex 0.0 0.0 10.0
vertex 22.6016743418049 0.0 5.60124051810157
vertex 22.807809886199 0.0 5.96451439100918
endloop
endfacet
facet normal 0.0 -1.0 0.0
outer loop
vertex 0.0 0.0 10.0
vertex 22.807809886199 0.0 5.96451439100918
vertex 23.1009437291422 0.0 6.26205820210491
endloop
endfacet
facet normal 0.0 -1.0 0.0
outer loop
vertex 0.0 0.0 10.0
vertex 23.1009437291422 0.0 6.26205820210491
vertex 23.4610992836642 0.0 6.47359483237698
endloop
endfacet
facet normal 0.0 -1.0 0.0
outer loop
vertex 0.0 0.0 10.0
vertex 23.4610992836642 0.0 6.47359483237698
vertex 23.8637325439098 0.0 6.58470841005317
endloop
endfacet
facet normal 0.0 -1.0 0.0
outer loop
vertex 0.0 0.0 10.0
vertex 23.8637325439098 0.0 6.58470841005317
vertex 24.281404718576 0.0 6.5878267284387
endloop
endfacet
facet normal 0.0 -1.0 0.0
outer loop
vertex 0.0 0.0 10.0
vertex 24.281404718576 0.0 6.5878267284387
vertex 33.4544105529785 0.0 10.0
endloop
endfacet
facet normal -0.61839383916121 0.78586834755413 4.68582871440276e-19
outer loop
vertex 27.7290725708008 9.6954870223999 1.73641754187132e-15
vertex 28.4185218811035 10.2380094528198 10.0
vertex 28.4185218811035 10.2380094528198 1.69406589450876e-18
endloop
endfacet
facet normal -0.61839383916121 0.78586834755413 4.68582871440276e-19
outer loop
vertex 28.4185218811035 10.2380094528198 10.0
vertex 27.7290725708008 9.6954870223999 1.73641754187132e-15
vertex 27.7290725708008 9.6954870223999 10.0
endloop
endfacet
facet normal -0.514289688594746 0.857616532143078 -9.60606361745229e-19
outer loop
vertex 27.063627243042 9.29643726348877 10.0
vertex 27.7290725708008 9.6954870223999 1.73641754187132e-15
vertex 27.063627243042 9.29643726348877 1.69406589450876e-18
endloop
endfacet
facet normal -0.514289688594746 0.857616532143078 -9.60606361745229e-19
outer loop
vertex 27.7290725708008 9.6954870223999 1.73641754187132e-15
vertex 27.063627243042 9.29643726348877 10.0
vertex 27.7290725708008 9.6954870223999 10.0
endloop
endfacet
facet normal 0.160495713766435 0.987036537248041 0.0
outer loop
vertex 11.8386278152466 15.9063653945923 10.0
vertex 12.6903057098389 15.767879486084 1.69406589450876e-18
vertex 11.8386278152466 15.9063653945923 1.69406589450876e-18
endloop
endfacet
facet normal 0.160495713766435 0.987036537248041 0.0
outer loop
vertex 12.6903057098389 15.767879486084 1.69406589450876e-18
vertex 11.8386278152466 15.9063653945923 10.0
vertex 12.6903057098389 15.767879486084 10.0
endloop
endfacet
facet normal 0.317705147431795 -0.948189558735668 -2.11892898848718e-19
outer loop
vertex 27.9214515686035 7.96715068817139 10.0
vertex 27.2279090881348 7.73476886749268 3.47114101784812e-15
vertex 27.9214515686035 7.96715068817139 1.73641754187132e-15
endloop
endfacet
facet normal 0.317705147431795 -0.948189558735668 -2.11892898848718e-19
outer loop
vertex 27.2279090881348 7.73476886749268 3.47114101784812e-15
vertex 27.9214515686035 7.96715068817139 10.0
vertex 27.2279090881348 7.73476886749268 10.0
endloop
endfacet
facet normal 0.436630892990124 -0.899640741233214 -1.1478584582424e-18
outer loop
vertex 28.5303115844727 8.26265430450439 3.47114101784812e-15
vertex 27.9214515686035 7.96715068817139 10.0
vertex 27.9214515686035 7.96715068817139 1.73641754187132e-15
endloop
endfacet
facet normal 0.436630892990124 -0.899640741233214 -1.1478584582424e-18
outer loop
vertex 27.9214515686035 7.96715068817139 10.0
vertex 28.5303115844727 8.26265430450439 3.47114101784812e-15
vertex 28.5303115844727 8.26265430450439 10.0
endloop
endfacet
facet normal 0.0436296023300026 0.999047775534547 0.0
outer loop
vertex 10.9744262695312 15.9441061019897 10.0
vertex 11.8386278152466 15.9063653945923 1.69406589450876e-18
vertex 10.9744262695312 15.9441061019897 1.69406589450876e-18
endloop
endfacet
facet normal 0.0436296023300026 0.999047775534547 0.0
outer loop
vertex 11.8386278152466 15.9063653945923 1.69406589450876e-18
vertex 10.9744262695312 15.9441061019897 10.0
vertex 11.8386278152466 15.9063653945923 10.0
endloop
endfacet
facet normal 0.550873548807868 0.834588721002043 -7.47491904554525e-19
outer loop
vertex 15.268536567688 14.702241897583 10.0
vertex 16.1576366424561 14.1153879165649 1.69406589450876e-18
vertex 15.268536567688 14.702241897583 -1.7330294100823e-15
endloop
endfacet
facet normal 0.550873548807868 0.834588721002043 -7.47491904554525e-19
outer loop
vertex 16.1576366424561 14.1153879165649 1.69406589450876e-18
vertex 15.268536567688 14.702241897583 10.0
vertex 16.1576366424561 14.1153879165649 10.0
endloop
endfacet
facet normal 0.337429308539951 -0.941350870684385 9.19964899142778e-19
outer loop
vertex 9.26932716369629 13.5682334899902 3.47114101784812e-15
vertex 8.25718021392822 13.2054271697998 10.0
vertex 8.25718021392822 13.2054271697998 1.69406589450876e-18
endloop
endfacet
facet normal 0.337429308539951 -0.941350870684385 9.19964899142778e-19
outer loop
vertex 8.25718021392822 13.2054271697998 10.0
vertex 9.26932716369629 13.5682334899902 3.47114101784812e-15
vertex 9.26932716369629 13.5682334899902 10.0
endloop
endfacet
facet normal 0.279236304069593 -0.960222415115141 -2.26204975182287e-19
outer loop
vertex 9.59614658355713 13.6632738113403 10.0
vertex 9.26932716369629 13.5682334899902 3.47114101784812e-15
vertex 9.59614658355713 13.6632738113403 1.73641754187132e-15
endloop
endfacet
facet normal 0.279236304069593 -0.960222415115141 -2.26204975182287e-19
outer loop
vertex 9.26932716369629 13.5682334899902 3.47114101784812e-15
vertex 9.59614658355713 13.6632738113403 10.0
vertex 9.26932716369629 13.5682334899902 10.0
endloop
endfacet
facet normal 0.60694199668794 0.794746130947774 0.0
outer loop
vertex 16.1576366424561 14.1153879165649 10.0
vertex 17.4752578735352 13.1091299057007 1.69406589450876e-18
vertex 16.1576366424561 14.1153879165649 1.69406589450876e-18
endloop
endfacet
facet normal 0.60694199668794 0.794746130947774 0.0
outer loop
vertex 17.4752578735352 13.1091299057007 1.69406589450876e-18
vertex 16.1576366424561 14.1153879165649 10.0
vertex 17.4752578735352 13.1091299057007 10.0
endloop
endfacet
facet normal -0.630433070874775 -0.776243610696668 8.13565548612166e-18
outer loop
vertex 19.6365489959717 9.64675235748291 3.47114101784812e-15
vertex 17.2318267822266 11.5997686386108 10.0
vertex 17.2318267822266 11.5997686386108 1.73641754187132e-15
endloop
endfacet
facet normal -0.630433070874775 -0.776243610696668 8.13565548612166e-18
outer loop
vertex 17.2318267822266 11.5997686386108 10.0
vertex 19.6365489959717 9.64675235748291 3.47114101784812e-15
vertex 19.6365489959717 9.64675235748291 10.0
endloop
endfacet
facet normal 0.551220701156901 0.834359478052532 0.0
outer loop
vertex 20.7885341644287 10.4767580032349 10.0
vertex 21.6644706726074 9.89806938171387 1.69406589450876e-18
vertex 20.7885341644287 10.4767580032349 1.69406589450876e-18
endloop
endfacet
facet normal 0.551220701156901 0.834359478052532 0.0
outer loop
vertex 21.6644706726074 9.89806938171387 1.69406589450876e-18
vertex 20.7885341644287 10.4767580032349 10.0
vertex 21.6644706726074 9.89806938171387 10.0
endloop
endfacet
facet normal 0.60376647595472 0.7971612399717 2.29638715745906e-18
outer loop
vertex 19.5637645721436 11.404393196106 1.73641754187132e-15
vertex 20.7885341644287 10.4767580032349 10.0
vertex 20.7885341644287 10.4767580032349 1.69406589450876e-18
endloop
endfacet
facet normal 0.60376647595472 0.7971612399717 2.29638715745906e-18
outer loop
vertex 20.7885341644287 10.4767580032349 10.0
vertex 19.5637645721436 11.404393196106 1.73641754187132e-15
vertex 19.5637645721436 11.404393196106 10.0
endloop
endfacet
facet normal 0.632339378533288 0.7746914936645 1.59316814251584e-18
outer loop
vertex 17.4752578735352 13.1091299057007 10.0
vertex 19.5637645721436 11.404393196106 1.73641754187132e-15
vertex 17.4752578735352 13.1091299057007 1.69406589450876e-18
endloop
endfacet
facet normal 0.632339378533288 0.7746914936645 1.59316814251584e-18
outer loop
vertex 19.5637645721436 11.404393196106 1.73641754187132e-15
vertex 17.4752578735352 13.1091299057007 10.0
vertex 19.5637645721436 11.404393196106 10.0
endloop
endfacet
facet normal 0.410832110446147 -0.911711016181314 7.71564057013185e-19
outer loop
vertex 8.25718021392822 13.2054271697998 10.0
vertex 7.1606559753418 12.7113151550293 1.73641754187132e-15
vertex 8.25718021392822 13.2054271697998 1.69406589450876e-18
endloop
endfacet
facet normal 0.410832110446147 -0.911711016181314 7.71564057013185e-19
outer loop
vertex 7.1606559753418 12.7113151550293 1.73641754187132e-15
vertex 8.25718021392822 13.2054271697998 10.0
vertex 7.1606559753418 12.7113151550293 10.0
endloop
endfacet
facet normal 0.671515155532447 -0.740990820381895 -7.36564415637026e-33
outer loop
vertex 29.2615222930908 8.82840538024902 10.0
vertex 28.9491081237793 8.54528331756592 3.47114101784812e-15
vertex 29.2615222930908 8.82840538024902 3.47114101784812e-15
endloop
endfacet
facet normal 0.671515155532447 -0.740990820381895 -7.36564415637026e-33
outer loop
vertex 28.9491081237793 8.54528331756592 3.47114101784812e-15
vertex 29.2615222930908 8.82840538024902 10.0
vertex 28.9491081237793 8.54528331756592 10.0
endloop
endfacet
facet normal 0.212208684960869 -0.977224372407473 -4.14133256840517e-19
outer loop
vertex 27.2279090881348 7.73476886749268 3.47114101784812e-15
vertex 26.4133853912354 7.55789136886597 10.0
vertex 26.4133853912354 7.55789136886597 1.73641754187132e-15
endloop
endfacet
facet normal 0.212208684960869 -0.977224372407473 -4.14133256840517e-19
outer loop
vertex 26.4133853912354 7.55789136886597 10.0
vertex 27.2279090881348 7.73476886749268 3.47114101784812e-15
vertex 27.2279090881348 7.73476886749268 10.0
endloop
endfacet
facet normal 1.0 0.0 0.0
outer loop
vertex 2.83635783195496 10.0911998748779 1.73641754187132e-15
vertex 2.83635783195496 2.94568276405334 10.0
vertex 2.83635783195496 2.94568276405334 1.69406589450876e-18
endloop
endfacet
facet normal 1.0 0.0 0.0
outer loop
vertex 2.83635783195496 2.94568276405334 10.0
vertex 2.83635783195496 10.0911998748779 1.73641754187132e-15
vertex 2.83635783195496 10.0911998748779 10.0
endloop
endfacet
facet normal 0.0 0.0 1.0
outer loop
vertex 0.0 0.0 10.0
vertex 2.83635783195496 2.94568276405334 10.0
vertex 0.0 10.0911998748779 10.0
endloop
endfacet
facet normal 0.0 0.0 1.0
outer loop
vertex 2.83635783195496 2.94568276405334 10.0
vertex 0.0 0.0 10.0
vertex 33.4544105529785 0.0 10.0
endloop
endfacet
facet normal 0.0 0.0 1.0
outer loop
vertex 0.0 10.0911998748779 10.0
vertex 2.83635783195496 2.94568276405334 10.0
vertex 0.570274889469147 10.5812788009644 10.0
endloop
endfacet
facet normal 0.0 0.0 1.0
outer loop
vertex 0.570274889469147 10.5812788009644 10.0
vertex 2.83635783195496 2.94568276405334 10.0
vertex 2.18978524208069 11.9019794464111 10.0
endloop
endfacet
facet normal 0.0 0.0 1.0
outer loop
vertex 2.83635783195496 2.94568276405334 10.0
vertex 33.4544105529785 0.0 10.0
vertex 33.4544105529785 2.94568276405334 10.0
endloop
endfacet
facet normal 0.0 0.0 1.0
outer loop
vertex 2.18978524208069 11.9019794464111 10.0
vertex 2.83635783195496 10.0911998748779 10.0
vertex 3.63184142112732 12.9727792739868 10.0
endloop
endfacet
facet normal 0.0 0.0 1.0
outer loop
vertex 2.83635783195496 10.0911998748779 10.0
vertex 2.18978524208069 11.9019794464111 10.0
vertex 2.83635783195496 2.94568276405334 10.0
endloop
endfacet
facet normal 0.0 0.0 1.0
outer loop
vertex 3.63184142112732 12.9727792739868 10.0
vertex 2.83635783195496 10.0911998748779 10.0
vertex 4.49487209320068 11.1899175643921 10.0
endloop
endfacet
facet normal 0.0 0.0 1.0
outer loop
vertex 3.63184142112732 12.9727792739868 10.0
vertex 4.49487209320068 11.1899175643921 10.0
vertex 4.93127870559692 13.8340101242065 10.0
endloop
endfacet
facet normal 0.0 0.0 1.0
outer loop
vertex 4.93127870559692 13.8340101242065 10.0
vertex 4.49487209320068 11.1899175643921 10.0
vertex 5.92341279983521 12.0524806976318 10.0
endloop
endfacet
facet normal 0.0 0.0 1.0
outer loop
vertex 4.93127870559692 13.8340101242065 10.0
vertex 5.92341279983521 12.0524806976318 10.0
vertex 6.11530637741089 14.5169525146484 10.0
endloop
endfacet
facet normal 0.0 0.0 1.0
outer loop
vertex 6.11530637741089 14.5169525146484 10.0
vertex 5.92341279983521 12.0524806976318 10.0
vertex 7.1606559753418 12.7113151550293 10.0
endloop
endfacet
facet normal 0.0 0.0 1.0
outer loop
vertex 6.11530637741089 14.5169525146484 10.0
vertex 7.1606559753418 12.7113151550293 10.0
vertex 7.20596694946289 15.0461692810059 10.0
endloop
endfacet
facet normal 0.0 0.0 1.0
outer loop
vertex 7.20596694946289 15.0461692810059 10.0
vertex 7.1606559753418 12.7113151550293 10.0
vertex 8.25718021392822 13.2054271697998 10.0
endloop
endfacet
facet normal 0.0 0.0 1.0
outer loop
vertex 7.20596694946289 15.0461692810059 10.0
vertex 8.25718021392822 13.2054271697998 10.0
vertex 8.2218017578125 15.4408874511719 10.0
endloop
endfacet
facet normal 0.0 0.0 1.0
outer loop
vertex 8.2218017578125 15.4408874511719 10.0
vertex 8.25718021392822 13.2054271697998 10.0
vertex 9.17895698547363 15.7157850265503 10.0
endloop
endfacet
facet normal 0.0 0.0 1.0
outer loop
vertex 9.17895698547363 15.7157850265503 10.0
vertex 8.25718021392822 13.2054271697998 10.0
vertex 9.26932716369629 13.5682334899902 10.0
endloop
endfacet
facet normal 0.0 0.0 1.0
outer loop
vertex 9.17895698547363 15.7157850265503 10.0
vertex 9.26932716369629 13.5682334899902 10.0
vertex 10.0919885635376 15.8813724517822 10.0
endloop
endfacet
facet normal 0.0 0.0 1.0
outer loop
vertex 10.0919885635376 15.8813724517822 10.0
vertex 9.26932716369629 13.5682334899902 10.0
vertex 9.59614658355713 13.6632738113403 10.0
endloop
endfacet
facet normal 0.0 0.0 1.0
outer loop
vertex 10.0919885635376 15.8813724517822 10.0
vertex 9.59614658355713 13.6632738113403 10.0
vertex 10.4905405044556 13.8610944747925 10.0
endloop
endfacet
facet normal 0.0 0.0 1.0
outer loop
vertex 10.0919885635376 15.8813724517822 10.0
vertex 10.4905405044556 13.8610944747925 10.0
vertex 10.9744262695312 15.9441061019897 10.0
endloop
endfacet
facet normal 0.0 0.0 1.0
outer loop
vertex 10.9744262695312 15.9441061019897 10.0
vertex 10.4905405044556 13.8610944747925 10.0
vertex 11.3375797271729 13.9555234909058 10.0
endloop
endfacet
facet normal 0.0 0.0 1.0
outer loop
vertex 10.9744262695312 15.9441061019897 10.0
vertex 11.3375797271729 13.9555234909058 10.0
vertex 11.8386278152466 15.9063653945923 10.0
endloop
endfacet
facet normal 0.0 0.0 1.0
outer loop
vertex 11.8386278152466 15.9063653945923 10.0
vertex 11.3375797271729 13.9555234909058 10.0
vertex 12.155270576477 13.9514055252075 10.0
endloop
endfacet
facet normal 0.0 0.0 1.0
outer loop
vertex 11.8386278152466 15.9063653945923 10.0
vertex 12.155270576477 13.9514055252075 10.0
vertex 12.6903057098389 15.767879486084 10.0
endloop
endfacet
facet normal 0.0 0.0 1.0
outer loop
vertex 12.6903057098389 15.767879486084 10.0
vertex 12.155270576477 13.9514055252075 10.0
vertex 12.9600763320923 13.8482904434204 10.0
endloop
endfacet
facet normal 0.0 0.0 1.0
outer loop
vertex 12.6903057098389 15.767879486084 10.0
vertex 12.9600763320923 13.8482904434204 10.0
vertex 13.5552606582642 15.5201730728149 10.0
endloop
endfacet
facet normal 0.0 0.0 1.0
outer loop
vertex 13.5552606582642 15.5201730728149 10.0
vertex 12.9600763320923 13.8482904434204 10.0
vertex 13.7677488327026 13.6401891708374 10.0
endloop
endfacet
facet normal 0.0 0.0 1.0
outer loop
vertex 13.5552606582642 15.5201730728149 10.0
vertex 13.7677488327026 13.6401891708374 10.0
vertex 14.4385290145874 15.1531038284302 10.0
endloop
endfacet
facet normal 0.0 0.0 1.0
outer loop
vertex 14.4385290145874 15.1531038284302 10.0
vertex 13.7677488327026 13.6401891708374 10.0
vertex 14.5976819992065 13.3134069442749 10.0
endloop
endfacet
facet normal 0.0 0.0 1.0
outer loop
vertex 14.4385290145874 15.1531038284302 10.0
vertex 14.5976819992065 13.3134069442749 10.0
vertex 15.268536567688 14.702241897583 10.0
endloop
endfacet
facet normal 0.0 0.0 1.0
outer loop
vertex 15.268536567688 14.702241897583 10.0
vertex 14.5976819992065 13.3134069442749 10.0
vertex 15.4452991485596 12.8608846664429 10.0
endloop
endfacet
facet normal 0.0 0.0 1.0
outer loop
vertex 15.268536567688 14.702241897583 10.0
vertex 15.4452991485596 12.8608846664429 10.0
vertex 16.1576366424561 14.1153879165649 10.0
endloop
endfacet
facet normal 0.0 0.0 1.0
outer loop
vertex 16.1576366424561 14.1153879165649 10.0
vertex 15.4452991485596 12.8608846664429 10.0
vertex 16.3163986206055 12.2870388031006 10.0
endloop
endfacet
facet normal 0.0 0.0 1.0
outer loop
vertex 16.1576366424561 14.1153879165649 10.0
vertex 16.3163986206055 12.2870388031006 10.0
vertex 17.4752578735352 13.1091299057007 10.0
endloop
endfacet
facet normal 0.0 0.0 1.0
outer loop
vertex 17.4752578735352 13.1091299057007 10.0
vertex 16.3163986206055 12.2870388031006 10.0
vertex 17.2318267822266 11.5997686386108 10.0
endloop
endfacet
facet normal 0.0 0.0 1.0
outer loop
vertex 17.4752578735352 13.1091299057007 10.0
vertex 17.2318267822266 11.5997686386108 10.0
vertex 19.6365489959717 9.64675235748291 10.0
endloop
endfacet
facet normal 0.0 0.0 1.0
outer loop
vertex 17.4752578735352 13.1091299057007 10.0
vertex 19.6365489959717 9.64675235748291 10.0
vertex 19.5637645721436 11.404393196106 10.0
endloop
endfacet
facet normal 0.0 0.0 1.0
outer loop
vertex 19.5637645721436 11.404393196106 10.0
vertex 19.6365489959717 9.64675235748291 10.0
vertex 20.7885341644287 10.4767580032349 10.0
endloop
endfacet
facet normal 0.0 0.0 1.0
outer loop
vertex 20.7885341644287 10.4767580032349 10.0
vertex 19.6365489959717 9.64675235748291 10.0
vertex 20.7760601043701 8.79048824310303 10.0
endloop
endfacet
facet normal 0.0 0.0 1.0
outer loop
vertex 20.7885341644287 10.4767580032349 10.0
vertex 20.7760601043701 8.79048824310303 10.0
vertex 21.562837600708 8.28175830841064 10.0
endloop
endfacet
facet normal 0.0 0.0 1.0
outer loop
vertex 20.7885341644287 10.4767580032349 10.0
vertex 21.562837600708 8.28175830841064 10.0
vertex 21.6644706726074 9.89806938171387 10.0
endloop
endfacet
facet normal 0.0 0.0 1.0
outer loop
vertex 21.6644706726074 9.89806938171387 10.0
vertex 21.562837600708 8.28175830841064 10.0
vertex 22.2487716674805 7.91900396347046 10.0
endloop
endfacet
facet normal 0.0 0.0 1.0
outer loop
vertex 21.6644706726074 9.89806938171387 10.0
vertex 22.2487716674805 7.91900396347046 10.0
vertex 22.4605388641357 9.45734119415283 10.0
endloop
endfacet
facet normal 0.0 0.0 1.0
outer loop
vertex 22.4605388641357 9.45734119415283 10.0
vertex 22.2487716674805 7.91900396347046 10.0
vertex 22.9185047149658 7.65883731842041 10.0
endloop
endfacet
facet normal 0.0 0.0 1.0
outer loop
vertex 22.4605388641357 9.45734119415283 10.0
vertex 22.9185047149658 7.65883731842041 10.0
vertex 23.1393604278564 9.15904998779297 10.0
endloop
endfacet
facet normal 0.0 0.0 1.0
outer loop
vertex 23.1393604278564 9.15904998779297 10.0
vertex 22.9185047149658 7.65883731842041 10.0
vertex 23.5372848510742 7.51355361938476 10.0
endloop
endfacet
facet normal 0.0 0.0 1.0
outer loop
vertex 23.1393604278564 9.15904998779297 10.0
vertex 23.5372848510742 7.51355361938476 10.0
vertex 23.8321266174316 8.93903732299805 10.0
endloop
endfacet
facet normal 0.0 0.0 1.0
outer loop
vertex 23.8321266174316 8.93903732299805 10.0
vertex 23.5372848510742 7.51355361938476 10.0
vertex 24.2169036865234 7.44070768356323 10.0
endloop
endfacet
facet normal 0.0 0.0 1.0
outer loop
vertex 23.8321266174316 8.93903732299805 10.0
vertex 24.2169036865234 7.44070768356323 10.0
vertex 24.4944610595703 8.8172082901001 10.0
endloop
endfacet
facet normal 0.0 0.0 1.0
outer loop
vertex 24.4944610595703 8.8172082901001 10.0
vertex 24.2169036865234 7.44070768356323 10.0
vertex 25.1265411376953 7.43294525146484 10.0
endloop
endfacet
facet normal 0.0 0.0 1.0
outer loop
vertex 24.4944610595703 8.8172082901001 10.0
vertex 25.1265411376953 7.43294525146484 10.0
vertex 25.1381282806396 8.78909587860107 10.0
endloop
endfacet
facet normal 0.0 0.0 1.0
outer loop
vertex 25.1381282806396 8.78909587860107 10.0
vertex 25.1265411376953 7.43294525146484 10.0
vertex 25.4913749694824 7.45155191421509 10.0
endloop
endfacet
facet normal 0.0 0.0 1.0
outer loop
vertex 25.1381282806396 8.78909587860107 10.0
vertex 25.4913749694824 7.45155191421509 10.0
vertex 25.7737102508545 8.8549222946167 10.0
endloop
endfacet
facet normal 0.0 0.0 1.0
outer loop
vertex 25.7737102508545 8.8549222946167 10.0
vertex 25.4913749694824 7.45155191421509 10.0
vertex 26.4133853912354 7.55789136886597 10.0
endloop
endfacet
facet normal 0.0 0.0 1.0
outer loop
vertex 25.7737102508545 8.8549222946167 10.0
vertex 26.4133853912354 7.55789136886597 10.0
vertex 26.4159412384033 9.02149963378906 10.0
endloop
endfacet
facet normal 0.0 0.0 1.0
outer loop
vertex 26.4159412384033 9.02149963378906 10.0
vertex 26.4133853912354 7.55789136886597 10.0
vertex 27.2279090881348 7.73476886749268 10.0
endloop
endfacet
facet normal 0.0 0.0 1.0
outer loop
vertex 26.4159412384033 9.02149963378906 10.0
vertex 27.2279090881348 7.73476886749268 10.0
vertex 27.063627243042 9.29643726348877 10.0
endloop
endfacet
facet normal 0.0 0.0 1.0
outer loop
vertex 27.063627243042 9.29643726348877 10.0
vertex 27.2279090881348 7.73476886749268 10.0
vertex 27.7290725708008 9.6954870223999 10.0
endloop
endfacet
facet normal 0.0 0.0 1.0
outer loop
vertex 27.7290725708008 9.6954870223999 10.0
vertex 27.2279090881348 7.73476886749268 10.0
vertex 27.9214515686035 7.96715068817139 10.0
endloop
endfacet
facet normal 0.0 0.0 1.0
outer loop
vertex 27.7290725708008 9.6954870223999 10.0
vertex 27.9214515686035 7.96715068817139 10.0
vertex 28.4185218811035 10.2380094528198 10.0
endloop
endfacet
facet normal 0.0 0.0 1.0
outer loop
vertex 28.4185218811035 10.2380094528198 10.0
vertex 27.9214515686035 7.96715068817139 10.0
vertex 28.5303115844727 8.26265430450439 10.0
endloop
endfacet
facet normal 0.0 0.0 1.0
outer loop
vertex 28.4185218811035 10.2380094528198 10.0
vertex 28.5303115844727 8.26265430450439 10.0
vertex 29.1370105743408 10.947359085083 10.0
endloop
endfacet
facet normal 0.0 0.0 1.0
outer loop
vertex 29.1370105743408 10.947359085083 10.0
vertex 28.5303115844727 8.26265430450439 10.0
vertex 28.9491081237793 8.54528331756592 10.0
endloop
endfacet
facet normal 0.0 0.0 1.0
outer loop
vertex 29.1370105743408 10.947359085083 10.0
vertex 28.9491081237793 8.54528331756592 10.0
vertex 29.2615222930908 8.82840538024902 10.0
endloop
endfacet
facet normal 0.0 0.0 1.0
outer loop
vertex 29.1370105743408 10.947359085083 10.0
vertex 29.2615222930908 8.82840538024902 10.0
vertex 29.871150970459 11.8277034759521 10.0
endloop
endfacet
facet normal 0.0 0.0 1.0
outer loop
vertex 29.871150970459 11.8277034759521 10.0
vertex 29.2615222930908 8.82840538024902 10.0
vertex 29.4968528747559 9.11571025848389 10.0
endloop
endfacet
facet normal 0.0 0.0 1.0
outer loop
vertex 29.871150970459 11.8277034759521 10.0
vertex 29.4968528747559 9.11571025848389 10.0
vertex 29.6730251312256 9.4152774810791 10.0
endloop
endfacet
facet normal 0.0 0.0 1.0
outer loop
vertex 29.871150970459 11.8277034759521 10.0
vertex 29.6730251312256 9.4152774810791 10.0
vertex 29.7987728118896 9.73989582061768 10.0
endloop
endfacet
facet normal 0.0 0.0 1.0
outer loop
vertex 29.871150970459 11.8277034759521 10.0
vertex 29.7987728118896 9.73989582061768 10.0
vertex 29.871150970459 10.0911998748779 10.0
endloop
endfacet
facet normal -1.0 0.0 0.0
outer loop
vertex 0.0 10.0911998748779 10.0
vertex 0.0 0.0 1.69406589450876e-18
vertex 0.0 0.0 10.0
endloop
endfacet
facet normal -1.0 0.0 0.0
outer loop
vertex 0.0 0.0 1.69406589450876e-18
vertex 0.0 10.0911998748779 10.0
vertex 0.0 10.0911998748779 1.69406589450876e-18
endloop
endfacet
facet normal 0.0 1.0 0.0
outer loop
vertex 2.83635783195496 2.94568276405334 10.0
vertex 33.4544105529785 2.94568276405334 1.69406589450876e-18
vertex 2.83635783195496 2.94568276405334 1.69406589450876e-18
endloop
endfacet
facet normal 0.0 1.0 0.0
outer loop
vertex 33.4544105529785 2.94568276405334 1.69406589450876e-18
vertex 2.83635783195496 2.94568276405334 10.0
vertex 23.4831711029922 2.94568276405334 3.51726272071113
endloop
endfacet
facet normal 0.0 1.0 0.0
outer loop
vertex 33.4544105529785 2.94568276405334 1.69406589450876e-18
vertex 23.4831711029922 2.94568276405334 3.51726272071113
vertex 23.8874185236115 2.94568276405334 3.4121732715613
endloop
endfacet
facet normal 0.0 1.0 0.0
outer loop
vertex 23.4831711029922 2.94568276405334 3.51726272071113
vertex 2.83635783195496 2.94568276405334 10.0
vertex 23.1198972300846 2.94568276405334 3.72339826510529
endloop
endfacet
facet normal 0.0 1.0 0.0
outer loop
vertex 23.1198972300846 2.94568276405334 3.72339826510529
vertex 2.83635783195496 2.94568276405334 10.0
vertex 22.8223534189888 2.94568276405334 4.0165321080484
endloop
endfacet
facet normal 0.0 1.0 0.0
outer loop
vertex 22.8223534189888 2.94568276405334 4.0165321080484
vertex 2.83635783195496 2.94568276405334 10.0
vertex 22.6108167887168 2.94568276405334 4.37668766257048
endloop
endfacet
facet normal 0.0 1.0 0.0
outer loop
vertex 22.6108167887168 2.94568276405334 4.37668766257048
vertex 2.83635783195496 2.94568276405334 10.0
vertex 22.4997032110406 2.94568276405334 4.77932092281604
endloop
endfacet
facet normal 0.0 1.0 0.0
outer loop
vertex 22.4997032110406 2.94568276405334 4.77932092281604
vertex 2.83635783195496 2.94568276405334 10.0
vertex 22.496584892655 2.94568276405334 5.19699309748227
endloop
endfacet
facet normal 0.0 1.0 0.0
outer loop
vertex 22.496584892655 2.94568276405334 5.19699309748227
vertex 2.83635783195496 2.94568276405334 10.0
vertex 22.6016743418049 2.94568276405334 5.60124051810157
endloop
endfacet
facet normal 0.0 1.0 0.0
outer loop
vertex 22.6016743418049 2.94568276405334 5.60124051810157
vertex 2.83635783195496 2.94568276405334 10.0
vertex 22.807809886199 2.94568276405334 5.96451439100918
endloop
endfacet
facet normal 0.0 1.0 0.0
outer loop
vertex 22.807809886199 2.94568276405334 5.96451439100918
vertex 2.83635783195496 2.94568276405334 10.0
vertex 23.1009437291422 2.94568276405334 6.26205820210491
endloop
endfacet
facet normal 0.0 1.0 0.0
outer loop
vertex 23.1009437291422 2.94568276405334 6.26205820210491
vertex 2.83635783195496 2.94568276405334 10.0
vertex 23.4610992836642 2.94568276405334 6.47359483237698
endloop
endfacet
facet normal 0.0 1.0 0.0
outer loop
vertex 23.4610992836642 2.94568276405334 6.47359483237698
vertex 2.83635783195496 2.94568276405334 10.0
vertex 23.8637325439098 2.94568276405334 6.58470841005317
endloop
endfacet
facet normal 0.0 1.0 0.0
outer loop
vertex 23.8637325439098 2.94568276405334 6.58470841005317
vertex 2.83635783195496 2.94568276405334 10.0
vertex 24.281404718576 2.94568276405334 6.5878267284387
endloop
endfacet
facet normal 0.0 1.0 0.0
outer loop
vertex 33.4544105529785 2.94568276405334 1.69406589450876e-18
vertex 25.0678795130453 2.94568276405334 3.73794179789509
vertex 33.4544105529785 2.94568276405334 10.0
endloop
endfacet
facet normal 0.0 1.0 0.0
outer loop
vertex 25.0678795130453 2.94568276405334 3.73794179789509
vertex 33.4544105529785 2.94568276405334 1.69406589450876e-18
vertex 24.7077239585233 2.94568276405334 3.52640516762301
endloop
endfacet
facet normal 0.0 1.0 0.0
outer loop
vertex 24.7077239585233 2.94568276405334 3.52640516762301
vertex 33.4544105529785 2.94568276405334 1.69406589450876e-18
vertex 24.3050906982777 2.94568276405334 3.41529158994683
endloop
endfacet
facet normal 0.0 1.0 0.0
outer loop
vertex 24.3050906982777 2.94568276405334 3.41529158994683
vertex 33.4544105529785 2.94568276405334 1.69406589450876e-18
vertex 23.8874185236115 2.94568276405334 3.4121732715613
endloop
endfacet
facet normal 0.0 1.0 0.0
outer loop
vertex 33.4544105529785 2.94568276405334 10.0
vertex 25.0678795130453 2.94568276405334 3.73794179789509
vertex 25.3610133559885 2.94568276405334 4.03548560899082
endloop
endfacet
facet normal 0.0 1.0 0.0
outer loop
vertex 33.4544105529785 2.94568276405334 10.0
vertex 25.3610133559885 2.94568276405334 4.03548560899082
vertex 25.5671489003826 2.94568276405334 4.39875948189843
endloop
endfacet
facet normal 0.0 1.0 0.0
outer loop
vertex 33.4544105529785 2.94568276405334 10.0
vertex 25.5671489003826 2.94568276405334 4.39875948189843
vertex 25.6722383495324 2.94568276405334 4.80300690251773
endloop
endfacet
facet normal 0.0 1.0 0.0
outer loop
vertex 33.4544105529785 2.94568276405334 10.0
vertex 25.6722383495324 2.94568276405334 4.80300690251773
vertex 25.6691200311469 2.94568276405334 5.22067907718396
endloop
endfacet
facet normal 0.0 1.0 0.0
outer loop
vertex 33.4544105529785 2.94568276405334 10.0
vertex 25.6691200311469 2.94568276405334 5.22067907718396
vertex 25.5580064534707 2.94568276405334 5.62331233742952
endloop
endfacet
facet normal 0.0 1.0 0.0
outer loop
vertex 33.4544105529785 2.94568276405334 10.0
vertex 25.5580064534707 2.94568276405334 5.62331233742952
vertex 25.3464698231987 2.94568276405334 5.9834678919516
endloop
endfacet
facet normal 0.0 1.0 0.0
outer loop
vertex 33.4544105529785 2.94568276405334 10.0
vertex 25.3464698231987 2.94568276405334 5.9834678919516
vertex 25.0489260121029 2.94568276405334 6.27660173489471
endloop
endfacet
facet normal 0.0 1.0 0.0
outer loop
vertex 33.4544105529785 2.94568276405334 10.0
vertex 25.0489260121029 2.94568276405334 6.27660173489471
vertex 24.6856521391953 2.94568276405334 6.48273727928887
endloop
endfacet
facet normal 0.0 1.0 0.0
outer loop
vertex 33.4544105529785 2.94568276405334 10.0
vertex 24.6856521391953 2.94568276405334 6.48273727928887
vertex 24.281404718576 2.94568276405334 6.5878267284387
endloop
endfacet
facet normal 0.0 1.0 0.0
outer loop
vertex 33.4544105529785 2.94568276405334 10.0
vertex 24.281404718576 2.94568276405334 6.5878267284387
vertex 2.83635783195496 2.94568276405334 10.0
endloop
endfacet
facet normal 0.302687727409635 0.95308978573668 0.0
outer loop
vertex 23.1393604278564 9.15904998779297 10.0
vertex 23.8321266174316 8.93903732299805 1.69406589450876e-18
vertex 23.1393604278564 9.15904998779297 1.69406589450876e-18
endloop
endfacet
facet normal 0.302687727409635 0.95308978573668 0.0
outer loop
vertex 23.8321266174316 8.93903732299805 1.69406589450876e-18
vertex 23.1393604278564 9.15904998779297 10.0
vertex 23.8321266174316 8.93903732299805 10.0
endloop
endfacet
facet normal -0.0085332342773239 -0.999963591293587 -1.58059835874768e-20
outer loop
vertex 25.1265411376953 7.43294525146484 3.47114101784812e-15
vertex 24.2169036865234 7.44070768356323 10.0
vertex 24.2169036865234 7.44070768356323 1.73641754187132e-15
endloop
endfacet
facet normal -0.0085332342773239 -0.999963591293587 -1.58059835874768e-20
outer loop
vertex 24.2169036865234 7.44070768356323 10.0
vertex 25.1265411376953 7.43294525146484 3.47114101784812e-15
vertex 25.1265411376953 7.43294525146484 10.0
endloop
endfacet
facet normal -0.103017692762434 0.994679523755217 -5.96442840023191e-20
outer loop
vertex 25.1381282806396 8.78909587860107 10.0
vertex 25.7737102508545 8.8549222946167 1.69406589450876e-18
vertex 25.1381282806396 8.78909587860107 -1.7330294100823e-15
endloop
endfacet
facet normal -0.103017692762434 0.994679523755217 -5.96442840023191e-20
outer loop
vertex 25.7737102508545 8.8549222946167 1.69406589450876e-18
vertex 25.1381282806396 8.78909587860107 10.0
vertex 25.7737102508545 8.8549222946167 10.0
endloop
endfacet
facet normal -0.106575984131515 -0.994304560789298 0.0
outer loop
vertex 24.2169036865234 7.44070768356323 10.0
vertex 23.5372848510742 7.51355361938476 1.73641754187132e-15
vertex 24.2169036865234 7.44070768356323 1.73641754187132e-15
endloop
endfacet
facet normal -0.106575984131515 -0.994304560789298 0.0
outer loop
vertex 23.5372848510742 7.51355361938476 1.73641754187132e-15
vertex 24.2169036865234 7.44070768356323 10.0
vertex 23.5372848510742 7.51355361938476 10.0
endloop
endfacet
facet normal 0.773610172340625 -0.633661819309882 -4.9490598351959e-19
outer loop
vertex 29.4968528747559 9.11571025848389 1.73641754187132e-15
vertex 29.2615222930908 8.82840538024902 10.0
vertex 29.2615222930908 8.82840538024902 3.47114101784812e-15
endloop
endfacet
facet normal 0.773610172340625 -0.633661819309882 -4.9490598351959e-19
outer loop
vertex 29.2615222930908 8.82840538024902 10.0
vertex 29.4968528747559 9.11571025848389 1.73641754187132e-15
vertex 29.4968528747559 9.11571025848389 10.0
endloop
endfacet
facet normal 1.80120430258197e-17 -6.23604588494512e-17 -1.0
outer loop
vertex 3.63184142112732 12.9727792739868 1.69406589450876e-18
vertex 2.83635783195496 10.0911998748779 1.73641754187132e-15
vertex 2.18978524208069 11.9019794464111 1.73641754187132e-15
endloop
endfacet
facet normal 1.80120430258197e-17 -6.23604588494512e-17 -1.0
outer loop
vertex 2.83635783195496 10.0911998748779 1.73641754187132e-15
vertex 3.63184142112732 12.9727792739868 1.69406589450876e-18
vertex 4.49487209320068 11.1899175643921 3.47114101784812e-15
endloop
endfacet
facet normal 1.80120430258197e-17 -6.23604588494512e-17 -1.0
outer loop
vertex 4.49487209320068 11.1899175643921 3.47114101784812e-15
vertex 3.63184142112732 12.9727792739868 1.69406589450876e-18
vertex 4.93127870559692 13.8340101242065 1.69406589450876e-18
endloop
endfacet
facet normal 1.80120430258197e-17 -6.23604588494512e-17 -1.0
outer loop
vertex 4.49487209320068 11.1899175643921 3.47114101784812e-15
vertex 4.93127870559692 13.8340101242065 1.69406589450876e-18
vertex 5.92341279983521 12.0524806976318 1.73641754187132e-15
endloop
endfacet
facet normal 1.80120430258197e-17 -6.23604588494512e-17 -1.0
outer loop
vertex 5.92341279983521 12.0524806976318 1.73641754187132e-15
vertex 4.93127870559692 13.8340101242065 1.69406589450876e-18
vertex 6.11530637741089 14.5169525146484 -1.7330294100823e-15
endloop
endfacet
facet normal 1.80120430258197e-17 -6.23604588494512e-17 -1.0
outer loop
vertex 5.92341279983521 12.0524806976318 1.73641754187132e-15
vertex 6.11530637741089 14.5169525146484 -1.7330294100823e-15
vertex 7.1606559753418 12.7113151550293 1.73641754187132e-15
endloop
endfacet
facet normal 1.80120430258197e-17 -6.23604588494512e-17 -1.0
outer loop
vertex 7.1606559753418 12.7113151550293 1.73641754187132e-15
vertex 6.11530637741089 14.5169525146484 -1.7330294100823e-15
vertex 7.20596694946289 15.0461692810059 -1.7330294100823e-15
endloop
endfacet
facet normal 1.80120430258197e-17 -6.23604588494512e-17 -1.0
outer loop
vertex 7.1606559753418 12.7113151550293 1.73641754187132e-15
vertex 7.20596694946289 15.0461692810059 -1.7330294100823e-15
vertex 8.25718021392822 13.2054271697998 1.69406589450876e-18
endloop
endfacet
facet normal 1.80120430258197e-17 -6.23604588494512e-17 -1.0
outer loop
vertex 8.25718021392822 13.2054271697998 1.69406589450876e-18
vertex 7.20596694946289 15.0461692810059 -1.7330294100823e-15
vertex 8.2218017578125 15.4408874511719 1.69406589450876e-18
endloop
endfacet
facet normal 1.80120430258197e-17 -6.23604588494512e-17 -1.0
outer loop
vertex 8.25718021392822 13.2054271697998 1.69406589450876e-18
vertex 8.2218017578125 15.4408874511719 1.69406589450876e-18
vertex 9.17895698547363 15.7157850265503 1.69406589450876e-18
endloop
endfacet
facet normal 1.80120430258197e-17 -6.23604588494512e-17 -1.0
outer loop
vertex 8.25718021392822 13.2054271697998 1.69406589450876e-18
vertex 9.17895698547363 15.7157850265503 1.69406589450876e-18
vertex 9.26932716369629 13.5682334899902 3.47114101784812e-15
endloop
endfacet
facet normal 1.80120430258197e-17 -6.23604588494512e-17 -1.0
outer loop
vertex 9.26932716369629 13.5682334899902 3.47114101784812e-15
vertex 9.17895698547363 15.7157850265503 1.69406589450876e-18
vertex 10.0919885635376 15.8813724517822 1.69406589450876e-18
endloop
endfacet
facet normal 1.80120430258197e-17 -6.23604588494512e-17 -1.0
outer loop
vertex 9.26932716369629 13.5682334899902 3.47114101784812e-15
vertex 10.0919885635376 15.8813724517822 1.69406589450876e-18
vertex 9.59614658355713 13.6632738113403 1.73641754187132e-15
endloop
endfacet
facet normal 1.80120430258197e-17 -6.23604588494512e-17 -1.0
outer loop
vertex 9.59614658355713 13.6632738113403 1.73641754187132e-15
vertex 10.0919885635376 15.8813724517822 1.69406589450876e-18
vertex 10.4905405044556 13.8610944747925 1.69406589450876e-18
endloop
endfacet
facet normal 1.80120430258197e-17 -6.23604588494512e-17 -1.0
outer loop
vertex 10.4905405044556 13.8610944747925 1.69406589450876e-18
vertex 10.0919885635376 15.8813724517822 1.69406589450876e-18
vertex 10.9744262695312 15.9441061019897 1.69406589450876e-18
endloop
endfacet
facet normal 1.80120430258197e-17 -6.23604588494512e-17 -1.0
outer loop
vertex 10.4905405044556 13.8610944747925 1.69406589450876e-18
vertex 10.9744262695312 15.9441061019897 1.69406589450876e-18
vertex 11.3375797271729 13.9555234909058 1.73641754187132e-15
endloop
endfacet
facet normal 1.80120430258197e-17 -6.23604588494512e-17 -1.0
outer loop
vertex 11.3375797271729 13.9555234909058 1.73641754187132e-15
vertex 10.9744262695312 15.9441061019897 1.69406589450876e-18
vertex 11.8386278152466 15.9063653945923 1.69406589450876e-18
endloop
endfacet
facet normal 1.80120430258197e-17 -6.23604588494512e-17 -1.0
outer loop
vertex 11.3375797271729 13.9555234909058 1.73641754187132e-15
vertex 11.8386278152466 15.9063653945923 1.69406589450876e-18
vertex 12.155270576477 13.9514055252075 1.73641754187132e-15
endloop
endfacet
facet normal 1.80120430258197e-17 -6.23604588494512e-17 -1.0
outer loop
vertex 12.155270576477 13.9514055252075 1.73641754187132e-15
vertex 11.8386278152466 15.9063653945923 1.69406589450876e-18
vertex 12.6903057098389 15.767879486084 1.69406589450876e-18
endloop
endfacet
facet normal 1.80120430258197e-17 -6.23604588494512e-17 -1.0
outer loop
vertex 12.155270576477 13.9514055252075 1.73641754187132e-15
vertex 12.6903057098389 15.767879486084 1.69406589450876e-18
vertex 12.9600763320923 13.8482904434204 1.69406589450876e-18
endloop
endfacet
facet normal 1.80120430258197e-17 -6.23604588494512e-17 -1.0
outer loop
vertex 12.9600763320923 13.8482904434204 1.69406589450876e-18
vertex 12.6903057098389 15.767879486084 1.69406589450876e-18
vertex 13.5552606582642 15.5201730728149 1.69406589450876e-18
endloop
endfacet
facet normal 1.80120430258197e-17 -6.23604588494512e-17 -1.0
outer loop
vertex 12.9600763320923 13.8482904434204 1.69406589450876e-18
vertex 13.5552606582642 15.5201730728149 1.69406589450876e-18
vertex 13.7677488327026 13.6401891708374 1.73641754187132e-15
endloop
endfacet
facet normal 1.80120430258197e-17 -6.23604588494512e-17 -1.0
outer loop
vertex 13.7677488327026 13.6401891708374 1.73641754187132e-15
vertex 13.5552606582642 15.5201730728149 1.69406589450876e-18
vertex 14.4385290145874 15.1531038284302 1.69406589450876e-18
endloop
endfacet
facet normal 1.80120430258197e-17 -6.23604588494512e-17 -1.0
outer loop
vertex 13.7677488327026 13.6401891708374 1.73641754187132e-15
vertex 14.4385290145874 15.1531038284302 1.69406589450876e-18
vertex 14.5976819992065 13.3134069442749 1.69406589450876e-18
endloop
endfacet
facet normal 1.80120430258197e-17 -6.23604588494512e-17 -1.0
outer loop
vertex 14.5976819992065 13.3134069442749 1.69406589450876e-18
vertex 14.4385290145874 15.1531038284302 1.69406589450876e-18
vertex 15.268536567688 14.702241897583 -1.7330294100823e-15
endloop
endfacet
facet normal 1.80120430258197e-17 -6.23604588494512e-17 -1.0
outer loop
vertex 14.5976819992065 13.3134069442749 1.69406589450876e-18
vertex 15.268536567688 14.702241897583 -1.7330294100823e-15
vertex 15.4452991485596 12.8608846664429 1.73641754187132e-15
endloop
endfacet
facet normal 1.80120430258197e-17 -6.23604588494512e-17 -1.0
outer loop
vertex 15.4452991485596 12.8608846664429 1.73641754187132e-15
vertex 15.268536567688 14.702241897583 -1.7330294100823e-15
vertex 16.1576366424561 14.1153879165649 1.69406589450876e-18
endloop
endfacet
facet normal 1.80120430258197e-17 -6.23604588494512e-17 -1.0
outer loop
vertex 15.4452991485596 12.8608846664429 1.73641754187132e-15
vertex 16.1576366424561 14.1153879165649 1.69406589450876e-18
vertex 16.3163986206055 12.2870388031006 1.73641754187132e-15
endloop
endfacet
facet normal 1.80120430258197e-17 -6.23604588494512e-17 -1.0
outer loop
vertex 16.3163986206055 12.2870388031006 1.73641754187132e-15
vertex 16.1576366424561 14.1153879165649 1.69406589450876e-18
vertex 17.4752578735352 13.1091299057007 1.69406589450876e-18
endloop
endfacet
facet normal 1.80120430258197e-17 -6.23604588494512e-17 -1.0
outer loop
vertex 16.3163986206055 12.2870388031006 1.73641754187132e-15
vertex 17.4752578735352 13.1091299057007 1.69406589450876e-18
vertex 17.2318267822266 11.5997686386108 1.73641754187132e-15
endloop
endfacet
facet normal 1.80120430258197e-17 -6.23604588494512e-17 -1.0
outer loop
vertex 17.2318267822266 11.5997686386108 1.73641754187132e-15
vertex 17.4752578735352 13.1091299057007 1.69406589450876e-18
vertex 19.6365489959717 9.64675235748291 3.47114101784812e-15
endloop
endfacet
facet normal 1.80120430258197e-17 -6.23604588494512e-17 -1.0
outer loop
vertex 19.6365489959717 9.64675235748291 3.47114101784812e-15
vertex 17.4752578735352 13.1091299057007 1.69406589450876e-18
vertex 19.5637645721436 11.404393196106 1.73641754187132e-15
endloop
endfacet
facet normal 1.80120430258197e-17 -6.23604588494512e-17 -1.0
outer loop
vertex 19.6365489959717 9.64675235748291 3.47114101784812e-15
vertex 19.5637645721436 11.404393196106 1.73641754187132e-15
vertex 20.7885341644287 10.4767580032349 1.69406589450876e-18
endloop
endfacet
facet normal 1.80120430258197e-17 -6.23604588494512e-17 -1.0
outer loop
vertex 19.6365489959717 9.64675235748291 3.47114101784812e-15
vertex 20.7885341644287 10.4767580032349 1.69406589450876e-18
vertex 20.7760601043701 8.79048824310303 1.73641754187132e-15
endloop
endfacet
facet normal 1.80120430258197e-17 -6.23604588494512e-17 -1.0
outer loop
vertex 20.7760601043701 8.79048824310303 1.73641754187132e-15
vertex 20.7885341644287 10.4767580032349 1.69406589450876e-18
vertex 21.562837600708 8.28175830841064 1.73641754187132e-15
endloop
endfacet
facet normal 1.80120430258197e-17 -6.23604588494512e-17 -1.0
outer loop
vertex 21.562837600708 8.28175830841064 1.73641754187132e-15
vertex 20.7885341644287 10.4767580032349 1.69406589450876e-18
vertex 21.6644706726074 9.89806938171387 1.69406589450876e-18
endloop
endfacet
facet normal 1.80120430258197e-17 -6.23604588494512e-17 -1.0
outer loop
vertex 21.562837600708 8.28175830841064 1.73641754187132e-15
vertex 21.6644706726074 9.89806938171387 1.69406589450876e-18
vertex 22.2487716674805 7.91900396347046 1.73641754187132e-15
endloop
endfacet
facet normal 1.80120430258197e-17 -6.23604588494512e-17 -1.0
outer loop
vertex 22.2487716674805 7.91900396347046 1.73641754187132e-15
vertex 21.6644706726074 9.89806938171387 1.69406589450876e-18
vertex 22.4605388641357 9.45734119415283 1.69406589450876e-18
endloop
endfacet
facet normal 1.80120430258197e-17 -6.23604588494512e-17 -1.0
outer loop
vertex 22.2487716674805 7.91900396347046 1.73641754187132e-15
vertex 22.4605388641357 9.45734119415283 1.69406589450876e-18
vertex 22.9185047149658 7.65883731842041 1.73641754187132e-15
endloop
endfacet
facet normal 1.80120430258197e-17 -6.23604588494512e-17 -1.0
outer loop
vertex 22.9185047149658 7.65883731842041 1.73641754187132e-15
vertex 22.4605388641357 9.45734119415283 1.69406589450876e-18
vertex 23.1393604278564 9.15904998779297 1.69406589450876e-18
endloop
endfacet
facet normal 1.80120430258197e-17 -6.23604588494512e-17 -1.0
outer loop
vertex 22.9185047149658 7.65883731842041 1.73641754187132e-15
vertex 23.1393604278564 9.15904998779297 1.69406589450876e-18
vertex 23.5372848510742 7.51355361938476 1.73641754187132e-15
endloop
endfacet
facet normal 1.80120430258197e-17 -6.23604588494512e-17 -1.0
outer loop
vertex 23.5372848510742 7.51355361938476 1.73641754187132e-15
vertex 23.1393604278564 9.15904998779297 1.69406589450876e-18
vertex 23.8321266174316 8.93903732299805 1.69406589450876e-18
endloop
endfacet
facet normal 1.80120430258197e-17 -6.23604588494512e-17 -1.0
outer loop
vertex 23.5372848510742 7.51355361938476 1.73641754187132e-15
vertex 23.8321266174316 8.93903732299805 1.69406589450876e-18
vertex 24.2169036865234 7.44070768356323 1.73641754187132e-15
endloop
endfacet
facet normal 1.80120430258197e-17 -6.23604588494512e-17 -1.0
outer loop
vertex 24.2169036865234 7.44070768356323 1.73641754187132e-15
vertex 23.8321266174316 8.93903732299805 1.69406589450876e-18
vertex 24.4944610595703 8.8172082901001 1.69406589450876e-18
endloop
endfacet
facet normal 1.80120430258197e-17 -6.23604588494512e-17 -1.0
outer loop
vertex 24.2169036865234 7.44070768356323 1.73641754187132e-15
vertex 24.4944610595703 8.8172082901001 1.69406589450876e-18
vertex 25.1265411376953 7.43294525146484 3.47114101784812e-15
endloop
endfacet
facet normal 1.80120430258197e-17 -6.23604588494512e-17 -1.0
outer loop
vertex 25.1265411376953 7.43294525146484 3.47114101784812e-15
vertex 24.4944610595703 8.8172082901001 1.69406589450876e-18
vertex 25.1381282806396 8.78909587860107 -1.7330294100823e-15
endloop
endfacet
facet normal 1.80120430258197e-17 -6.23604588494512e-17 -1.0
outer loop
vertex 25.1265411376953 7.43294525146484 3.47114101784812e-15
vertex 25.1381282806396 8.78909587860107 -1.7330294100823e-15
vertex 25.4913749694824 7.45155191421509 3.47114101784812e-15
endloop
endfacet
facet normal 1.80120430258197e-17 -6.23604588494512e-17 -1.0
outer loop
vertex 25.4913749694824 7.45155191421509 3.47114101784812e-15
vertex 25.1381282806396 8.78909587860107 -1.7330294100823e-15
vertex 25.7737102508545 8.8549222946167 1.69406589450876e-18
endloop
endfacet
facet normal 1.80120430258197e-17 -6.23604588494512e-17 -1.0
outer loop
vertex 25.4913749694824 7.45155191421509 3.47114101784812e-15
vertex 25.7737102508545 8.8549222946167 1.69406589450876e-18
vertex 26.4133853912354 7.55789136886597 1.73641754187132e-15
endloop
endfacet
facet normal 1.80120430258197e-17 -6.23604588494512e-17 -1.0
outer loop
vertex 26.4133853912354 7.55789136886597 1.73641754187132e-15
vertex 25.7737102508545 8.8549222946167 1.69406589450876e-18
vertex 26.4159412384033 9.02149963378906 -3.46775288605911e-15
endloop
endfacet
facet normal 1.80120430258197e-17 -6.23604588494512e-17 -1.0
outer loop
vertex 26.4133853912354 7.55789136886597 1.73641754187132e-15
vertex 26.4159412384033 9.02149963378906 -3.46775288605911e-15
vertex 27.2279090881348 7.73476886749268 3.47114101784812e-15
endloop
endfacet
facet normal 1.80120430258197e-17 -6.23604588494512e-17 -1.0
outer loop
vertex 27.2279090881348 7.73476886749268 3.47114101784812e-15
vertex 26.4159412384033 9.02149963378906 -3.46775288605911e-15
vertex 27.063627243042 9.29643726348877 1.69406589450876e-18
endloop
endfacet
facet normal 1.80120430258197e-17 -6.23604588494512e-17 -1.0
outer loop
vertex 27.2279090881348 7.73476886749268 3.47114101784812e-15
vertex 27.063627243042 9.29643726348877 1.69406589450876e-18
vertex 27.7290725708008 9.6954870223999 1.73641754187132e-15
endloop
endfacet
facet normal 1.80120430258197e-17 -6.23604588494512e-17 -1.0
outer loop
vertex 27.2279090881348 7.73476886749268 3.47114101784812e-15
vertex 27.7290725708008 9.6954870223999 1.73641754187132e-15
vertex 27.9214515686035 7.96715068817139 1.73641754187132e-15
endloop
endfacet
facet normal 1.80120430258197e-17 -6.23604588494512e-17 -1.0
outer loop
vertex 27.9214515686035 7.96715068817139 1.73641754187132e-15
vertex 27.7290725708008 9.6954870223999 1.73641754187132e-15
vertex 28.4185218811035 10.2380094528198 1.69406589450876e-18
endloop
endfacet
facet normal 1.80120430258197e-17 -6.23604588494512e-17 -1.0
outer loop
vertex 27.9214515686035 7.96715068817139 1.73641754187132e-15
vertex 28.4185218811035 10.2380094528198 1.69406589450876e-18
vertex 28.5303115844727 8.26265430450439 3.47114101784812e-15
endloop
endfacet
facet normal 1.80120430258197e-17 -6.23604588494512e-17 -1.0
outer loop
vertex 28.5303115844727 8.26265430450439 3.47114101784812e-15
vertex 28.4185218811035 10.2380094528198 1.69406589450876e-18
vertex 29.1370105743408 10.947359085083 1.69406589450876e-18
endloop
endfacet
facet normal 1.80120430258197e-17 -6.23604588494512e-17 -1.0
outer loop
vertex 28.5303115844727 8.26265430450439 3.47114101784812e-15
vertex 29.1370105743408 10.947359085083 1.69406589450876e-18
vertex 28.9491081237793 8.54528331756592 3.47114101784812e-15
endloop
endfacet
facet normal 1.80120430258197e-17 -6.23604588494512e-17 -1.0
outer loop
vertex 28.9491081237793 8.54528331756592 3.47114101784812e-15
vertex 29.1370105743408 10.947359085083 1.69406589450876e-18
vertex 29.2615222930908 8.82840538024902 3.47114101784812e-15
endloop
endfacet
facet normal 1.80120430258197e-17 -6.23604588494512e-17 -1.0
outer loop
vertex 29.2615222930908 8.82840538024902 3.47114101784812e-15
vertex 29.1370105743408 10.947359085083 1.69406589450876e-18
vertex 29.871150970459 11.8277034759521 1.69406589450876e-18
endloop
endfacet
facet normal 1.80120430258197e-17 -6.23604588494512e-17 -1.0
outer loop
vertex 29.2615222930908 8.82840538024902 3.47114101784812e-15
vertex 29.871150970459 11.8277034759521 1.69406589450876e-18
vertex 29.4968528747559 9.11571025848389 1.73641754187132e-15
endloop
endfacet
facet normal 1.80120430258197e-17 -6.23604588494512e-17 -1.0
outer loop
vertex 29.4968528747559 9.11571025848389 1.73641754187132e-15
vertex 29.871150970459 11.8277034759521 1.69406589450876e-18
vertex 29.6730251312256 9.4152774810791 1.73641754187132e-15
endloop
endfacet
facet normal 1.80120430258197e-17 -6.23604588494512e-17 -1.0
outer loop
vertex 29.6730251312256 9.4152774810791 1.73641754187132e-15
vertex 29.871150970459 11.8277034759521 1.69406589450876e-18
vertex 29.7987728118896 9.73989582061768 1.73641754187132e-15
endloop
endfacet
facet normal 1.80120430258197e-17 -6.23604588494512e-17 -1.0
outer loop
vertex 29.7987728118896 9.73989582061768 1.73641754187132e-15
vertex 29.871150970459 11.8277034759521 1.69406589450876e-18
vertex 29.871150970459 10.0911998748779 1.73641754187132e-15
endloop
endfacet
facet normal 1.80120430258197e-17 -6.23604588494512e-17 -1.0
outer loop
vertex 0.570274889469147 10.5812788009644 1.69406589450876e-18
vertex 0.0 0.0 1.69406589450876e-18
vertex 0.0 10.0911998748779 1.69406589450876e-18
endloop
endfacet
facet normal 1.80120430258197e-17 -6.23604588494512e-17 -1.0
outer loop
vertex 0.0 0.0 1.69406589450876e-18
vertex 0.570274889469147 10.5812788009644 1.69406589450876e-18
vertex 2.83635783195496 2.94568276405334 1.69406589450876e-18
endloop
endfacet
facet normal 1.80120430258197e-17 -6.23604588494512e-17 -1.0
outer loop
vertex 0.0 0.0 1.69406589450876e-18
vertex 2.83635783195496 2.94568276405334 1.69406589450876e-18
vertex 33.4544105529785 0.0 1.69406589450876e-18
endloop
endfacet
facet normal 1.80120430258197e-17 -6.23604588494512e-17 -1.0
outer loop
vertex 2.83635783195496 2.94568276405334 1.69406589450876e-18
vertex 0.570274889469147 10.5812788009644 1.69406589450876e-18
vertex 2.18978524208069 11.9019794464111 1.73641754187132e-15
endloop
endfacet
facet normal 1.80120430258197e-17 -6.23604588494512e-17 -1.0
outer loop
vertex 2.83635783195496 2.94568276405334 1.69406589450876e-18
vertex 2.18978524208069 11.9019794464111 1.73641754187132e-15
vertex 2.83635783195496 10.0911998748779 1.73641754187132e-15
endloop
endfacet
facet normal 1.80120430258197e-17 -6.23604588494512e-17 -1.0
outer loop
vertex 33.4544105529785 0.0 1.69406589450876e-18
vertex 2.83635783195496 2.94568276405334 1.69406589450876e-18
vertex 33.4544105529785 2.94568276405334 1.69406589450876e-18
endloop
endfacet
facet normal 0.470016848192876 -0.882657443414394 0.0
outer loop
vertex 7.1606559753418 12.7113151550293 10.0
vertex 5.92341279983521 12.0524806976318 1.73641754187132e-15
vertex 7.1606559753418 12.7113151550293 1.73641754187132e-15
endloop
endfacet
facet normal 0.470016848192876 -0.882657443414394 0.0
outer loop
vertex 5.92341279983521 12.0524806976318 1.73641754187132e-15
vertex 7.1606559753418 12.7113151550293 10.0
vertex 5.92341279983521 12.0524806976318 10.0
endloop
endfacet
endsolid 100Clip12
